<svg width="202" height="101" viewBox="0 0 202 101" fill="none" xmlns="http://www.w3.org/2000/svg">
<path fill-rule="evenodd" clip-rule="evenodd" d="M147.586 29.9384C146.705 29.3254 145.823 28.7862 145.051 28.3199C140.932 25.8312 136.358 24.3108 131.607 23.7056C129.254 23.4045 126.817 23.2539 124.298 23.2539C119.646 23.2539 115.477 23.9063 111.789 25.2083C108.101 26.5102 104.903 28.4321 102.195 30.9651C99.487 33.5011 97.458 36.4681 96.1141 39.8661C94.8052 43.1608 94.1376 46.7713 94.0997 50.689H94.0968V50.8189H94.0997C94.1376 54.7365 94.8052 58.347 96.1141 61.6417C97.4609 65.0397 99.487 68.0067 102.195 70.5427C104.903 73.0786 108.101 75.0005 111.789 76.2995C115.477 77.6015 119.643 78.2539 124.298 78.2539C126.817 78.2539 129.254 78.1033 131.601 77.8081C136.353 77.2029 140.926 75.6825 145.046 73.1938C145.819 72.7265 146.703 72.1859 147.586 71.5712C148.47 72.1859 149.354 72.7265 150.127 73.1938C154.246 75.6825 158.82 77.2029 163.572 77.8081C165.918 78.1033 168.356 78.2539 170.874 78.2539C175.53 78.2539 179.696 77.6015 183.383 76.2995C187.071 75.0005 190.269 73.0786 192.977 70.5427C195.685 68.0067 197.712 65.0397 199.058 61.6417C200.367 58.347 201.035 54.7365 201.073 50.8189H201.076V50.689H201.073C201.035 46.7713 200.367 43.1608 199.058 39.8661C197.714 36.4681 195.685 33.5011 192.977 30.9651C190.269 28.4321 187.071 26.5102 183.383 25.2083C179.696 23.9063 175.527 23.2539 170.874 23.2539C168.356 23.2539 165.918 23.4045 163.566 23.7056C158.814 24.3108 154.24 25.8312 150.121 28.3199C149.349 28.7862 148.468 29.3254 147.586 29.9384ZM127.307 35.9042C124.094 35.9042 121.208 36.5744 118.654 37.9117L118.649 37.9176C116.092 39.2579 114.095 41.0617 112.655 43.335C111.229 45.5846 110.512 48.0615 110.501 50.7598C110.512 53.4581 111.229 55.9351 112.655 58.1847C114.095 60.4579 116.092 62.2617 118.649 63.602C121.202 64.9394 124.088 65.6095 127.301 65.6095C129.895 65.6095 132.353 65.2907 134.665 64.653C136.979 64.0183 138.924 63.3097 140.507 62.5274C141.53 62.0226 143.568 60.8387 144.524 60.2778C144.617 60.2132 144.714 60.1596 144.812 60.1055C144.847 60.0856 144.884 60.0652 144.92 60.0446C144.999 59.9973 145.046 59.9708 145.049 59.9767C145.798 59.5781 146.611 59.3567 147.436 59.3567C147.461 59.3567 147.485 59.3569 147.51 59.3572C147.535 59.3576 147.561 59.3582 147.586 59.3589C147.636 59.3574 147.686 59.3567 147.736 59.3567C148.561 59.3567 149.375 59.5781 150.124 59.9767C150.127 59.9708 150.173 59.9973 150.252 60.0446C150.288 60.0653 150.325 60.0854 150.361 60.1055C150.458 60.1595 150.555 60.2132 150.649 60.2778C151.605 60.8387 153.643 62.0226 154.666 62.5274C156.249 63.3097 158.193 64.0183 160.508 64.653C162.82 65.2907 165.277 65.6095 167.872 65.6095C171.084 65.6095 173.97 64.9394 176.524 63.602C179.081 62.2617 181.077 60.4579 182.518 58.1847C183.943 55.9351 184.66 53.4581 184.672 50.7598C184.66 48.0615 183.943 45.5846 182.518 43.335C181.077 41.0617 179.081 39.2579 176.524 37.9176L176.518 37.9117C173.964 36.5744 171.078 35.9042 167.866 35.9042C165.271 35.9042 162.814 36.223 160.502 36.8607C158.187 37.4984 156.243 38.2069 154.66 38.9863C153.637 39.4912 151.599 40.675 150.643 41.2359C150.549 41.3005 150.453 41.3541 150.355 41.4082L150.306 41.4353C150.286 41.4464 150.266 41.4577 150.246 41.4691C150.223 41.4824 150.202 41.4943 150.185 41.5044C150.145 41.5279 150.122 41.5412 150.118 41.5371C149.372 41.9356 148.556 42.157 147.731 42.157C147.682 42.157 147.634 42.1563 147.586 42.155C147.538 42.1563 147.49 42.157 147.442 42.157C146.617 42.157 145.801 41.9356 145.054 41.5371C145.05 41.5412 145.028 41.5279 144.987 41.5044L144.964 41.4907C144.952 41.4841 144.94 41.4768 144.926 41.4691L144.884 41.4452L144.817 41.4083C144.72 41.3542 144.623 41.3005 144.53 41.2359C143.573 40.675 141.536 39.4912 140.512 38.9863C138.93 38.2069 136.985 37.4984 134.67 36.8607C132.359 36.223 129.901 35.9042 127.307 35.9042Z" fill="#363738"/>
<path d="M31.3297 28.8515C31.423 28.8515 31.4755 28.9076 31.4755 28.9991V39.7069C31.4755 39.8013 31.4201 39.8545 31.3297 39.8545H29.5631C29.4698 39.8545 29.4348 39.7984 29.4348 39.7069V30.9004H21.383C21.3102 30.9004 21.2344 30.8443 21.2344 30.7528V29.0021C21.2344 28.9076 21.3073 28.8545 21.383 28.8545H31.3297V28.8515Z" fill="#363738"/>
<path d="M21.6396 39.8574C21.5667 39.8574 21.5113 39.8013 21.5113 39.7098V34.4017C21.5113 34.3633 21.5288 34.3279 21.5492 34.3072L22.2838 33.5426C22.3217 33.4865 22.3946 33.4688 22.45 33.4688H23.4441C23.517 33.4688 23.5724 33.5249 23.5724 33.6164V39.7069C23.5724 39.8013 23.517 39.8545 23.4441 39.8545H21.6396V39.8574Z" fill="#363738"/>
<path d="M36.2185 35.4763C36.2564 35.4763 36.2914 35.4586 36.3293 35.4202L36.8627 34.9184C36.9006 34.88 36.9181 34.8446 36.9181 34.8062V28.9814C36.9181 28.9076 36.8627 28.8515 36.7899 28.8515H34.8396C34.7463 28.8515 34.6909 28.9076 34.6909 28.9814V35.3287C34.6909 35.4202 34.7463 35.4763 34.8396 35.4763H36.2185Z" fill="#363738"/>
<path d="M49.4215 28.8526C49.5148 28.8526 49.5497 28.9087 49.5497 28.9825V30.5265C49.5497 30.5649 49.5323 30.6387 49.4944 30.7303L45.8183 39.6873C45.7804 39.7995 45.69 39.8556 45.5793 39.8556H43.7398C43.594 39.8556 43.5386 39.7434 43.6115 39.5958L47.1593 30.8985H39.915C39.8421 30.8985 39.7693 30.8424 39.7693 30.7509V25.9063C39.7693 25.8118 39.8247 25.7764 39.915 25.7764H41.6787C41.7516 25.7764 41.807 25.8148 41.807 25.9063V28.7227C41.807 28.7965 41.8624 28.8526 41.9353 28.8526H49.4215Z" fill="#363738"/>
<path d="M61.8897 38.5706C61.8897 38.4968 61.8518 38.4024 61.7964 38.3286V38.3315L59.8112 35.9668L61.4291 34.346C61.4641 34.2899 61.502 34.2161 61.502 34.1216V28.9818C61.502 28.908 61.4466 28.8519 61.3737 28.8519H59.5896C59.5167 28.8519 59.4614 28.908 59.4614 28.9818V33.6552L58.6334 34.4936L54.0187 28.9641C53.9633 28.8903 53.8525 28.8342 53.7796 28.8519H51.7565C51.5932 28.8519 51.5174 29.0202 51.6107 29.1324L58.8929 37.809H52.3833C52.2929 37.809 52.2375 37.8621 52.2375 37.9566V39.7072C52.2375 39.7988 52.29 39.8549 52.3833 39.8549H61.7235C61.8168 39.8549 61.8897 39.7811 61.8897 39.6866V38.5706Z" fill="#363738"/>
<path d="M71.4457 39.8581C71.3524 39.8581 71.3174 39.802 71.3174 39.7105V31.5328L70.6732 30.901H64.0586C63.9857 30.901 63.9128 30.845 63.9128 30.7534V29.0028C63.9128 28.9083 63.9857 28.8552 64.0586 28.8552H71.4632C71.5186 28.8374 71.574 28.8729 71.6294 28.929L73.2648 30.6058C73.3027 30.6619 73.3377 30.7357 73.3377 30.8095V39.7105C73.3377 39.805 73.2823 39.8581 73.2094 39.8581H71.4457Z" fill="#363738"/>
<path d="M86.7068 28.9991C86.7068 28.9076 86.6544 28.8515 86.5611 28.8515L86.5582 28.8545H76.6115C76.5357 28.8545 76.4628 28.9076 76.4628 29.0021V30.7528C76.4628 30.8443 76.5386 30.9004 76.6115 30.9004H84.6662V39.7069C84.6662 39.7984 84.7012 39.8545 84.7945 39.8545H86.5611C86.6514 39.8545 86.7068 39.8013 86.7068 39.7069V28.9991Z" fill="#363738"/>
<path d="M76.7427 39.7098C76.7427 39.8013 76.7981 39.8574 76.871 39.8574L76.8739 39.8545H78.6755C78.7483 39.8545 78.8037 39.8013 78.8037 39.7069V33.6164C78.8037 33.5249 78.7483 33.4688 78.6755 33.4688H77.6814C77.626 33.4688 77.5531 33.4865 77.5152 33.5426L76.7806 34.3072C76.7602 34.3279 76.7427 34.3633 76.7427 34.4017V39.7098Z" fill="#363738"/>
<path d="M41.6437 46.6151C41.7369 46.6151 41.7719 46.6712 41.7719 46.745V48.289C41.7719 48.3274 41.7544 48.4012 41.7165 48.4927L38.0405 57.4498C38.0026 57.562 37.9122 57.6181 37.8014 57.6181H35.9619C35.8162 57.6181 35.7608 57.5059 35.8337 57.3583L39.3815 48.661H32.1372C32.0643 48.661 31.9915 48.6049 31.9915 48.5134V43.6688C31.9915 43.5743 32.0468 43.5389 32.1372 43.5389H33.9009C33.9738 43.5389 34.0292 43.5773 34.0292 43.6688V46.4852C34.0292 46.559 34.0846 46.6151 34.1574 46.6151H41.6437Z" fill="#363738"/>
<path d="M59.7149 53.2417C59.7528 53.2417 59.7878 53.224 59.8257 53.1856V53.1886L60.3592 52.6867C60.3971 52.6483 60.4146 52.6129 60.4146 52.5745V46.7498C60.4146 46.676 60.3592 46.6199 60.2863 46.6199H58.336C58.2428 46.6199 58.1874 46.676 58.1874 46.7498V53.0941C58.1874 53.1856 58.2428 53.2417 58.336 53.2417H59.7149Z" fill="#363738"/>
<path d="M73.084 46.6169C73.1773 46.6169 73.2297 46.673 73.2297 46.7646V48.5152C73.2297 48.6097 73.1743 48.6628 73.084 48.6628H71.3553C71.2824 48.6628 71.227 48.7189 71.227 48.7927V57.4693C71.227 57.5638 71.1716 57.617 71.0987 57.617H69.2971C69.2068 57.617 69.1689 57.5609 69.1689 57.4693V49.3891C69.1689 49.3507 69.1864 49.2946 69.2068 49.2769L69.7956 48.6628H63.012C62.9391 48.6628 62.8662 48.6068 62.8662 48.5152V46.7646C62.8662 46.6701 62.9391 46.6169 63.012 46.6169H73.084Z" fill="#363738"/>
<path d="M80.235 57.4143C80.235 57.5088 80.2904 57.5649 80.3632 57.5826H80.3691C80.92 57.7302 81.3252 57.7863 81.8208 57.7863C85.2229 57.7863 87.4851 55.4216 87.4851 52.0501C87.4851 48.6787 85.3715 46.4262 82.2086 46.4262C80.9754 46.4262 79.7248 46.9664 78.7511 47.9908L77.6288 46.6889C77.6113 46.6328 77.5559 46.6151 77.483 46.6151H75.4599C75.2587 46.6151 75.2033 46.8188 75.3141 46.9694L77.5209 49.836C77.2265 50.45 77.0603 51.0464 76.932 51.6782L75.8855 57.4498C75.8651 57.5442 75.9205 57.618 76.0138 57.618H77.76C77.8328 57.618 77.8882 57.562 77.9057 57.4881L78.9523 51.9763C79.3546 49.8921 80.6052 48.4957 82.2056 48.4957C84.1005 48.475 85.4415 49.9098 85.4415 52.0885C85.4415 54.2673 83.9314 55.8113 81.8179 55.8113C81.4506 55.8113 80.8442 55.7198 80.5673 55.6076C80.4186 55.5899 80.2904 55.646 80.2904 55.7759L80.235 57.4143Z" fill="#363738"/>
<path d="M49.159 75.3831C49.0657 75.3831 49.0307 75.327 49.0307 75.2355V67.0607L48.3865 66.429H41.7719C41.699 66.429 41.6261 66.3729 41.6261 66.2813V64.5307C41.6261 64.4362 41.699 64.3831 41.7719 64.3831H49.1765C49.2319 64.3653 49.2872 64.4008 49.3426 64.4569L50.9781 66.1337C51.016 66.1898 51.0509 66.2636 51.0509 66.3374V75.2384C51.0509 75.3329 50.9956 75.386 50.9227 75.386H49.159V75.3831Z" fill="#363738"/>
<path d="M65.4491 64.5251C65.4491 64.4454 65.385 64.3775 65.3034 64.3775V64.3805H60.5662C60.4787 64.3805 60.4087 64.4513 60.4087 64.5399V66.2285C60.4087 66.3171 60.4787 66.388 60.5662 66.388H63.4085V69.7771C63.4085 72.0503 61.8838 73.7449 59.8228 73.7449C57.7618 73.7449 56.2546 72.0503 56.2546 69.7771V64.5074C56.2546 64.4159 56.1992 64.3775 56.1263 64.3775H54.3072C54.2373 64.3775 54.179 64.4365 54.179 64.5074V69.8893C54.179 73.2401 56.5694 75.6993 59.8228 75.6993C63.0762 75.6993 65.4491 73.2401 65.4491 69.8893V64.5251Z" fill="#363738"/>
<path d="M72.5854 64.3775C72.6787 64.3775 72.7341 64.4336 72.7341 64.5251V75.2328C72.7341 75.3273 72.6787 75.3804 72.5854 75.3804H68.1718C68.099 75.3804 68.0261 75.3244 68.0261 75.2328V73.4822C68.0261 73.3877 68.099 73.3346 68.1718 73.3346H70.5244C70.6177 73.3346 70.6527 73.2785 70.6527 73.2047V66.4263H68.5013C68.408 66.4263 68.3555 66.3703 68.3555 66.2787V64.5281C68.3555 64.4336 68.4109 64.3805 68.5013 64.3805H72.5825L72.5854 64.3775Z" fill="#363738"/>
<path fill-rule="evenodd" clip-rule="evenodd" d="M77.553 66.9105C76.7425 67.7312 76.247 68.8855 76.247 70.0959L76.2499 70.0989C76.2499 73.3581 78.6578 75.7406 81.9316 75.7406C85.2054 75.7406 87.5958 73.2459 87.5958 69.9867C87.5958 66.7274 85.1849 64.3804 81.9316 64.3804H76.0487C75.9758 64.3804 75.9205 64.4158 75.9205 64.5103V66.2964C75.9205 66.3702 75.9758 66.4263 76.0487 66.4263H77.0953C77.3693 66.4263 77.8299 66.4086 78.2526 66.3702L78.2701 66.4086C78.0311 66.5208 77.7366 66.7068 77.553 66.9105ZM81.9112 66.3348C83.9343 66.3348 85.5697 67.991 85.5697 70.0398C85.5697 72.1064 83.9518 73.7626 81.9112 73.7626C79.8705 73.7626 78.2351 72.0887 78.2351 70.0398C78.2351 67.991 79.888 66.3348 81.9112 66.3348Z" fill="#363738"/>
<path d="M55.3976 46.617H44.2178C44.1449 46.617 44.0721 46.6554 44.0721 46.7469V48.5153C44.0721 48.5891 44.1449 48.6629 44.2178 48.6629H53.1354L49.5672 57.3778C49.5118 57.5077 49.5847 57.6199 49.7159 57.6199H51.535C51.6457 57.6199 51.7361 57.5638 51.774 57.4517L55.4501 48.5153C55.4598 48.4821 55.4692 48.4512 55.478 48.4227C55.5035 48.3397 55.523 48.2765 55.523 48.2348V46.7439C55.523 46.6495 55.4676 46.614 55.3947 46.614L55.3976 46.617Z" fill="#363738"/>
<path d="M44.9349 61.0676V51.1481C44.9349 51.0596 45.0049 50.9887 45.0924 50.9887H46.8531C46.9406 50.9887 47.0105 51.0596 47.0105 51.1481V61.0676C47.0105 61.1414 46.9581 61.1975 46.8648 61.1975H45.0632C44.9932 61.1975 44.9349 61.1385 44.9349 61.0676Z" fill="#363738"/>
</svg>
