<svg width="41" height="41" viewBox="0 0 41 41" fill="none" xmlns="http://www.w3.org/2000/svg">
<path d="M20.961 4.39909C26.2943 4.39909 26.961 4.39909 29.1277 4.56576C34.6277 4.73242 37.1277 7.39909 37.2943 12.7324C37.461 14.8991 37.461 15.3991 37.461 20.7324C37.461 26.0658 37.461 26.7324 37.2943 28.7324C37.1277 34.0658 34.461 36.7324 29.1277 36.8991C26.961 37.0658 26.461 37.0658 20.961 37.0658C15.6277 37.0658 14.961 37.0658 12.961 36.8991C7.46101 36.7324 4.96101 34.0658 4.79435 28.7324C4.62768 26.5658 4.62768 26.0658 4.62768 20.7324C4.62768 15.3991 4.62768 14.7324 4.79435 12.7324C4.96101 7.39909 7.62768 4.73242 12.961 4.56576C14.961 4.39909 15.6277 4.39909 20.961 4.39909ZM20.961 0.732422C15.461 0.732422 14.7943 0.732422 12.7943 0.899089C5.46101 1.23242 1.46101 5.23242 1.12768 12.5658C0.961014 14.5658 0.961014 15.2324 0.961014 20.7324C0.961014 26.2324 0.961014 26.8991 1.12768 28.8991C1.46101 36.2324 5.46101 40.2324 12.7943 40.5658C14.7943 40.7324 15.461 40.7324 20.961 40.7324C26.461 40.7324 27.1277 40.7324 29.1277 40.5658C36.461 40.2324 40.461 36.2324 40.7943 28.8991C40.961 26.8991 40.961 26.2324 40.961 20.7324C40.961 15.2324 40.961 14.5658 40.7943 12.5658C40.461 5.23242 36.461 1.23242 29.1277 0.899089C27.1277 0.732422 26.461 0.732422 20.961 0.732422ZM20.961 10.3991C15.2943 10.3991 10.6277 15.0658 10.6277 20.7324C10.6277 26.3991 15.2943 31.0658 20.961 31.0658C26.6277 31.0658 31.2943 26.3991 31.2943 20.7324C31.2943 15.0658 26.6277 10.3991 20.961 10.3991ZM20.961 27.3991C17.2943 27.3991 14.2943 24.3991 14.2943 20.7324C14.2943 17.0658 17.2943 14.0658 20.961 14.0658C24.6277 14.0658 27.6277 17.0658 27.6277 20.7324C27.6277 24.3991 24.6277 27.3991 20.961 27.3991ZM31.6277 7.73242C30.2943 7.73242 29.2943 8.73242 29.2943 10.0658C29.2943 11.3991 30.2943 12.3991 31.6277 12.3991C32.961 12.3991 33.961 11.3991 33.961 10.0658C33.961 8.73242 32.961 7.73242 31.6277 7.73242Z" fill="currentColor"/>
</svg>
