<svg preserveAspectRatio="none" width="100%" height="100%" overflow="visible" style="display: block;" viewBox="0 0 200 200" fill="none" xmlns="http://www.w3.org/2000/svg">
<g id="Group 1000001533">
<circle id="Ellipse 816" cx="100" cy="100" r="100" fill="var(--fill-0, #FFEE00)"/>
<g id="Group 1000001532">
<path id="Vector" d="M64.0136 107.019C71.662 114.528 85.0006 124.936 100.176 124.936C115.352 124.936 128.688 114.528 136.336 107.019C138.353 105.039 139.365 104.045 140.007 102.101C140.466 100.713 140.466 98.2236 140.007 96.8363C139.365 94.8919 138.353 93.8982 136.336 91.9176C128.688 84.4087 115.352 74.0005 100.176 74.0005C85.0006 74.0005 71.662 84.4087 64.0136 91.9176C61.9949 93.8995 60.9855 94.8912 60.343 96.8363C59.8847 98.2236 59.8847 100.713 60.343 102.101C60.9855 104.046 61.9949 105.037 64.0136 107.019Z" fill="var(--fill-0, #FFEE00)" stroke="var(--stroke-2, #131313)" stroke-width="3" stroke-linecap="round" stroke-linejoin="round"/>
<path id="Vector_2" d="M84.6134 99.3206C84.6134 107.711 91.501 114.513 99.9972 114.513C108.493 114.513 115.381 107.711 115.381 99.3206C115.381 90.9302 108.493 84.1285 99.9972 84.1285C91.501 84.1285 84.6134 90.9302 84.6134 99.3206Z" fill="var(--fill-0, #FFEE00)" stroke="var(--stroke-2, #131313)" stroke-width="3" stroke-linecap="round" stroke-linejoin="round"/>
<path id="Vector_3" d="M95.8959 99.827C95.8959 102.344 97.9621 104.385 100.511 104.385C103.06 104.385 105.126 102.344 105.126 99.827C105.126 97.3099 103.06 95.2694 100.511 95.2694C97.9621 95.2694 95.8959 97.3099 95.8959 99.827Z" fill="var(--fill-0, #FFEE00)" stroke="var(--stroke-2, #131313)" stroke-width="3" stroke-linecap="round" stroke-linejoin="round"/>
</g>
</g>
</svg>
