<svg preserveAspectRatio="xMidYMid meet" width="100%" height="100%" overflow="visible" style="display: block;" viewBox="0 0 67 45" fill="none" xmlns="http://www.w3.org/2000/svg">
<g id="Group">
<path id="Vector" d="M66.2914 44.2604H0V0H66.2914V44.2604ZM2.40211 41.8565H63.8893V2.40396H2.40211V41.8565Z" fill="var(--fill-0, #363738)"/>
<g id="Group_2">
<path id="Vector_2" d="M22.3311 36.3044V8.98912C22.3311 8.32971 21.9516 7.9541 21.2969 7.9541H12.1641V10.5166H13.0982V36.3086H22.3269L22.3311 36.3044ZM15.9381 10.5124H19.5079V33.7419H15.9381V10.5124Z" fill="var(--fill-0, #363738)"/>
<path id="Vector_3" d="M28.3814 20.3409V7.9541H24.5781V10.5124H25.5415V20.3409H28.3814Z" fill="var(--fill-0, #363738)"/>
<path id="Vector_4" d="M35.072 7.9541H31.1978V10.5166H32.2612V33.7461H30.1094V36.3086H34.0503C34.7008 36.3086 35.072 35.9372 35.072 35.2861V7.9541Z" fill="var(--fill-0, #363738)"/>
<path id="Vector_5" d="M41.725 36.3044V7.9541H37.4922V10.5124H38.885V36.3044H41.725Z" fill="var(--fill-0, #363738)"/>
<path id="Vector_6" d="M51.8007 7.9541H44.5861V10.5166H49.9824V33.7461H44.5861V36.3086H54.1193V33.7461H52.8224V8.9766C52.8224 8.32554 52.4512 7.9541 51.8007 7.9541Z" fill="var(--fill-0, #363738)"/>
</g>
</g>
</svg>

