<svg preserveAspectRatio="xMidYMid meet" width="100%" height="100%" overflow="visible" style="display: block;" viewBox="0 0 158 44" fill="none" xmlns="http://www.w3.org/2000/svg">
<g id="Group 427321004">
<path id="Vector" d="M19.7251 16.3782C20.5418 18.4332 21.1182 20.4149 21.4545 22.1274H17.9958C18.3321 20.4149 18.9085 18.4332 19.7251 16.3782ZM11.9671 23.3017H27.4351L27.0028 25.5525H12.3995L11.9671 23.3017ZM13.4323 26.7757H25.994C25.6097 29.6137 25.0092 33.895 24.8411 35.1672C23.2799 35.6565 22.0549 35.8766 19.7011 35.8766C16.8429 35.8766 15.1856 35.4118 14.5611 35.1916L13.4323 26.7757ZM6.29873 14.2742C6.659 13.5403 7.37956 12.9531 7.98003 12.733C8.14816 12.684 8.29227 12.6351 8.41236 12.6351C8.62853 12.6351 8.77264 12.733 8.8447 12.9042C8.94077 13.0999 8.89274 13.2223 8.82068 13.3446C8.4604 13.8583 7.18741 14.2008 6.29873 14.2742ZM2.98416 7.76661C3.5606 7.17945 4.37724 6.95927 5.38602 7.08159C5.57817 7.10606 5.77032 7.25285 5.84237 7.44856C5.89041 7.59535 5.84237 7.74214 5.69826 7.91339C5.43405 8.18251 4.35322 8.59841 3.27238 7.98679C3.1763 7.88893 3.08023 7.84 2.98416 7.76661ZM36.4661 7.76661C36.37 7.84 36.274 7.88893 36.1779 7.96232C35.1211 8.59841 34.0402 8.18251 33.752 7.88893C33.6079 7.74214 33.5599 7.59535 33.6079 7.4241C33.6799 7.25284 33.8481 7.08159 34.0642 7.05713C34.2324 7.03266 34.4245 7.03266 34.5927 7.03266C35.3372 7.03266 35.9857 7.27731 36.4661 7.76661ZM33.1275 14.2742C32.2388 14.2008 30.9899 13.8583 30.6056 13.3201C30.5335 13.1978 30.4855 13.0999 30.5815 12.8797C30.6536 12.7085 30.7977 12.6106 31.0139 12.6106C31.134 12.6106 31.2781 12.6351 31.4462 12.7085C32.0707 12.9531 32.7672 13.5403 33.1275 14.2742ZM39.2282 3.33848C38.5797 1.16112 36.5622 -0.135518 34.0883 0.0112708C28.8522 0.329313 24.8171 4.87976 22.3672 8.62287C21.4064 10.0908 20.5177 11.7299 19.7011 13.418C18.9325 11.7544 18.0198 10.1152 17.0591 8.64734C14.6092 4.87976 10.574 0.353778 5.33798 0.0112708C2.86406 -0.135518 0.846499 1.16112 0.197996 3.33848C-0.306395 5.00209 0.173977 6.71462 1.39893 7.98679C0.774443 9.28342 0.774443 11.0204 1.42295 12.4883C2.09547 14.0051 3.34443 15.0326 4.88163 15.3752C4.88163 15.5709 4.92966 15.7911 4.9777 16.0112C5.38602 17.6014 6.61097 18.7513 8.41236 19.2406C10.478 19.7788 12.8798 19.3874 14.6092 18.262C14.4891 18.7758 14.2729 19.2651 13.9607 19.7054C13.7685 19.9745 13.8406 20.3415 14.0808 20.5372C14.345 20.7329 14.7052 20.684 14.8974 20.4149C15.6179 19.3629 15.9542 18.1152 15.8341 16.892C15.8101 16.6718 15.666 16.4761 15.4498 16.3782C15.2337 16.3048 14.9935 16.3537 14.8494 16.525C13.4803 17.9684 10.8382 18.629 8.72461 18.0663C7.76386 17.7972 6.51489 17.1855 6.13059 15.6932C6.10658 15.6198 6.10658 15.5709 6.08256 15.4975C7.13938 15.4485 9.03685 15.0816 9.78143 14.0541C10.1177 13.5892 10.1657 13.0265 9.94956 12.4638C9.58928 11.5831 8.67657 11.2651 7.61975 11.632C6.63499 11.9745 5.50611 12.9531 5.07378 14.2008C3.53658 13.8339 2.81603 12.684 2.50378 11.999C2.02341 10.947 1.99939 9.72379 2.35967 8.76966C2.47976 8.84306 2.57584 8.91645 2.69593 8.98984C4.25714 9.91951 5.89041 9.38128 6.53891 8.7452C6.99527 8.2559 7.1634 7.64428 6.94723 7.05713C6.73106 6.42104 6.17863 5.98068 5.53013 5.88282C4.13705 5.71156 2.93612 6.07854 2.09547 6.95927C1.27883 6.02961 0.966592 4.83083 1.32687 3.68099C1.80724 2.06631 3.36845 1.08772 5.28994 1.21004C11.2225 1.57702 16.1944 8.3293 19.0766 14.8614C18.0198 17.3568 17.2032 19.8767 16.7949 22.1274H11.2706C11.1024 22.1274 10.9343 22.2008 10.8142 22.3476C10.6941 22.4944 10.6461 22.6657 10.6941 22.8369L11.3426 26.262C11.3907 26.5311 11.6309 26.7513 11.9191 26.7513H12.2553L13.4803 35.7298C13.5043 35.9256 13.6244 36.0968 13.8166 36.1947C13.8886 36.2191 15.714 37.0999 19.7251 37.0999C22.3912 37.0999 23.7362 36.8308 25.5617 36.2436C25.7778 36.1702 25.9219 35.999 25.97 35.7788C25.994 35.6809 26.9067 29.051 27.2189 26.8002H27.5552C27.8434 26.8002 28.0836 26.6045 28.1316 26.3109L28.7802 22.8858C28.8042 22.7146 28.7561 22.5189 28.6601 22.3965C28.54 22.2498 28.3718 22.1764 28.2037 22.1764H22.6794C22.2711 19.9501 21.4545 17.4057 20.3977 14.9103C23.2799 8.37823 28.2517 1.62595 34.2084 1.25897C36.1298 1.13665 37.6911 2.11524 38.1714 3.72992C38.5077 4.87976 38.2195 6.07854 37.4028 7.03266C36.5622 6.15193 35.3612 5.76049 33.9682 5.95621C33.3197 6.02961 32.7672 6.49444 32.5511 7.10606C32.3589 7.69321 32.503 8.30483 32.9594 8.79413C33.5839 9.43021 35.2412 9.96844 36.8024 9.03877C36.9225 8.96538 37.0426 8.89199 37.1386 8.81859C37.4989 9.77272 37.4509 10.9715 36.9945 12.0479C36.6823 12.733 35.9617 13.8828 34.4245 14.2498C33.9922 13.0021 32.8633 12.0235 31.8786 11.681C30.8217 11.314 29.909 11.632 29.5487 12.5128C29.3086 13.0755 29.3806 13.6382 29.7169 14.103C30.4374 15.1305 32.3589 15.4975 33.4157 15.5464C33.4157 15.6198 33.3917 15.6687 33.3677 15.7421C32.9834 17.2345 31.7344 17.8706 30.7737 18.1152C28.6601 18.6779 26.018 18.0173 24.6489 16.5739C24.4808 16.4027 24.2406 16.3537 24.0485 16.4271C23.8323 16.5005 23.6882 16.6962 23.6642 16.9409C23.5441 18.1641 23.8804 19.4118 24.6009 20.4394C24.7931 20.7085 25.1533 20.7574 25.4175 20.5617C25.6818 20.366 25.7298 19.999 25.5376 19.7299C25.2254 19.2895 25.0092 18.8002 24.8891 18.2865C26.6185 19.3874 29.0203 19.8033 31.0859 19.2651C32.8873 18.7758 34.0883 17.6504 34.5206 16.0357C34.5686 15.8155 34.6167 15.6198 34.6167 15.3996C36.1779 15.0571 37.4028 14.0296 38.0754 12.5128C38.7239 11.0449 38.7239 9.33235 38.0994 8.01125C39.2523 6.69016 39.7326 5.00209 39.2282 3.33848Z" fill="var(--fill-0, #363738)"/>
<path id="Vector_2" d="M108.5 19.9759C108.548 19.8536 108.572 19.7558 108.572 19.6334C108.572 18.9973 108.067 18.7038 107.419 18.7038C106.77 18.7038 105.978 18.9484 105.209 19.3643C103.936 18.4346 102.207 17.7741 100.55 17.7741C96.3221 17.7741 92.9835 22.765 92.9835 27.7314C92.9835 31.2544 94.929 33.5052 97.7873 33.5052C100.141 33.5052 101.606 31.8171 102.615 28.9792C102.399 30.863 102.135 32.6979 101.774 34.3126C97.8353 35.2423 94.0884 37.5175 94.0884 40.2332C94.0884 41.9702 95.6496 43.3158 98.0996 43.3158C101.871 43.3158 104.224 40.2576 105.594 36.1964C106.266 36.1475 106.842 36.1475 107.491 36.3432C107.995 36.49 108.62 36.7836 108.98 36.2698C109.268 35.8784 109.172 35.2667 108.86 34.9487C108.524 34.5817 107.491 34.0435 106.242 33.9945C106.386 33.1138 106.626 31.8905 106.722 31.0342C107.419 26.0433 107.923 22.765 108.5 19.9759ZM57.9397 15.8168C57.9397 13.4193 55.0574 11.5599 51.1903 11.5599C46.5786 11.5599 43.7684 14.2021 43.7684 17.6273C43.7684 20.8567 46.2664 22.7405 48.5242 24.502C50.2295 25.8231 51.6707 26.9241 51.6707 28.6611C51.6707 30.2758 50.4457 31.4991 48.4281 31.4991C45.4257 31.4991 43.6723 29.0036 43.6964 25.2115C43.6964 24.7222 43.4081 24.4776 42.9277 24.4776C41.8469 24.4776 39.7812 25.7742 39.7812 28.2697C39.7812 31.4012 43.0238 33.9211 47.7075 33.9211C53.0398 33.9211 56.0662 30.6183 56.0662 27.0219C56.0662 23.817 53.5682 22.1289 51.4545 20.4408C49.7972 19.1441 48.1399 17.823 48.1399 16.1349C48.1399 14.7648 49.3408 13.7128 50.806 13.7128C53.0158 13.7128 54.1206 16.1104 54.3368 18.1166C54.3608 18.4836 54.6971 18.6793 55.1054 18.6793C56.0662 18.6548 57.9397 17.7007 57.9397 15.8168ZM76.3143 25.7008C76.5304 20.7344 78.8843 12.881 80.5416 12.881C80.9499 12.881 81.2622 13.248 81.2622 14.2511C81.2622 16.6731 79.4848 22.4959 76.3143 25.7008ZM62.191 25.9944C62.6234 23.083 64.4248 19.6334 66.0821 19.6334C66.5865 19.6334 67.0189 19.927 67.0189 20.7344C67.0189 22.7161 64.641 25.603 62.191 25.9944ZM96.8746 12.3672C96.8746 11.144 95.6736 10.2388 93.656 10.2388C90.3414 10.2388 87.6753 12.6608 86.8827 16.9912L86.6665 18.1655H85.2253C84.6489 18.1655 84.4327 18.508 84.4327 18.8261C84.4327 19.56 85.2013 20.5631 85.9219 20.5631H86.2582L85.0332 27.0953H85.0092C83.9283 28.6122 81.5504 30.9119 79.5328 30.9119C77.7554 30.9119 76.6505 29.8844 76.3863 27.5602C79.3887 25.8965 83.8803 19.7068 83.8803 15.3031C83.8803 12.0737 81.3102 10.459 79.4127 10.459C74.8731 10.459 71.7266 19.6824 71.7266 25.7497C71.7266 26.5571 71.7746 27.2666 71.8947 27.9272C69.9732 30.0067 67.9316 30.9853 65.5297 30.9853C63.6082 30.9853 62.2391 29.8354 62.095 27.5357C65.1934 27.34 70.3095 25.0647 70.3095 21.4439C70.3095 19.1686 68.2198 17.7741 65.5777 17.7741C60.6298 17.7741 57.3152 22.8873 57.3152 27.2177C57.3152 31.2544 60.1975 33.7254 64.0165 33.7254C67.9076 33.7254 71.1021 31.2055 72.2791 29.5908C73.4079 32.7713 75.978 33.652 77.9235 33.652C80.4215 33.652 82.8955 31.9395 84.3847 30.3003L83.2317 36.5145C83.2077 37.0282 83.7361 37.3218 84.5048 37.3218C85.8018 37.3218 88.0115 36.4411 88.3718 34.1903L90.6777 20.4652C92.1188 20.4408 92.8394 20.3429 93.0555 20.3185C94.4006 20.1472 95.4815 19.2175 95.4815 18.557C95.4815 18.2634 95.2173 18.0677 94.7849 18.0677C94.0884 18.0677 92.8394 18.1166 91.086 18.1166L91.5183 15.4254C91.7825 13.8841 92.2869 12.514 93.2957 12.514C93.9202 12.514 94.4967 13.0278 95.0251 14.1287C95.7217 14.2755 96.8746 13.4682 96.8746 12.3672ZM103.528 21.5907C102.375 27.5112 100.742 30.6917 99.1564 30.6917C98.2437 30.6917 97.7873 29.7621 97.7873 27.9272C97.7873 24.184 99.5647 20.0738 101.534 20.0738C102.375 20.0738 103.096 20.7833 103.528 21.5907ZM101.366 36.4166C100.501 39.4014 99.2765 41.383 97.7152 41.383C97.0908 41.383 96.7785 41.0161 96.7785 40.4289C96.7785 38.8876 98.7481 37.3463 101.366 36.4166ZM120.629 20.3674C120.629 19.2665 120.125 18.0187 118.78 18.0187C117.195 18.0187 115.898 19.9025 114.769 22.6916C114.937 21.5907 115.057 20.7099 115.057 20.4163C115.057 19.1197 113.063 17.9943 112.031 17.9943C111.598 17.9943 111.334 18.19 111.334 18.557C111.334 19.8047 109.316 29.3217 109.316 30.6673C109.316 32.282 111.382 33.5786 112.607 33.5786C113.015 33.5786 113.328 33.4318 113.4 33.0649C113.568 31.6948 113.808 30.1535 114.12 28.6611C114.913 25.0647 115.97 21.6885 117.795 21.6885C118.348 21.6885 118.804 21.9821 119.356 22.5448C120.125 22.6182 120.629 21.5173 120.629 20.3674ZM130.285 23.132C130.285 26.9975 128.412 31.3523 126.394 31.3523C125.385 31.3523 124.761 30.2758 124.761 28.1473C124.761 24.135 126.682 19.8536 128.652 19.8536C129.685 19.8536 130.285 21.0035 130.285 23.132ZM134.561 24.5999C134.561 20.1472 131.414 17.7007 127.883 17.7007C123.199 17.7007 120.173 22.3735 120.173 26.655C120.173 30.8875 122.959 33.6765 126.634 33.6765C131.294 33.6765 134.561 29.1993 134.561 24.5999ZM157.355 21.4439C157.355 18.875 154.761 17.6273 153.464 17.6273C152.983 17.6273 152.671 17.7741 152.743 18.1166C152.887 18.7771 152.959 19.5845 152.959 20.4652C152.959 24.7956 151.23 30.8874 149.02 30.8874C148.516 30.8874 148.107 30.3981 148.107 29.5908C148.107 27.6336 149.548 22.1778 149.548 21.028C149.548 19.5111 147.555 17.9453 146.162 17.9453C145.681 17.9453 145.441 18.0921 145.441 18.508V18.5814C145.225 22.3735 143.231 30.8874 140.902 30.8874C140.469 30.8874 140.181 30.5205 140.181 29.6397C140.181 27.8048 141.67 22.4469 141.67 21.0524C141.67 19.4622 139.508 17.9698 138.139 17.9698C137.587 17.9698 137.299 18.2389 137.347 18.6304C137.419 20.2451 135.641 27.5602 135.641 29.3951C135.641 32.0129 137.947 33.6276 140.013 33.6276C142.03 33.6276 143.4 32.0373 144.312 29.9088C144.721 32.0129 146.162 33.6276 148.347 33.6276C153.055 33.6031 157.355 25.554 157.355 21.4439Z" fill="var(--fill-0, #363738)"/>
</g>
</svg>

