<svg preserveAspectRatio="xMidYMid meet" width="100%" height="100%" overflow="visible" style="display: block;" viewBox="0 0 22 15" fill="none" xmlns="http://www.w3.org/2000/svg">
<path id="Vector" d="M21.0898 3.46866C21.1103 3.46866 21.1263 3.45272 21.1263 3.43222V0.0387174C21.1263 0.0182197 21.1103 0.00227714 21.0898 0.00227714H15.3846C15.3641 0.00227714 15.3482 0.0182197 15.3482 0.0387174V3.46866H16.1294C16.1499 3.46866 16.1613 3.4846 16.1567 3.5051L14.7173 8.60219C14.7105 8.62268 14.7014 8.62268 14.6968 8.60219L12.1779 0.0364403C12.1711 0.0159426 12.1506 0 12.1301 0H8.95292C8.93242 0 8.91193 0.0159426 8.90509 0.0364403L6.38616 8.60219C6.37933 8.62268 6.37022 8.62268 6.36566 8.60219L4.91716 3.46866H5.74162C5.76212 3.46866 5.77806 3.45272 5.77806 3.43222V0.0387174C5.77806 0.0182197 5.76212 0.00227714 5.74162 0.00227714H0.0364402C0.0159426 0.00227714 0 0.0182197 0 0.0387174V3.46866H0.874567C0.895064 3.46866 0.917839 3.4846 0.924671 3.5051L4.4366 14.1912C4.44344 14.2117 4.46393 14.2277 4.48443 14.2277H7.86427C7.88476 14.2277 7.90754 14.2117 7.9121 14.1912L10.5312 6.03087C10.5381 6.01037 10.5472 6.01037 10.554 6.03087L13.1732 14.1912C13.18 14.2117 13.2005 14.2277 13.221 14.2277H16.6008C16.6213 14.2277 16.6441 14.2117 16.6487 14.1912L20.1606 3.5051C20.1674 3.4846 20.1879 3.46866 20.2084 3.46866H21.0898Z" fill="var(--fill-0, #363738)"/>
</svg>

