<svg preserveAspectRatio="xMidYMid meet" width="100%" height="100%" overflow="visible" style="display: block;" viewBox="0 0 134 48" fill="none" xmlns="http://www.w3.org/2000/svg">
<g id="Group 427319297">
<path id="Vector" d="M80.669 16.3917H75.7416V39.5879H80.669V16.3917ZM67.4365 29.9794C67.4365 33.4202 64.9728 34.7169 61.5683 34.628H54.4002V25.1973H61.5683C65.1534 25.1528 67.4365 26.5385 67.4365 29.9794ZM66.0921 16.4807C66.0921 19.3855 64.1657 20.5487 61.5661 20.5487H54.398V12.9041H61.5661C64.0743 12.9041 66.0921 14.0652 66.0921 16.4807V16.4807ZM68.2882 22.6484C70.3483 21.3072 71.2 18.805 71.2 16.6586C71.2 10.8045 66.8546 7.89746 61.5683 7.89746H49.2031V39.5879H61.5237C67.7509 39.5879 72.4998 37.1302 72.6358 30.1573C72.6358 26.9834 71.7395 24.123 68.2904 22.6484H68.2882ZM81.2531 11.0269C81.2531 9.23866 79.9533 7.89746 78.1161 7.89746C76.2789 7.89746 75.0237 9.23866 75.0237 11.0269C75.0237 12.8152 76.3681 14.1564 78.1161 14.1564C79.9533 14.1564 81.2531 12.7707 81.2531 11.0269ZM94.6483 39.8104V35.5644C91.9595 35.5644 89.4958 35.3397 89.4958 31.6764V21.3517H93.9304V16.4362H89.4958V7.94195H84.613V31.7209C84.613 38.3357 89.2282 40.6155 94.6483 39.8104ZM101.382 26.2227V23.9874C101.203 19.5167 109.894 19.5634 109.894 23.8984V26.2227H101.382ZM101.382 30.2908H114.643V23.9896C114.643 18.5825 110.028 16.0336 105.593 16.0336C101.159 16.0336 96.4074 18.5803 96.4074 23.9896V32.1235C96.4074 37.4416 101.023 40.0795 105.593 40.0795C108.639 40.0795 112.135 38.5159 113.927 35.3419L109.805 32.9732C107.923 36.8611 101.292 35.9224 101.382 32.1235V30.2908ZM130.326 22.6484L133.282 19.43C130.997 17.1946 128.174 16.1226 125.711 16.1226C121.769 16.1226 117.064 18.0443 117.064 23.1844C117.064 28.3246 122.038 29.7102 125.307 30.3352C126.921 30.6933 128.937 31.1849 128.937 32.882C128.758 36.6364 122.529 36.2783 120.155 32.1658L116.48 34.5345C120.155 42.535 133.82 41.7743 133.82 32.7908C133.775 27.873 129.878 26.4429 126.159 25.8179C124.232 25.5043 121.769 24.8348 121.947 22.7796C122.217 19.8748 127.771 20.0972 130.326 22.6462" fill="var(--fill-0, #363738)"/>
<path id="Vector_2" d="M38.0958 13.3939C38.0958 5.99634 32.0828 0 24.6696 0H1.6387C1.3667 0 1.1103 0.0667249 0.88512 0.184606C0.780332 0.231313 0.688922 0.291365 0.608659 0.364763C0.236329 0.665025 0 1.12098 0 1.63476C0 2.53777 0.733512 3.26952 1.6387 3.26952C1.72119 3.26952 2.21391 3.30066 2.33877 3.33847C5.03203 4.13027 4.37209 6.85265 4.37209 6.85265C3.15923 9.3793 5.85249 10.1711 5.85249 10.1711C8.3228 11.5056 7.10994 14.0322 7.10994 14.0322C5.39767 16.252 7.86798 17.5865 7.86798 17.5865C10.0061 19.4036 8.29382 21.6233 8.29382 21.6233C6.15571 23.4405 8.29382 25.2554 8.29382 25.2554C10.0061 27.4751 7.86798 29.2922 7.86798 29.2922C5.39767 30.6267 7.10994 32.8464 7.10994 32.8464C8.3228 35.3731 5.85249 36.7076 5.85249 36.7076C3.15923 37.4994 4.37209 40.026 4.37209 40.026C5.03203 42.7484 2.33877 43.5402 2.33877 43.5402C1.69889 43.647 1.21732 43.8004 0.869513 44.0028C0.352264 44.2786 0.00222952 44.8213 0.00222952 45.4463C0.00222952 46.3493 0.735742 47.0811 1.64093 47.0811C1.66991 47.0811 1.69889 47.0789 1.72565 47.0766C1.73903 47.0766 1.7524 47.0789 1.76355 47.0789C1.99988 47.0766 6.73315 47.0499 8.56805 47.0499H24.6696C32.085 47.0499 38.0958 41.0536 38.0958 33.656C38.0958 29.6081 36.2921 25.9827 33.4473 23.525C36.2921 21.0695 38.0958 17.4419 38.0958 13.3939Z" fill="var(--fill-0, #363738)"/>
<path id="Vector_3" d="M25.4756 4.38672C30.2692 4.38672 34.1533 8.26212 34.1533 13.042C34.1533 17.8219 30.2692 21.6982 25.4756 21.6982C20.6821 21.698 16.7988 17.8218 16.7988 13.042C16.7989 8.26224 20.6821 4.38692 25.4756 4.38672Z" fill="var(--fill-0, white)" stroke="var(--stroke-0, #363738)" stroke-width="0.753312"/>
<path id="Vector_4" d="M25.4814 10.334C26.982 10.334 28.1972 11.5485 28.1972 13.0432C28.1972 14.538 26.982 15.7525 25.4814 15.7525C23.9808 15.7525 22.7656 14.538 22.7656 13.0432C22.7656 11.5485 23.9808 10.334 25.4814 10.334" fill="var(--fill-0, #363738)"/>
</g>
</svg>

