<svg preserveAspectRatio="xMidYMid meet" width="100%" height="100%" overflow="visible" style="display: block;" viewBox="0 0 124 38" fill="none" xmlns="http://www.w3.org/2000/svg">
<g id="Group 427321007">
<path id="Vector" d="M99.6896 0C95.9639 0 92.9453 3.01859 92.9453 6.74423C92.9453 10.4699 95.9639 13.4885 99.6896 13.4885C103.415 13.4885 106.434 10.4699 106.434 6.74423C106.434 3.01859 103.415 0 99.6896 0Z" fill="var(--fill-0, #363738)"/>
<path id="Vector_2" d="M99.6904 29.0857C112.554 29.0857 122.996 18.6972 123.078 5.8612V5.69803C123.024 4.81419 122.289 4.09353 121.378 4.09353C120.467 4.09353 119.787 4.7598 119.692 5.60285C119.638 6.11955 119.556 6.63626 119.407 7.12577C119.488 6.62266 119.502 6.11956 119.488 5.61645C119.488 4.69182 118.672 4.07993 117.789 4.07993C117.136 4.07993 116.402 4.36548 116.293 4.96377C116.239 5.77962 116.157 6.33712 115.939 7.11217C116.035 6.51388 116.048 6.25553 116.021 5.65724V5.54846C115.885 4.70541 115.164 4.05273 114.28 4.05273C113.315 4.05273 112.54 4.82779 112.54 5.77962C112.54 5.82041 112.54 5.96998 112.54 5.99718C112.54 6.07876 112.54 6.17395 112.54 6.26913C112.54 13.3534 106.788 19.1052 99.6904 19.1052C92.5925 19.1052 86.8543 13.3534 86.8543 6.26913C86.8543 6.17395 86.8543 6.07876 86.8543 5.99718C86.8543 5.96998 86.8543 5.82041 86.8543 5.77962C86.8543 4.82779 86.0793 4.05273 85.1002 4.05273C84.2164 4.05273 83.4957 4.70541 83.387 5.54846L83.3598 5.65724C83.3326 6.25553 83.3598 6.51388 83.4413 7.11217C83.2238 6.33712 83.1422 5.76602 83.0878 4.96377C82.979 4.36548 82.2312 4.07993 81.5921 4.07993C80.7083 4.07993 79.8924 4.70541 79.8924 5.61645C79.8924 6.11956 79.8924 6.62266 79.974 7.12577C79.8244 6.62266 79.7428 6.11955 79.6884 5.60285C79.5933 4.7598 78.8726 4.09353 78.0024 4.09353C77.1321 4.09353 76.357 4.8006 76.2891 5.69803C76.2891 5.69803 76.2891 5.8476 76.2891 5.8612C76.3706 18.7108 86.7999 29.0857 99.6768 29.0857" fill="var(--fill-0, #363738)"/>
<g id="Group 427320996">
<path id="Vector_3" d="M12.796 5.24969C12.796 5.24969 12.796 4.29788 11.8442 4.29788H1.48306C1.48306 4.29788 0.53125 4.29788 0.53125 5.24969V10.3487C0.53125 10.3487 0.531248 11.2869 1.46946 11.2869H2.95156C2.95156 11.2869 3.90336 11.2869 3.90336 12.2387V36.4282C3.90336 36.4282 3.90337 37.38 4.85517 37.38H11.8442C11.8442 37.38 12.796 37.38 12.796 36.4282V5.24969Z" fill="var(--fill-0, #363738)"/>
<path id="Vector_4" d="M42.9655 5.24969C42.9655 5.24969 42.9655 4.29788 42.0137 4.29788H17.4299C17.4299 4.29788 16.4916 4.29788 16.4916 5.24969V10.3351C16.4916 10.3351 16.4916 11.2869 17.4299 11.2869H19.4286C19.4286 11.2869 20.3805 11.2869 19.8909 12.1027C19.2927 13.0817 18.7624 14.5638 18.7624 15.7196V21.1041C18.7624 21.1041 18.7624 22.0559 17.8106 22.0559H15.9206C15.9206 22.0559 14.9688 22.0559 14.9688 23.0077V28.093C14.9688 28.093 14.9688 29.0449 15.9206 29.0449H26.744C26.744 29.0449 27.6958 29.0449 27.6958 28.093V12.2387C27.6958 12.2387 27.6958 11.2869 28.6476 11.2869H33.0531C33.0531 11.2869 34.0049 11.2869 34.0049 12.2387V28.093C34.0049 28.093 34.0049 29.0449 34.9567 29.0449H42.0001C42.0001 29.0449 42.9519 29.0449 42.9519 28.093V5.24969H42.9655Z" fill="var(--fill-0, #363738)"/>
<path id="Vector_5" d="M72.7032 11.014C72.7032 7.85946 71.3027 5.61591 69.3447 4.7049C69.3447 4.7049 68.488 4.31058 67.5362 4.31058H46.6237C46.6237 4.31058 45.6719 4.31058 45.6719 5.26238V10.3478C45.6719 10.3478 45.6719 11.2996 46.6237 11.2996H48.9216C48.9216 11.2996 49.8734 11.2996 49.3023 11.9522C48.7177 12.6049 48.0242 13.4343 47.793 13.7743C47.154 14.7125 46.8276 15.6371 46.8276 16.5481V28.1057C46.8276 28.1057 46.8276 29.0576 47.7794 29.0576H54.8228C54.8228 29.0576 55.7746 29.0576 55.7746 28.1057V12.2514C55.7746 12.2514 55.7746 11.2996 56.7264 11.2996H62.75C63.4707 11.2996 63.8242 11.6259 63.8242 12.2922V21.1168C63.8242 21.1168 63.8242 22.0686 62.886 22.0686H59.9218C59.9218 22.0686 58.97 22.0686 58.97 23.0204V28.1057C58.97 28.1057 58.97 29.0576 59.9218 29.0576H71.7786C71.7786 29.0576 72.7304 29.0576 72.7304 28.1057V11.0412L72.7032 11.014Z" fill="var(--fill-0, #363738)"/>
<path id="Vector_6" d="M48.3651 4.31058H46.1894C45.5911 4.35137 45.1152 4.84091 45.1152 5.45283C45.1152 6.06475 45.5639 6.5135 46.1214 6.58149C46.4614 6.60868 47.1413 6.67668 47.1413 6.67668C47.1413 6.67668 46.4614 6.69027 46.135 6.70387C45.5231 6.70387 45.1016 7.2478 45.1016 7.83253C45.1016 8.26767 45.3055 8.75721 45.6999 8.8388C46.2302 8.8796 47.1413 8.97478 47.1413 8.97478C47.1413 8.97478 46.5702 9.00198 46.1758 9.02918H46.0942C45.5367 9.12437 45.1016 9.6003 45.1016 10.185C45.1016 10.8241 45.6183 11.3545 46.2574 11.3545C46.2846 11.3545 46.3934 11.3545 46.407 11.3545H46.5838L48.6915 11.3137L48.3516 4.32417L48.3651 4.31058Z" fill="var(--fill-0, #363738)"/>
<path id="Vector_7" d="M19.1037 4.31094H16.928C16.3297 4.35174 15.8673 4.84127 15.8673 5.4532C15.8673 6.06512 16.3025 6.51386 16.8736 6.58185C17.2272 6.60905 17.8935 6.67704 17.8935 6.67704C17.8935 6.67704 17.2272 6.69064 16.9008 6.70424C16.2889 6.70424 15.8809 7.24817 15.8809 7.83289C15.8809 8.26804 16.0713 8.75758 16.4792 8.83917C17.0232 8.87996 17.9071 8.97515 17.9071 8.97515C17.9071 8.97515 17.3495 9.00234 16.9416 9.02954H16.86C16.3025 9.12473 15.8673 9.60067 15.8673 10.1854C15.8673 10.8245 16.3841 11.3548 17.0232 11.3548C17.0504 11.3548 17.1592 11.3548 17.1728 11.3548H17.3495L19.2125 11.3141L19.1173 4.32454L19.1037 4.31094Z" fill="var(--fill-0, #363738)"/>
<path id="Vector_8" d="M3.24999 4.31121H1.07426C0.489534 4.35201 0.013596 4.84155 0.013596 5.45347C0.013596 6.06539 0.448743 6.51413 1.01987 6.58212C1.35983 6.60932 2.02614 6.67731 2.02614 6.67731C2.02614 6.67731 1.35983 6.69091 1.03347 6.70451C0.421544 6.70451 0.013596 7.24844 0.013596 7.83317C0.013596 8.26831 0.217568 8.75785 0.611918 8.83944C1.14225 8.88023 2.03974 8.97542 2.03974 8.97542C2.03974 8.97542 1.48221 9.00262 1.07426 9.02981H0.992674C0.435144 9.125 0 9.60094 0 10.1857C0 10.8248 0.516733 11.3551 1.15585 11.3551C1.18305 11.3551 1.29184 11.3551 1.30543 11.3551H1.49581L2.76045 11.3143L3.26358 4.32481L3.24999 4.31121Z" fill="var(--fill-0, #363738)"/>
</g>
</g>
</svg>

