<svg preserveAspectRatio="xMidYMid meet" width="100%" height="100%" overflow="visible" style="display: block;" viewBox="0 0 12 15" fill="none" xmlns="http://www.w3.org/2000/svg">
<path id="Vector" d="M11.547 14.2254C11.5675 14.2254 11.5835 14.2094 11.5835 14.1889V9.80699C11.5835 9.78649 11.5675 9.77055 11.547 9.77055H8.39265C8.37215 9.77055 8.35621 9.78649 8.35621 9.80699V10.7339C8.35621 10.7544 8.34027 10.7704 8.31977 10.7704H5.11986C5.09936 10.7704 5.09253 10.7567 5.10619 10.743L11.358 3.48232C11.3716 3.46638 11.383 3.43677 11.383 3.41628V0.0364402C11.383 0.0159426 11.3671 0 11.3466 0H0.0409937C0.020496 0 0.00455253 0.0159426 0.00455253 0.0364402V4.41838C0.00455253 4.43888 0.020496 4.45482 0.0409937 4.45482H3.19536C3.21586 4.45482 3.2318 4.43888 3.2318 4.41838V3.49143C3.2318 3.47094 3.24774 3.45499 3.26823 3.45499H6.26318C6.28367 3.45499 6.2905 3.46866 6.27684 3.48232L0.0250494 10.743C0.0113843 10.759 0 10.7886 0 10.8091V14.1889C0 14.2094 0.0159365 14.2254 0.0364342 14.2254H11.5447H11.547Z" fill="var(--fill-0, #363738)"/>
</svg>

