<svg preserveAspectRatio="xMidYMid meet" width="100%" height="100%" overflow="visible" style="display: block;" viewBox="0 0 161 34" fill="none" xmlns="http://www.w3.org/2000/svg">
<g id="Group 63">
<g id="logomark">
<path id="Path 8125" d="M29.9779 16.9149C29.9063 20.3729 28.4823 23.6651 26.0114 26.0853C23.5406 28.5056 20.2196 29.8611 16.7609 29.8611C13.3021 29.8611 9.98116 28.5056 7.51029 26.0853C5.03942 23.6651 3.61546 20.3729 3.54386 16.9149C3.54386 16.8639 3.54386 16.8129 3.54386 16.761C3.54571 14.8003 3.98323 12.8646 4.82479 11.0937C5.66634 9.32279 6.89089 7.76104 8.4099 6.52134C9.92891 5.28164 11.7044 4.39498 13.6081 3.92547C15.5117 3.45595 17.4959 3.41532 19.4171 3.80651V0.211655C17.022 -0.172612 14.5721 -0.032456 12.2364 0.622444C9.90079 1.27734 7.73512 2.43138 5.88897 4.00486C4.04282 5.57835 2.56019 7.53378 1.54346 9.73614C0.526725 11.9385 0.00011688 14.3353 0 16.761C0 16.8129 0 16.8639 0 16.9149C0.0468542 21.3284 1.83296 25.5451 4.97043 28.6495C8.10791 31.7538 12.3434 33.495 16.7571 33.495C21.1708 33.495 25.4063 31.7538 28.5437 28.6495C31.6812 25.5451 33.4673 21.3284 33.5142 16.9149H29.9779Z" fill="var(--fill-0, #363738)"/>
<path id="Path 8126" d="M16.7523 22.558C15.242 22.556 13.7924 21.9635 12.713 20.9073C11.6336 19.851 11.01 18.4145 10.9752 16.9047C10.9752 16.8622 10.9752 16.8197 10.9752 16.7772C10.9759 15.7354 11.2579 14.7131 11.7914 13.8182C12.3249 12.9234 13.0902 12.1892 14.0063 11.6932L14.063 11.6592C14.1244 11.6271 14.1848 11.595 14.2471 11.5648C14.2924 11.5431 14.3415 11.5233 14.3831 11.5034L14.5002 11.4505C14.5587 11.426 14.6192 11.4033 14.6796 11.3797L14.7608 11.3476C14.8278 11.3231 14.8949 11.3013 14.9629 11.2787L15.028 11.257C15.097 11.2353 15.1678 11.2164 15.2377 11.1965L15.3009 11.1786C15.3689 11.1607 15.4378 11.1455 15.5068 11.1304L15.5804 11.1134C15.6437 11.1002 15.7079 11.0898 15.7693 11.0785L15.8637 11.0624C15.9213 11.0539 15.9789 11.0473 16.0375 11.0398C16.0762 11.0398 16.1149 11.0294 16.1536 11.0247C16.1923 11.02 16.2575 11.0162 16.3094 11.0124C16.3613 11.0086 16.4038 11.0039 16.4473 11.002C16.4907 11.0001 16.5417 11.002 16.5927 11.002C16.6437 11.002 16.6871 11.002 16.7381 11.002H16.7494C17.6124 11.0011 18.4645 11.1947 19.2423 11.5686V8.05966C18.4319 7.82657 17.5928 7.70801 16.7494 7.70744H16.7277C14.3276 7.71568 12.0284 8.67392 10.3329 10.3727C8.63735 12.0714 7.68342 14.3724 7.67969 16.7725C7.67969 16.815 7.67969 16.8575 7.67969 16.9C7.71555 19.2683 8.67573 21.5288 10.3553 23.199C12.0348 24.8692 14.3007 25.8168 16.6692 25.8394H16.7457C16.9068 25.8394 17.0677 25.835 17.2282 25.8262H17.2631C19.5527 25.6948 21.7075 24.7011 23.2938 23.0449C24.8801 21.3887 25.7801 19.193 25.8126 16.9C25.8126 16.8575 25.8126 16.815 25.8126 16.7725V3.00212C24.7912 2.27969 23.6871 1.68212 22.5237 1.22217V17.3003H22.4991C22.3669 18.7369 21.7029 20.0723 20.6374 21.0448C19.5719 22.0174 18.1817 22.5571 16.7391 22.558H16.7523Z" fill="var(--fill-0, #363738)"/>
</g>
<path id="Path 8127" d="M151.03 25.7319C149.833 25.7895 148.637 25.5966 147.518 25.1656C146.4 24.7346 145.384 24.075 144.535 23.229C143.686 22.383 143.022 21.3691 142.587 20.2522C142.152 19.1352 141.955 17.9399 142.009 16.7424V1.38477H145.151V10.6462C145.928 9.76657 146.889 9.06871 147.966 8.60216C149.044 8.1356 150.21 7.91176 151.383 7.94652C152.549 7.91059 153.71 8.11485 154.794 8.54663C155.878 8.9784 156.861 9.62846 157.683 10.4564C158.505 11.2843 159.148 12.2725 159.572 13.3594C159.996 14.4463 160.192 15.6088 160.147 16.7745C160.17 17.9612 159.956 19.1405 159.517 20.2431C159.077 21.3458 158.422 22.3496 157.59 23.1956C155.823 24.8733 153.464 25.7841 151.028 25.7291M151.06 10.9238C150.274 10.8874 149.489 11.0153 148.755 11.2996C148.022 11.5838 147.355 12.018 146.799 12.5744C146.242 13.1308 145.808 13.7973 145.524 14.531C145.24 15.2648 145.112 16.0499 145.148 16.8359C145.148 18.404 145.771 19.9079 146.88 21.0167C147.989 22.1256 149.493 22.7485 151.061 22.7485C152.629 22.7485 154.133 22.1256 155.242 21.0167C156.35 19.9079 156.973 18.404 156.973 16.8359C157.01 16.0499 156.882 15.2649 156.597 14.5312C156.313 13.7975 155.879 13.1311 155.322 12.5747C154.766 12.0183 154.1 11.5841 153.366 11.2999C152.632 11.0156 151.847 10.8875 151.061 10.9238" fill="var(--fill-0, #363738)"/>
<path id="Path 8128" d="M47.7188 25.7319C45.2831 25.7867 42.9246 24.876 41.158 23.1984C40.3254 22.3525 39.6702 21.3487 39.2309 20.2461C38.7916 19.1434 38.5771 17.9641 38.5999 16.7774C38.5555 15.6116 38.7513 14.4491 39.1751 13.3622C39.599 12.2753 40.2418 11.2872 41.0637 10.4592C41.8857 9.63129 42.8691 8.98123 43.9529 8.54946C45.0366 8.11769 46.1977 7.91342 47.3637 7.94936C48.537 7.91472 49.7034 8.13862 50.7805 8.60517C51.8575 9.07172 52.8187 9.7695 53.5959 10.649V1.38477H56.7375V16.7424C56.7908 17.9399 56.5937 19.1352 56.1587 20.2522C55.7237 21.3691 55.0605 22.383 54.2115 23.229C53.3624 24.075 52.3462 24.7346 51.2277 25.1656C50.1093 25.5966 48.9132 25.7895 47.7159 25.7319M47.6838 10.9267C46.8978 10.8904 46.1129 11.0184 45.3791 11.3027C44.6454 11.587 43.9791 12.0212 43.4227 12.5776C42.8663 13.134 42.4321 13.8003 42.1478 14.534C41.8635 15.2678 41.7354 16.0527 41.7717 16.8388C41.7717 18.4069 42.3947 19.9107 43.5035 21.0196C44.6123 22.1284 46.1162 22.7513 47.6843 22.7513C49.2524 22.7513 50.7563 22.1284 51.8651 21.0196C52.974 19.9107 53.5969 18.4069 53.5969 16.8388C53.6332 16.0527 53.5051 15.2678 53.2208 14.534C52.9366 13.8003 52.5024 13.134 51.946 12.5776C51.3896 12.0212 50.7232 11.587 49.9895 11.3027C49.2558 11.0184 48.4699 10.8904 47.6838 10.9267Z" fill="var(--fill-0, #363738)"/>
<path id="Path 8129" d="M87.4169 25.7326C86.2532 25.7705 85.0941 25.5687 84.0116 25.1397C82.9292 24.7107 81.9465 24.0637 81.1247 23.2389C80.3029 22.4141 79.6595 21.429 79.2345 20.345C78.8094 19.261 78.6119 18.1012 78.654 16.9376C78.6277 15.7447 78.8396 14.5585 79.2774 13.4485C79.7152 12.3384 80.37 11.3269 81.2036 10.4731C82.9618 8.80044 85.3109 7.89223 87.737 7.94717C93.0684 7.94717 96.7907 11.644 96.7907 16.9376V25.3124H93.8134V22.7524C93.0574 23.7182 92.0837 24.4916 90.972 25.0095C89.8602 25.5274 88.6427 25.7751 87.4169 25.7326ZM87.7399 10.9273C86.9538 10.891 86.1689 11.0191 85.4351 11.3033C84.7014 11.5876 84.0351 12.0218 83.4787 12.5782C82.9223 13.1346 82.4881 13.801 82.2038 14.5347C81.9195 15.2684 81.7914 16.0534 81.8277 16.8394C81.8277 18.4075 82.4507 19.9114 83.5595 21.0202C84.6683 22.129 86.1722 22.752 87.7403 22.752C89.3084 22.752 90.8123 22.129 91.9211 21.0202C93.03 19.9114 93.6529 18.4075 93.6529 16.8394C93.6892 16.0534 93.5611 15.2684 93.2768 14.5347C92.9926 13.801 92.5584 13.1346 92.002 12.5782C91.4456 12.0218 90.7792 11.5876 90.0455 11.3033C89.3118 11.0191 88.5259 10.891 87.7399 10.9273Z" fill="var(--fill-0, #363738)"/>
<path id="Rectangle 73" d="M102.361 1.38477H99.2188V25.3117H102.361V1.38477Z" fill="var(--fill-0, #363738)"/>
<path id="Path 8130" d="M72.624 20.6516C72.0617 21.3529 71.3397 21.9095 70.5183 22.2749C69.6969 22.6402 68.8001 22.8037 67.9026 22.7516C66.5207 22.8307 65.1589 22.3915 64.0836 21.52C63.0082 20.6484 62.2966 19.4071 62.0878 18.0388H76.9242V16.8395C76.9471 15.6643 76.7361 14.4962 76.3035 13.4033C75.8708 12.3103 75.2251 11.3143 74.4039 10.4732C73.5394 9.64529 72.5202 8.99594 71.4044 8.56235C70.2887 8.12875 69.0984 7.91943 67.9017 7.94636C66.7105 7.89256 65.521 8.08428 64.407 8.50963C63.2931 8.93497 62.2785 9.58485 61.4263 10.4189C60.5741 11.2529 59.9025 12.2533 59.4533 13.3578C59.0041 14.4623 58.7868 15.6475 58.8149 16.8395C58.8729 18.8803 59.6116 20.8431 60.9134 22.4159C62.2152 23.9886 64.0055 25.0809 65.9995 25.5191C67.9936 25.9573 70.0769 25.7162 71.9181 24.8343C73.7594 23.9523 75.253 22.48 76.1612 20.6516H72.624ZM67.9026 10.9255C69.1893 10.8526 70.461 11.2323 71.497 11.9987C72.5331 12.7652 73.2682 13.8702 73.5749 15.1219H62.1907C62.4996 13.8644 63.2403 12.7554 64.2836 11.9884C65.3269 11.2214 66.6065 10.8452 67.8988 10.9255" fill="var(--fill-0, #363738)"/>
<path id="Path 8131" d="M118.352 25.3117V16.4837C118.352 12.9521 116.445 10.9276 113.118 10.9276C109.841 10.9276 107.885 13.005 107.885 16.4837V25.3117H104.742V1.38477H107.885V10.3195C108.574 9.53287 109.431 8.91126 110.393 8.50067C111.354 8.09008 112.396 7.90102 113.441 7.94747C114.487 7.90658 115.531 8.07235 116.513 8.43529C117.495 8.79823 118.396 9.35123 119.164 10.0626C119.964 10.9213 120.583 11.9325 120.983 13.0358C121.383 14.1391 121.557 15.3118 121.494 16.4837V25.3117H118.352Z" fill="var(--fill-0, #363738)"/>
<path id="Path 8132" d="M131.61 25.7324C126.366 25.7324 123.234 22.5407 123.234 17.1952V8.36719H126.376V17.1952C126.376 20.6758 128.333 22.7532 131.61 22.7532C134.888 22.7532 136.843 20.6758 136.843 17.1952V8.36719H139.985V17.1952C139.985 22.5417 136.854 25.7324 131.61 25.7324Z" fill="var(--fill-0, #363738)"/>
</g>
</svg>

