<svg preserveAspectRatio="xMidYMid meet" width="100%" height="100%" overflow="visible" style="display: block;" viewBox="0 0 133 70" fill="none" xmlns="http://www.w3.org/2000/svg">
<g id="Group 427321005">
<g id="anshei Ha&#39;year">
<path d="M4.11244 25.9516C4.11244 26.2866 4.27944 26.454 4.60301 26.454H4.9892C5.32321 26.454 5.47977 26.2866 5.47977 25.9516V18.2377C5.47977 17.9132 5.31277 17.7458 4.9892 17.7458H0.49057C0.156565 17.7458 0 17.9132 0 18.2377V18.6459C0 18.9808 0.167003 19.1483 0.49057 19.1483H4.102V25.9516H4.11244Z" fill="var(--fill-0, #363738)"/>
<path d="M16.8151 19.1483H20.1447V30.3058C20.1447 30.6302 20.3117 30.7977 20.6353 30.7977H20.9588C21.2928 30.7977 21.4494 30.6302 21.4494 30.3058V18.2377C21.4494 17.9132 21.2824 17.7458 20.9588 17.7458H16.8151C16.4811 17.7458 16.3245 17.9132 16.3245 18.2377V18.6459C16.3245 18.9808 16.4915 19.1483 16.8151 19.1483Z" fill="var(--fill-0, #363738)"/>
<path d="M30.0709 29.0393V18.2377C30.0709 17.9133 29.9039 17.7458 29.5803 17.7458H24.9773C24.6642 17.7458 24.4972 17.9133 24.4972 18.2377V18.6459C24.4972 18.9809 24.6538 19.1483 24.9773 19.1483H28.7036V28.9974C28.7036 30.4418 28.2026 31.5827 27.211 32.4096C26.3238 33.1108 25.2487 33.4667 24.0066 33.4667H17.9215C16.5541 33.4667 15.4791 33.0794 14.7067 32.3049C13.9343 31.5304 13.5481 30.4209 13.5481 28.9974V18.2273C13.5481 17.9028 13.3811 17.7353 13.0575 17.7353H8.78852C8.45451 17.7353 8.29795 17.9028 8.29795 18.2273V18.6355C8.29795 18.9704 8.46495 19.1379 8.78852 19.1379H12.1808V29.3533C12.1808 30.9442 12.6922 32.2316 13.7047 33.2364C14.7276 34.2412 16.0114 34.7332 17.5562 34.7332H24.1528C25.7497 34.7332 27.1275 34.1889 28.307 33.1108C29.476 32.0328 30.0709 30.6721 30.0709 29.0288V29.0393Z" fill="var(--fill-0, #363738)"/>
<path d="M32.8265 34.7436H38.7551C39.1517 34.7436 39.35 34.5343 39.35 34.1052V18.2273C39.35 17.9028 39.1934 17.7353 38.8699 17.7353H33.1187C32.7847 17.7353 32.6281 17.9028 32.6281 18.2273V18.6355C32.6281 18.9704 32.7951 19.1379 33.1187 19.1379H37.9827V33.4562H32.8369C32.5029 33.4562 32.3463 33.6237 32.3463 33.9586V34.2203C32.3463 34.5552 32.5133 34.7227 32.8369 34.7227L32.8265 34.7436Z" fill="var(--fill-0, #363738)"/>
<path d="M54.2132 28.4008C55.5388 28.1915 56.6452 27.553 57.522 26.475C58.4092 25.3969 58.8476 24.12 58.8476 22.6232V18.2377C58.8476 17.9132 58.691 17.7458 58.3674 17.7458H53.2008C52.8668 17.7458 52.7102 17.9132 52.7102 18.2377V18.6459C52.7102 18.9808 52.8772 19.1483 53.2008 19.1483H57.4698V22.686C57.4698 24.0048 57.0836 25.0829 56.3112 25.9202C55.5388 26.7576 54.5994 27.1867 53.4826 27.1867H53.1695L43.6712 17.4946C43.4729 17.2748 43.2641 17.2748 43.0449 17.4946L42.6796 17.8714C42.4709 18.0912 42.4918 18.3214 42.7631 18.5726L47.6271 23.4187C46.2806 23.6176 45.1638 24.2456 44.2766 25.3027C43.3998 26.3598 42.951 27.5844 42.951 28.966V34.2307C42.951 34.5657 43.118 34.7331 43.4416 34.7331H48.2742C48.5873 34.7331 48.7544 34.5657 48.7544 34.2307V33.9691C48.7544 33.6341 48.5978 33.4667 48.2742 33.4667H44.3183V29.1963C44.3183 27.8984 44.7045 26.8099 45.4874 25.9307C46.2702 25.0515 47.2513 24.6119 48.4308 24.6119H48.7126L58.6388 35.0367C58.8267 35.246 59.0355 35.246 59.2651 35.0367L59.5782 34.7436C59.8183 34.5238 59.8183 34.2935 59.5782 34.0423L54.1924 28.4008H54.2132Z" fill="var(--fill-0, #363738)"/>
<path d="M10.7717 40.2909H3.07911C2.7451 40.2909 2.58854 40.4584 2.58854 40.7829V41.1911C2.58854 41.526 2.75554 41.6935 3.07911 41.6935H10.2602C13.1723 41.6935 14.6232 43.1797 14.6232 46.1627V56.7864C14.6232 57.1213 14.7902 57.2888 15.1137 57.2888H15.4999C15.8339 57.2888 15.9905 57.1213 15.9905 56.7864V45.6289C15.9905 43.9438 15.5208 42.6355 14.5919 41.6935C13.6525 40.7619 12.3791 40.2909 10.7717 40.2909Z" fill="var(--fill-0, #363738)"/>
<path d="M22.0339 40.2909H17.5457C17.2117 40.2909 17.0551 40.4584 17.0551 40.7829V41.1911C17.0551 41.526 17.2221 41.6935 17.5457 41.6935H21.1571V48.4968C21.1571 48.8317 21.3241 48.9992 21.6477 48.9992H22.0339C22.3679 48.9992 22.5245 48.8317 22.5245 48.4968V40.7829C22.5245 40.4584 22.3575 40.2909 22.0339 40.2909Z" fill="var(--fill-0, #363738)"/>
<path d="M41.4897 40.291H36.7928C36.4796 40.291 36.3126 40.4584 36.3126 40.7829V41.1911C36.3126 41.526 36.4692 41.6935 36.7928 41.6935H40.613V51.5426C40.613 52.9033 40.2163 53.9918 39.4231 54.7977C38.6298 55.6037 37.5756 56.0119 36.2396 56.0119H30.7181V40.7724C30.7181 40.448 30.551 40.2805 30.2275 40.2805H25.7393C25.4053 40.2805 25.2487 40.448 25.2487 40.7724V41.1806C25.2487 41.5156 25.4157 41.683 25.7393 41.683H29.3612V54.1279L29.8517 56.0014H25.6767C25.3427 56.0014 25.1861 56.1689 25.1861 56.5038V56.7655C25.1861 57.1004 25.3531 57.2679 25.6767 57.2679H36.4483C37.9722 57.2679 39.2665 56.7131 40.3625 55.5932C41.448 54.4733 42.0012 53.1335 42.0012 51.5531V40.7515C42.0012 40.427 41.8342 40.2596 41.5106 40.2596L41.4897 40.291Z" fill="var(--fill-0, #363738)"/>
<path d="M59.3068 40.2909H44.5897C44.2557 40.2909 44.0991 40.4584 44.0991 40.7829V41.1911C44.0991 41.526 44.2662 41.6935 44.5897 41.6935H58.4196V56.7864C58.4196 57.1213 58.5866 57.2888 58.9102 57.2888H59.3068C59.62 57.2888 59.787 57.1213 59.787 56.7864V40.7829C59.787 40.4584 59.6304 40.2909 59.3068 40.2909Z" fill="var(--fill-0, #363738)"/>
<path d="M46.5833 47.0629H46.1867C45.8527 47.0629 45.6961 47.2304 45.6961 47.5653V56.7864C45.6961 57.1213 45.8631 57.2888 46.1867 57.2888H46.5833C46.8964 57.2888 47.0634 57.1213 47.0634 56.7864V47.5653C47.0634 47.2304 46.9069 47.0629 46.5833 47.0629Z" fill="var(--fill-0, #363738)"/>
<path d="M115.19 10.7646C115.597 10.7646 115.931 10.4296 115.931 10.0005C115.931 9.57135 115.597 9.23642 115.19 9.23642C114.783 9.23642 114.449 9.58182 114.449 10.0005C114.449 10.4192 114.783 10.7646 115.19 10.7646Z" fill="var(--fill-0, #363738)"/>
<path d="M116.86 17.9342C117.267 17.9342 117.601 17.5993 117.601 17.1701C117.601 16.741 117.267 16.4061 116.86 16.4061C116.453 16.4061 116.119 16.7515 116.119 17.1701C116.119 17.5888 116.453 17.9342 116.86 17.9342Z" fill="var(--fill-0, #363738)"/>
<path d="M74.5354 33.5504C74.9424 33.5504 75.2765 33.2155 75.2765 32.7864C75.2765 32.3572 74.9424 32.0223 74.5354 32.0223C74.1283 32.0223 73.7943 32.3677 73.7943 32.7864C73.7943 33.205 74.1283 33.5504 74.5354 33.5504Z" fill="var(--fill-0, #363738)"/>
<path d="M70.9553 27.574C71.3623 27.574 71.6963 27.2286 71.6963 26.8099C71.6963 26.3912 71.3623 26.0458 70.9553 26.0458C70.5482 26.0458 70.2142 26.3912 70.2142 26.8099C70.2142 27.2286 70.5482 27.574 70.9553 27.574Z" fill="var(--fill-0, #363738)"/>
<path d="M117.382 10.5657C117.111 10.3878 116.745 10.482 116.568 10.7541C116.39 11.0262 116.484 11.3926 116.756 11.5705C126.15 17.4632 131.755 27.7205 131.755 38.9931C131.755 51.8671 125.106 62.3965 113.499 68.0485V63.6525C122.027 58.8902 127.82 49.6167 127.82 38.9931C127.82 31.0803 124.532 23.492 118.802 18.1749C118.561 17.9551 118.196 17.9656 117.977 18.2063C117.758 18.4471 117.768 18.8134 118.008 19.0437C123.498 24.1409 126.651 31.4152 126.651 38.9931C126.651 48.9364 121.359 57.6342 113.51 62.2919V57.7493C119.062 53.5941 122.674 46.8954 122.674 39.3594C122.674 39.2862 122.674 39.1082 122.674 38.9408L122.872 38.8884C122.872 38.8884 122.883 38.8884 122.893 38.8884C122.945 38.8884 122.997 38.8884 123.05 38.8675C123.363 38.7838 123.54 38.4593 123.457 38.1453C121.254 30.1279 114.637 23.8269 106.537 21.9534V20.0066C107.31 19.9229 108.927 19.6403 109.929 18.7925C110.347 18.6145 111.036 17.8714 110.639 13.1719L111.84 12.659C111.986 12.5962 112.101 12.4706 112.163 12.3241C112.215 12.1671 112.205 11.9996 112.132 11.8635L109.303 6.26389C109.387 6.19062 109.491 6.12782 109.575 6.05456C110.577 5.17536 110.462 4.08683 110.368 3.1239C110.295 2.4645 110.232 1.84696 110.504 1.29223C110.598 1.09337 110.577 0.8631 110.451 0.695633C110.326 0.5177 110.117 0.433967 109.898 0.465367C108.239 0.695633 107.195 0.538634 105.984 0.350234C105.233 0.235101 104.387 0.109501 103.302 0.0571677C100.452 -0.0788987 98.2393 -0.0684322 95.7865 1.2085C94.4296 1.92023 92.7908 3.5635 92.1333 4.89276C91.4444 6.26389 91.3296 8.09556 91.7471 10.4715C91.935 11.5286 93.0831 13.5382 94.3356 15.6839C94.6905 16.2909 95.0976 16.9817 95.1498 17.1387C95.1706 17.2015 95.2228 17.2434 95.2646 17.2957V21.8697C93.5215 22.236 91.7993 22.8326 90.1606 23.6176L87.5198 19.3158L90.4632 17.4318C90.7346 17.2643 90.8077 16.9085 90.6511 16.6363L86.3299 9.50855C86.2464 9.37249 86.1107 9.27829 85.9646 9.24689C85.808 9.21549 85.6515 9.24689 85.5158 9.33062L76.3828 15.2652C76.2785 15.3385 76.195 15.4431 76.1532 15.5583L73.5542 22.8535C73.4916 23.0315 73.5229 23.2408 73.6377 23.3978C73.7421 23.5443 73.9195 23.6385 74.1074 23.6385C74.1074 23.6385 74.1179 23.6385 74.1283 23.6385L81.0693 23.3769C81.1737 23.3769 81.2677 23.3455 81.3616 23.2827L84.1067 21.5243L86.6535 25.6377C82.1966 28.7567 78.9923 33.1946 77.6249 38.1767C77.604 38.2604 77.604 38.3337 77.6145 38.4174C77.6145 38.4384 77.5832 38.4593 77.5832 38.4907C77.5101 38.8047 77.7084 39.1187 78.0216 39.192C78.032 39.192 78.2721 39.2548 78.6687 39.3385C78.4495 42.3948 78.366 43.9124 78.2303 46.6756C78.5747 49.6167 78.9401 50.7785 80.5579 52.2753C81.3616 52.9451 82.4158 53.1231 83.4178 53.1231C84.0858 53.1231 84.7225 53.0393 85.2653 52.9765H85.3697C86.0272 52.8823 86.7892 52.6625 87.6138 52.359V62.4907C79.6081 57.8749 74.1805 49.0934 74.1805 39.0245C74.1805 37.7266 74.2744 36.4288 74.4519 35.1623C74.4936 34.8378 74.2744 34.5448 73.9509 34.4924C73.6273 34.4506 73.335 34.6704 73.2829 34.9948C73.095 36.3136 73.001 37.6743 73.001 39.0245C73.001 49.7738 78.9296 59.1205 87.6138 63.8409V68.216C76.4977 63.3176 69.0765 51.7101 69.0765 39.014C69.0765 35.6228 69.5879 32.284 70.6004 29.0917C70.6943 28.7777 70.5273 28.4532 70.2142 28.3485C69.901 28.2439 69.5775 28.4218 69.4731 28.7358C68.4293 32.0432 67.897 35.5077 67.897 39.014C67.897 52.4637 75.9445 64.7725 87.906 69.6395C87.9791 69.6709 88.0521 69.6813 88.1252 69.6813C88.1252 69.6813 88.1252 69.6813 88.1461 69.6813C88.167 69.6813 88.1774 69.6813 88.1878 69.6813C88.5114 69.6813 88.7723 69.4197 88.7723 69.0952V64.4166C92.3107 66.1227 96.2562 67.0856 100.421 67.0856C104.585 67.0856 108.75 66.0808 112.351 64.2805V68.9905C112.351 69.315 112.612 69.5767 112.925 69.5767C113.019 69.5767 113.103 69.5453 113.176 69.5139C113.207 69.5139 113.238 69.5139 113.27 69.4929C125.763 63.7467 132.934 52.6311 132.934 39.014C132.934 27.3333 127.12 16.7096 117.382 10.5971V10.5657ZM121.515 39.349C121.515 46.1837 118.384 52.2753 113.52 56.2421V50.8309C113.927 49.8993 115.472 46.2988 115.764 45.1789L115.806 45.0219L115.764 44.8649C115.681 44.5718 115.357 42.4157 115.148 40.9818L121.515 39.2338C121.515 39.2338 121.515 39.3071 121.515 39.328V39.349ZM113.52 47.8374V41.4423L114.021 41.3062C114.157 42.2482 114.459 44.3206 114.606 45.0114C114.428 45.608 113.979 46.7384 113.53 47.827L113.52 47.8374ZM110.827 11.8426L109.804 12.2717C109.575 12.3659 109.428 12.6067 109.449 12.8579C109.658 15.0873 109.616 17.2853 109.366 17.7563C109.324 17.7772 109.272 17.8086 109.241 17.8505C108.426 18.6041 106.652 18.8553 106.047 18.8762H106.026C104.199 19.0437 102.487 18.5936 100.943 17.5469C100.682 17.369 100.316 17.4423 100.139 17.7039C99.9615 17.9656 100.024 18.3319 100.296 18.5099C101.83 19.5461 103.5 20.0694 105.295 20.0694C105.326 20.0694 105.358 20.0694 105.389 20.0694V22.3197L96.4336 29.9918V16.898L98.9908 14.6895C99.3144 15.0349 99.7215 15.2966 100.264 15.3385L100.442 15.3594C100.504 15.3594 100.556 15.3594 100.609 15.3594C100.744 15.3594 100.849 15.328 101.047 15.2547C101.35 15.1501 101.517 14.8151 101.402 14.5116C101.298 14.2081 100.964 14.0406 100.661 14.1557L100.556 14.1871L100.337 14.1662C99.3666 14.0929 99.2309 12.1252 99.2309 12.1043C99.2309 12.0624 99.21 12.0205 99.1996 11.9787C99.1578 11.3611 99.1996 10.7018 99.4083 10.3878C99.711 9.92722 100.431 9.74929 100.901 10.0214C101.506 10.3773 101.652 10.7122 101.882 11.4553C101.955 11.6856 102.164 11.8531 102.404 11.874C102.842 11.8949 103.396 11.874 103.74 11.5182C104.074 11.1623 104.022 10.7122 103.98 10.3459C103.959 10.147 103.938 9.93768 103.959 9.74929C104.137 8.58749 104.711 8.23162 106.015 7.84436C106.923 7.57222 107.675 7.25822 108.322 6.90236L110.817 11.8321L110.827 11.8426ZM105.389 23.8688V30.8187H97.2582L105.389 23.8688ZM92.8952 10.2622C92.509 8.13742 92.603 6.54649 93.1666 5.41609C93.7198 4.31709 95.1915 2.83083 96.3188 2.2447C98.5107 1.10383 100.494 1.10383 103.239 1.22943C104.262 1.28177 105.045 1.3969 105.796 1.51203C106.83 1.66903 107.821 1.82603 109.178 1.72136C109.105 2.25516 109.157 2.7785 109.209 3.25996C109.303 4.19149 109.335 4.73576 108.813 5.19629C108.072 5.84522 107.08 6.33716 105.692 6.74536C104.345 7.14309 103.114 7.66642 102.821 9.59229C102.769 9.93769 102.801 10.2412 102.821 10.4924C102.821 10.5448 102.832 10.618 102.842 10.6704C102.613 10.0319 102.279 9.49809 101.485 9.02709C100.483 8.44095 99.0952 8.78635 98.4376 9.75975C97.7383 10.8169 98.1141 12.8055 98.1558 13.0358C98.1558 13.0672 98.1871 13.0986 98.1976 13.13C98.2393 13.3184 98.3019 13.5068 98.3646 13.6847L95.7969 15.9037C95.6716 15.6839 95.5151 15.4222 95.3168 15.0873C94.4609 13.6324 93.0414 11.2042 92.8744 10.2622H92.8952ZM83.7414 20.3311L83.4805 20.4881L80.8502 22.1732L74.932 22.393L77.1761 16.1025L85.641 10.5971L89.3569 16.7305L83.7414 20.3206V20.3311ZM85.0878 20.8858L86.5804 19.9961L89.3986 24.5805C89.3986 24.5805 89.3986 24.6015 89.3986 24.6119C89.3986 24.6224 89.4195 24.6329 89.4299 24.6433L97.8636 38.386C97.4356 38.7105 96.9972 39.0873 96.5797 39.4641L85.0774 20.8858H85.0878ZM87.2589 26.6006L95.8178 40.4375L95.5986 41.0236C94.8784 41.4109 92.2794 42.803 91.0478 43.2635C91.0164 43.274 90.9851 43.2949 90.9538 43.3054C90.5363 43.5566 89.6178 43.9857 88.6471 44.4148V40.9085C88.668 40.6364 88.4801 40.4061 88.2191 40.3433C86.3091 39.8514 80.631 38.5535 78.8252 38.1453C80.1613 33.5714 83.136 29.4894 87.2484 26.6006H87.2589ZM87.499 41.4946V44.9382C87.1232 45.0952 86.7788 45.2417 86.4761 45.3778L87.499 41.5051V41.4946ZM85.2131 51.7729H85.1087C83.971 51.9299 82.2384 52.1392 81.3094 51.3542C79.963 50.1087 79.6916 49.1981 79.3785 46.5919C79.5141 43.9857 79.5976 42.4785 79.8064 39.5583C81.633 39.977 84.4616 40.6259 86.403 41.0969L85.0461 46.2151C84.9939 46.4349 85.0565 46.6547 85.2235 46.8012C85.3905 46.9478 85.6202 46.9896 85.8289 46.8954C86.0168 46.8222 90.2858 45.0324 91.507 44.3206C93.0414 43.7345 96.2248 41.997 96.3605 41.9238C96.4858 41.861 96.5797 41.7458 96.6319 41.6098L96.9764 40.6782C98.0827 39.642 99.471 38.5326 99.8258 38.4698C100.734 38.5535 102.383 40.741 102.79 41.9133C102.926 42.3006 102.926 43.253 102.811 43.4414C102.55 43.6717 100.964 44.1427 99.6588 44.4462C99.5962 44.4567 99.5336 44.4881 99.4814 44.5195L98.3646 45.2103C98.3646 45.2103 96.0578 46.7384 94.7218 47.4711L93.8555 47.9421C91.4548 49.2609 87.4363 51.4798 85.2131 51.7519V51.7729ZM105.608 50.7367L104.241 51.7415L100.275 45.5243C100.755 45.4092 101.381 45.2417 101.976 45.0533V45.0742L105.598 50.7262L105.608 50.7367ZM112.341 62.9408C108.76 64.8248 104.7 65.8924 100.4 65.8924C96.0996 65.8924 92.269 64.8771 88.7515 63.0873V58.9007C92.2063 61.0987 95.9743 62.1767 100.233 62.1767C104.491 62.1767 108.844 60.837 112.341 58.5553V62.9408ZM112.779 40.448C112.528 40.5212 112.351 40.7515 112.351 41.0132V57.1527C108.907 59.5915 104.732 61.0254 100.233 61.0254C95.7343 61.0254 92.1855 59.8845 88.7515 57.5295V51.8775C90.7033 51.0402 92.8013 49.8889 94.4087 48.9992L95.2646 48.5282C96.6528 47.7746 98.9073 46.2779 98.9804 46.2256L99.2309 46.0686L103.583 52.8928C103.667 53.0289 103.813 53.1231 103.97 53.1545C104.001 53.1545 104.043 53.1545 104.074 53.1545C104.199 53.1545 104.314 53.1126 104.418 53.0393L106.725 51.3437C106.976 51.1658 107.038 50.8204 106.871 50.5588L103.072 44.6242C103.291 44.5195 103.489 44.4148 103.594 44.2997C104.231 43.6822 104.043 42.0598 103.865 41.547C103.458 40.3956 101.579 37.4859 99.9093 37.3289C99.6484 37.2975 99.2518 37.465 98.8134 37.7266L90.7555 24.6015C92.2063 23.9211 93.7094 23.3978 95.2437 23.0524V31.1641C95.2437 31.1641 95.2541 31.2373 95.2646 31.2687C95.2541 31.321 95.2333 31.3629 95.2333 31.4153C95.2333 31.7397 95.4942 32.0014 95.8178 32.0014L105.942 31.9804C106.266 31.9804 106.527 31.7188 106.527 31.3943V23.1466C113.896 24.9469 119.918 30.6198 122.142 37.8627L112.769 40.427L112.779 40.448Z" fill="var(--fill-0, #363738)"/>
</g>
</g>
</svg>

