<svg preserveAspectRatio="xMidYMid meet" width="100%" height="100%" overflow="visible" style="display: block;" viewBox="0 0 73 56" fill="none" xmlns="http://www.w3.org/2000/svg">
<g id="Group 1">
<path id="Vector" d="M47.9862 45.7295H44.7843V34.5567H47.9862V45.7295ZM18.5015 54.9053H2.44141e-05V51.8278H11.4641V37.637H2.44141e-05V34.5567H14.6689V51.825H18.5015V54.9024V54.9053ZM62.9973 55.3154C61.2606 55.3154 59.4334 54.8826 57.6372 54.0199L57.3176 53.8672L58.7319 51.1433L59.0459 51.313C61.4473 52.6311 63.9817 52.7075 65.9984 51.528C68.1707 50.2551 69.469 47.7151 69.469 44.7338C69.469 40.2478 66.417 37.1137 62.0498 37.1137C57.6825 37.1137 54.5966 40.2478 54.5966 44.7338V54.9081H51.3946V44.7338C51.3946 41.7101 52.4553 38.9778 54.3816 37.043C56.3107 35.1055 59.0345 34.0363 62.0498 34.0363C65.065 34.0363 67.7662 35.1055 69.6897 37.043C71.6131 38.9806 72.6709 41.713 72.6709 44.7338C72.6709 48.6683 70.9201 52.1078 67.9869 53.9322C66.5019 54.8572 64.7963 55.3182 62.9973 55.3182M31.0009 55.4314C27.9856 55.4314 25.2617 54.365 23.3327 52.4246C21.4064 50.4871 20.3457 47.7575 20.3457 44.7338V34.5596H23.5505V44.7338C23.5505 49.2199 26.6138 52.3539 31.0009 52.3539C35.3879 52.3539 38.4201 49.2199 38.4201 44.7338C38.4201 41.7526 37.1246 39.2125 34.9523 37.9397C32.9356 36.7573 30.4012 36.8365 27.9969 38.1546L27.6858 38.3244L26.2687 35.6005L26.5883 35.4477C30.2456 33.6884 34.0189 33.7195 36.9408 35.5354C39.874 37.3598 41.6249 40.7993 41.6249 44.7338C41.6249 47.7547 40.5642 50.4871 38.6436 52.4246C36.7173 54.3622 34.0048 55.4314 31.0009 55.4314Z" fill="var(--fill-0, #363738)"/>
<path id="Vector_2" d="M57.8326 12.3553L49.7778 9.59404C49.4914 9.4978 49.1757 9.52741 48.9113 9.68287L43.6613 12.7403V6.72173C43.6613 6.41821 43.5292 6.1221 43.3016 5.92222L36.8988 0.266439C36.5023 -0.0888984 35.9075 -0.0888984 35.5037 0.266439L29.1009 5.92222C28.8733 6.1221 28.7411 6.41821 28.7411 6.72173V12.7403L23.4912 9.68287C23.2268 9.52741 22.9111 9.4978 22.6247 9.59404L14.5772 12.3553C14.0779 12.5256 13.7769 13.0438 13.8797 13.5694L15.5391 21.9864C15.5978 22.2899 15.7814 22.549 16.0457 22.7045L21.2663 25.7397H51.1435L56.3641 22.7045C56.6284 22.549 56.812 22.2899 56.8707 21.9864L58.5302 13.5694C58.633 13.0438 58.3393 12.5256 57.8326 12.3553Z" fill="var(--fill-0, #363738)"/>
</g>
</svg>

