<svg preserveAspectRatio="xMidYMid meet" width="100%" height="100%" overflow="visible" style="display: block;" viewBox="0 0 91 82" fill="none" xmlns="http://www.w3.org/2000/svg">
<g id="Group 70">
<g id="Vector">
<path d="M29.1811 56.6165C14.0544 56.6165 1.74582 44.3116 1.74582 29.1812C1.74582 14.0507 14.0544 1.74948 29.1811 1.74948C34.4662 1.74948 39.4035 3.25374 43.5942 5.85234C44.0993 5.4717 44.619 5.1057 45.1534 4.758C40.5674 1.74948 35.081 0 29.1811 0C13.0662 0 0 13.0662 0 29.1812C0 45.2961 13.0662 58.366 29.1811 58.366C35.0774 58.366 40.5637 56.6165 45.1534 53.608C44.6227 53.2603 44.1029 52.8943 43.5942 52.5136C39.4035 55.1122 34.4625 56.6165 29.1811 56.6165Z" fill="var(--fill-0, #363738)"/>
<path d="M40.399 49.7247C37.0648 51.5511 33.2437 52.5942 29.1811 52.5942C16.2723 52.5942 5.77181 42.0936 5.77181 29.1848C5.77181 16.276 16.276 5.77548 29.1848 5.77548C33.2474 5.77548 37.0684 6.81491 40.4027 8.64491C40.8346 8.20937 41.2811 7.78847 41.7386 7.37855C38.042 5.24844 33.7561 4.026 29.1848 4.026C15.2878 4.026 4.02599 15.2878 4.02599 29.1812C4.02599 43.0745 15.2878 54.34 29.1848 54.34C33.7561 54.34 38.042 53.1212 41.7386 50.9874C41.2811 50.5812 40.8346 50.1566 40.4027 49.7211" fill="var(--fill-0, #363738)"/>
<path d="M29.1812 48.5682C18.494 48.5682 9.79789 39.872 9.79789 29.1848C9.79789 18.4976 18.494 9.80147 29.1812 9.80147C32.2373 9.80147 35.1287 10.5152 37.7017 11.7779C38.0604 11.2984 38.4337 10.8299 38.818 10.3724C35.9266 8.89013 32.6509 8.05199 29.1812 8.05199C17.5095 8.05199 8.04841 17.5131 8.04841 29.1848C8.04841 40.8565 17.5095 50.3176 29.1812 50.3176C32.6546 50.3176 35.9266 49.4795 38.818 47.9972C38.43 47.5397 38.0567 47.0712 37.7017 46.5918C35.1287 47.8581 32.2373 48.5682 29.1812 48.5682Z" fill="var(--fill-0, #363738)"/>
<path d="M61.1294 12.0744C58.5491 12.0744 56.1006 12.649 53.9082 13.6738C53.3739 13.9227 52.8541 14.1972 52.3491 14.501C51.6976 14.8926 51.0754 15.3245 50.4861 15.7966C50.0213 16.1663 49.5748 16.5616 49.1502 16.9752C48.5829 17.5315 48.0559 18.1281 47.5691 18.7576C47.1665 19.2809 46.7932 19.8263 46.4528 20.3936C46.0063 21.1366 45.6147 21.9198 45.2853 22.7323H47.1958C47.2434 22.6262 47.2946 22.52 47.3459 22.4139C47.6716 21.7514 48.0449 21.1146 48.4622 20.5107C48.938 19.819 49.4687 19.1711 50.0469 18.5672C50.4678 18.1281 50.9107 17.7108 51.3792 17.3265C51.9648 16.8434 52.5906 16.4042 53.2458 16.0089C53.7472 15.7088 54.2669 15.438 54.8049 15.1927C56.7374 14.3143 58.8785 13.8239 61.1331 13.8239C69.6023 13.8239 76.4904 20.712 76.4904 29.1812C76.4904 37.6505 69.6023 44.5386 61.1331 44.5386C58.8785 44.5386 56.7374 44.0445 54.8049 43.1697C54.2669 42.9245 53.7472 42.6537 53.2458 42.3536C52.5906 41.9583 51.9684 41.5191 51.3792 41.036C50.9107 40.648 50.4678 40.2344 50.0469 39.7952C49.4687 39.1913 48.938 38.5435 48.4622 37.8518C48.0486 37.2479 47.6753 36.611 47.3459 35.9486C47.2946 35.8424 47.2434 35.7363 47.1958 35.6302H45.2853C45.6147 36.4427 46.0063 37.2259 46.4528 37.9689C46.7932 38.5362 47.1665 39.0815 47.5691 39.6049C48.0559 40.2344 48.5829 40.831 49.1502 41.3873C49.5748 41.8046 50.0213 42.1962 50.4861 42.5658C51.0754 43.038 51.6976 43.4699 52.3491 43.8615C52.8541 44.1616 53.3739 44.4361 53.9082 44.6886C56.1042 45.7134 58.5491 46.2881 61.1294 46.2881C70.5795 46.2881 78.2362 38.6277 78.2362 29.1812C78.2362 19.7348 70.5759 12.0744 61.1294 12.0744Z" fill="#363738"/>
<path d="M29.1812 44.5422C20.712 44.5422 13.8239 37.654 13.8239 29.1848C13.8239 20.7156 20.7157 13.8275 29.1812 13.8275C31.4358 13.8275 33.5769 14.3216 35.5094 15.1963C35.7912 14.6802 36.0913 14.1752 36.4024 13.6774C34.2064 12.6526 31.7615 12.078 29.1812 12.078C19.7348 12.078 12.0744 19.7384 12.0744 29.1848C12.0744 38.6313 19.7348 46.2916 29.1812 46.2916C31.7615 46.2916 34.2101 45.717 36.4024 44.6922C36.0913 44.1945 35.7912 43.6894 35.5094 43.1733C33.5769 44.0517 31.4358 44.5422 29.1812 44.5422Z" fill="var(--fill-0, #363738)"/>
<path d="M61.1292 0C55.2293 0 49.743 1.74948 45.157 4.758C44.6263 5.1057 44.1066 5.4717 43.5979 5.85234C42.9574 6.33545 42.3352 6.84419 41.7386 7.37855C41.2811 7.78847 40.8346 8.20937 40.4027 8.64491C39.8537 9.19757 39.3266 9.77585 38.8216 10.3724C38.4373 10.8299 38.0639 11.2984 37.7053 11.7779C37.2478 12.3927 36.8159 13.0259 36.406 13.6737C36.0949 14.1715 35.7947 14.6766 35.5129 15.1926C34.2356 17.5277 33.2657 20.0604 32.6655 22.7322H34.4662C35.0408 20.3569 35.9265 18.1023 37.0721 16.0088C37.3539 15.4964 37.654 14.9913 37.9651 14.5009C38.3714 13.8604 38.8069 13.2382 39.2644 12.6343C39.6231 12.1622 39.9928 11.7047 40.3771 11.2582C40.8821 10.6762 41.4092 10.1162 41.9582 9.57821C42.3901 9.15731 42.8366 8.74739 43.2941 8.35211C43.8943 7.83971 44.5129 7.34927 45.1534 6.88811C45.6584 6.52577 46.1818 6.17807 46.7125 5.84868C50.9032 3.25008 55.8442 1.74582 61.1256 1.74582C76.2523 1.74582 88.5609 14.0507 88.5609 29.1812C88.5609 44.3116 76.256 56.6165 61.1256 56.6165C55.8405 56.6165 50.9032 55.1122 46.7125 52.5136C46.1818 52.1842 45.6621 51.8365 45.1534 51.4742C44.5129 51.013 43.8907 50.5263 43.2941 50.0139C42.8366 49.6222 42.3901 49.2123 41.9582 48.7878C41.4092 48.2497 40.8785 47.6898 40.3771 47.1078C39.9928 46.6613 39.6194 46.2038 39.2644 45.7317C38.8069 45.1278 38.3714 44.5056 37.9651 43.8651C37.6504 43.371 37.3539 42.8695 37.0721 42.3571C35.9228 40.2673 35.0371 38.0091 34.4662 35.6337H32.6655C33.2694 38.3019 34.2356 40.8346 35.5129 43.1733C35.7947 43.6894 36.0949 44.1945 36.406 44.6922C36.8159 45.3437 37.2478 45.9769 37.7053 46.5881C38.0639 47.0676 38.4373 47.536 38.8216 47.9935C39.3266 48.5901 39.8537 49.1684 40.4027 49.7211C40.8346 50.1566 41.2811 50.5775 41.7386 50.9874C42.3388 51.5218 42.9574 52.0305 43.5979 52.5136C44.1029 52.8943 44.6227 53.2603 45.157 53.608C49.7466 56.6165 55.233 58.366 61.1292 58.366C77.2478 58.366 90.314 45.2998 90.314 29.1848C90.314 13.0698 77.2442 0 61.1292 0Z" fill="#363738"/>
<path d="M61.1293 4.026C56.558 4.026 52.2722 5.24478 48.5756 7.37855C48.0449 7.68599 47.5251 8.01173 47.0164 8.35577C46.3759 8.79131 45.7537 9.25613 45.1571 9.74657C44.696 10.1236 44.2531 10.5188 43.8212 10.9288C43.2722 11.4521 42.7452 11.9975 42.2438 12.5684C41.8558 13.0113 41.4825 13.4651 41.1238 13.9336C40.6663 14.5338 40.2308 15.156 39.8282 15.8002C39.5134 16.298 39.217 16.8104 38.9388 17.3337C38.0311 19.0283 37.3138 20.84 36.8087 22.7396H38.624C39.0413 21.2902 39.5939 19.8957 40.2674 18.5745C40.5455 18.0291 40.8457 17.4984 41.1641 16.9824C41.5667 16.3272 41.9986 15.6977 42.4597 15.0865C42.8147 14.618 43.188 14.1605 43.576 13.7213C44.0774 13.154 44.6045 12.6123 45.1535 12.0963C45.5853 11.6937 46.0319 11.3057 46.4894 10.9361C47.0859 10.4566 47.7045 10.0064 48.3486 9.58553C48.8537 9.25613 49.3734 8.94137 49.9078 8.64857C53.2421 6.82223 57.0631 5.7828 61.1257 5.7828C74.0345 5.7828 84.535 16.2833 84.535 29.1921C84.535 42.1009 74.0345 52.6015 61.1257 52.6015C57.0631 52.6015 53.2421 51.562 49.9078 49.732C49.3734 49.4392 48.8537 49.1281 48.3486 48.7951C47.7045 48.3742 47.0859 47.924 46.4894 47.4445C46.0282 47.0749 45.5817 46.6869 45.1535 46.2843C44.6008 45.7683 44.0738 45.2266 43.576 44.6593C43.188 44.2164 42.8147 43.7626 42.4597 43.2941C41.9986 42.6829 41.5667 42.0534 41.1641 41.3982C40.8457 40.8785 40.5455 40.3478 40.2674 39.8025C39.5939 38.4812 39.0413 37.0868 38.624 35.6374H36.8087C37.3101 37.5369 38.0311 39.3486 38.9388 41.0432C39.217 41.5666 39.5171 42.0753 39.8282 42.5767C40.2344 43.2172 40.6663 43.8394 41.1238 44.4433C41.4825 44.9118 41.8522 45.3657 42.2438 45.8049C42.7452 46.3758 43.2722 46.9212 43.8212 47.4445C44.2531 47.8545 44.6996 48.2497 45.1571 48.6267C45.7537 49.1172 46.3759 49.582 47.0164 50.0175C47.5215 50.3616 48.0412 50.6873 48.5756 50.9947C52.2722 53.1249 56.558 54.3473 61.1293 54.3473C75.0227 54.3473 86.2881 43.0855 86.2881 29.1885C86.2881 15.2915 75.0227 4.026 61.1293 4.026Z" fill="#363738"/>
<path d="M61.129 8.05199C57.6556 8.05199 54.3836 8.89013 51.4922 10.3724C50.9578 10.6469 50.4418 10.9434 49.9367 11.2582C49.2926 11.6608 48.6704 12.1 48.0738 12.5684C47.6126 12.9308 47.1661 13.3151 46.7379 13.714C46.1852 14.2301 45.6545 14.7754 45.1604 15.3464C44.7688 15.7965 44.3991 16.2687 44.0441 16.7518C43.5756 17.396 43.1438 18.0657 42.7485 18.7611C42.4264 19.3284 42.1263 19.914 41.8554 20.5143C41.5297 21.2353 41.2479 21.9746 41.0027 22.7359H42.8546C42.8912 22.6298 42.9278 22.5236 42.9681 22.4175C43.2279 21.7221 43.5281 21.0486 43.8611 20.3972C44.2454 19.6432 44.6773 18.9149 45.1568 18.2195C45.5045 17.7144 45.8778 17.2239 46.2731 16.7518C46.7672 16.1625 47.2942 15.6062 47.8542 15.0792C48.2824 14.6766 48.7289 14.2923 49.1901 13.9299C49.783 13.4651 50.4015 13.0296 51.0493 12.6343C51.5544 12.3269 52.0778 12.0414 52.6085 11.7779C55.1815 10.5115 58.0729 9.80147 61.129 9.80147C71.8162 9.80147 80.5123 18.4976 80.5123 29.1848C80.5123 39.872 71.8162 48.5682 61.129 48.5682C58.0729 48.5682 55.1815 47.8545 52.6085 46.5918C52.0741 46.3282 51.5544 46.0464 51.0493 45.7353C50.4015 45.34 49.783 44.9045 49.1901 44.4397C48.7289 44.0773 48.2824 43.693 47.8542 43.2904C47.2942 42.7634 46.7672 42.2071 46.2731 41.6178C45.8778 41.1457 45.5045 40.6589 45.1568 40.1502C44.6773 39.4548 44.2491 38.7301 43.8611 37.9761C43.5281 37.321 43.2243 36.6476 42.9681 35.9522C42.9278 35.846 42.8912 35.7399 42.8546 35.6337H41.0027C41.2479 36.395 41.5297 37.1343 41.8554 37.8553C42.1263 38.4556 42.4227 39.0412 42.7485 39.6085C43.1438 40.3039 43.5756 40.9737 44.0441 41.6178C44.3955 42.1009 44.7688 42.5694 45.1604 43.0233C45.6582 43.5979 46.1852 44.1396 46.7379 44.6556C47.1661 45.0546 47.6126 45.4389 48.0738 45.8012C48.6704 46.2697 49.2926 46.7052 49.9367 47.1115C50.4418 47.4262 50.9615 47.7227 51.4922 47.9972C54.3836 49.4795 57.6593 50.3176 61.129 50.3176C72.8007 50.3176 82.2618 40.8565 82.2618 29.1848C82.2618 17.5131 72.8007 8.05199 61.129 8.05199Z" fill="#363738"/>
<path d="M58.1022 26.4874C57.8204 25.3419 57.2385 24.5513 56.2979 23.8632C55.5439 23.3106 54.4862 23.0361 53.5346 22.8531C53.1356 22.7762 52.7257 22.7359 52.3048 22.7359H30.978C27.4168 22.7359 24.5291 25.6237 24.5291 29.1849C24.5291 32.746 27.4168 35.6338 30.978 35.6338H47.1955C47.243 35.7399 47.2943 35.8461 47.3455 35.9522C47.6713 36.6147 48.0446 37.2515 48.4618 37.8554C48.7876 37.1344 49.0694 36.3951 49.3146 35.6338C49.483 35.1104 49.6294 34.5797 49.7575 34.038H31.0951C28.5697 34.038 26.3774 32.1531 26.1505 29.635C25.887 26.7546 28.1562 24.328 30.9853 24.328H52.3121C52.8794 24.328 53.4248 24.4305 53.9335 24.6099L53.9664 24.6208C55.5549 25.1991 56.598 26.7253 56.6419 28.4163C56.6492 28.6725 56.6419 28.925 56.6236 29.1812C56.5614 29.9754 56.5541 30.7916 56.5175 31.5968C56.4735 32.5411 56.3052 33.4671 56.1295 34.3784C55.5842 37.2149 54.5996 39.8977 53.2491 42.3499C53.7505 42.65 54.2702 42.9208 54.8083 43.1661C56.7041 39.6964 57.9192 35.8021 58.2669 31.6627C58.3365 30.8428 58.3731 30.0157 58.3731 29.1775C58.3731 28.3394 58.3072 27.2817 58.1132 26.4838" fill="var(--fill-0, #363738)"/>
<path d="M52.6821 26.7181C52.4881 26.6705 52.0635 26.6669 51.8549 26.6669H31.4285C30.0377 26.6669 28.9104 27.7941 28.9104 29.1849C28.9104 30.5757 30.0377 31.703 31.4285 31.703H50.164C50.2262 31.176 50.2701 30.6453 50.2921 30.1073H31.4468C31.0478 30.1073 30.6745 29.8657 30.5537 29.4851C30.3524 28.8519 30.8246 28.2663 31.4285 28.2663H51.8549C52.1513 28.2663 52.3234 28.2736 52.4881 28.4273C52.4881 28.4273 52.5796 28.5188 52.5979 28.6689C52.6235 28.8519 52.6125 29.0093 52.6125 29.1923C52.6125 29.3753 52.6125 29.5839 52.6052 29.7705C52.5905 30.4037 52.5283 31.0076 52.4625 31.6262C52.3783 32.446 52.2502 33.2512 52.0818 34.0418C51.9683 34.5798 51.8366 35.1141 51.6865 35.6375C51.2693 37.0869 50.7166 38.4813 50.0432 39.8026C50.4641 40.2418 50.907 40.659 51.3754 41.0433C52.3014 39.3122 53.0334 37.4602 53.5348 35.5204C53.6849 34.9421 53.813 34.3529 53.9228 33.7599C53.9228 33.7599 54.6365 29.8986 54.3547 28.4676C54.1607 27.483 53.6446 26.9633 52.6821 26.7254" fill="var(--fill-0, #363738)"/>
</g>
<path id="Vector_2" d="M12.7729 70.6798V81.6817H15.0238V74.4203C15.6351 73.4431 16.5647 72.594 17.5712 72.594C18.8558 72.594 19.683 73.6554 19.683 75.1011V81.6854H21.9339V74.9766C21.9339 74.8083 21.9229 74.6362 21.9119 74.4679C22.5232 73.4504 23.4711 72.5976 24.4776 72.5976C25.7622 72.5976 26.5894 73.659 26.5894 75.1047V81.6891H28.8403V74.9803C28.8403 72.3048 27.2226 70.4346 24.8143 70.4346C23.4308 70.4346 22.0803 71.2215 21.308 72.411C20.6273 71.1885 19.4231 70.4346 17.9006 70.4346C16.755 70.4346 15.69 71.1153 15.0165 71.9644V70.6908H12.7656L12.7729 70.6798ZM36.3469 79.7676C34.473 79.7676 33.009 78.1974 33.009 76.1771C33.009 74.1568 34.4694 72.5866 36.3469 72.5866C38.2245 72.5866 39.6848 74.1604 39.6848 76.1771C39.6848 78.1938 38.2245 79.7676 36.3469 79.7676ZM36.3469 70.4236C33.1078 70.4236 30.7179 72.9709 30.7179 76.1771C30.7179 79.3833 33.1078 81.9306 36.3469 81.9306C39.586 81.9306 41.976 79.3833 41.976 76.1771C41.976 72.9709 39.586 70.4236 36.3469 70.4236ZM49.2996 79.7676C47.9747 79.7676 46.8328 78.9807 46.2984 77.7912V74.585C46.8328 73.3955 47.9784 72.5903 49.2996 72.5903C51.1735 72.5903 52.6375 74.1641 52.6375 76.1808C52.6375 78.1974 51.1772 79.7712 49.2996 79.7712M49.6949 70.4272C48.3919 70.4272 47.2061 70.8957 46.2984 71.8729V66.1816H44.0475V81.6854H46.2984V80.4959C47.2061 81.4731 48.3919 81.9379 49.6949 81.9379C52.7364 81.9379 54.9287 79.3064 54.9287 76.1844C54.9287 73.0624 52.7364 70.4309 49.6949 70.4309M57.0991 81.6854H59.35V70.6834H57.0991V81.6854ZM56.8209 67.6896C56.8209 68.5387 57.4321 69.1975 58.2227 69.1975C59.0132 69.1975 59.6244 68.5387 59.6244 67.6896C59.6244 66.8404 59.0132 66.1816 58.2227 66.1816C57.4321 66.1816 56.8209 66.8404 56.8209 67.6896ZM62.3109 81.6854H64.5618V66.1816H62.3109V81.6854ZM77.4559 76.9713C77.5145 76.6968 77.5547 76.2906 77.5547 75.9721C77.5547 72.9343 75.3624 70.4309 72.2441 70.4309C69.1258 70.4309 66.7358 72.9783 66.7358 76.1844C66.7358 79.3906 69.005 81.9379 72.4015 81.9379C74.2168 81.9379 75.7979 81.2572 76.9216 79.9432L75.3807 78.4134C74.5718 79.3064 73.5031 79.8554 72.3392 79.8554C70.652 79.8554 69.2905 78.6439 69.0306 76.9677H77.4522L77.4559 76.9713ZM72.2441 72.5098C73.7154 72.5098 74.85 73.5602 75.1977 74.973H69.1258C69.5503 73.5273 70.824 72.5098 72.2441 72.5098Z" fill="var(--fill-0, #363738)"/>
</g>
</svg>

