<svg preserveAspectRatio="xMidYMid meet" width="100%" height="100%" overflow="visible" style="display: block;" viewBox="0 0 13 15" fill="none" xmlns="http://www.w3.org/2000/svg">
<path id="Vector" d="M8.98253 4.87389C9.03036 5.16541 8.84361 5.61864 8.56575 5.88966C8.41543 6.11514 7.91893 6.29734 7.45887 6.29734H4.85339C4.83289 6.29734 4.81695 6.2814 4.81695 6.2609V3.50282C4.81695 3.48233 4.83289 3.46638 4.85339 3.46638H5.78034V3.45955C5.78034 3.45955 5.79628 3.45272 5.81678 3.45272H7.4566C7.79139 3.40717 8.28561 3.58937 8.56347 3.86039C8.84133 4.13142 8.98026 4.47077 8.98026 4.87617M12.8406 4.87617C12.8839 4.40472 12.7108 3.54382 12.4535 2.95622C12.3168 2.54399 11.8408 1.85162 11.3876 1.41206C11.1211 1.09093 10.3878 0.626317 9.75233 0.37579C9.35377 0.168536 8.41771 0 7.65929 0H0.0364411C0.0159435 0 0 0.0159426 0 0.0364403V3.42994C0 3.45044 0.0159435 3.46638 0.0364411 3.46638H0.915564C0.936061 3.46638 0.952001 3.48233 0.952001 3.50282V10.718C0.952001 10.7385 0.936061 10.7544 0.915564 10.7544H0.0364411C0.0159435 10.7544 0 10.7704 0 10.7909V14.1844C0 14.2049 0.0159435 14.2208 0.0364411 14.2208H5.56626C5.58675 14.2208 5.6027 14.2049 5.6027 14.1844V10.7544H4.85112C4.83062 10.7544 4.81467 10.7385 4.81467 10.718V9.78877C4.81467 9.76828 4.83062 9.75233 4.85112 9.75233H6.80978C6.83028 9.75233 6.85533 9.766 6.86444 9.78422L9.26722 14.1889C9.27633 14.2072 9.30139 14.2208 9.32189 14.2208H12.5947C12.6152 14.2208 12.6311 14.2049 12.6311 14.1844V10.7909C12.6311 10.7704 12.6152 10.7544 12.5947 10.7544H11.4149C11.3944 10.7544 11.3694 10.7408 11.3603 10.7226C11.3603 10.7226 11.3785 10.7544 10.4219 9.07363C10.4128 9.05541 10.4196 9.03492 10.4379 9.02581C10.7408 8.91193 11.2714 8.4997 11.6245 8.10797C11.8385 7.92804 12.2166 7.35638 12.4671 6.828C12.7177 6.29962 12.8429 5.64825 12.8429 4.87617" fill="var(--fill-0, #363738)"/>
</svg>

