<svg preserveAspectRatio="xMidYMid meet" width="100%" height="100%" overflow="visible" style="display: block;" viewBox="0 0 129 33" fill="none" xmlns="http://www.w3.org/2000/svg">
<g id="Group">
<path id="Vector" d="M16.8526 18.659C16.8526 22.3295 13.526 24.9501 7.73314 24.9501C5.17699 24.9501 1.66192 24.0859 0 23.1317L1.07702 16.9617L1.23168 16.9307C2.80361 22.4815 5.05325 24.3336 7.73314 24.3336C10.413 24.3336 12.0468 22.853 12.0468 20.9728C12.0468 14.9576 0.801434 15.8527 0.801434 8.3569C0.801434 4.81027 4.00717 1.91104 8.6583 1.91104C11.6784 1.91104 14.1418 2.8371 15.6209 3.76035L14.572 9.43496L14.4483 9.46592C13.3994 5.27189 11.4282 2.52747 8.65549 2.52747C6.43678 2.52747 5.05044 3.94613 5.05044 5.70537C5.05044 11.7515 16.8526 10.7016 16.8526 18.659Z" fill="var(--fill-0, #363738)"/>
<path id="Vector_2" d="M35.8659 15.5147C35.8659 22.3913 31.8306 24.9527 27.3622 24.9527C26.0687 24.9527 24.9888 24.6121 24.1284 24.0576V27.6662C24.1284 30.4106 24.5586 31.5534 25.6694 31.8602V32.015H17.8125V31.8602C18.9204 31.5196 19.3226 30.7202 19.3226 27.6662V13.9413C19.3226 10.5494 18.7377 9.46857 17.8434 9.00695L17.9053 8.8831C20.2168 8.82117 22.8658 8.42147 24.314 7.95703L24.4068 8.04992C24.2212 9.25183 24.1284 11.104 24.1284 13.9413V19.6468C24.1284 23.1315 25.3291 24.3954 27.3622 24.3954C29.3953 24.3954 30.8435 22.4222 30.8435 16.9306C30.8435 12.4579 29.6428 10.4847 27.3313 10.4847C26.0996 10.4847 25.2054 11.1011 24.6514 12.0582L24.5586 11.9962C25.1126 10.0231 26.8701 7.95703 29.8284 7.95703C33.4025 7.95703 35.8687 11.104 35.8687 15.5147H35.8659Z" fill="var(--fill-0, #363738)"/>
<path id="Vector_3" d="M45.7872 24.5502V24.6741H37.9922V24.5502C39.1001 24.1815 39.5023 23.3793 39.5023 20.3562V13.9413C39.5023 10.5495 38.9174 9.4686 38.0231 9.00698L38.085 8.88313C40.3965 8.8212 43.0454 8.4215 44.4936 7.95706L44.5864 8.04995C44.4009 9.25186 44.308 11.104 44.308 13.9413V20.3562C44.308 23.3793 44.7074 24.2125 45.7872 24.5502ZM39.2239 3.88688C39.2239 2.56112 40.3318 1.66602 41.8728 1.66602C43.4138 1.66602 44.4908 2.56112 44.4908 3.88688C44.4908 5.21265 43.4138 6.10775 41.8728 6.10775C40.3318 6.10775 39.2239 5.21265 39.2239 3.88688Z" fill="var(--fill-0, #363738)"/>
<path id="Vector_4" d="M55.9868 24.5502V24.674H47.8516V24.5502C48.9595 24.1815 49.3616 23.3792 49.3616 20.3562V13.9413C49.3616 10.5494 48.7767 9.46857 47.8825 9.00695L47.9444 8.8831C50.2559 8.82117 52.9048 8.42147 54.353 7.95703L54.4458 8.04992C54.2602 9.25183 54.1674 11.104 54.1674 13.9413V20.3562C54.1674 23.0696 54.5977 24.2124 55.984 24.5502H55.9868ZM60.8235 8.48058L59.8365 12.5198H59.7128C59.3135 12.1511 58.543 11.9034 57.525 11.9034C56.2624 11.9034 55.1516 12.4579 54.6905 13.6007L54.5977 13.5388C54.8761 10.3299 56.7236 7.95703 59.0351 7.95703C59.8056 7.95703 60.4524 8.23569 60.8235 8.48058Z" fill="var(--fill-0, #363738)"/>
<path id="Vector_5" d="M73.7319 20.8488L73.7937 20.9107C73.2707 22.729 71.5441 24.9217 68.3693 24.9217C65.1945 24.9217 63.4088 23.1034 63.4088 19.7088V13.9413C63.4088 10.5494 62.8239 9.46857 61.9297 9.00695L61.9916 8.8831C64.334 8.82117 66.9829 8.42147 68.4311 7.95703L68.493 8.04992C68.3074 9.25183 68.2146 10.8563 68.2146 13.9413V18.7517C68.2146 21.2822 69.2326 22.4222 71.0182 22.4222C72.2808 22.4222 73.206 21.7129 73.729 20.8488H73.7319ZM80.7873 23.5312V23.6861C78.7851 23.8409 76.7211 24.3025 74.3477 24.9809L74.2549 24.9189V13.9413C74.2549 10.5494 73.67 9.46857 72.7758 9.00695L72.8376 8.8831C75.1491 8.82117 77.7981 8.42147 79.2463 7.95703L79.3391 8.04992C79.1535 9.25183 79.0607 10.8563 79.0607 13.9413V19.523C79.0607 21.9296 79.6765 23.0696 80.7873 23.5312Z" fill="var(--fill-0, #363738)"/>
<path id="Vector_6" d="M90.7794 24.5506V24.6744H82.9844V24.5506C84.0951 24.1818 84.4635 23.3796 84.4635 20.3565V5.98424C84.4635 2.59242 83.8786 1.48058 83.0153 1.01895L83.0462 0.895102C85.3887 0.864139 88.0376 0.46444 89.4858 0L89.5786 0.092888C89.393 1.2948 89.3002 3.14693 89.3002 5.98424V20.3565C89.3002 23.3796 89.6996 24.2128 90.7794 24.5506Z" fill="var(--fill-0, #363738)"/>
<path id="Vector_7" d="M100.943 24.5502V24.6741H93.1484V24.5502C94.2564 24.1815 94.6585 23.3793 94.6585 20.3562V13.9413C94.6585 10.5495 94.0736 9.4686 93.1794 9.00698L93.2412 8.88313C95.5527 8.8212 98.2017 8.4215 99.6499 7.95706L99.7427 8.04995C99.5571 9.25186 99.4643 11.104 99.4643 13.9413V20.3562C99.4643 23.3793 99.8636 24.2125 100.943 24.5502ZM94.3801 3.88688C94.3801 2.56112 95.4881 1.66602 97.0291 1.66602C98.5701 1.66602 99.6471 2.56112 99.6471 3.88688C99.6471 5.21265 98.5701 6.10775 97.0291 6.10775C95.4881 6.10775 94.3801 5.21265 94.3801 3.88688Z" fill="var(--fill-0, #363738)"/>
<path id="Vector_8" d="M116.817 1.63551L115.337 5.89146L115.214 5.8605C114.505 2.22098 113.397 0.554628 111.856 0.554628C110.594 0.554628 109.761 1.60454 109.761 6.16731V8.23337H113.583V8.75692H109.761V20.3538C109.761 23.0673 110.222 24.2101 111.519 24.5479V24.6717H103.445V24.5479C104.556 24.1791 104.924 23.3769 104.924 20.3538V8.75973H103.817V8.23618H104.924V6.17013C104.924 1.75936 107.728 0.00292969 111.856 0.00292969C113.858 0.00292969 115.83 0.712256 116.817 1.63832V1.63551Z" fill="var(--fill-0, #363738)"/>
<path id="Vector_9" d="M128.833 20.1704C128.31 22.2674 126.336 24.9499 122.27 24.9499C117.863 24.9499 114.289 21.62 114.289 16.5309C114.289 11.4417 117.77 7.95703 122.208 7.95703C126.212 7.95703 128.647 10.5466 128.647 13.9413C128.647 14.6816 128.586 15.0813 128.555 15.1432H118.971C119.188 19.1824 121.682 21.4342 124.888 21.4342C126.521 21.4342 127.784 21.0036 128.74 20.1085L128.833 20.1704ZM118.943 14.4958V14.5577H124.55C124.643 14.158 124.705 13.5388 124.705 12.8604C124.705 10.1779 123.873 8.51154 122.208 8.51154C120.45 8.51154 118.94 10.8563 118.94 14.4958H118.943Z" fill="var(--fill-0, #363738)"/>
</g>
</svg>

