<svg preserveAspectRatio="xMidYMid meet" width="100%" height="100%" overflow="visible" style="display: block;" viewBox="0 0 46 45" fill="none" xmlns="http://www.w3.org/2000/svg">
<g id="Symbol">
<g id="Vector">
<path d="M26.1142 25.5022C26.2991 25.403 26.4456 25.4412 26.5766 25.4412C30.8458 25.4412 35.1074 25.4412 39.3766 25.4412C39.6463 25.4412 39.708 25.5175 39.708 25.7693C39.708 26.7231 39.7003 27.677 39.5462 28.6156C39.2918 30.1494 38.8064 31.5992 38.0126 32.9575C37.6273 33.6214 37.2189 34.2623 36.7257 34.8499C36.0398 35.674 35.2692 36.4142 34.4061 37.0628C33.0652 38.0777 31.5779 38.8027 29.9596 39.2681C27.9945 39.8252 25.9832 39.9091 23.9796 39.5581C21.2901 39.085 18.9628 37.8793 17.0054 35.9869C16.2194 35.2238 15.5258 34.3921 14.9401 33.4764C14.2235 32.3623 13.4451 31.294 12.7516 30.1646C12.1659 29.2184 11.5186 28.3103 10.8944 27.387C10.8327 27.2955 10.7711 27.1963 10.7094 27.1123C10.7711 27.0131 10.8558 27.0513 10.9252 27.0513C11.5263 27.0513 12.1274 27.0513 12.7285 27.0513C12.898 27.0513 12.9673 27.0055 12.9596 26.83C12.9596 26.479 12.9673 26.1356 12.9828 25.7846C12.9905 25.6167 12.9519 25.548 12.767 25.548C11.7883 25.5633 10.8019 25.5175 9.8232 25.5709C9.72302 25.5709 9.66908 25.5404 9.62284 25.4641C9.34541 25.0596 9.17588 24.5942 8.80598 24.2584C8.92928 24.1592 9.03716 24.1974 9.13735 24.1974C10.378 24.1974 11.6188 24.1821 12.8595 24.1974C13.1292 24.1974 13.2216 24.1058 13.2602 23.854C13.2987 23.564 13.3758 23.2817 13.4605 22.9993C13.5145 22.8162 13.4914 22.7475 13.2833 22.7475C12.8518 22.7551 12.4279 22.7475 11.9964 22.7475C10.6786 22.7475 9.36083 22.7475 8.04306 22.7475C7.85811 22.7475 7.75022 22.6941 7.65775 22.5339C7.45739 22.1981 7.23391 21.8852 7.01813 21.5495C7.14143 21.4655 7.26473 21.5037 7.38032 21.5037C9.46871 21.5037 11.5571 21.5037 13.6532 21.5037C13.8844 21.5037 14.0231 21.4427 14.1002 21.229C14.2235 20.9085 14.3699 20.6033 14.5471 20.3133C14.6627 20.1302 14.6242 20.0539 14.3853 20.0615C11.7575 20.0615 9.13735 20.0615 6.50952 20.0767C6.14733 20.0767 5.93155 19.9852 5.76202 19.6723C5.60789 19.39 5.41523 19.1382 5.23028 18.8711C5.28423 18.7795 5.369 18.8253 5.43835 18.8253C8.66727 18.8253 11.8885 18.8253 15.1174 18.8253C15.3486 18.8253 15.495 18.7566 15.6414 18.5735C15.9497 18.1919 16.2117 17.7646 16.6201 17.4365C16.4968 17.3526 16.3812 17.3831 16.2733 17.3831C12.374 17.3831 8.4669 17.3831 4.56755 17.3831C4.33636 17.3831 4.17453 17.3373 4.05123 17.1236C3.85858 16.8031 3.6428 16.4979 3.40391 16.1316H3.81234C8.42067 16.1316 13.029 16.1316 17.6373 16.1316C17.8839 16.1316 18.0843 16.0859 18.2924 15.9256C18.878 15.4754 19.5099 15.0862 20.165 14.6818C20.0417 14.6818 19.9184 14.6818 19.7951 14.6818C14.1079 14.6818 8.42067 14.6818 2.73346 14.6818C2.5331 14.6818 2.41751 14.6436 2.30962 14.4529C2.10926 14.1018 1.86266 13.7814 1.63147 13.4456C1.58524 13.3846 1.51588 13.3159 1.5467 13.2548C1.58524 13.1785 1.68542 13.2167 1.75477 13.2167C7.29556 13.2167 12.844 13.2167 18.3848 13.2167C22.7928 13.2167 27.2008 13.2167 31.6087 13.2167C31.8784 13.2167 31.9632 13.2777 31.9555 13.5601C31.9401 15.6204 31.9401 17.6807 31.9555 19.741C31.9555 20.0081 31.863 20.0615 31.6318 20.0615C29.9981 20.0539 28.3721 20.0615 26.7384 20.031C25.4206 20.0081 24.1799 20.2599 23.0394 20.9238C21.8295 21.6334 20.9356 22.6102 20.3885 23.9074C19.9184 25.0215 19.718 26.1661 19.8798 27.3641C19.9492 27.8983 20.0879 28.4248 20.3037 28.9132C20.7429 29.8975 21.3363 30.7751 22.184 31.4619C23.0933 32.202 24.126 32.6828 25.2896 32.8507C26.6536 33.0491 27.9791 32.9041 29.2121 32.2783C30.6994 31.5305 31.7706 30.3935 32.3948 28.8598C32.4641 28.6919 32.3948 28.6308 32.2561 28.5622C30.7379 27.8067 29.2275 27.0513 27.7094 26.2882C27.1853 26.0287 26.6613 25.7617 26.1065 25.4717L26.1142 25.5022Z" fill="var(--fill-0, #363738)"/>
<path d="M39.7003 14.3155C39.7003 17.612 39.7003 20.9085 39.7003 24.205C39.7003 24.5026 39.6155 24.5636 39.3304 24.556C37.2728 24.5407 35.2075 24.5484 33.15 24.556C32.8803 24.556 32.7801 24.5102 32.7801 24.205C32.7878 18.7337 32.7801 13.2625 32.7955 7.79883C32.7955 7.57754 32.7338 7.44782 32.5258 7.34098C30.9075 6.50923 29.2583 5.74615 27.64 4.92203C27.2008 4.70074 26.7461 4.48708 26.3068 4.25815C26.2529 4.23526 26.1835 4.22 26.1912 4.15895C26.199 4.08264 26.276 4.07501 26.3454 4.07501C26.3993 4.07501 26.461 4.07501 26.5149 4.07501C30.7996 4.07501 35.0842 4.07501 39.3689 4.06738C39.6617 4.06738 39.708 4.16658 39.708 4.4184C39.7003 7.71489 39.708 11.0114 39.708 14.3079L39.7003 14.3155Z" fill="var(--fill-0, #363738)"/>
</g>
</g>
</svg>

