<svg preserveAspectRatio="xMidYMid meet" width="100%" height="100%" overflow="visible" style="display: block;" viewBox="0 0 86 79" fill="none" xmlns="http://www.w3.org/2000/svg">
<g id="Group 427321013" style="mix-blend-mode:multiply">
<path id="Vector" d="M71.2725 49.3262L69.9744 52.6354L66.6641 53.933L69.9744 55.2279L71.2725 58.5371L72.5705 55.2279L75.8809 53.933L72.5705 52.6354L71.2725 49.3262Z" fill="var(--fill-0, #363738)"/>
<g id="Group">
<path id="Vector_2" d="M17.6382 58.1691L17.2961 58.7473C16.0333 60.8947 14.8004 62.966 13.6734 64.8582C12.4785 66.8671 11.433 68.6208 10.5775 70.0867C8.67384 66.9241 3.91599 58.8315 3.86711 58.7473L3.52765 58.1691L0 78.2146H4.46727L4.50529 78.011C4.75242 76.6591 5.29283 73.586 5.80338 70.6623C7.48166 73.4693 10.3413 78.3097 10.3711 78.3612L10.5829 78.7196L10.7948 78.3612C10.8246 78.3097 13.6842 73.4693 15.3625 70.6623L15.4467 71.1373C15.9247 73.8738 16.4162 76.7025 16.5927 78.0002L16.6226 78.2146H21.098L17.6382 58.1718V58.1691ZM16.3918 64.9125L10.6074 74.6583L4.72254 64.9043L2.76183 76.032L2.44138 75.975L4.55146 63.9895L10.602 74.0231L16.5601 63.9813L18.5996 75.9777L18.2791 76.032L16.389 64.9125H16.3918Z" fill="var(--fill-0, #363738)"/>
<g id="Group_2">
<path id="Vector_3" d="M30.6891 60.923C26.5043 60.923 23.1016 64.3245 23.1016 68.5079C23.1016 72.6913 26.5043 76.0929 30.6891 76.0929C34.874 76.0929 38.2767 72.6913 38.2767 68.5079C38.2767 64.3245 34.874 60.923 30.6891 60.923ZM30.6647 73.9564C27.6123 73.9564 25.1274 71.4724 25.1274 68.4211C25.1274 65.3697 27.6123 62.9536 30.6647 62.9536C33.7171 62.9536 36.134 65.4077 36.134 68.4211C36.134 71.4344 33.6818 73.9564 30.6647 73.9564Z" fill="var(--fill-0, #363738)"/>
<path id="Vector_4" d="M30.6656 58.5607C25.1908 58.5607 20.7344 62.983 20.7344 68.4206C20.7344 73.8582 25.1908 78.3483 30.6656 78.3483C36.1403 78.3483 40.5289 73.8962 40.5289 68.4206C40.5289 62.945 36.105 58.5607 30.6656 58.5607ZM30.69 76.4209C26.3259 76.4209 22.7766 72.8727 22.7766 68.5102C22.7766 64.1476 26.3259 60.5994 30.69 60.5994C35.0541 60.5994 38.6035 64.1476 38.6035 68.5102C38.6035 72.8727 35.0541 76.4209 30.69 76.4209Z" fill="var(--fill-0, #363738)"/>
</g>
<path id="Vector_5" d="M69.6094 63.4902V59.0978H56.7969V78.2122H69.6094V73.8198H61.1908V70.896H68.8001V66.5036H61.1908V63.4902H69.6094ZM67.0675 68.5043V68.8301H59.1378V75.8422H67.646V76.168H58.8119V68.8301V68.5043V61.1664H67.646V61.4922H59.1378V68.5043H67.0675Z" fill="var(--fill-0, #363738)"/>
<path id="Vector_6" d="M48.7828 65.9108C47.0964 65.4765 45.6381 65.1018 45.6381 64.1951C45.6381 63.2259 46.4039 62.6721 47.7373 62.6721C49.5405 62.6721 51.2812 63.3834 52.5141 64.624L52.7939 64.9037L55.2108 61.3799L55.018 61.1872C53.2311 59.3928 50.8929 58.4806 48.074 58.4806C44.0983 58.4806 41.2143 61.0134 41.2143 64.5046C41.2143 68.9513 45.0325 69.9205 47.8188 70.6263C49.8718 71.1475 51.1291 71.5167 51.1291 72.5266C51.1291 73.5881 50.0836 74.2749 48.4624 74.2749C45.7902 74.2749 44.0413 72.7465 43.2347 71.8344L42.9496 71.5113L40.5625 75.2006L40.7336 75.3879C42.6128 77.4321 45.1628 78.4664 48.3076 78.4664C52.7613 78.4664 55.5285 76.0395 55.5285 72.1357C55.5285 67.6455 51.6316 66.6438 48.7855 65.9108H48.7828ZM53.432 72.3827V72.4913C53.432 74.4866 52.3947 75.7761 50.3498 76.3245C49.5839 76.5308 48.7882 76.6286 48.0089 76.6286C46.1052 76.6286 44.3074 76.0422 43.3406 75.0052L43.5796 74.7826C44.8424 76.1372 47.778 76.6774 50.2656 76.0096C52.1747 75.4965 53.1034 74.3455 53.1034 72.4913V72.38C53.1116 71.3213 53.1252 69.3531 47.9654 68.3758C45.6055 67.9279 44.1227 66.9994 43.5633 65.6149C42.9604 64.1245 43.6638 62.6559 43.8838 62.3437C46.5261 58.6136 52.1774 61.5944 52.2344 61.6243L52.0796 61.912C52.0253 61.8822 46.6266 59.0371 44.1499 62.5337C43.9625 62.797 43.3243 64.1544 43.8647 65.4955C44.3807 66.7714 45.7793 67.632 48.0251 68.0582C53.4538 69.087 53.4375 71.3158 53.4293 72.3855L53.432 72.3827Z" fill="var(--fill-0, #363738)"/>
<path id="Vector_7" d="M78.4211 65.9108C76.7346 65.4765 75.2763 65.1018 75.2763 64.1951C75.2763 63.2259 76.0421 62.6721 77.3755 62.6721C79.1787 62.6721 80.9195 63.3834 82.1497 64.624L82.4294 64.9037L84.8463 61.3799L84.6535 61.1872C82.8666 59.3928 80.5284 58.4806 77.7068 58.4806C73.7311 58.4806 70.8471 61.0134 70.8471 64.5046C70.8471 68.9513 74.6653 69.9205 77.4516 70.6263C79.5046 71.1475 80.762 71.5167 80.762 72.5266C80.762 73.5881 79.7164 74.2749 78.0952 74.2749C75.423 74.2749 73.6741 72.7465 72.8675 71.8344L72.5824 71.5113L70.1953 75.2006L70.3664 75.3879C72.2483 77.4321 74.7956 78.4664 77.9404 78.4664C82.3941 78.4664 85.1613 76.0395 85.1613 72.1357C85.1613 67.6455 81.2644 66.6438 78.4183 65.9108H78.4211ZM83.054 72.3827V72.4913C83.054 74.4866 82.0166 75.7761 79.9717 76.3245C79.2059 76.5308 78.4102 76.6286 77.6308 76.6286C75.7271 76.6286 73.9294 76.0422 72.9626 75.0052L73.2015 74.7826C74.4643 76.1372 77.4 76.6774 79.8875 76.0096C81.7966 75.4965 82.7254 74.3455 82.7254 72.4913V72.38C82.7335 71.3213 82.7471 69.3531 77.5874 68.3758C75.2274 67.9279 73.7447 66.9994 73.1853 65.6149C72.5824 64.1245 73.2857 62.6559 73.5057 62.3437C76.1481 58.6136 81.7993 61.5944 81.8564 61.6243L81.7016 61.912C81.6473 61.8822 76.2485 59.0371 73.7718 62.5337C73.5845 62.797 72.9463 64.1544 73.4867 65.4955C74.0027 66.7714 75.4012 67.632 77.6471 68.0582C83.0757 69.087 83.0594 71.3158 83.0513 72.3855L83.054 72.3827Z" fill="var(--fill-0, #363738)"/>
</g>
<path id="Vector_8" d="M42.3906 35.5395C42.3906 35.4227 42.4857 35.3276 42.6026 35.3276C42.7194 35.3276 42.8145 35.4227 42.8145 35.5395C42.8145 35.6563 42.7194 35.7514 42.6026 35.7514C42.4857 35.7514 42.3906 35.6563 42.3906 35.5395Z" fill="var(--fill-0, #363738)"/>
<path id="Vector_9" d="M42.6026 35.7514C42.7196 35.7514 42.8145 35.6565 42.8145 35.5395C42.8145 35.4225 42.7196 35.3276 42.6026 35.3276C42.4855 35.3276 42.3906 35.4225 42.3906 35.5395C42.3906 35.6565 42.4855 35.7514 42.6026 35.7514Z" stroke="var(--stroke-0, #363738)" stroke-width="0.749545" stroke-miterlimit="3.86"/>
<g id="Vector_10">
<mask id="path-10-outside-1_10883_5795" maskUnits="userSpaceOnUse" x="10.5938" y="0" width="63" height="51" fill="black">
<rect fill="white" x="10.5938" width="63" height="51"/>
<path d="M72.2493 3.78529C72.2493 2.95728 71.7116 2.26501 70.9675 2.01525L70.9566 2.00168C68.4581 1.27412 63.8034 0.953773 62.2446 1.00535C57.5654 1.15467 55.5313 2.42247 55.0452 2.73195C54.9909 2.76725 54.9366 2.80797 54.885 2.85412C53.6928 3.6957 52.9107 5.08295 52.9107 6.65481C52.9107 7.18148 53.003 7.68371 53.1659 8.15609C49.8582 6.25574 46.0263 5.1644 41.9392 5.1644C37.852 5.1644 33.9875 6.2666 30.6717 8.18052C30.84 7.70272 30.9324 7.19234 30.9324 6.65753C30.9324 5.08567 30.1502 3.69842 28.958 2.85683C28.9064 2.81068 28.8548 2.76996 28.7978 2.73467C28.3117 2.42518 26.2749 1.15738 21.5984 1.00807C20.0369 0.959202 15.3849 1.27955 12.8864 2.00439L12.8756 2.01797C12.1315 2.26773 11.5938 2.96 11.5938 3.788C11.5938 4.24137 11.7621 4.6513 12.0283 4.97708L12.0228 4.99065C12.0228 4.99065 12.6393 5.9001 14.3665 6.54622C15.6157 7.01316 23.8552 8.89994 23.5103 14.6716L23.5456 14.6634C20.9195 18.3528 19.3688 22.8593 19.3688 27.7324C19.3688 40.1932 29.474 50.2976 41.9419 50.2976C54.4097 50.2976 64.5149 40.1959 64.5149 27.7324C64.5149 22.8621 62.9642 18.3528 60.3409 14.6661C59.9987 8.89722 68.2354 7.01045 69.4847 6.54351C71.2119 5.89739 71.8283 4.98794 71.8283 4.98794L71.8229 4.97436C72.0918 4.6513 72.2601 4.23866 72.2601 3.78529"/>
</mask>
<path d="M72.2493 3.78529C72.2493 2.95728 71.7116 2.26501 70.9675 2.01525L70.9566 2.00168C68.4581 1.27412 63.8034 0.953773 62.2446 1.00535C57.5654 1.15467 55.5313 2.42247 55.0452 2.73195C54.9909 2.76725 54.9366 2.80797 54.885 2.85412C53.6928 3.6957 52.9107 5.08295 52.9107 6.65481C52.9107 7.18148 53.003 7.68371 53.1659 8.15609C49.8582 6.25574 46.0263 5.1644 41.9392 5.1644C37.852 5.1644 33.9875 6.2666 30.6717 8.18052C30.84 7.70272 30.9324 7.19234 30.9324 6.65753C30.9324 5.08567 30.1502 3.69842 28.958 2.85683C28.9064 2.81068 28.8548 2.76996 28.7978 2.73467C28.3117 2.42518 26.2749 1.15738 21.5984 1.00807C20.0369 0.959202 15.3849 1.27955 12.8864 2.00439L12.8756 2.01797C12.1315 2.26773 11.5938 2.96 11.5938 3.788C11.5938 4.24137 11.7621 4.6513 12.0283 4.97708L12.0228 4.99065C12.0228 4.99065 12.6393 5.9001 14.3665 6.54622C15.6157 7.01316 23.8552 8.89994 23.5103 14.6716L23.5456 14.6634C20.9195 18.3528 19.3688 22.8593 19.3688 27.7324C19.3688 40.1932 29.474 50.2976 41.9419 50.2976C54.4097 50.2976 64.5149 40.1959 64.5149 27.7324C64.5149 22.8621 62.9642 18.3528 60.3409 14.6661C59.9987 8.89722 68.2354 7.01045 69.4847 6.54351C71.2119 5.89739 71.8283 4.98794 71.8283 4.98794L71.8229 4.97436C72.0918 4.6513 72.2601 4.23866 72.2601 3.78529" fill="var(--fill-0, #363738)"/>
<path d="M70.9675 2.01525L70.6734 2.25062L70.7426 2.33709L70.8476 2.37233L70.9675 2.01525ZM70.9566 2.00168L71.2507 1.76631L71.1762 1.67334L71.0619 1.64004L70.9566 2.00168ZM62.2446 1.00535L62.2566 1.38182L62.257 1.3818L62.2446 1.00535ZM55.0452 2.73195L54.8429 2.41421L54.84 2.41612L55.0452 2.73195ZM54.885 2.85412L55.1022 3.16183L55.1199 3.14932L55.1361 3.13486L54.885 2.85412ZM53.1659 8.15609L52.9783 8.48268L53.8497 8.98332L53.522 8.03326L53.1659 8.15609ZM30.6717 8.18052L30.3164 8.05533L29.9779 9.01582L30.8599 8.50673L30.6717 8.18052ZM28.958 2.85683L28.7069 3.13758L28.7231 3.15204L28.7408 3.16455L28.958 2.85683ZM28.7978 2.73467L28.5955 3.05242L28.5996 3.05496L28.7978 2.73467ZM21.5984 1.00807L21.6105 0.631604L21.6102 0.631597L21.5984 1.00807ZM12.8864 2.00439L12.7815 1.64265L12.6669 1.6759L12.5923 1.76906L12.8864 2.00439ZM12.8756 2.01797L12.9954 2.37504L13.1004 2.33979L13.1697 2.2533L12.8756 2.01797ZM12.0283 4.97708L12.378 5.11699L12.4605 4.91078L12.32 4.73878L12.0283 4.97708ZM12.0228 4.99065L11.6731 4.85074L11.5988 5.03644L11.7111 5.20199L12.0228 4.99065ZM14.3665 6.54622L14.2345 6.899L14.2346 6.89903L14.3665 6.54622ZM23.5103 14.6716L23.1343 14.6491L23.1043 15.1518L23.595 15.0386L23.5103 14.6716ZM23.5456 14.6634L23.8525 14.8818L24.428 14.0733L23.461 14.2964L23.5456 14.6634ZM60.3409 14.6661L59.9649 14.6884L59.9713 14.7964L60.034 14.8845L60.3409 14.6661ZM69.4847 6.54351L69.6166 6.89632L69.6166 6.89629L69.4847 6.54351ZM71.8283 4.98794L72.1401 5.19927L72.2523 5.03378L72.1781 4.84814L71.8283 4.98794ZM71.8229 4.97436L71.5334 4.73342L71.3899 4.90585L71.4732 5.11416L71.8229 4.97436ZM72.2493 3.78529H72.6259C72.6259 2.78753 71.9772 1.95687 71.0873 1.65817L70.9675 2.01525L70.8476 2.37233C71.4459 2.57316 71.8726 3.12703 71.8726 3.78529H72.2493ZM70.9675 2.01525L71.2615 1.77988L71.2507 1.76631L70.9566 2.00168L70.6625 2.23705L70.6734 2.25062L70.9675 2.01525ZM70.9566 2.00168L71.0619 1.64004C69.7781 1.26619 67.9615 1.00162 66.2851 0.836496C64.6072 0.671216 63.0353 0.602327 62.2321 0.628904L62.2446 1.00535L62.257 1.3818C63.0127 1.3568 64.5475 1.42229 66.2113 1.58618C67.8766 1.75022 69.6366 2.0096 70.8513 2.36331L70.9566 2.00168ZM62.2446 1.00535L62.2326 0.628889C57.4786 0.780587 55.3797 2.07252 54.8429 2.41423L55.0452 2.73195L55.2475 3.04968C55.683 2.77242 57.6521 1.52875 62.2566 1.38182L62.2446 1.00535ZM55.0452 2.73195L54.84 2.41612C54.7711 2.46091 54.7012 2.51319 54.6339 2.57338L54.885 2.85412L55.1361 3.13486C55.172 3.10274 55.2107 3.07358 55.2504 3.04779L55.0452 2.73195ZM54.885 2.85412L54.6678 2.54641C53.3804 3.45516 52.534 4.95479 52.534 6.65481H52.9107H53.2873C53.2873 5.21112 54.0052 3.93624 55.1022 3.16183L54.885 2.85412ZM52.9107 6.65481H52.534C52.534 7.22614 52.6343 7.76982 52.8099 8.27891L53.1659 8.15609L53.522 8.03326C53.3717 7.59761 53.2873 7.13682 53.2873 6.65481H52.9107ZM53.1659 8.15609L53.3536 7.82949C49.9906 5.8974 46.0942 4.78774 41.9392 4.78774V5.1644V5.54105C45.9584 5.54105 49.7258 6.61408 52.9783 8.48268L53.1659 8.15609ZM41.9392 5.1644V4.78774C37.7839 4.78774 33.8547 5.90838 30.4834 7.8543L30.6717 8.18052L30.8599 8.50673C34.1204 6.62481 37.9202 5.54105 41.9392 5.54105V5.1644ZM30.6717 8.18052L31.0269 8.3057C31.209 7.7889 31.309 7.23625 31.309 6.65753H30.9324H30.5557C30.5557 7.14843 30.471 7.61653 30.3164 8.05533L30.6717 8.18052ZM30.9324 6.65753H31.309C31.309 4.9575 30.4626 3.45788 29.1753 2.54912L28.958 2.85683L28.7408 3.16455C29.8379 3.93895 30.5557 5.21383 30.5557 6.65753H30.9324ZM28.958 2.85683L29.2091 2.57609C29.1466 2.52016 29.0772 2.46461 28.996 2.41438L28.7978 2.73467L28.5996 3.05496C28.6325 3.07531 28.6663 3.10121 28.7069 3.13758L28.958 2.85683ZM28.7978 2.73467L29.0001 2.41694C28.4633 2.0752 26.3616 0.783302 21.6105 0.631604L21.5984 1.00807L21.5864 1.38453C26.1882 1.53146 28.1601 2.77516 28.5955 3.0524L28.7978 2.73467ZM21.5984 1.00807L21.6102 0.631597C20.8061 0.606433 19.2345 0.675964 17.5569 0.841247C15.8809 1.00637 14.0651 1.27025 12.7815 1.64265L12.8864 2.00439L12.9914 2.36613C14.2062 2.01369 15.9657 1.75497 17.6307 1.59093C19.2941 1.42705 20.8293 1.36084 21.5867 1.38454L21.5984 1.00807ZM12.8864 2.00439L12.5923 1.76906L12.5815 1.78263L12.8756 2.01797L13.1697 2.2533L13.1805 2.23973L12.8864 2.00439ZM12.8756 2.01797L12.7557 1.66089C11.8658 1.95958 11.2171 2.79024 11.2171 3.788H11.5938H11.9704C11.9704 3.12975 12.3971 2.57587 12.9954 2.37504L12.8756 2.01797ZM11.5938 3.788H11.2171C11.2171 4.33761 11.4217 4.82999 11.7366 5.21537L12.0283 4.97708L12.32 4.73878C12.1025 4.47262 11.9704 4.14513 11.9704 3.788H11.5938ZM12.0283 4.97708L11.6786 4.83717L11.6731 4.85074L12.0228 4.99065L12.3725 5.13056L12.378 5.11699L12.0283 4.97708ZM12.0228 4.99065C11.7111 5.20199 11.7112 5.20214 11.7113 5.20229C11.7113 5.20235 11.7114 5.20251 11.7115 5.20262C11.7116 5.20285 11.7118 5.20309 11.712 5.20334C11.7123 5.20384 11.7127 5.20441 11.7131 5.20502C11.714 5.20625 11.715 5.2077 11.7162 5.20937C11.7185 5.2127 11.7215 5.21689 11.7251 5.22191C11.7323 5.23194 11.7422 5.24525 11.7549 5.26157C11.7801 5.29421 11.8164 5.33884 11.8647 5.39312C11.9612 5.50169 12.1057 5.6488 12.3059 5.81558C12.707 6.14958 13.3295 6.56046 14.2345 6.899L14.3665 6.54622L14.4985 6.19344C13.6763 5.88587 13.1269 5.51895 12.788 5.2367C12.6183 5.09536 12.5007 4.97472 12.4276 4.89258C12.3911 4.8515 12.3657 4.82003 12.3505 4.80041C12.3429 4.7906 12.3379 4.78375 12.3353 4.78014C12.334 4.77833 12.3333 4.77734 12.3332 4.77719C12.3331 4.77711 12.3332 4.77725 12.3334 4.7776C12.3336 4.77778 12.3337 4.77801 12.3339 4.77829C12.334 4.77844 12.3341 4.77859 12.3342 4.77876C12.3343 4.77885 12.3344 4.77899 12.3344 4.77903C12.3345 4.77917 12.3346 4.77931 12.0228 4.99065ZM14.3665 6.54622L14.2346 6.89903C14.9164 7.15387 17.2104 7.7147 19.3482 8.94602C21.4813 10.1746 23.2937 11.9819 23.1343 14.6491L23.5103 14.6716L23.8863 14.694C24.0718 11.5896 21.9369 9.56769 19.7242 8.29324C17.5162 7.02154 15.0658 6.40552 14.4984 6.19341L14.3665 6.54622ZM23.5103 14.6716L23.595 15.0386L23.6303 15.0304L23.5456 14.6634L23.461 14.2964L23.4256 14.3045L23.5103 14.6716ZM23.5456 14.6634L23.2388 14.445C20.569 18.1957 18.9922 22.7781 18.9922 27.7324H19.3688H19.7455C19.7455 22.9406 21.27 18.5099 23.8525 14.8818L23.5456 14.6634ZM19.3688 27.7324H18.9922C18.9922 40.4013 29.2661 50.6743 41.9419 50.6743V50.2976V49.921C29.682 49.921 19.7455 39.9851 19.7455 27.7324H19.3688ZM41.9419 50.2976V50.6743C54.6176 50.6743 64.8916 40.4041 64.8916 27.7324H64.5149H64.1383C64.1383 39.9878 54.2018 49.921 41.9419 49.921V50.2976ZM64.5149 27.7324H64.8916C64.8916 22.7808 63.3148 18.1957 60.6477 14.4478L60.3409 14.6661L60.034 14.8845C62.6137 18.5099 64.1383 22.9433 64.1383 27.7324H64.5149ZM60.3409 14.6661L60.7169 14.6438C60.5587 11.9779 62.3712 10.1713 64.504 8.94298C66.6415 7.71199 68.9348 7.15113 69.6166 6.89632L69.4847 6.54351L69.3528 6.19069C68.7853 6.40282 66.3356 7.01882 64.128 8.29018C61.9157 9.56426 59.7808 11.5854 59.9649 14.6884L60.3409 14.6661ZM69.4847 6.54351L69.6166 6.89629C70.5216 6.55774 71.1441 6.14687 71.5452 5.81287C71.7455 5.64608 71.89 5.49897 71.9865 5.3904C72.0348 5.33612 72.071 5.29149 72.0963 5.25886C72.1089 5.24254 72.1188 5.22922 72.1261 5.21919C72.1297 5.21418 72.1327 5.20999 72.135 5.20666C72.1362 5.20499 72.1372 5.20354 72.138 5.20231C72.1385 5.20169 72.1389 5.20113 72.1392 5.20062C72.1394 5.20037 72.1395 5.20013 72.1397 5.19991C72.1398 5.19979 72.1399 5.19964 72.1399 5.19958C72.14 5.19942 72.1401 5.19927 71.8283 4.98794C71.5166 4.7766 71.5167 4.77645 71.5168 4.77631C71.5168 4.77627 71.5169 4.77613 71.5169 4.77605C71.517 4.77588 71.5172 4.77572 71.5173 4.77558C71.5174 4.7753 71.5176 4.77507 71.5177 4.77489C71.518 4.77454 71.5181 4.7744 71.518 4.77447C71.5179 4.77462 71.5172 4.77562 71.5159 4.77742C71.5133 4.78103 71.5082 4.78788 71.5006 4.79769C71.4855 4.81732 71.4601 4.84879 71.4235 4.88986C71.3505 4.97201 71.2329 5.09265 71.0632 5.23399C70.7242 5.51624 70.1749 5.88315 69.3527 6.19073L69.4847 6.54351ZM71.8283 4.98794L72.1781 4.84814L72.1727 4.83457L71.8229 4.97436L71.4732 5.11416L71.4786 5.12773L71.8283 4.98794ZM71.8229 4.97436L72.1124 5.2153C72.4326 4.83062 72.6368 4.33424 72.6368 3.78529H72.2601H71.8835C71.8835 4.14307 71.751 4.47198 71.5334 4.73342L71.8229 4.97436Z" fill="var(--stroke-0, white)" mask="url(#path-10-outside-1_10883_5795)"/>
</g>
<path id="Vector_11" d="M62.6988 32.2827C62.6988 29.9914 60.8386 28.1318 58.5465 28.1318C58.112 28.1318 57.6911 28.1997 57.2973 28.3246C54.4187 28.9734 49.6663 30.3851 41.9158 30.5887C34.1653 30.3851 29.4129 28.9734 26.5343 28.3246C26.1405 28.1997 25.7196 28.1318 25.2851 28.1318C22.993 28.1318 21.1328 29.9914 21.1328 32.2827C21.1328 32.8093 21.236 33.3088 21.4125 33.773C24.0522 42.6013 32.229 49.0407 41.9158 49.0488C51.6053 49.0407 59.7795 42.6041 62.4191 33.773C62.5983 33.3088 62.6988 32.8093 62.6988 32.2827Z" fill="var(--fill-0, white)"/>
<path id="Vector_12" d="M59.9879 32.5512C59.9879 31.8046 59.3823 31.1992 58.6355 31.1992C58.0679 31.1992 57.5846 31.5494 57.3836 32.0435C57.1256 32.5349 57.2478 32.7928 56.3191 34.313C52.3216 40.8447 44.8562 41.4772 42.3551 41.4962H41.5078C39.004 41.4772 31.5413 40.8447 27.5439 34.313C26.6151 32.7955 26.7373 32.5349 26.4793 32.0435C26.2784 31.5494 25.795 31.1992 25.2274 31.1992C24.4806 31.1992 23.875 31.8046 23.875 32.5512C23.875 32.6516 23.8886 32.752 23.9103 32.8471C24.0434 33.5203 26.5988 45.8642 41.5078 46.3067H42.3551C57.2641 45.8642 59.8223 33.5203 59.9526 32.8471C59.9743 32.752 59.9879 32.6543 59.9879 32.5512Z" fill="var(--fill-0, #363738)"/>
<path id="Vector_13" d="M41.4766 36.3088C41.4766 36.5584 41.6774 36.7592 41.9271 36.7592C42.1768 36.7592 42.3777 36.5584 42.3777 36.3088C42.3777 36.0592 42.1768 35.8584 41.9271 35.8584C41.6774 35.8584 41.4766 36.0592 41.4766 36.3088Z" fill="var(--fill-0, #363738)"/>
<path id="Vector_14" d="M29.1797 32.4983C29.1797 32.7479 29.3805 32.9487 29.6302 32.9487C29.88 32.9487 30.0808 32.7479 30.0808 32.4983C30.0808 32.2486 29.88 32.0479 29.6302 32.0479C29.3805 32.0479 29.1797 32.2486 29.1797 32.4983Z" fill="var(--fill-0, #363738)"/>
<path id="Vector_15" d="M31.6172 36.1262C31.6172 36.3758 31.818 36.5766 32.0677 36.5766C32.3175 36.5766 32.5183 36.3758 32.5183 36.1262C32.5183 35.8766 32.3175 35.6758 32.0677 35.6758C31.818 35.6758 31.6172 35.8766 31.6172 36.1262Z" fill="var(--fill-0, #363738)"/>
<path id="Vector_16" d="M32.8516 33.4978C32.8516 33.7474 33.0524 33.9482 33.3021 33.9482C33.5518 33.9482 33.7527 33.7474 33.7527 33.4978C33.7527 33.2481 33.5518 33.0474 33.3021 33.0474C33.0524 33.0474 32.8516 33.2481 32.8516 33.4978Z" fill="var(--fill-0, #363738)"/>
<path id="Vector_17" d="M36.2498 38.291C36.2498 38.5406 36.4507 38.7414 36.7004 38.7414C36.9501 38.7414 37.151 38.5406 37.151 38.291C37.151 38.0414 36.9501 37.8406 36.7004 37.8406C36.4507 37.8406 36.2498 38.0414 36.2498 38.291Z" fill="var(--fill-0, #363738)"/>
<path id="Vector_18" d="M39.875 39.2839C39.875 39.5335 40.0758 39.7343 40.3256 39.7343C40.5753 39.7343 40.7761 39.5335 40.7761 39.2839C40.7761 39.0343 40.5753 38.8335 40.3256 38.8335C40.0758 38.8335 39.875 39.0343 39.875 39.2839Z" fill="var(--fill-0, #363738)"/>
<path id="Vector_19" d="M38.4531 36.7317C38.4531 36.9813 38.654 37.1821 38.9037 37.1821C39.1534 37.1821 39.3542 36.9813 39.3542 36.7317C39.3542 36.482 39.1534 36.2812 38.9037 36.2812C38.654 36.2812 38.4531 36.482 38.4531 36.7317Z" fill="var(--fill-0, #363738)"/>
<path id="Vector_20" d="M35 35.7385C35 35.9881 35.2008 36.1889 35.4506 36.1889C35.7003 36.1889 35.9011 35.9881 35.9011 35.7385C35.9011 35.4889 35.7003 35.2881 35.4506 35.2881C35.2008 35.2881 35 35.4889 35 35.7385Z" fill="var(--fill-0, #363738)"/>
<path id="Vector_21" d="M54.6277 32.4983C54.6277 32.7479 54.4268 32.9487 54.1771 32.9487C53.9274 32.9487 53.7266 32.7479 53.7266 32.4983C53.7266 32.2486 53.9274 32.0479 54.1771 32.0479C54.4268 32.0479 54.6277 32.2486 54.6277 32.4983Z" fill="var(--fill-0, #363738)"/>
<path id="Vector_22" d="M52.198 36.1262C52.198 36.3758 51.9971 36.5766 51.7474 36.5766C51.4977 36.5766 51.2969 36.3758 51.2969 36.1262C51.2969 35.8766 51.4977 35.6758 51.7474 35.6758C51.9971 35.6758 52.198 35.8766 52.198 36.1262Z" fill="var(--fill-0, #363738)"/>
<path id="Vector_23" d="M50.9714 33.4978C50.9714 33.7474 50.7706 33.9482 50.5209 33.9482C50.2712 33.9482 50.0703 33.7474 50.0703 33.4978C50.0703 33.2481 50.2712 33.0474 50.5209 33.0474C50.7706 33.0474 50.9714 33.2481 50.9714 33.4978Z" fill="var(--fill-0, #363738)"/>
<path id="Vector_24" d="M47.5652 38.2912C47.5652 38.5408 47.3643 38.7416 47.1146 38.7416C46.8649 38.7416 46.6641 38.5408 46.6641 38.2912C46.6641 38.0416 46.8649 37.8408 47.1146 37.8408C47.3643 37.8408 47.5652 38.0416 47.5652 38.2912Z" fill="var(--fill-0, #363738)"/>
<path id="Vector_25" d="M43.9246 39.2839C43.9246 39.5335 43.7237 39.7343 43.474 39.7343C43.2243 39.7343 43.0234 39.5335 43.0234 39.2839C43.0234 39.0343 43.2243 38.8335 43.474 38.8335C43.7237 38.8335 43.9246 39.0343 43.9246 39.2839Z" fill="var(--fill-0, #363738)"/>
<path id="Vector_26" d="M45.3542 36.7317C45.3542 36.9813 45.1534 37.1821 44.9037 37.1821C44.654 37.1821 44.4531 36.9813 44.4531 36.7317C44.4531 36.482 44.654 36.2812 44.9037 36.2812C45.1534 36.2812 45.3542 36.482 45.3542 36.7317Z" fill="var(--fill-0, #363738)"/>
<path id="Vector_27" d="M48.8152 35.7385C48.8152 35.9881 48.6143 36.1889 48.3646 36.1889C48.1149 36.1889 47.9141 35.9881 47.9141 35.7385C47.9141 35.4889 48.1149 35.2881 48.3646 35.2881C48.6143 35.2881 48.8152 35.4889 48.8152 35.7385Z" fill="var(--fill-0, #363738)"/>
<path id="Vector_28" d="M48.5863 31.5605C48.5863 28.2431 44.673 24.589 41.9221 24.5728C39.1684 24.589 35.2578 28.2431 35.2578 31.5605C35.2578 33.0889 36.3577 34.1992 37.7128 34.2562C38.4026 34.2861 40.5995 34.3458 41.9248 34.3458C43.2473 34.3458 45.447 34.2861 46.1368 34.2562C47.4919 34.1965 48.5917 33.0889 48.5917 31.5605" fill="var(--fill-0, #363738)"/>
<path id="Vector_29" d="M47.2496 31.1856C47.2496 28.8347 44.1213 25.8892 41.9216 25.8784C39.7192 25.8892 36.5936 28.8347 36.5936 31.1856C36.5936 32.2687 37.4734 33.0533 38.5542 33.0967C39.1055 33.1184 40.8625 33.1618 41.9216 33.1618C42.9807 33.1618 44.7377 33.1184 45.289 33.0967C46.3725 33.0533 47.2496 32.2687 47.2496 31.1856Z" fill="var(--fill-0, white)"/>
<path id="Vector_30" d="M43.9219 22.1473C43.9219 18.5693 46.8222 15.6699 50.4015 15.6699C53.9807 15.6699 56.881 18.5693 56.881 22.1473C56.881 25.7253 53.9807 28.6246 50.4015 28.6246C46.8222 28.6246 43.9219 25.7253 43.9219 22.1473Z" fill="var(--fill-0, white)"/>
<path id="Vector_31" d="M46.8047 22.1485C46.8047 20.1639 48.4125 18.5566 50.3978 18.5566C52.3831 18.5566 53.9909 20.1666 53.9909 22.1485C53.9909 24.1304 52.3831 25.7404 50.3978 25.7404C48.4125 25.7404 46.8047 24.1331 46.8047 22.1485Z" fill="var(--fill-0, #363738)"/>
<path id="Vector_32" d="M48.9922 22.148C48.9922 21.3689 49.6249 20.7363 50.4043 20.7363C51.1837 20.7363 51.8165 21.3689 51.8165 22.148C51.8165 22.9271 51.1837 23.5596 50.4043 23.5596C49.6249 23.5596 48.9922 22.9271 48.9922 22.148Z" fill="var(--fill-0, white)"/>
<path id="Vector_33" d="M26.9844 22.1482C26.9844 18.5702 29.8847 15.6709 33.464 15.6709C37.0432 15.6709 39.9435 18.5702 39.9435 22.1482C39.9435 25.7263 37.0432 28.6256 33.464 28.6256C29.8847 28.6256 26.9844 25.7263 26.9844 22.1482Z" fill="var(--fill-0, white)"/>
<path id="Vector_34" d="M29.8672 22.1485C29.8672 20.1639 31.4777 18.5566 33.4603 18.5566C35.4429 18.5566 37.0534 20.1666 37.0534 22.1485C37.0534 24.1304 35.4456 25.7404 33.4603 25.7404C31.475 25.7404 29.8672 24.1331 29.8672 22.1485Z" fill="var(--fill-0, #363738)"/>
<path id="Vector_35" d="M32.0547 22.148C32.0547 21.3689 32.6874 20.7363 33.4668 20.7363C34.2462 20.7363 34.879 21.3689 34.879 22.148C34.879 22.9271 34.2462 23.5596 33.4668 23.5596C32.6874 23.5596 32.0547 22.9271 32.0547 22.148Z" fill="var(--fill-0, white)"/>
<path id="Vector_36" d="M40.7831 53.0236C39.7674 53.0155 38.9826 52.687 38.578 52.0409C38.1761 51.3975 38.3091 50.822 38.4069 50.4012C38.5047 49.9804 38.597 49.5841 38.2548 48.8212L38.1516 48.5932C37.3777 46.8775 36.4163 44.7437 37.842 42.0344L38.1842 41.3829L38.8686 41.6489C38.9229 41.6679 41.8449 42.7348 45.9646 41.4833L47.9606 40.8779L46.9151 42.6832C46.4263 43.5248 46.3394 44.5835 46.6517 45.8242C47.7053 50.013 45.4133 51.6038 44.3786 52.0925C43.048 52.7223 41.7988 53.0318 40.7831 53.0236Z" fill="var(--fill-0, #363738)"/>
<path id="Vector_37" d="M38.6784 42.4084V42.4166C37.4781 44.7023 38.2493 46.5646 38.9988 48.226L39.0993 48.4486C39.542 49.434 39.4062 50.0177 39.2948 50.4873C39.2161 50.8321 39.1455 51.1307 39.36 51.4755C39.8896 52.3251 41.872 52.2193 43.9711 51.2257C46.4505 50.053 46.0377 47.2216 45.7444 46.0597C45.3887 44.6453 45.5136 43.3206 46.0947 42.3188C42.1571 43.3369 38.6784 42.4084 38.6784 42.4084Z" fill="var(--fill-0, white)"/>
<path id="Vector_38" d="M42.2031 44.2393C41.2824 45.0836 41.5703 46.5605 41.9967 47.2175C42.7626 48.3985 42.434 49.7261 41.5703 50.3614" stroke="var(--stroke-0, #363738)" stroke-width="0.376656" stroke-linecap="round" stroke-linejoin="round"/>
</g>
</svg>

