<svg preserveAspectRatio="xMidYMid meet" width="100%" height="100%" overflow="visible" style="display: block;" viewBox="0 0 115 36" fill="none" xmlns="http://www.w3.org/2000/svg">
<g id="Vector (Stroke)" style="mix-blend-mode:multiply">
<path fill-rule="evenodd" clip-rule="evenodd" d="M17.8828 4.8848e-07C17.883 4.8848e-07 17.8826 4.8848e-07 17.8828 4.8848e-07L96.5948 3.22131e-07C106.47 3.22131e-07 114.475 8.00479 114.475 17.88C114.475 27.7552 106.47 35.76 96.5948 35.76H17.88C8.00479 35.76 0 27.7552 0 17.88C0 8.00506 8.00732 -0.00228349 17.8828 4.8848e-07ZM17.8818 3.97434C10.202 3.97235 3.97435 10.1997 3.97435 17.88C3.97435 25.5602 10.1998 31.7856 17.88 31.7856H96.5948C104.275 31.7856 110.5 25.5602 110.5 17.88C110.5 10.1998 104.275 3.97434 96.5948 3.97434H17.8818Z" fill="var(--fill-0, #363738)"/>
</g>
</svg>

