<svg preserveAspectRatio="xMidYMid meet" width="100%" height="100%" overflow="visible" style="display: block;" viewBox="0 0 26 28" fill="none" xmlns="http://www.w3.org/2000/svg">
<path id="Vector" d="M22.1888 13.1783C22.1888 15.4843 20.2841 17.368 17.9616 17.368H13.6521C13.2521 17.368 12.867 17.3092 12.4998 17.2028C11.1927 16.8319 10.1436 15.8551 9.68105 14.5994C9.51728 14.1551 9.421 13.6741 9.421 13.1747V12.8222C9.421 12.3705 9.49544 12.0217 9.62844 11.6141H10.8512C11.552 11.6141 12.1147 11.7573 12.3857 12.4587C12.471 12.6753 12.5742 12.9948 12.5742 13.2444C12.5742 13.3253 12.6814 14.0706 13.3415 14.4268C13.6114 14.6067 13.938 14.7132 14.2893 14.7132H17.3095C18.2574 14.7132 19.0316 13.9458 19.0316 13.0058C19.0316 12.0658 18.2574 11.2983 17.3095 11.2983H16.3865C16.0759 9.64968 14.6456 8.88961 14.2377 8.63991H17.9537C20.2802 8.63991 22.1808 10.5236 22.1808 12.8295V13.182L22.1888 13.1783ZM7.54712 17.2615C5.21966 17.2615 3.31899 15.3741 3.31899 13.0719V12.7193C3.31899 12.1722 3.43015 11.6509 3.6227 11.1699C4.24898 9.62765 5.77249 8.52976 7.54712 8.52976H11.8557C12.2556 8.52976 12.6407 8.58851 13.008 8.69132C14.3161 9.06218 15.3642 10.0389 15.8277 11.2947C15.9905 11.739 16.0868 12.22 16.0868 12.7193V13.0719C16.0868 13.4501 16.0312 13.8173 15.9349 14.1697C15.92 14.1991 15.9121 14.2358 15.8972 14.2653H14.4531C13.1112 14.2358 12.9415 13.0021 12.9415 12.8956C12.9415 12.6496 12.8859 12.4146 12.7896 12.2053C12.5187 11.6068 11.9152 11.1882 11.2185 11.1882H8.1992C7.52032 11.1882 6.93573 11.5848 6.65783 12.1502C6.54666 12.3779 6.4762 12.6276 6.4762 12.8956C6.4762 13.8356 7.25036 14.603 8.1992 14.603H9.13614C9.50338 15.5945 9.97682 16.2407 10.755 16.8135C10.9624 16.9678 11.1847 17.1146 11.4408 17.2615H7.55407H7.54712ZM23.4672 6.61671C23.4374 4.65961 24.0934 3.73429 24.7048 2.41609C24.9152 1.96812 25.4155 0.0954689 23.8334 0.0660937C22.0965 0.0330469 16.9979 0.00367187 12.8333 0C8.66967 0.00367187 3.57109 0.0330469 1.83319 0.0660937C0.24813 0.0954689 0.536953 1.96445 0.74439 2.41609C1.35975 3.73429 2.22622 4.65961 2.20041 6.61671C2.15972 9.48444 0 12.0071 0 15.1979C0 18.3887 0.733474 21.396 3.91252 23.0704C5.39038 23.8525 7.81014 24.5905 9.57286 25.4131C11.4884 26.309 12.8263 27.4252 12.8333 27.4289C12.8373 27.4252 14.1752 26.3053 16.0937 25.4131C17.8574 24.5905 20.2772 23.8525 21.7551 23.0704C24.9341 21.396 25.6676 18.2492 25.6676 15.1979C25.6676 12.1465 23.5078 9.48444 23.4672 6.61671Z" fill="var(--fill-0, #363738)"/>
</svg>

