<svg preserveAspectRatio="xMidYMid meet" width="100%" height="100%" overflow="visible" style="display: block;" viewBox="0 0 147 28" fill="none" xmlns="http://www.w3.org/2000/svg">
<g id="Layer_1">
<path id="Vector" d="M142.548 13.1783C142.548 15.4843 140.644 17.368 138.321 17.368H134.011C133.612 17.368 133.226 17.3092 132.859 17.2028C131.552 16.8319 130.503 15.8551 130.04 14.5994C129.877 14.1551 129.78 13.6741 129.78 13.1747V12.8222C129.78 12.3705 129.855 12.0217 129.988 11.6141H131.211C131.911 11.6141 132.474 11.7573 132.745 12.4587C132.83 12.6753 132.934 12.9948 132.934 13.2444C132.934 13.3253 133.041 14.0706 133.701 14.4268C133.971 14.6067 134.297 14.7132 134.649 14.7132H137.669C138.617 14.7132 139.391 13.9458 139.391 13.0058C139.391 12.0658 138.617 11.2983 137.669 11.2983H136.746C136.435 9.64968 135.005 8.88961 134.597 8.63991H138.313C140.64 8.63991 142.54 10.5236 142.54 12.8295V13.182L142.548 13.1783ZM127.906 17.2615C125.579 17.2615 123.678 15.3741 123.678 13.0719V12.7193C123.678 12.1722 123.79 11.6509 123.982 11.1699C124.608 9.62765 126.132 8.52976 127.906 8.52976H132.215C132.615 8.52976 133 8.58851 133.367 8.69132C134.675 9.06218 135.724 10.0389 136.187 11.2947C136.35 11.739 136.446 12.22 136.446 12.7193V13.0719C136.446 13.4501 136.391 13.8173 136.294 14.1697C136.279 14.1991 136.271 14.2358 136.257 14.2653H134.812C133.471 14.2358 133.301 13.0021 133.301 12.8956C133.301 12.6496 133.245 12.4146 133.149 12.2053C132.878 11.6068 132.275 11.1882 131.578 11.1882H128.559C127.88 11.1882 127.295 11.5848 127.017 12.1502C126.906 12.3779 126.836 12.6276 126.836 12.8956C126.836 13.8356 127.61 14.603 128.559 14.603H129.496C129.863 15.5945 130.336 16.2407 131.114 16.8135C131.322 16.9678 131.544 17.1146 131.8 17.2615H127.913H127.906ZM143.827 6.61671C143.797 4.65961 144.453 3.73429 145.064 2.41609C145.275 1.96812 145.775 0.0954689 144.193 0.0660937C142.456 0.0330469 137.357 0.00367187 133.193 0C129.029 0.00367187 123.93 0.0330469 122.193 0.0660937C120.608 0.0954689 120.896 1.96445 121.104 2.41609C121.719 3.73429 122.586 4.65961 122.56 6.61671C122.519 9.48444 120.359 12.0071 120.359 15.1979C120.359 18.3887 121.093 21.396 124.272 23.0704C125.75 23.8525 128.17 24.5905 129.932 25.4131C131.848 26.309 133.186 27.4252 133.193 27.4289C133.197 27.4252 134.535 26.3053 136.453 25.4131C138.217 24.5905 140.637 23.8525 142.114 23.0704C145.293 21.396 146.027 18.2492 146.027 15.1979C146.027 12.1465 143.867 9.48444 143.827 6.61671Z" fill="var(--fill-0, #363738)"/>
<path id="Vector_2" d="M15.5237 19.9498V12.4005C15.5237 8.21817 12.2337 7.3259 7.31357 7.3259H0V10.7151H5.61671C7.28022 10.7151 7.84338 10.9317 7.84338 12.4702V19.9461H15.52L15.5237 19.9498Z" fill="var(--fill-0, #363738)"/>
<path id="Vector_3" d="M92.7425 19.8758V12.3265C92.7425 8.14422 89.4525 7.25195 84.5323 7.25195H77.2188V10.6411H82.8354C84.499 10.6411 85.0621 10.8577 85.0621 12.3963V19.8722H92.7388L92.7425 19.8758Z" fill="var(--fill-0, #363738)"/>
<path id="Vector_4" d="M116.442 13.3625C116.442 10.0467 114.845 6.91831 109.361 6.96604C107.535 6.98808 106.468 7.37362 106.468 7.37362L105.604 10.715C105.604 10.715 105.904 10.3074 106.968 10.3074C108.364 10.3074 108.76 11.1005 108.76 12.2536V14.754C108.76 16.3183 108.428 17.3501 106.367 17.3501C104.507 17.3501 103.844 16.4358 103.844 14.754V7.25245H96.1641V14.8496C96.1641 18.0477 99.5211 20.306 106.601 20.306C112.418 20.306 116.442 17.9743 116.442 13.3588" fill="var(--fill-0, #363738)"/>
<path id="Vector_5" d="M26.6846 7.25635H19.0078V19.8802H26.6846V7.25635Z" fill="var(--fill-0, #363738)"/>
<path id="Vector_6" d="M46.1059 10.6455V7.25635H29.2188V10.6455H36.1988V19.8766H43.8793V10.6455H46.1059Z" fill="var(--fill-0, #363738)"/>
<path id="Vector_7" d="M56.396 14.0609V7.25635H48.7188V15.4086L56.396 14.0609Z" fill="var(--fill-0, #363738)"/>
<path id="Vector_8" d="M75.4985 9.75606V7.25552H66.4251V3.43311H59.0781V10.6447H67.5217L62.0013 19.8757H70.2449L75.4985 9.75606Z" fill="var(--fill-0, #363738)"/>
</g>
</svg>

