<svg preserveAspectRatio="xMidYMid meet" width="100%" height="100%" overflow="visible" style="display: block;" viewBox="0 0 67 45" fill="none" xmlns="http://www.w3.org/2000/svg">
<g id="Group">
<path id="Vector" d="M66.2914 44.2604H0V0H66.2914V44.2604ZM2.40211 41.8565H63.8893V2.40396H2.40211V41.8565Z" fill="var(--fill-0, #363738)"/>
<g id="Group_2">
<path id="Vector_2" d="M21.3718 8.02197H17.898V10.5845H18.5361V33.814H16.4301V8.02197H13.5902V33.814H11.4842V10.5845H12.1222V8.02197H8.64844V35.354C8.64844 36.005 9.01959 36.3765 9.67015 36.3765H20.3585C21.009 36.3765 21.3802 36.005 21.3802 35.354V8.02197H21.3718Z" fill="var(--fill-0, #363738)"/>
<path id="Vector_3" d="M32.714 8.02197H23.6562V10.5845H28.648V36.3765H31.4713V10.5845H32.714V8.02197Z" fill="var(--fill-0, #363738)"/>
<path id="Vector_4" d="M45.688 36.3765V9.04447C45.688 8.39341 45.3168 8.02197 44.6662 8.02197H35.4375V10.5845H36.2757L36.2882 36.3765H39.1157V10.5845H42.8647V36.3765H45.688Z" fill="var(--fill-0, #363738)"/>
<path id="Vector_5" d="M55.9529 10.5847V33.8142H53.801V36.3767H58.7928V9.06139C58.7928 8.39363 58.4342 8.02637 57.7836 8.02637H48.3672V10.5889H49.9102L48.3672 36.3809H51.2864L52.8293 10.5889H55.9487L55.9529 10.5847Z" fill="var(--fill-0, #363738)"/>
</g>
</g>
</svg>

