<svg preserveAspectRatio="xMidYMid meet" width="100%" height="100%" overflow="visible" style="display: block;" viewBox="0 0 124 26" fill="none" xmlns="http://www.w3.org/2000/svg">
<g id="Group">
<path id="Vector" d="M53.8784 24.7233L49.8784 4.14893H27.3203L28.4829 10.1944H30.1796L31.8217 18.6523H29.0024L30.1687 24.7233H37.0607C38.6193 24.7233 39.3714 23.7569 39.0698 22.1983L37.5984 14.6232L37.3114 13.2717C37.068 12.12 36.6574 10.8193 34.5466 10.3434L34.5139 10.1944H36.7374H44.5304L47.3533 24.7233H53.882H53.8784Z" fill="var(--fill-0, #363738)"/>
<path id="Vector_2" d="M57.5307 0H50.9766L52.9566 10.1945H63.9868L60.5971 24.7234H67.2093L71.9796 4.14902H61.0003C59.9794 4.25075 59.0167 4.5087 58.9295 6.22717H58.7805L58.0284 2.56498L57.5307 0Z" fill="var(--fill-0, #363738)"/>
<path id="Vector_3" d="M115.974 18.6778H107.589L106.499 13.0791C106.223 11.9783 105.776 10.7903 103.781 10.3434L103.749 10.1944H105.936H114.321L115.97 18.6778H115.974ZM123.186 22.1983L119.676 4.14893H96.5078L97.6304 10.1944H99.3562L101.689 22.1983C101.99 23.7569 103.146 24.7233 104.704 24.7233H121.202C122.732 24.7233 123.487 23.7569 123.182 22.1983" fill="var(--fill-0, #363738)"/>
<path id="Vector_4" d="M98.8414 24.7236L95.3391 6.70328C95.0303 5.11924 93.904 4.15283 92.3454 4.15283H72.5703L73.722 10.1983H75.4114L75.1026 24.7272H81.8711L82.1799 10.1983H89.4353L90.1474 13.8678L91.5715 20.8652H91.4189C90.5506 18.8815 89.1482 18.7289 87.9711 18.7107C87.9711 18.7107 85.7985 18.6998 84.2908 18.6889L85.3625 24.7236H98.8342H98.8414Z" fill="var(--fill-0, #363738)"/>
<path id="Vector_5" d="M10.1655 8.70529C10.1655 5.89689 7.89114 3.62256 5.08274 3.62256C2.27433 3.62256 0 5.90052 0 8.70529C0 11.5101 2.27433 13.788 5.08274 13.788C7.89114 13.788 10.1655 11.5137 10.1655 8.70529ZM13.2355 20.0515C13.2355 17.2431 10.9611 14.9688 8.15273 14.9688C5.34432 14.9688 3.06999 17.2431 3.06999 20.0515C3.06999 22.8599 5.34432 25.1343 8.15273 25.1343C10.9611 25.1343 13.2355 22.8599 13.2355 20.0515ZM22.3873 8.70529C22.3873 5.89689 20.113 3.62256 17.3046 3.62256C14.4962 3.62256 12.2218 5.89689 12.2218 8.70529C12.2218 11.5137 14.4962 13.788 17.3046 13.788C20.113 13.788 22.3873 11.5137 22.3873 8.70529ZM25.4573 20.0515C25.4573 17.2431 23.183 14.9688 20.3745 14.9688C17.5661 14.9688 15.2918 17.2431 15.2918 20.0515C15.2918 22.8599 17.5661 25.1343 20.3745 25.1343C23.183 25.1343 25.4573 22.8599 25.4573 20.0515Z" fill="var(--fill-0, #363738)"/>
</g>
</svg>

