<svg preserveAspectRatio="xMidYMid meet" width="100%" height="100%" overflow="visible" style="display: block;" viewBox="0 0 170 170" fill="none" xmlns="http://www.w3.org/2000/svg">
<g id="My_Heritage">
<path id="MyHeritage logo" fill-rule="evenodd" clip-rule="evenodd" d="M33.6779 83.7036C33.6064 76.2149 27.7443 70.1447 20.4245 70.1447C13.1046 70.1447 7.17106 76.2149 7.17106 83.7036C7.17106 90.2484 11.7061 95.7109 17.7006 96.947C19.7056 97.3605 19.9819 92.1379 19.4334 88.6754C19.4234 88.6748 18.8287 88.6404 18.6296 88.6309C18.2181 88.6137 17.8294 89.096 17.5777 89.1904C17.1492 89.3496 17.0678 88.9124 16.7581 88.9124C16.4865 88.9124 16.123 89.3443 15.1219 89.1501C14.1098 88.9534 13.782 88.0173 13.782 88.0173L13.4781 87.8527C12.4449 87.5902 12.3893 86.4348 12.3823 86.3683C12.3231 85.8052 13.2879 85.3769 13.0168 85.2017C11.8472 84.4437 12.2248 83.8473 12.2353 83.8164C12.3846 83.4155 12.9519 82.5464 12.7435 82.4098C12.1709 82.0362 13.1117 79.8621 13.9394 79.2592C14.0653 78.569 14.79 77.4439 15.4919 77.2057C15.4533 76.4246 16.5199 75.9826 16.5199 75.9826C17.2674 75.7367 16.7435 75.1047 18.1759 75.2051C18.512 75.2283 18.5014 74.8386 19.3327 74.8202C19.5733 74.8148 19.8373 74.6236 20.5732 74.6236C21.864 74.5653 21.8048 75.4575 22.2369 75.3055C22.7824 75.1148 24.6007 76.0272 24.7886 77.9037C25.6058 77.8401 27.7484 80.2536 27.6857 82.0356C29.0942 83.6537 27.1741 85.1868 27.0974 85.4832C27.1524 85.6507 27.4364 86.3867 27.3234 86.957C27.1899 87.6234 26.3639 88.3517 26.33 88.3767C25.7504 88.8031 25.3219 89.2855 24.6329 89.153C23.9205 89.0164 24.0557 88.3452 23.8444 88.183C23.3872 88.5982 22.6981 88.9522 21.8165 88.8792C21.7129 88.862 21.3295 88.8216 21.2797 88.8162C20.8577 91.3657 20.9174 97.0623 22.6829 97.0593C28.0065 96.2283 33.7487 90.9844 33.6779 83.7036ZM6.09627 83.7034C6.09627 76.4844 11.6107 70.179 18.5652 69.7637C8.59533 68.8234 2.25781 76.065 2.25781 83.7034C2.25781 91.3399 8.74285 98.7235 18.5658 97.6406C11.6107 97.2254 6.09627 90.9206 6.09627 83.7034ZM22.2837 69.764C29.2388 70.1792 34.7532 76.4846 34.7532 83.7036C34.7532 90.9208 29.2388 97.2256 22.2837 97.6408C32.359 98.5479 38.5917 91.3402 38.5917 83.7036C38.5917 76.0652 32.3835 68.8741 22.2837 69.764ZM99.651 84.8542H95.3202V84.7977C95.3202 83.7897 95.5158 83.0199 95.9068 82.487C96.2985 81.9548 96.8476 81.6887 97.5553 81.6887C98.2818 81.6887 98.8315 81.9679 99.2044 82.5286C99.3724 82.7912 99.4877 83.0799 99.5539 83.3977C99.6188 83.7155 99.651 84.1443 99.651 84.6861V84.8542ZM103.074 82.9637C102.767 81.9645 102.287 81.1293 101.636 80.4557C101.17 79.9704 100.573 79.5974 99.8466 79.3354C99.1207 79.0747 98.338 78.9434 97.4991 78.9434C96.5496 78.9434 95.7113 79.1014 94.9854 79.4204C94.2584 79.737 93.5969 80.2229 93.0009 80.8763C92.3675 81.5861 91.9115 82.3886 91.6317 83.2856C91.3519 84.1826 91.2126 85.2743 91.2126 86.5628C91.2126 87.6831 91.3712 88.7018 91.6879 89.616C92.0046 90.5313 92.4559 91.3113 93.0425 91.9552C93.6297 92.6003 94.3421 93.0998 95.181 93.4533C96.0187 93.8085 96.95 93.9867 97.9751 93.9867C99.8197 93.9867 101.511 93.4075 103.048 92.2492C103.272 92.0965 103.302 91.8684 103.149 91.6599C102.895 91.2679 102.475 90.621 102.197 90.1916C101.962 89.8078 101.729 89.9064 101.538 90.049C100.498 90.8058 99.4116 91.1853 98.2818 91.1853C97.313 91.1853 96.5684 90.8871 96.0468 90.289C95.5246 89.6914 95.2641 88.8325 95.2641 87.711V87.5993H102.963C103.627 87.5993 103.535 86.7315 103.535 86.7315C103.535 85.2179 103.382 83.9628 103.074 82.9637ZM158.93 84.7977C158.93 83.7897 159.126 83.0199 159.517 82.487C159.908 81.9548 160.457 81.6887 161.165 81.6887C161.892 81.6887 162.441 81.9679 162.814 82.5286C162.982 82.7912 163.098 83.0799 163.163 83.3977C163.229 83.7155 163.261 84.1443 163.261 84.6861V84.8542H158.93V84.7977ZM166.574 87.5993C167.237 87.5993 167.145 86.7315 167.145 86.7315C167.145 85.2179 166.991 83.9628 166.684 82.9637C166.377 81.9645 165.897 81.1293 165.245 80.4557C164.779 79.9704 164.184 79.5974 163.456 79.3354C162.73 79.0747 161.948 78.9434 161.11 78.9434C160.16 78.9434 159.321 79.1014 158.595 79.4204C157.868 79.737 157.207 80.2229 156.611 80.8763C155.977 81.5861 155.521 82.3886 155.242 83.2856C154.962 84.1826 154.822 85.2743 154.822 86.5628C154.822 87.6831 154.98 88.7018 155.298 89.616C155.614 90.5313 156.065 91.3113 156.652 91.9552C157.24 92.6003 157.952 93.0998 158.79 93.4533C159.629 93.8085 160.56 93.9867 161.584 93.9867C163.43 93.9867 165.121 93.4075 166.657 92.2492C166.882 92.0965 166.912 91.8684 166.759 91.6599C166.504 91.2679 166.085 90.621 165.807 90.1916C165.572 89.8078 165.339 89.9064 165.148 90.049C164.107 90.8058 163.022 91.1853 161.892 91.1853C160.923 91.1853 160.178 90.8871 159.657 90.289C159.135 89.6914 158.874 88.8325 158.874 87.711V87.5993H166.574ZM146.999 85.9187C146.346 85.9187 145.815 85.7601 145.406 85.4429C144.996 85.1251 144.791 84.6024 144.791 83.8735C144.791 83.2005 144.987 82.6784 145.378 82.3047C145.769 81.9323 146.318 81.744 147.027 81.744C147.734 81.744 148.288 81.9323 148.689 82.3047C149.09 82.6784 149.29 83.2005 149.29 83.8735C149.29 85.2374 148.526 85.9187 146.999 85.9187ZM153.286 81.885C153.807 81.885 154.273 81.8012 154.683 81.6331C154.975 81.5125 155.268 81.3408 155.561 81.1163C155.803 80.947 155.83 80.6571 155.646 80.4142C155.389 80.0227 154.996 79.4258 154.71 78.9903C154.498 78.6327 154.319 78.5246 153.94 78.7759C153.626 79.0094 153.291 79.2012 152.937 79.3491C152.424 79.5642 151.907 79.6717 151.386 79.6717C151.143 79.6717 150.887 79.6443 150.618 79.5873C150.347 79.5321 150.016 79.4584 149.625 79.3634C149.104 79.2333 148.648 79.1394 148.257 79.083C147.866 79.0284 147.464 78.9993 147.055 78.9993C146.142 78.9993 145.313 79.1163 144.568 79.3491C143.822 79.5832 143.189 79.9093 142.668 80.3298C142.146 80.7498 141.741 81.2595 141.452 81.857C141.163 82.454 141.019 83.1181 141.019 83.8452C141.019 85.9747 142.043 87.3005 144.092 87.8239C143.497 87.973 143.026 88.1417 142.681 88.3276C142.336 88.5147 142.076 88.7113 141.899 88.9156C141.722 89.1218 141.605 89.3356 141.55 89.5601C141.494 89.7841 141.466 90.0086 141.466 90.2326C141.466 90.7185 141.564 91.12 141.759 91.4366C141.955 91.755 142.221 91.9795 142.555 92.1096C143.208 92.3894 144.354 92.5397 145.992 92.5569L147.586 92.5854C148.33 92.6039 148.955 92.7304 149.458 92.9638C149.961 93.1961 150.212 93.6404 150.212 94.2938C150.212 94.5932 150.128 94.8694 149.961 95.1207C149.793 95.3725 149.57 95.5828 149.29 95.7515C148.992 95.9368 148.648 96.064 148.257 96.1293C147.866 96.194 147.428 96.2273 146.942 96.2273C146.067 96.2273 145.402 96.077 144.945 95.7782C144.488 95.4795 144.26 95.0411 144.26 94.4625C144.26 94.257 144.269 94.093 144.288 93.9713C144.306 93.8507 144.354 93.4931 144.011 93.5382H140.963C140.889 93.6879 140.814 93.8697 140.74 94.0847C140.665 94.2986 140.628 94.6027 140.628 94.9947C140.628 95.9659 141.019 96.816 141.801 97.5436C142.453 98.1412 143.263 98.5481 144.233 98.7631C145.201 98.9764 146.198 99.0851 147.222 99.0851C148.34 99.0851 149.402 98.9443 150.408 98.6645C151.414 98.3836 152.233 97.9078 152.867 97.2353C153.63 96.4132 154.013 95.4236 154.013 94.2659C154.013 92.9977 153.602 91.9795 152.783 91.2133C152.28 90.7458 151.702 90.4191 151.051 90.2326C150.398 90.0455 149.532 89.9433 148.452 89.9243L146.44 89.8958C146.03 89.8958 145.825 89.7841 145.825 89.5601C145.825 89.3552 145.951 89.1628 146.202 88.9863C146.454 88.8087 146.821 88.608 147.306 88.384C147.455 88.4024 147.558 88.4119 147.614 88.4119H147.866C148.628 88.4119 149.332 88.3044 149.975 88.09C150.618 87.8749 151.177 87.5809 151.651 87.2073C152.127 86.8342 152.494 86.3864 152.755 85.8624C153.015 85.3409 153.146 84.7701 153.146 84.1541C153.146 83.6688 153.076 83.2393 152.937 82.8657C152.796 82.492 152.587 82.1368 152.308 81.8012C152.419 81.8196 152.563 81.838 152.741 81.857C152.918 81.876 153.1 81.885 153.286 81.885ZM135.598 90.3999C135.319 90.7183 135.012 90.9606 134.677 91.1287C134.341 91.2968 133.996 91.3812 133.643 91.3812C133.158 91.3812 132.762 91.2083 132.455 90.8626C132.148 90.5175 131.994 90.0649 131.994 89.5041C131.994 88.6446 132.25 88.0666 132.762 87.7672C133.275 87.4684 134.183 87.3193 135.487 87.3193H135.654L135.598 90.3999ZM139.915 91.3392C139.738 91.1247 139.603 90.8955 139.511 90.6525C139.417 90.4102 139.361 90.144 139.343 89.8548C139.324 89.5649 139.315 89.2245 139.315 88.8325L139.399 84.0133V83.0331C139.399 82.7724 139.385 82.5478 139.356 82.3613C139.329 82.1742 139.301 82.0097 139.273 81.8713C139.245 81.7305 139.203 81.5861 139.147 81.437C138.868 80.6334 138.332 80.0174 137.54 79.5873C136.748 79.1578 135.747 78.9434 134.537 78.9434C133.884 78.9434 133.246 79.0093 132.622 79.1394C131.998 79.2701 131.332 79.4857 130.624 79.7839C130.122 79.99 129.702 80.1766 129.367 80.3441C129.173 80.4415 128.971 80.552 128.763 80.6749C128.424 80.8912 128.46 81.1525 128.554 81.3812C128.842 81.8671 129.314 82.6637 129.615 83.1721C129.835 83.5185 130.092 83.4893 130.377 83.3414C130.983 82.966 131.559 82.6678 132.105 82.4451C132.794 82.1647 133.437 82.0251 134.034 82.0251C134.722 82.0251 135.174 82.1796 135.389 82.4873C135.603 82.7955 135.71 83.3509 135.71 84.154V84.7415C135.56 84.7237 135.421 84.7142 135.291 84.7142H134.871C132.581 84.7142 130.862 85.1116 129.716 85.9046C128.571 86.6988 127.998 87.9456 127.998 89.6445C127.998 91.0826 128.417 92.1898 129.255 92.9638C130.093 93.7384 131.313 94.1269 132.916 94.1269C134.108 94.1269 135.068 93.8643 135.793 93.3416C135.942 93.2483 136.087 93.1367 136.227 93.006C136.367 92.8753 136.511 92.7345 136.66 92.5854C136.846 92.9596 137.121 93.2953 137.485 93.594C137.698 93.7699 137.926 93.9219 138.16 94.0633C138.526 94.2849 138.783 94.2041 139.065 93.8857C139.451 93.4533 140.027 92.7993 140.353 92.3775C140.487 92.2011 140.564 91.9581 140.322 91.7514C140.157 91.6118 140.024 91.4705 139.915 91.3392ZM127.171 91.36C127.116 91.1176 126.877 91.1075 126.72 91.1491C126.559 91.1931 126.421 91.2275 126.307 91.2554C126.112 91.3018 125.93 91.3249 125.763 91.3249C125.11 91.3249 124.677 91.1711 124.463 90.8628C124.249 90.5545 124.142 89.9433 124.142 89.0291V81.8285H126.545C126.545 81.8285 127.03 80.514 127.306 79.7619C127.443 79.3669 127.207 79.2523 126.997 79.2523H124.142C124.142 78.5234 124.16 77.7803 124.198 77.0247C124.221 76.5632 124.25 76.1183 124.287 75.6954C124.355 75.0004 123.877 75.0509 123.574 75.1073C122.461 75.3871 120.566 75.8629 120.566 75.8629C120.491 76.404 120.449 76.9267 120.44 77.431C120.43 77.9348 120.426 78.5418 120.426 79.2523H119V81.8285H120.426V89.616C120.426 89.9528 120.43 90.2272 120.44 90.4428C120.449 90.6573 120.458 90.8402 120.467 90.9893C120.476 91.1384 120.499 91.2786 120.537 91.4093C120.574 91.5394 120.622 91.6801 120.677 91.8292C120.9 92.4636 121.361 92.9733 122.061 93.3559C122.758 93.7384 123.583 93.9297 124.533 93.9297C125.437 93.9297 126.364 93.7497 127.316 93.3897C127.454 93.3291 127.555 93.2275 127.521 93.0084C127.431 92.5908 127.264 91.7995 127.171 91.36ZM115.675 72.9764C115.023 72.9764 114.469 73.2003 114.013 73.6494C113.556 74.0973 113.328 74.6479 113.328 75.3007C113.328 75.9547 113.551 76.5066 113.999 76.9544C114.446 77.4023 114.986 77.6275 115.62 77.6275C116.272 77.6275 116.821 77.4023 117.268 76.9544C117.715 76.5066 117.938 75.9547 117.938 75.3007C117.938 74.6479 117.719 74.0973 117.281 73.6494C116.844 73.2003 116.308 72.9764 115.675 72.9764ZM117.141 78.9705C116.431 79.0828 114.831 79.3341 114.111 79.4469C113.768 79.5081 113.747 79.615 113.747 79.8413V93.2048C113.747 93.5131 113.927 93.5938 114.145 93.5938H117.162C117.424 93.5938 117.492 93.5202 117.492 93.2261V79.2824C117.492 78.9378 117.374 78.9331 117.141 78.9705ZM112.371 78.9711C112.194 78.9343 111.965 78.9153 111.686 78.9153C110.979 78.9153 110.345 79.1214 109.787 79.5319C109.228 79.9423 108.743 80.4199 108.333 80.9605C108.277 80.1948 108.082 79.5129 107.746 78.9153L104.393 79.811C104.543 80.2227 104.669 80.7834 104.77 81.4921C104.873 82.2025 104.924 83.0425 104.924 84.0131V93.1751C104.924 93.3681 105.018 93.5938 105.323 93.5938H108.255C108.494 93.5938 108.669 93.522 108.669 93.1751V83.4535C109.357 82.651 110.121 82.2489 110.96 82.2489C111.154 82.2489 111.344 82.2524 111.533 82.2958C111.878 82.3487 112.095 82.4039 112.218 81.9922C112.408 81.3858 112.716 80.4021 112.904 79.8021C113.07 79.2646 112.813 79.0869 112.371 78.9711ZM89.6454 74.1252H86.4573C86.0839 74.1252 86.0282 74.238 86.0282 74.5701V81.6887H80.44V74.5701C80.44 74.159 80.2515 74.1109 79.8769 74.1252H77.0231C76.6133 74.1252 76.5553 74.263 76.5553 74.5837V93.1459C76.5553 93.4887 76.7122 93.5938 76.9159 93.5938H80.0186C80.2463 93.5938 80.44 93.5416 80.44 93.1602V84.9088H86.0282V93.1537C86.0282 93.4566 86.2238 93.5938 86.465 93.5938H89.6173C89.8813 93.5938 89.9961 93.443 89.9961 93.1751V74.5552C89.9961 74.2 89.879 74.1252 89.6454 74.1252ZM75.2979 79.2521H72.2187C71.8833 79.2521 71.8142 79.3055 71.7264 79.6114C71.2593 81.0959 69.6851 86.0867 69.6851 86.0867C69.5733 86.4224 69.4662 86.7776 69.3637 87.1506C69.2613 87.5254 69.1817 87.8325 69.1266 88.0749C69.0886 88.2442 69.0424 88.4586 68.9862 88.7194C68.9305 88.9813 68.879 89.2291 68.8334 89.4619C68.7865 89.6959 68.7491 89.9015 68.721 90.0779C68.6929 90.2555 68.6794 90.3535 68.6794 90.3731L67.9248 87.4031C67.9248 87.4031 66.0562 81.1095 65.5586 79.4338C65.4615 79.1172 65.2566 79.0543 65.0008 79.0786C64.2684 79.1647 62.802 79.3358 62.0603 79.4231C61.7079 79.4641 61.6552 79.6489 61.7489 79.8918C62.5304 82.2281 66.332 93.5938 66.332 93.5938H67.2821C67.1884 93.7988 67.1146 93.9764 67.0584 94.1267C67.0028 94.2746 66.9466 94.4106 66.8904 94.5318C66.8354 94.6541 66.7745 94.7706 66.7095 94.8828C66.6434 94.9945 66.5649 95.1258 66.4725 95.2743C66.1552 95.778 65.801 96.1706 65.41 96.4516C65.1307 96.6571 64.7766 96.8383 64.348 96.9975C64.0747 97.0979 63.8048 97.19 63.539 97.2725C63.2446 97.3771 63.2007 97.6177 63.3213 97.8463C63.5741 98.3311 63.974 99.0985 64.2023 99.5339C64.3281 99.7935 64.5787 99.847 64.8093 99.7965C65.3034 99.7032 65.7793 99.5725 66.2342 99.4062C66.8208 99.1912 67.3558 98.9072 67.8405 98.552C68.1016 98.3655 68.344 98.141 68.5682 97.8796C68.7906 97.6188 69.0096 97.3058 69.2244 96.9411C69.4381 96.5775 69.6576 96.138 69.8806 95.6247C70.1048 95.1109 70.3367 94.5092 70.579 93.8178C70.579 93.8178 74.7611 82.0986 75.6222 79.6827C75.7645 79.274 75.5461 79.2521 75.2979 79.2521ZM59.7831 74.1252H55.6935C55.4511 74.1252 55.2527 74.1899 55.1584 74.5612C54.6462 76.446 52.6506 83.7897 52.6506 83.7897C52.3526 84.929 52.1196 85.9846 51.9522 86.9558C51.9147 86.7123 51.8726 86.4788 51.8264 86.2549C51.7801 86.0303 51.7333 85.8016 51.687 85.5682C51.6402 85.3347 51.584 85.0829 51.5196 84.812C51.4535 84.5411 51.3744 84.2287 51.2813 83.8735C51.2813 83.8735 49.3378 76.421 48.849 74.5475C48.7155 74.1288 48.4867 74.1252 48.218 74.1252H44.1219C43.7929 74.1252 43.7151 74.3087 43.6946 74.5778C43.4487 77.2111 42.2042 90.5519 41.9618 93.1537C41.9355 93.4792 42.1193 93.5861 42.4319 93.5939H45.2857C45.5872 93.5939 45.788 93.5303 45.8325 93.1751C45.9589 91.2606 46.4752 83.425 46.4752 83.425C46.5127 82.8274 46.5408 82.2388 46.5595 81.6608C46.5964 81.1191 46.6157 80.5779 46.6157 80.0356C46.7082 80.5589 46.8294 81.1191 46.9787 81.716C47.1274 82.3326 47.2673 82.8833 47.3978 83.3698C47.3978 83.3698 49.5322 91.2588 50.0514 93.1769C50.1375 93.465 50.2633 93.5939 50.5683 93.5939H53.0036C53.3958 93.5796 53.493 93.5321 53.606 93.1905C54.1674 91.2451 56.5628 82.9492 56.5628 82.9492C56.7308 82.3528 56.8655 81.8426 56.9679 81.4226C57.0703 81.0014 57.1781 80.5114 57.2893 79.9518C57.2893 80.4746 57.3033 80.9931 57.3308 81.5063C57.3595 82.0202 57.3917 82.5851 57.4292 83.2005C57.4292 83.2005 58.031 91.4423 58.1311 93.2475C58.1498 93.5707 58.3108 93.5939 58.5409 93.5939H61.6072C61.8039 93.5939 61.9824 93.5012 61.9467 93.1751C61.6686 90.6226 60.5183 77.1255 60.2889 74.5505C60.2467 74.2089 60.1238 74.1252 59.7831 74.1252Z" fill="var(--fill-0, #363738)"/>
</g>
</svg>

