<svg preserveAspectRatio="xMidYMid meet" width="100%" height="100%" overflow="visible" style="display: block;" viewBox="0 0 116 25" fill="none" xmlns="http://www.w3.org/2000/svg">
<g id="Group 427321023">
<path id="Vector" d="M100.787 8.20014C100.635 8.54617 100.619 8.861 100.805 9.18083C101.23 9.31558 101.66 9.31474 102.091 9.31474C105.545 9.31474 108.999 9.31474 112.453 9.31474C112.949 9.31474 113.445 9.31433 113.942 9.31474C114.093 9.31474 114.245 9.31183 114.395 9.31973C115.064 9.35592 115.294 9.55846 115.313 10.1956C115.335 10.923 115.323 11.6513 115.323 12.3791C115.324 13.0029 115.325 13.6268 115.322 14.2506C115.321 14.4166 115.32 14.5846 115.293 14.748C115.233 15.1186 114.995 15.3444 114.609 15.3852C114.374 15.4101 114.135 15.4056 113.897 15.4056C109.86 15.4068 105.824 15.4056 101.787 15.4072C101.55 15.4072 101.311 15.4076 101.076 15.4322C100.837 15.4567 100.721 15.5707 100.693 15.7878C100.661 16.0356 100.641 16.2868 100.814 16.5118C101.028 16.642 101.271 16.5959 101.503 16.5963C102.863 16.6008 104.223 16.5983 105.583 16.5983C108.325 16.5983 111.067 16.5983 113.808 16.5983C114.002 16.5983 114.197 16.5929 114.391 16.6021C115.03 16.6312 115.378 16.9905 115.371 17.6011C115.354 19.0355 115.334 20.4695 115.326 21.9039C115.323 22.4442 115.349 22.9844 115.358 23.5247C115.36 23.6486 115.358 23.7751 115.336 23.8965C115.241 24.4234 115.027 24.6143 114.478 24.6534C114.241 24.6701 114.003 24.6638 113.766 24.6638C107.441 24.6643 101.115 24.663 94.7906 24.6663C94.3598 24.6663 93.9282 24.6892 93.4979 24.7171C93.2551 24.7329 93.0244 24.7171 92.8041 24.6135C92.5324 24.4858 92.3626 24.2779 92.3207 23.9917C92.2934 23.8075 92.2978 23.6183 92.2978 23.4315C92.2969 16.0282 92.2969 8.62477 92.2973 1.22097C92.2973 1.0962 92.2943 0.971019 92.3038 0.846666C92.3388 0.383357 92.6347 0.0730989 93.1069 0.0132097C93.256 -0.00550565 93.4085 0.00114962 93.5597 0.00114962C100.403 0.00114962 107.246 0.00114749 114.089 0.00156338C114.24 0.00156338 114.392 -0.00384287 114.542 0.0123771C114.957 0.0581258 115.213 0.283544 115.285 0.677815C115.317 0.860809 115.321 1.05046 115.321 1.23678C115.324 3.12911 115.323 5.02186 115.323 6.91419C115.323 6.97657 115.323 7.03896 115.321 7.10134C115.29 7.82084 115.079 8.03212 114.351 8.06248C114.135 8.07163 113.919 8.06705 113.703 8.06705C109.752 8.06705 105.802 8.06664 101.852 8.0683C101.509 8.0683 101.16 8.03545 100.787 8.19931V8.20014Z" fill="var(--fill-0, #363738)"/>
<path id="Vector_2" d="M43.2803 24.7208C36.2892 24.8229 30.5462 19.1885 30.4926 12.4638C30.4402 5.93681 35.8579 -0.0111982 43.2841 1.58314e-05C50.2868 0.0108145 55.9967 5.38857 56.0384 12.3126C56.0821 19.588 49.8649 24.8395 43.2803 24.7203V24.7208Z" fill="var(--fill-0, #363738)"/>
<path id="Vector_3" d="M73.5697 24.6689C72.023 24.6689 70.476 24.6664 68.9293 24.6706C68.5535 24.6718 68.1782 24.6956 67.8024 24.7097C67.7396 24.7122 67.6773 24.7238 67.6149 24.7222C67.078 24.708 66.7491 24.4526 66.6378 23.9326C66.5951 23.7321 66.5959 23.52 66.5955 23.3132C66.5922 21.8785 66.5817 20.4434 66.6018 19.009C66.6077 18.5814 66.475 18.2682 66.1683 17.9674C64.427 16.259 62.7025 14.5335 60.9726 12.8138C60.8692 12.711 60.7725 12.6004 60.6616 12.5055C60.2838 12.1823 60.162 11.7763 60.1641 11.285C60.1766 7.958 60.1708 4.63096 60.1708 1.3035C60.1708 1.1995 60.1699 1.0955 60.1762 0.991509C60.2118 0.414954 60.5365 0.071767 61.1107 0.0110333C61.2555 -0.00435817 61.4032 0.00105003 61.5492 0.00105003C64.1203 0.000634049 66.6913 0.000634049 69.2624 0.00105003C69.388 0.00105003 69.5139 -0.00352519 69.6386 0.00687442C70.1851 0.0522167 70.5714 0.425356 70.6199 0.962808C70.6367 1.14875 70.6287 1.33678 70.6287 1.52397C70.6291 3.56188 70.648 5.59978 70.6178 7.63728C70.6086 8.265 70.8664 8.70303 71.2991 9.10196C72.5173 10.2255 74.569 10.013 75.5139 8.98382C75.8817 8.58322 76.0993 8.14935 76.0943 7.58736C76.0772 5.61185 76.0855 3.63634 76.0855 1.66083C76.0855 1.41124 76.0801 1.16081 76.1014 0.912887C76.1445 0.416202 76.4257 0.109208 76.9166 0.026427C77.1003 -0.00477182 77.2916 0.00188281 77.479 0.00188281C80.0501 0.000218877 82.6212 0.000633642 85.1922 0.000633642C85.2968 0.000633642 85.4015 -0.00227713 85.5057 0.00437862C86.1313 0.0430652 86.5472 0.485674 86.5343 1.1084C86.5259 1.52356 86.4907 1.93871 86.4903 2.35386C86.4861 5.26492 86.4886 8.17639 86.4878 11.0875C86.4878 11.7342 86.2621 12.2817 85.8107 12.7302C84.1113 14.4216 82.4111 16.1121 80.7113 17.8031C80.5928 17.9208 80.4786 18.0423 80.3568 18.1563C80.1618 18.3393 80.0773 18.5639 80.0794 18.8268C80.0806 18.9932 80.0765 19.1596 80.0765 19.326C80.0765 20.6568 80.0765 21.9879 80.0756 23.3186C80.0756 23.5058 80.0786 23.6939 80.061 23.8794C80.012 24.3981 79.6798 24.703 79.1479 24.7064C78.8349 24.7084 78.5219 24.6723 78.2088 24.6714C76.6622 24.6677 75.1151 24.6698 73.5684 24.6698L73.5697 24.6689Z" fill="var(--fill-0, #363738)"/>
<path id="Vector_4" d="M27.1728 6.33138C27.1728 7.89082 27.1728 9.45026 27.1728 11.0097C27.1728 11.1761 27.1663 11.3425 27.1706 11.5088C27.1801 11.8828 27.0596 12.2018 26.7662 12.456C26.6539 12.5533 26.5532 12.6623 26.4465 12.765C22.5547 16.5137 18.6629 20.2627 14.7702 24.0105C14.6025 24.1719 14.4383 24.3408 14.2513 24.4793C13.8071 24.8075 13.3885 24.8017 12.9513 24.4714C12.816 24.3695 12.6968 24.2468 12.5749 24.1291C8.59066 20.2931 4.60722 16.4563 0.623794 12.6195C0.517079 12.5167 0.410797 12.4131 0.309699 12.305C0.114416 12.0966 0.00510924 11.8545 0.00640537 11.5696C0.00726945 11.4032 0.000788818 11.2368 0.000788818 11.0704C0.000788818 7.88916 0.000788818 4.70789 0.000788818 1.52663C0.000788818 1.33944 -0.00396365 1.15184 0.00986171 0.96549C0.0496096 0.416838 0.37537 0.0844888 0.937025 0.019599C1.08608 0.00212864 1.23859 0.00795087 1.3898 0.00795087C4.06588 0.00753491 6.74195 0.00795087 9.41802 0.00795087C9.43962 0.00795087 9.46122 0.0100307 9.48282 0.00795087C10.3564 -0.0785689 10.8399 0.554525 10.8101 1.24959C10.7677 2.22502 10.8001 3.20378 10.8001 4.18087C10.8001 5.32434 10.8256 6.46865 10.7898 7.61129C10.7712 8.20612 11.0002 8.65993 11.4179 9.05218C12.5888 10.152 14.6673 10.1283 15.8235 9.00893C16.2387 8.60711 16.4508 8.14289 16.4448 7.55888C16.4257 5.5839 16.4352 3.60851 16.4352 1.63311C16.4352 1.40433 16.4413 1.17597 16.4452 0.947191C16.4534 0.444294 16.8332 0.0695134 17.3918 0.0187663C17.5417 0.00503955 17.6938 0.00878361 17.8446 0.00878361C20.499 0.00836764 23.1535 0.00836764 25.808 0.00878361C25.9592 0.00878361 26.1113 0.00254298 26.2608 0.0179335C26.7935 0.0724244 27.1741 0.455109 27.1922 0.967989C27.2026 1.25833 27.175 1.54992 27.1745 1.84067C27.1724 3.33772 27.1737 4.83476 27.1737 6.3318L27.1728 6.33138Z" fill="var(--fill-0, #363738)"/>
</g>
</svg>

