<svg preserveAspectRatio="xMidYMid meet" width="100%" height="100%" overflow="visible" style="display: block;" viewBox="0 0 162 32" fill="none" xmlns="http://www.w3.org/2000/svg">
<g id="Group 427321031">
<g id="Group 40">
<path id="Vector" d="M15.9375 15.3262C15.8174 15.3256 15.6997 15.3607 15.5995 15.427C15.4994 15.4934 15.4212 15.5881 15.3749 15.699C15.3286 15.8099 15.3163 15.9321 15.3396 16.05C15.3629 16.1679 15.4207 16.2762 15.5057 16.3612C15.5907 16.4461 15.699 16.5039 15.8169 16.5272C15.9348 16.5505 16.057 16.5383 16.1679 16.492C16.2788 16.4457 16.3734 16.3675 16.4398 16.2673C16.5062 16.1671 16.5413 16.0495 16.5407 15.9293C16.5398 15.7696 16.476 15.6167 16.3631 15.5037C16.2502 15.3908 16.0973 15.327 15.9375 15.3262Z" fill="var(--fill-0, #363738)"/>
<path id="Vector_2" d="M31.0016 16.4512C30.8823 16.4512 30.7657 16.4865 30.6665 16.5528C30.5673 16.6191 30.49 16.7133 30.4443 16.8235C30.3987 16.9337 30.3868 17.055 30.41 17.172C30.4333 17.289 30.4907 17.3964 30.5751 17.4808C30.6594 17.5651 30.7669 17.6226 30.8839 17.6458C31.0009 17.6691 31.1222 17.6572 31.2324 17.6115C31.3426 17.5659 31.4368 17.4886 31.503 17.3894C31.5693 17.2902 31.6047 17.1736 31.6047 17.0543C31.6047 16.9751 31.5891 16.8967 31.5588 16.8235C31.5285 16.7503 31.484 16.6838 31.428 16.6278C31.372 16.5718 31.3055 16.5274 31.2324 16.4971C31.1592 16.4668 31.0808 16.4512 31.0016 16.4512V16.4512Z" fill="var(--fill-0, #363738)"/>
<path id="Vector_3" d="M30.6578 18.6885C30.5385 18.6885 30.4219 18.7239 30.3227 18.7901C30.2236 18.8564 30.1462 18.9506 30.1006 19.0608C30.0549 19.171 30.043 19.2923 30.0663 19.4093C30.0895 19.5263 30.147 19.6337 30.2313 19.7181C30.3157 19.8024 30.4232 19.8599 30.5401 19.8831C30.6571 19.9064 30.7784 19.8945 30.8886 19.8488C30.9988 19.8032 31.093 19.7259 31.1593 19.6267C31.2256 19.5275 31.2609 19.4109 31.2609 19.2916C31.2609 19.1316 31.1974 18.9782 31.0843 18.8651C30.9712 18.752 30.8178 18.6885 30.6578 18.6885V18.6885Z" fill="var(--fill-0, #363738)"/>
<path id="Vector_4" d="M29.9937 20.8457C29.8745 20.8457 29.7579 20.8811 29.6587 20.9473C29.5595 21.0136 29.4822 21.1078 29.4365 21.218C29.3909 21.3282 29.3789 21.4495 29.4022 21.5665C29.4255 21.6835 29.4829 21.7909 29.5673 21.8753C29.6516 21.9596 29.7591 22.0171 29.8761 22.0404C29.9931 22.0636 30.1143 22.0517 30.2245 22.006C30.3348 21.9604 30.429 21.8831 30.4952 21.7839C30.5615 21.6847 30.5969 21.5681 30.5969 21.4488C30.5969 21.3696 30.5813 21.2912 30.551 21.218C30.5206 21.1448 30.4762 21.0784 30.4202 21.0224C30.3642 20.9663 30.2977 20.9219 30.2245 20.8916C30.1514 20.8613 30.0729 20.8457 29.9937 20.8457V20.8457Z" fill="var(--fill-0, #363738)"/>
<path id="Vector_5" d="M24.4437 27.8066C24.3246 27.8073 24.2083 27.8432 24.1095 27.9098C24.0107 27.9765 23.9339 28.0709 23.8888 28.1811C23.8436 28.2914 23.8321 28.4126 23.8557 28.5294C23.8794 28.6461 23.937 28.7533 24.0215 28.8373C24.106 28.9214 24.2135 28.9785 24.3304 29.0015C24.4473 29.0245 24.5684 29.0124 24.6784 28.9667C24.7884 28.9209 24.8824 28.8436 24.9486 28.7445C25.0147 28.6454 25.05 28.5289 25.05 28.4098C25.05 28.3303 25.0343 28.2516 25.0038 28.1782C24.9733 28.1049 24.9286 28.0382 24.8722 27.9822C24.8159 27.9261 24.749 27.8818 24.6755 27.8517C24.6019 27.8215 24.5232 27.8062 24.4437 27.8066V27.8066Z" fill="var(--fill-0, #363738)"/>
<path id="Vector_6" d="M26.2045 26.3977C26.0852 26.3977 25.9686 26.433 25.8694 26.4993C25.7702 26.5656 25.6929 26.6598 25.6473 26.77C25.6016 26.8802 25.5897 27.0015 25.613 27.1185C25.6362 27.2355 25.6937 27.3429 25.778 27.4273C25.8624 27.5116 25.9698 27.5691 26.0868 27.5923C26.2038 27.6156 26.3251 27.6037 26.4353 27.558C26.5455 27.5124 26.6397 27.4351 26.706 27.3359C26.7722 27.2367 26.8076 27.1201 26.8076 27.0008C26.8068 26.8411 26.743 26.6882 26.63 26.5752C26.5171 26.4623 26.3642 26.3985 26.2045 26.3977Z" fill="var(--fill-0, #363738)"/>
<path id="Vector_7" d="M27.7422 24.7422C27.6222 24.7416 27.5047 24.7766 27.4046 24.8428C27.3044 24.9091 27.2263 25.0035 27.1799 25.1143C27.1335 25.225 27.121 25.347 27.1441 25.4648C27.1671 25.5826 27.2246 25.6909 27.3093 25.7761C27.3939 25.8612 27.502 25.9192 27.6197 25.9429C27.7373 25.9665 27.8594 25.9547 27.9704 25.9089C28.0813 25.8631 28.1762 25.7854 28.243 25.6856C28.3097 25.5859 28.3454 25.4685 28.3454 25.3485C28.3458 25.269 28.3305 25.1902 28.3004 25.1167C28.2702 25.0432 28.2259 24.9763 28.1698 24.92C28.1138 24.8636 28.0472 24.8189 27.9738 24.7884C27.9004 24.7579 27.8217 24.7422 27.7422 24.7422V24.7422Z" fill="var(--fill-0, #363738)"/>
<path id="Vector_8" d="M22.4859 30.1398C22.819 30.1398 23.089 29.8698 23.089 29.5367C23.089 29.2036 22.819 28.9336 22.4859 28.9336C22.1528 28.9336 21.8828 29.2036 21.8828 29.5367C21.8828 29.8698 22.1528 30.1398 22.4859 30.1398Z" fill="var(--fill-0, #363738)"/>
<path id="Vector_9" d="M20.3922 30.966C20.7253 30.966 20.9953 30.696 20.9953 30.3629C20.9953 30.0298 20.7253 29.7598 20.3922 29.7598C20.0591 29.7598 19.7891 30.0298 19.7891 30.3629C19.7891 30.696 20.0591 30.966 20.3922 30.966Z" fill="var(--fill-0, #363738)"/>
<path id="Vector_10" d="M18.1969 30.2622C18.0776 30.2622 17.961 30.2976 17.8618 30.3639C17.7626 30.4301 17.6853 30.5243 17.6397 30.6345C17.594 30.7447 17.5821 30.866 17.6053 30.983C17.6286 31.1 17.686 31.2075 17.7704 31.2918C17.8547 31.3762 17.9622 31.4336 18.0792 31.4569C18.1962 31.4801 18.3175 31.4682 18.4277 31.4225C18.5379 31.3769 18.6321 31.2996 18.6983 31.2004C18.7646 31.1012 18.8 30.9846 18.8 30.8653C18.7992 30.7056 18.7353 30.5527 18.6224 30.4398C18.5095 30.3269 18.3566 30.263 18.1969 30.2622V30.2622Z" fill="var(--fill-0, #363738)"/>
<path id="Vector_11" d="M9.39219 30.1398C9.72528 30.1398 9.99531 29.8698 9.99531 29.5367C9.99531 29.2036 9.72528 28.9336 9.39219 28.9336C9.05909 28.9336 8.78906 29.2036 8.78906 29.5367C8.78906 29.8698 9.05909 30.1398 9.39219 30.1398Z" fill="var(--fill-0, #363738)"/>
<path id="Vector_12" d="M11.4859 30.966C11.819 30.966 12.0891 30.696 12.0891 30.3629C12.0891 30.0298 11.819 29.7598 11.4859 29.7598C11.1528 29.7598 10.8828 30.0298 10.8828 30.3629C10.8828 30.696 11.1528 30.966 11.4859 30.966Z" fill="var(--fill-0, #363738)"/>
<path id="Vector_13" d="M13.6891 30.2622C13.5698 30.2622 13.4532 30.2976 13.354 30.3639C13.2548 30.4301 13.1775 30.5243 13.1319 30.6345C13.0862 30.7447 13.0743 30.866 13.0975 30.983C13.1208 31.1 13.1782 31.2075 13.2626 31.2918C13.3469 31.3762 13.4544 31.4336 13.5714 31.4569C13.6884 31.4801 13.8097 31.4682 13.9199 31.4225C14.0301 31.3769 14.1243 31.2996 14.1905 31.2004C14.2568 31.1012 14.2922 30.9846 14.2922 30.8653C14.2913 30.7056 14.2275 30.5527 14.1146 30.4398C14.0017 30.3269 13.8488 30.263 13.6891 30.2622V30.2622Z" fill="var(--fill-0, #363738)"/>
<path id="Vector_14" d="M7.42343 27.8066C7.30415 27.8066 7.18753 27.842 7.08835 27.9083C6.98917 27.9746 6.91187 28.0688 6.86622 28.179C6.82057 28.2892 6.80863 28.4104 6.8319 28.5274C6.85517 28.6444 6.91261 28.7519 6.99696 28.8362C7.08131 28.9206 7.18878 28.978 7.30577 29.0013C7.42276 29.0246 7.54403 29.0126 7.65424 28.967C7.76444 28.9213 7.85864 28.844 7.92491 28.7448C7.99118 28.6457 8.02656 28.5291 8.02656 28.4098C8.02697 28.3305 8.01166 28.2518 7.98149 28.1785C7.95133 28.1051 7.90692 28.0385 7.85083 27.9824C7.79474 27.9263 7.72809 27.8819 7.65473 27.8517C7.58137 27.8215 7.50275 27.8062 7.42343 27.8066V27.8066Z" fill="var(--fill-0, #363738)"/>
<path id="Vector_15" d="M5.66543 26.3977C5.54615 26.3977 5.42953 26.433 5.33035 26.4993C5.23117 26.5656 5.15387 26.6598 5.10822 26.77C5.06257 26.8802 5.05062 27.0015 5.07389 27.1185C5.09716 27.2355 5.15461 27.3429 5.23896 27.4273C5.32331 27.5116 5.43078 27.5691 5.54777 27.5923C5.66476 27.6156 5.78603 27.6037 5.89624 27.558C6.00644 27.5124 6.10064 27.4351 6.16691 27.3359C6.23318 27.2367 6.26856 27.1201 6.26856 27.0008C6.26773 26.8411 6.20391 26.6882 6.09098 26.5752C5.97806 26.4623 5.82513 26.3985 5.66543 26.3977Z" fill="var(--fill-0, #363738)"/>
<path id="Vector_16" d="M4.12971 24.7422C4.0098 24.7422 3.89259 24.7777 3.79288 24.8444C3.69318 24.911 3.61547 25.0057 3.56959 25.1165C3.5237 25.2272 3.51169 25.3491 3.53509 25.4667C3.55848 25.5844 3.61622 25.6924 3.70101 25.7772C3.7858 25.862 3.89383 25.9197 4.01143 25.9431C4.12904 25.9665 4.25095 25.9545 4.36173 25.9086C4.47251 25.8627 4.5672 25.785 4.63382 25.6853C4.70044 25.5856 4.736 25.4684 4.736 25.3485C4.736 25.1877 4.67212 25.0335 4.55842 24.9198C4.44472 24.8061 4.29051 24.7422 4.12971 24.7422V24.7422Z" fill="var(--fill-0, #363738)"/>
<path id="Vector_17" d="M1.47968 17.0608C1.47968 16.9415 1.44431 16.8249 1.37803 16.7257C1.31176 16.6265 1.21757 16.5492 1.10736 16.5036C0.997156 16.4579 0.875889 16.446 0.758895 16.4693C0.641901 16.4925 0.534435 16.55 0.450087 16.6343C0.365738 16.7187 0.308298 16.8261 0.285027 16.9431C0.261755 17.0601 0.273698 17.1814 0.319347 17.2916C0.364996 17.4018 0.442297 17.496 0.54148 17.5623C0.640663 17.6285 0.757271 17.6639 0.876557 17.6639C1.03652 17.6639 1.18992 17.6004 1.30303 17.4873C1.41614 17.3742 1.47968 17.2207 1.47968 17.0608Z" fill="var(--fill-0, #363738)"/>
<path id="Vector_18" d="M1.81411 19.294C1.81474 19.174 1.77971 19.0564 1.71348 18.9563C1.64724 18.8562 1.55277 18.778 1.44204 18.7316C1.33132 18.6853 1.20931 18.6728 1.0915 18.6958C0.973686 18.7189 0.865365 18.7764 0.780259 18.861C0.695153 18.9457 0.637096 19.0537 0.613445 19.1714C0.589795 19.2891 0.601616 19.4112 0.647409 19.5221C0.693203 19.6331 0.770909 19.728 0.870679 19.7947C0.970448 19.8615 1.08779 19.8971 1.20783 19.8971C1.36808 19.8971 1.52182 19.8337 1.63543 19.7207C1.74904 19.6077 1.81328 19.4543 1.81411 19.294V19.294Z" fill="var(--fill-0, #363738)"/>
<path id="Vector_19" d="M2.47968 21.4488C2.47968 21.3295 2.44431 21.2129 2.37803 21.1137C2.31176 21.0146 2.21757 20.9373 2.10736 20.8916C1.99716 20.846 1.87589 20.834 1.7589 20.8573C1.6419 20.8806 1.53443 20.938 1.45009 21.0224C1.36574 21.1067 1.3083 21.2142 1.28503 21.3312C1.26176 21.4482 1.2737 21.5694 1.31935 21.6796C1.365 21.7898 1.4423 21.884 1.54148 21.9503C1.64066 22.0166 1.75727 22.052 1.87656 22.052C2.03652 22.052 2.18992 21.9884 2.30303 21.8753C2.41614 21.7622 2.47968 21.6088 2.47968 21.4488V21.4488Z" fill="var(--fill-0, #363738)"/>
<path id="Vector_20" d="M0.87656 15.4051C0.995846 15.4051 1.11245 15.3697 1.21164 15.3035C1.31082 15.2372 1.38813 15.143 1.43377 15.0328C1.47942 14.9226 1.49137 14.8013 1.46809 14.6843C1.44482 14.5673 1.38738 14.4598 1.30303 14.3755C1.21868 14.2911 1.11122 14.2337 0.994222 14.2104C0.877228 14.1872 0.755961 14.1991 0.645755 14.2448C0.535549 14.2904 0.441356 14.3677 0.375084 14.4669C0.308812 14.5661 0.273438 14.6827 0.273438 14.802C0.274267 14.9617 0.338077 15.1146 0.451005 15.2275C0.563933 15.3405 0.716858 15.4043 0.87656 15.4051V15.4051Z" fill="var(--fill-0, #363738)"/>
<path id="Vector_21" d="M1.87656 11.0178C1.99585 11.0178 2.11245 10.9824 2.21164 10.9161C2.31082 10.8499 2.38813 10.7557 2.43377 10.6454C2.47942 10.5352 2.49137 10.414 2.46809 10.297C2.44482 10.18 2.38738 10.0725 2.30303 9.98818C2.21868 9.90383 2.11122 9.84638 1.99422 9.82311C1.87723 9.79984 1.75596 9.81179 1.64576 9.85744C1.53555 9.90309 1.44136 9.98039 1.37508 10.0796C1.30881 10.1788 1.27344 10.2954 1.27344 10.4147C1.27427 10.5744 1.33808 10.7273 1.45101 10.8402C1.56393 10.9531 1.71686 11.0169 1.87656 11.0178V11.0178Z" fill="var(--fill-0, #363738)"/>
<path id="Vector_22" d="M1.21249 13.174C1.33178 13.174 1.44839 13.1386 1.54757 13.0724C1.64675 13.0061 1.72406 12.9119 1.76971 12.8017C1.81536 12.6915 1.8273 12.5702 1.80403 12.4532C1.78076 12.3362 1.72331 12.2288 1.63896 12.1444C1.55462 12.0601 1.44715 12.0026 1.33016 11.9794C1.21316 11.9561 1.09189 11.968 0.981688 12.0137C0.871482 12.0593 0.777289 12.1366 0.711017 12.2358C0.644745 12.335 0.609375 12.4516 0.609375 12.5709C0.610205 12.7306 0.67401 12.8835 0.786938 12.9964C0.899866 13.1094 1.05279 13.1732 1.21249 13.174V13.174Z" fill="var(--fill-0, #363738)"/>
<path id="Vector_23" d="M5.66544 5.46549C5.78548 5.46611 5.903 5.43108 6.00312 5.36484C6.10324 5.2986 6.18143 5.20414 6.22781 5.09341C6.27418 4.98268 6.28664 4.86068 6.26361 4.74287C6.24057 4.62506 6.18308 4.51674 6.09842 4.43163C6.01375 4.34652 5.90572 4.28846 5.78803 4.26481C5.67034 4.24116 5.54828 4.25299 5.43731 4.29878C5.32634 4.34457 5.23147 4.42228 5.16471 4.52205C5.09795 4.62182 5.06231 4.73916 5.06231 4.8592C5.0619 4.93867 5.07719 5.01744 5.10732 5.09098C5.13744 5.16452 5.1818 5.23138 5.23784 5.28772C5.29389 5.34406 5.36052 5.38876 5.4339 5.41927C5.50728 5.44978 5.58597 5.46549 5.66544 5.46549V5.46549Z" fill="var(--fill-0, #363738)"/>
<path id="Vector_24" d="M4.12656 7.11737C4.24585 7.11737 4.36246 7.082 4.46164 7.01573C4.56083 6.94946 4.63813 6.85526 4.68378 6.74506C4.72942 6.63485 4.74137 6.51358 4.7181 6.39659C4.69483 6.27959 4.63738 6.17213 4.55304 6.08779C4.46869 6.00344 4.36122 5.94599 4.24422 5.92272C4.12723 5.89945 4.00596 5.9114 3.89576 5.95705C3.78555 6.0027 3.69136 6.08 3.62508 6.17918C3.55881 6.27836 3.52344 6.39497 3.52344 6.51425C3.52344 6.59345 3.53905 6.67188 3.56936 6.74506C3.59967 6.81823 3.64409 6.88472 3.70009 6.94073C3.7561 6.99673 3.82258 7.04116 3.89576 7.07147C3.96893 7.10178 4.04736 7.11737 4.12656 7.11737V7.11737Z" fill="var(--fill-0, #363738)"/>
<path id="Vector_25" d="M7.42344 4.05683C7.54272 4.05683 7.65933 4.02146 7.75851 3.95519C7.85769 3.88892 7.935 3.79472 7.98065 3.68451C8.0263 3.5743 8.03824 3.45304 8.01497 3.33604C7.99169 3.21905 7.93425 3.11159 7.8499 3.02724C7.76555 2.94289 7.65809 2.88545 7.5411 2.86217C7.4241 2.8389 7.30284 2.85085 7.19263 2.8965C7.08242 2.94215 6.98823 3.01945 6.92196 3.11863C6.85569 3.21781 6.82031 3.33442 6.82031 3.4537C6.82114 3.61341 6.88495 3.76634 6.99788 3.87926C7.1108 3.99219 7.26373 4.056 7.42344 4.05683V4.05683Z" fill="var(--fill-0, #363738)"/>
<path id="Vector_26" d="M9.39219 2.92841C9.51147 2.92841 9.62808 2.89304 9.72726 2.82677C9.82644 2.7605 9.90375 2.6663 9.9494 2.5561C9.99505 2.44589 10.007 2.32462 9.98372 2.20763C9.96044 2.09064 9.903 1.98316 9.81865 1.89882C9.7343 1.81447 9.62684 1.75703 9.50985 1.73376C9.39285 1.71049 9.27159 1.72243 9.16138 1.76808C9.05117 1.81373 8.95698 1.89103 8.89071 1.99021C8.82444 2.08939 8.78906 2.20601 8.78906 2.32529C8.78989 2.48499 8.8537 2.63791 8.96663 2.75084C9.07955 2.86377 9.23248 2.92759 9.39219 2.92841V2.92841Z" fill="var(--fill-0, #363738)"/>
<path id="Vector_27" d="M11.4859 2.1037C11.6052 2.1037 11.7218 2.06833 11.821 2.00206C11.9202 1.93579 11.9975 1.84159 12.0432 1.73139C12.0888 1.62118 12.1007 1.49991 12.0775 1.38292C12.0542 1.26592 11.9968 1.15846 11.9124 1.07411C11.8281 0.989762 11.7206 0.932322 11.6036 0.90905C11.4866 0.885779 11.3653 0.897722 11.2551 0.943371C11.1449 0.98902 11.0507 1.06633 10.9845 1.16551C10.9182 1.26469 10.8828 1.38129 10.8828 1.50058C10.8836 1.66028 10.9475 1.81321 11.0604 1.92614C11.1733 2.03907 11.3262 2.10287 11.4859 2.1037V2.1037Z" fill="var(--fill-0, #363738)"/>
<path id="Vector_28" d="M18.1891 1.60273C18.5222 1.60273 18.7922 1.3327 18.7922 0.999607C18.7922 0.666512 18.5222 0.396484 18.1891 0.396484C17.856 0.396484 17.5859 0.666512 17.5859 0.999607C17.5859 1.3327 17.856 1.60273 18.1891 1.60273Z" fill="var(--fill-0, #363738)"/>
<path id="Vector_29" d="M13.6891 1.60273C14.0222 1.60273 14.2922 1.3327 14.2922 0.999607C14.2922 0.666512 14.0222 0.396484 13.6891 0.396484C13.356 0.396484 13.0859 0.666512 13.0859 0.999607C13.0859 1.3327 13.356 1.60273 13.6891 1.60273Z" fill="var(--fill-0, #363738)"/>
<path id="Vector_30" d="M20.3922 2.1037C20.5115 2.1037 20.6281 2.06833 20.7273 2.00206C20.8265 1.93579 20.9038 1.84159 20.9494 1.73139C20.995 1.62118 21.007 1.49991 20.9837 1.38292C20.9605 1.26592 20.903 1.15846 20.8187 1.07411C20.7343 0.989762 20.6268 0.932322 20.5098 0.90905C20.3929 0.885779 20.2716 0.897722 20.1614 0.943371C20.0512 0.98902 19.957 1.06633 19.8907 1.16551C19.8244 1.26469 19.7891 1.38129 19.7891 1.50058C19.7899 1.66028 19.8537 1.81321 19.9666 1.92614C20.0796 2.03907 20.2325 2.10287 20.3922 2.1037V2.1037Z" fill="var(--fill-0, #363738)"/>
<path id="Vector_31" d="M22.4937 2.9284C22.8268 2.9284 23.0969 2.65838 23.0969 2.32528C23.0969 1.99219 22.8268 1.72217 22.4937 1.72217C22.1607 1.72217 21.8906 1.99219 21.8906 2.32528C21.8906 2.65838 22.1607 2.9284 22.4937 2.9284Z" fill="var(--fill-0, #363738)"/>
<path id="Vector_32" d="M24.4391 4.05683C24.5583 4.05683 24.675 4.02146 24.7741 3.95519C24.8733 3.88892 24.9506 3.79472 24.9963 3.68451C25.0419 3.5743 25.0539 3.45304 25.0306 3.33604C25.0073 3.21905 24.9499 3.11159 24.8655 3.02724C24.7812 2.94289 24.6737 2.88545 24.5567 2.86217C24.4397 2.8389 24.3185 2.85085 24.2083 2.8965C24.098 2.94215 24.0039 3.01945 23.9376 3.11863C23.8713 3.21781 23.8359 3.33442 23.8359 3.4537C23.8368 3.61341 23.9006 3.76634 24.0135 3.87926C24.1264 3.99219 24.2794 4.056 24.4391 4.05683V4.05683Z" fill="var(--fill-0, #363738)"/>
<path id="Vector_33" d="M26.2045 5.46549C26.3245 5.46611 26.4421 5.43108 26.5422 5.36484C26.6423 5.2986 26.7205 5.20414 26.7669 5.09341C26.8132 4.98268 26.8257 4.86068 26.8027 4.74287C26.7796 4.62506 26.7221 4.51674 26.6375 4.43163C26.5528 4.34652 26.4448 4.28846 26.3271 4.26481C26.2094 4.24116 26.0873 4.25299 25.9764 4.29878C25.8654 4.34457 25.7705 4.42228 25.7038 4.52205C25.637 4.62182 25.6014 4.73916 25.6014 4.8592C25.6014 5.01945 25.6648 5.17319 25.7778 5.2868C25.8908 5.4004 26.0442 5.46465 26.2045 5.46549Z" fill="var(--fill-0, #363738)"/>
<path id="Vector_34" d="M27.7359 7.11737C27.8552 7.11737 27.9718 7.082 28.071 7.01573C28.1702 6.94946 28.2475 6.85526 28.2932 6.74506C28.3388 6.63485 28.3507 6.51358 28.3275 6.39659C28.3042 6.27959 28.2468 6.17213 28.1624 6.08779C28.0781 6.00344 27.9706 5.94599 27.8536 5.92272C27.7366 5.89945 27.6153 5.9114 27.5051 5.95705C27.3949 6.0027 27.3007 6.08 27.2345 6.17918C27.1682 6.27836 27.1328 6.39497 27.1328 6.51425C27.1328 6.67421 27.1964 6.82762 27.3095 6.94073C27.4226 7.05383 27.576 7.11737 27.7359 7.11737Z" fill="var(--fill-0, #363738)"/>
<path id="Vector_35" d="M29.9937 11.0256C30.3268 11.0256 30.5969 10.7556 30.5969 10.4225C30.5969 10.0894 30.3268 9.81934 29.9937 9.81934C29.6607 9.81934 29.3906 10.0894 29.3906 10.4225C29.3906 10.7556 29.6607 11.0256 29.9937 11.0256Z" fill="var(--fill-0, #363738)"/>
<path id="Vector_36" d="M30.0547 12.5777C30.0547 12.697 30.0901 12.8136 30.1563 12.9128C30.2226 13.012 30.3168 13.0893 30.427 13.1349C30.5372 13.1806 30.6585 13.1925 30.7755 13.1693C30.8925 13.146 30.9999 13.0886 31.0843 13.0042C31.1686 12.9199 31.2261 12.8124 31.2493 12.6954C31.2726 12.5784 31.2607 12.4571 31.215 12.3469C31.1694 12.2367 31.0921 12.1425 30.9929 12.0763C30.8937 12.01 30.7771 11.9746 30.6578 11.9746C30.4979 11.9746 30.3444 12.0382 30.2313 12.1513C30.1182 12.2644 30.0547 12.4178 30.0547 12.5777V12.5777Z" fill="var(--fill-0, #363738)"/>
<path id="Vector_37" d="M30.3984 14.8023C30.3984 14.9216 30.4338 15.0382 30.5001 15.1374C30.5664 15.2366 30.6605 15.3139 30.7708 15.3596C30.881 15.4052 31.0022 15.4171 31.1192 15.3939C31.2362 15.3706 31.3437 15.3132 31.428 15.2288C31.5124 15.1445 31.5698 15.037 31.5931 14.92C31.6164 14.803 31.6044 14.6817 31.5588 14.5715C31.5131 14.4613 31.4358 14.3671 31.3366 14.3009C31.2375 14.2346 31.1208 14.1992 31.0016 14.1992C30.9224 14.1992 30.8439 14.2148 30.7708 14.2451C30.6976 14.2754 30.6311 14.3199 30.5751 14.3759C30.5191 14.4319 30.4747 14.4984 30.4443 14.5715C30.414 14.6447 30.3984 14.7231 30.3984 14.8023V14.8023Z" fill="var(--fill-0, #363738)"/>
<path id="Vector_38" d="M29.2907 18.1802C29.2913 18.0601 29.2562 17.9424 29.1898 17.8422C29.1234 17.742 29.0288 17.6638 28.9179 17.6175C28.807 17.5713 28.6848 17.559 28.5669 17.5823C28.449 17.6056 28.3407 17.6634 28.2557 17.7484C28.1707 17.8334 28.1129 17.9417 28.0896 18.0596C28.0663 18.1775 28.0786 18.2996 28.1249 18.4105C28.1712 18.5215 28.2494 18.6161 28.3495 18.6825C28.4497 18.7489 28.5674 18.784 28.6876 18.7834C28.7668 18.7834 28.8452 18.7678 28.9184 18.7374C28.9915 18.7071 29.058 18.6627 29.114 18.6067C29.17 18.5507 29.2145 18.4842 29.2448 18.411C29.2751 18.3379 29.2907 18.2594 29.2907 18.1802Z" fill="var(--fill-0, #363738)"/>
<path id="Vector_39" d="M28.7062 20.36C28.7062 20.2407 28.6709 20.1241 28.6046 20.0249C28.5383 19.9257 28.4441 19.8484 28.3339 19.8027C28.2237 19.7571 28.1025 19.7452 27.9855 19.7684C27.8685 19.7917 27.761 19.8491 27.6767 19.9335C27.5923 20.0178 27.5349 20.1253 27.5116 20.2423C27.4883 20.3593 27.5003 20.4806 27.5459 20.5908C27.5916 20.701 27.6689 20.7952 27.768 20.8614C27.8672 20.9277 27.9838 20.9631 28.1031 20.9631C28.1823 20.9631 28.2608 20.9475 28.3339 20.9172C28.4071 20.8869 28.4736 20.8424 28.5296 20.7864C28.5856 20.7304 28.63 20.6639 28.6603 20.5908C28.6906 20.5176 28.7062 20.4392 28.7062 20.36V20.36Z" fill="var(--fill-0, #363738)"/>
<path id="Vector_40" d="M26.4484 24.253C26.4484 24.1337 26.4131 24.0171 26.3468 23.918C26.2805 23.8188 26.1863 23.7415 26.0761 23.6958C25.9659 23.6502 25.8446 23.6382 25.7276 23.6615C25.6107 23.6848 25.5032 23.7422 25.4188 23.8265C25.3345 23.9109 25.277 24.0184 25.2538 24.1354C25.2305 24.2524 25.2424 24.3736 25.2881 24.4838C25.3337 24.594 25.4111 24.6882 25.5102 24.7545C25.6094 24.8208 25.726 24.8561 25.8453 24.8561C26.0053 24.8561 26.1587 24.7926 26.2718 24.6795C26.3849 24.5664 26.4484 24.413 26.4484 24.253V24.253Z" fill="var(--fill-0, #363738)"/>
<path id="Vector_41" d="M24.8547 25.8492C24.8547 25.7299 24.8193 25.6133 24.753 25.5141C24.6868 25.415 24.5926 25.3377 24.4824 25.292C24.3722 25.2464 24.2509 25.2344 24.1339 25.2577C24.0169 25.281 23.9094 25.3384 23.8251 25.4227C23.7407 25.5071 23.6833 25.6146 23.66 25.7315C23.6368 25.8485 23.6487 25.9698 23.6944 26.08C23.74 26.1902 23.8173 26.2844 23.9165 26.3507C24.0157 26.417 24.1323 26.4523 24.2516 26.4523C24.3308 26.4523 24.4092 26.4367 24.4824 26.4064C24.5555 26.3761 24.622 26.3317 24.678 26.2757C24.734 26.2197 24.7785 26.1532 24.8088 26.08C24.8391 26.0068 24.8547 25.9284 24.8547 25.8492V25.8492Z" fill="var(--fill-0, #363738)"/>
<path id="Vector_42" d="M20.3609 28.7003C20.481 28.701 20.5985 28.6659 20.6986 28.5997C20.7987 28.5335 20.8769 28.439 20.9233 28.3283C20.9697 28.2175 20.9821 28.0955 20.9591 27.9777C20.9361 27.8599 20.8786 27.7516 20.7939 27.6665C20.7093 27.5814 20.6012 27.5233 20.4835 27.4997C20.3658 27.476 20.2438 27.4878 20.1328 27.5336C20.0218 27.5794 19.927 27.6571 19.8602 27.7569C19.7935 27.8567 19.7578 27.974 19.7578 28.0941C19.7578 28.2543 19.8213 28.4081 19.9343 28.5217C20.0473 28.6353 20.2007 28.6995 20.3609 28.7003Z" fill="var(--fill-0, #363738)"/>
<path id="Vector_43" d="M18.2019 29.2817C18.3198 29.2762 18.4335 29.2361 18.5288 29.1666C18.6242 29.097 18.6971 29.001 18.7384 28.8904C18.7797 28.7798 18.7877 28.6596 18.7613 28.5445C18.7349 28.4294 18.6753 28.3247 18.59 28.2431C18.5046 28.1616 18.3972 28.1069 18.281 28.0858C18.1649 28.0648 18.0451 28.0783 17.9365 28.1246C17.828 28.171 17.7354 28.2482 17.6703 28.3467C17.6052 28.4452 17.5704 28.5606 17.5703 28.6786C17.5702 28.7603 17.5867 28.8411 17.6188 28.9162C17.6509 28.9913 17.6978 29.0591 17.7569 29.1155C17.8159 29.1719 17.8858 29.2157 17.9623 29.2443C18.0388 29.2728 18.1203 29.2856 18.2019 29.2817V29.2817Z" fill="var(--fill-0, #363738)"/>
<path id="Vector_44" d="M13.6891 28.0752C13.5698 28.0752 13.4532 28.1106 13.354 28.1768C13.2548 28.2431 13.1775 28.3373 13.1318 28.4475C13.0862 28.5577 13.0743 28.679 13.0975 28.796C13.1208 28.913 13.1782 29.0204 13.2626 29.1048C13.3469 29.1891 13.4544 29.2466 13.5714 29.2698C13.6884 29.2931 13.8097 29.2812 13.9199 29.2355C14.0301 29.1899 14.1243 29.1126 14.1905 29.0134C14.2568 28.9142 14.2922 28.7976 14.2922 28.6783C14.2914 28.5186 14.2275 28.3657 14.1146 28.2528C14.0017 28.1398 13.8488 28.076 13.6891 28.0752Z" fill="var(--fill-0, #363738)"/>
<path id="Vector_45" d="M11.5079 27.4912C11.3877 27.4906 11.27 27.5257 11.1699 27.5921C11.0697 27.6585 10.9915 27.7531 10.9452 27.864C10.8989 27.9749 10.8866 28.0971 10.9099 28.215C10.9332 28.3329 10.991 28.4412 11.076 28.5262C11.161 28.6112 11.2693 28.669 11.3872 28.6923C11.5051 28.7156 11.6273 28.7033 11.7382 28.657C11.8491 28.6107 11.9438 28.5325 12.0101 28.4324C12.0765 28.3322 12.1116 28.2145 12.111 28.0943C12.1102 27.9346 12.0464 27.7817 11.9334 27.6688C11.8205 27.5559 11.6676 27.492 11.5079 27.4912V27.4912Z" fill="var(--fill-0, #363738)"/>
<path id="Vector_46" d="M7.61875 25.2461C7.49946 25.2461 7.38286 25.2815 7.28367 25.3477C7.18449 25.414 7.10718 25.5082 7.06153 25.6184C7.01588 25.7286 7.00394 25.8499 7.02722 25.9669C7.05049 26.0839 7.10792 26.1913 7.19227 26.2757C7.27662 26.36 7.38409 26.4175 7.50108 26.4408C7.61808 26.464 7.73934 26.4521 7.84955 26.4064C7.95976 26.3608 8.05395 26.2835 8.12022 26.1843C8.18649 26.0851 8.22187 25.9685 8.22187 25.8492C8.22104 25.6895 8.15722 25.5366 8.0443 25.4237C7.93137 25.3107 7.77845 25.2469 7.61875 25.2461Z" fill="var(--fill-0, #363738)"/>
<path id="Vector_47" d="M6.01719 23.6499C5.8979 23.6499 5.78129 23.6853 5.68211 23.7515C5.58293 23.8178 5.50562 23.912 5.45998 24.0222C5.41433 24.1324 5.40238 24.2537 5.42565 24.3707C5.44892 24.4877 5.50637 24.5952 5.59072 24.6795C5.67506 24.7638 5.78253 24.8213 5.89953 24.8446C6.01652 24.8678 6.13779 24.8559 6.248 24.8102C6.3582 24.7646 6.4524 24.6873 6.51867 24.5881C6.58494 24.4889 6.6203 24.3723 6.6203 24.253C6.61947 24.0933 6.55567 23.9404 6.44274 23.8275C6.32981 23.7145 6.17689 23.6507 6.01719 23.6499V23.6499Z" fill="var(--fill-0, #363738)"/>
<path id="Vector_48" d="M3.77815 20.9631C3.8973 20.9624 4.0136 20.9265 4.11237 20.8599C4.21114 20.7932 4.28795 20.6988 4.33311 20.5886C4.37828 20.4783 4.38977 20.3571 4.36615 20.2404C4.34252 20.1236 4.28482 20.0164 4.20035 19.9324C4.11588 19.8483 4.00842 19.7912 3.89151 19.7682C3.7746 19.7452 3.65349 19.7573 3.54347 19.803C3.43344 19.8488 3.33944 19.9261 3.2733 20.0252C3.20717 20.1243 3.17188 20.2408 3.17188 20.3599C3.17271 20.5202 3.23696 20.6736 3.35057 20.7866C3.46417 20.8996 3.6179 20.9631 3.77815 20.9631V20.9631Z" fill="var(--fill-0, #363738)"/>
<path id="Vector_49" d="M3.18906 18.7834C3.30835 18.7834 3.42496 18.748 3.52414 18.6817C3.62332 18.6155 3.70062 18.5213 3.74627 18.4111C3.79192 18.3009 3.80387 18.1796 3.7806 18.0626C3.75732 17.9456 3.69988 17.8381 3.61553 17.7538C3.53118 17.6694 3.42372 17.612 3.30672 17.5887C3.18973 17.5655 3.06846 17.5774 2.95826 17.6231C2.84805 17.6687 2.75385 17.746 2.68758 17.8452C2.62131 17.9444 2.58594 18.061 2.58594 18.1803C2.58677 18.34 2.65058 18.4929 2.76351 18.6058C2.87643 18.7187 3.02936 18.7826 3.18906 18.7834V18.7834Z" fill="var(--fill-0, #363738)"/>
<path id="Vector_50" d="M2.58594 13.6832C2.58594 13.8025 2.62131 13.9191 2.68758 14.0183C2.75385 14.1175 2.84805 14.1948 2.95826 14.2404C3.06846 14.2861 3.18973 14.298 3.30672 14.2747C3.42372 14.2515 3.53118 14.194 3.61553 14.1097C3.69988 14.0253 3.75732 13.9179 3.7806 13.8009C3.80387 13.6839 3.79192 13.5626 3.74627 13.4524C3.70062 13.3422 3.62332 13.248 3.52414 13.1817C3.42496 13.1155 3.30835 13.0801 3.18906 13.0801C3.10986 13.0801 3.03143 13.0957 2.95826 13.126C2.88508 13.1563 2.81859 13.2007 2.76259 13.2567C2.70658 13.3127 2.66216 13.3792 2.63185 13.4524C2.60154 13.5256 2.58594 13.604 2.58594 13.6832V13.6832Z" fill="var(--fill-0, #363738)"/>
<path id="Vector_51" d="M3.17169 11.5025C3.17106 11.6226 3.20609 11.7401 3.27233 11.8402C3.33857 11.9403 3.43303 12.0185 3.54376 12.0649C3.65449 12.1113 3.77649 12.1237 3.8943 12.1007C4.01211 12.0776 4.12044 12.0202 4.20554 11.9355C4.29065 11.8508 4.34871 11.7428 4.37236 11.6251C4.39601 11.5074 4.38419 11.3854 4.33839 11.2744C4.2926 11.1634 4.21489 11.0685 4.11512 11.0018C4.01535 10.935 3.89801 10.8994 3.77797 10.8994C3.61772 10.8994 3.46399 10.9628 3.35038 11.0758C3.23677 11.1889 3.17252 11.3423 3.17169 11.5025Z" fill="var(--fill-0, #363738)"/>
<path id="Vector_52" d="M5.41406 7.6041C5.41406 7.72339 5.44944 7.83999 5.51571 7.93917C5.58198 8.03836 5.67617 8.11567 5.78638 8.16131C5.89659 8.20696 6.01785 8.2189 6.13485 8.19563C6.25184 8.17236 6.3593 8.11492 6.44365 8.03058C6.528 7.94623 6.58545 7.83876 6.60872 7.72176C6.63199 7.60477 6.62004 7.4835 6.57439 7.37329C6.52874 7.26309 6.45144 7.16889 6.35226 7.10262C6.25308 7.03635 6.13647 7.00098 6.01719 7.00098C5.85748 7.00181 5.70455 7.06562 5.59163 7.17855C5.4787 7.29148 5.41489 7.4444 5.41406 7.6041V7.6041Z" fill="var(--fill-0, #363738)"/>
<path id="Vector_53" d="M7.01562 6.02402C7.01562 6.14331 7.051 6.25991 7.11727 6.35909C7.18354 6.45828 7.27774 6.53559 7.38794 6.58124C7.49815 6.62689 7.61942 6.63882 7.73641 6.61555C7.8534 6.59228 7.96088 6.53485 8.04522 6.4505C8.12957 6.36615 8.18701 6.25868 8.21028 6.14168C8.23355 6.02469 8.22161 5.90342 8.17596 5.79322C8.13031 5.68301 8.053 5.58882 7.95382 5.52254C7.85464 5.45627 7.73803 5.4209 7.61875 5.4209C7.45905 5.42173 7.30613 5.48554 7.1932 5.59847C7.08027 5.7114 7.01645 5.86432 7.01562 6.02402V6.02402Z" fill="var(--fill-0, #363738)"/>
<path id="Vector_54" d="M11.5079 3.16261C11.3877 3.16198 11.27 3.19708 11.1699 3.26346C11.0697 3.32984 10.9915 3.42449 10.9452 3.53541C10.8989 3.64632 10.8866 3.76849 10.9099 3.88639C10.9332 4.00429 10.991 4.1126 11.076 4.19758C11.161 4.28256 11.2693 4.34036 11.3872 4.36366C11.5051 4.38695 11.6273 4.37468 11.7382 4.3284C11.8491 4.28212 11.9438 4.20392 12.0101 4.10374C12.0765 4.00356 12.1116 3.88591 12.111 3.76573C12.1102 3.60603 12.0464 3.4531 11.9334 3.34017C11.8205 3.22724 11.6676 3.16344 11.5079 3.16261V3.16261Z" fill="var(--fill-0, #363738)"/>
<path id="Vector_55" d="M13.6954 2.57813C13.5752 2.57751 13.4575 2.61261 13.3574 2.67899C13.2572 2.74537 13.179 2.84003 13.1327 2.95094C13.0864 3.06185 13.0741 3.18402 13.0974 3.30192C13.1207 3.41982 13.1785 3.52813 13.2635 3.61311C13.3485 3.69809 13.4568 3.75589 13.5747 3.77918C13.6926 3.80248 13.8148 3.79021 13.9257 3.74393C14.0366 3.69766 14.1312 3.61945 14.1976 3.51927C14.264 3.41908 14.2991 3.30143 14.2985 3.18126C14.2977 3.02155 14.2338 2.86863 14.1209 2.75571C14.008 2.64278 13.8551 2.57896 13.6954 2.57813Z" fill="var(--fill-0, #363738)"/>
<path id="Vector_56" d="M18.202 3.78811C18.3208 3.78316 18.4354 3.74344 18.5317 3.67388C18.628 3.60432 18.7018 3.50799 18.7438 3.39687C18.7859 3.28574 18.7943 3.16472 18.7682 3.04882C18.742 2.93293 18.6824 2.82727 18.5967 2.74499C18.5109 2.66271 18.4029 2.60743 18.2861 2.58601C18.1692 2.56459 18.0486 2.57798 17.9393 2.62452C17.83 2.67105 17.7368 2.74868 17.6712 2.84777C17.6056 2.94685 17.5706 3.06301 17.5705 3.18183C17.5704 3.26362 17.5869 3.34458 17.619 3.41983C17.651 3.49508 17.6979 3.56307 17.7569 3.61971C17.8159 3.67635 17.8858 3.72047 17.9623 3.74941C18.0388 3.77835 18.1203 3.79152 18.202 3.78811Z" fill="var(--fill-0, #363738)"/>
<path id="Vector_57" d="M20.3609 4.37177C20.694 4.37177 20.9641 4.10174 20.9641 3.76865C20.9641 3.43556 20.694 3.16553 20.3609 3.16553C20.0278 3.16553 19.7578 3.43556 19.7578 3.76865C19.7578 4.10174 20.0278 4.37177 20.3609 4.37177Z" fill="var(--fill-0, #363738)"/>
<path id="Vector_58" d="M24.2516 6.61835C24.3708 6.61835 24.4875 6.58298 24.5866 6.51671C24.6858 6.45044 24.7631 6.35624 24.8088 6.24604C24.8544 6.13583 24.8664 6.01456 24.8431 5.89757C24.8198 5.78057 24.7624 5.6731 24.678 5.58875C24.5937 5.50441 24.4862 5.44697 24.3692 5.4237C24.2522 5.40043 24.131 5.41237 24.0208 5.45802C23.9105 5.50366 23.8163 5.58097 23.7501 5.68016C23.6838 5.77934 23.6484 5.89594 23.6484 6.01523C23.6484 6.17519 23.712 6.3286 23.8251 6.44171C23.9382 6.55481 24.0916 6.61835 24.2516 6.61835Z" fill="var(--fill-0, #363738)"/>
<path id="Vector_59" d="M25.8453 8.21405C25.9646 8.21405 26.0812 8.17868 26.1804 8.11241C26.2796 8.04614 26.3569 7.95194 26.4025 7.84174C26.4482 7.73153 26.4601 7.61026 26.4368 7.49327C26.4136 7.37627 26.3561 7.26881 26.2718 7.18447C26.1874 7.10012 26.08 7.04267 25.963 7.0194C25.846 6.99613 25.7247 7.00808 25.6145 7.05373C25.5043 7.09937 25.4101 7.17668 25.3438 7.27586C25.2776 7.37504 25.2422 7.49164 25.2422 7.61093C25.2422 7.77089 25.3057 7.9243 25.4188 8.03741C25.5319 8.15051 25.6854 8.21405 25.8453 8.21405V8.21405Z" fill="var(--fill-0, #363738)"/>
<path id="Vector_60" d="M28.1031 10.8994C27.9838 10.8994 27.8672 10.9348 27.768 11.0011C27.6689 11.0673 27.5916 11.1615 27.5459 11.2717C27.5003 11.3819 27.4883 11.5032 27.5116 11.6202C27.5349 11.7372 27.5923 11.8447 27.6767 11.929C27.761 12.0134 27.8685 12.0708 27.9855 12.0941C28.1025 12.1173 28.2237 12.1054 28.3339 12.0598C28.4441 12.0141 28.5383 11.9368 28.6046 11.8376C28.6709 11.7384 28.7062 11.6218 28.7062 11.5025C28.7062 11.4233 28.6906 11.3449 28.6603 11.2717C28.63 11.1986 28.5856 11.1321 28.5296 11.0761C28.4736 11.0201 28.4071 10.9756 28.3339 10.9453C28.2608 10.915 28.1823 10.8994 28.1031 10.8994Z" fill="var(--fill-0, #363738)"/>
<path id="Vector_61" d="M28.0781 13.6827C28.0775 13.8028 28.1125 13.9203 28.1788 14.0204C28.245 14.1205 28.3395 14.1987 28.4502 14.2451C28.5609 14.2915 28.6829 14.3039 28.8007 14.2809C28.9186 14.2578 29.0269 14.2004 29.112 14.1157C29.1971 14.031 29.2552 13.923 29.2788 13.8053C29.3025 13.6876 29.2906 13.5656 29.2448 13.4546C29.199 13.3436 29.1213 13.2488 29.0216 13.182C28.9218 13.1152 28.8045 13.0796 28.6844 13.0796C28.5242 13.0796 28.3704 13.143 28.2568 13.2561C28.1432 13.3691 28.079 13.5225 28.0781 13.6827Z" fill="var(--fill-0, #363738)"/>
<path id="Vector_62" d="M26.6656 16.4512C26.5463 16.4512 26.4297 16.4865 26.3305 16.5528C26.2314 16.6191 26.1541 16.7133 26.1084 16.8235C26.0628 16.9337 26.0508 17.055 26.0741 17.172C26.0974 17.289 26.1548 17.3964 26.2392 17.4808C26.3235 17.5651 26.431 17.6226 26.548 17.6458C26.665 17.6691 26.7862 17.6572 26.8964 17.6115C27.0066 17.5659 27.1008 17.4886 27.1671 17.3894C27.2334 17.2902 27.2688 17.1736 27.2688 17.0543C27.2679 16.8946 27.2041 16.7417 27.0912 16.6287C26.9783 16.5158 26.8253 16.452 26.6656 16.4512Z" fill="var(--fill-0, #363738)"/>
<path id="Vector_63" d="M26.8 19.263C26.7994 19.1439 26.7635 19.0276 26.6968 18.9288C26.6302 18.8301 26.5357 18.7533 26.4255 18.7081C26.3152 18.6629 26.1941 18.6514 26.0773 18.6751C25.9605 18.6987 25.8533 18.7564 25.7693 18.8408C25.6853 18.9253 25.6281 19.0328 25.6051 19.1497C25.5821 19.2666 25.5942 19.3877 25.64 19.4977C25.6857 19.6078 25.763 19.7018 25.8621 19.7679C25.9612 19.834 26.0777 19.8693 26.1969 19.8693C26.3571 19.8685 26.5105 19.8042 26.6235 19.6906C26.7365 19.577 26.8 19.4233 26.8 19.263V19.263Z" fill="var(--fill-0, #363738)"/>
<path id="Vector_64" d="M24.5578 23.149C24.5578 23.0297 24.5224 22.9131 24.4562 22.8139C24.3899 22.7148 24.2957 22.6375 24.1855 22.5918C24.0753 22.5462 23.954 22.5342 23.837 22.5575C23.72 22.5808 23.6126 22.6382 23.5282 22.7226C23.4439 22.8069 23.3864 22.9144 23.3632 23.0314C23.3399 23.1484 23.3518 23.2696 23.3975 23.3798C23.4431 23.49 23.5204 23.5842 23.6196 23.6505C23.7188 23.7168 23.8354 23.7521 23.9547 23.7521C24.1144 23.7513 24.2673 23.6875 24.3802 23.5746C24.4932 23.4616 24.557 23.3087 24.5578 23.149V23.149Z" fill="var(--fill-0, #363738)"/>
<path id="Vector_65" d="M22.2797 25.2628C22.4003 25.2641 22.5185 25.2293 22.6192 25.163C22.72 25.0968 22.7986 25.0019 22.8452 24.8907C22.8918 24.7795 22.9041 24.6569 22.8807 24.5386C22.8572 24.4204 22.799 24.3118 22.7135 24.2267C22.6281 24.1417 22.5191 24.0841 22.4007 24.0613C22.2824 24.0384 22.1598 24.0514 22.0489 24.0986C21.9379 24.1457 21.8435 24.2249 21.7777 24.326C21.712 24.4271 21.6779 24.5454 21.6798 24.666C21.6822 24.8241 21.7463 24.9749 21.8584 25.0864C21.9705 25.1979 22.1217 25.2612 22.2797 25.2628V25.2628Z" fill="var(--fill-0, #363738)"/>
<path id="Vector_66" d="M20.3219 26.3913C20.4421 26.3919 20.5597 26.3568 20.6599 26.2904C20.7601 26.224 20.8383 26.1294 20.8846 26.0185C20.9308 25.9075 20.9431 25.7854 20.9198 25.6675C20.8965 25.5496 20.8387 25.4413 20.7537 25.3563C20.6688 25.2713 20.5604 25.2135 20.4425 25.1902C20.3246 25.1669 20.2025 25.1792 20.0916 25.2255C19.9807 25.2717 19.886 25.3499 19.8196 25.4501C19.7532 25.5503 19.7181 25.668 19.7188 25.7881C19.7188 25.9481 19.7823 26.1015 19.8954 26.2146C20.0085 26.3277 20.1619 26.3913 20.3219 26.3913V26.3913Z" fill="var(--fill-0, #363738)"/>
<path id="Vector_67" d="M18.1734 27.0852C18.2927 27.0852 18.4093 27.0498 18.5085 26.9835C18.6077 26.9172 18.685 26.823 18.7307 26.7128C18.7763 26.6026 18.7882 26.4814 18.765 26.3644C18.7417 26.2474 18.6843 26.1399 18.5999 26.0556C18.5156 25.9712 18.4081 25.9138 18.2911 25.8905C18.1741 25.8672 18.0528 25.8792 17.9426 25.9248C17.8324 25.9705 17.7382 26.0478 17.672 26.147C17.6057 26.2461 17.5703 26.3627 17.5703 26.482C17.5711 26.6417 17.635 26.7946 17.7479 26.9076C17.8608 27.0205 18.0137 27.0843 18.1734 27.0852V27.0852Z" fill="var(--fill-0, #363738)"/>
<path id="Vector_68" d="M13.6969 25.8789C13.5776 25.8789 13.461 25.9143 13.3618 25.9806C13.2626 26.0468 13.1853 26.141 13.1397 26.2512C13.094 26.3614 13.0821 26.4827 13.1053 26.5997C13.1286 26.7167 13.1861 26.8242 13.2704 26.9085C13.3548 26.9929 13.4622 27.0503 13.5792 27.0736C13.6962 27.0968 13.8175 27.0849 13.9277 27.0392C14.0379 26.9936 14.1321 26.9163 14.1983 26.8171C14.2646 26.7179 14.3 26.6013 14.3 26.482C14.3 26.3221 14.2365 26.1687 14.1233 26.0556C14.0102 25.9424 13.8568 25.8789 13.6969 25.8789V25.8789Z" fill="var(--fill-0, #363738)"/>
<path id="Vector_69" d="M11.5548 25.1812C11.4347 25.1805 11.3172 25.2156 11.2171 25.2818C11.117 25.348 11.0387 25.4425 10.9924 25.5532C10.946 25.664 10.9335 25.786 10.9566 25.9038C10.9796 26.0216 11.0371 26.1299 11.1218 26.215C11.2064 26.3001 11.3145 26.3582 11.4321 26.3818C11.5498 26.4055 11.6719 26.3937 11.7829 26.3479C11.8938 26.3021 11.9887 26.2244 12.0555 26.1246C12.1222 26.0248 12.1579 25.9075 12.1579 25.7874C12.1579 25.6272 12.0944 25.4735 11.9814 25.3599C11.8684 25.2462 11.715 25.182 11.5548 25.1812V25.1812Z" fill="var(--fill-0, #363738)"/>
<path id="Vector_70" d="M9.60162 24.0537C9.48158 24.0531 9.36406 24.0881 9.26394 24.1544C9.16382 24.2206 9.08563 24.3151 9.03925 24.4258C8.99288 24.5365 8.98042 24.6585 9.00345 24.7763C9.02649 24.8941 9.08398 25.0025 9.16864 25.0876C9.25331 25.1727 9.36133 25.2307 9.47903 25.2544C9.59672 25.278 9.71878 25.2662 9.82975 25.2204C9.94072 25.1746 10.0356 25.0969 10.1023 24.9972C10.1691 24.8974 10.2047 24.78 10.2047 24.66C10.2052 24.5805 10.1899 24.5018 10.1597 24.4282C10.1296 24.3547 10.0853 24.2878 10.0292 24.2315C9.97317 24.1751 9.90654 24.1304 9.83316 24.0999C9.75978 24.0694 9.68109 24.0537 9.60162 24.0537V24.0537Z" fill="var(--fill-0, #363738)"/>
<path id="Vector_71" d="M7.92343 22.5455C7.80414 22.5455 7.68754 22.5809 7.58836 22.6472C7.48918 22.7135 7.41187 22.8076 7.36623 22.9179C7.32058 23.0281 7.30863 23.1493 7.3319 23.2663C7.35517 23.3833 7.41262 23.4908 7.49697 23.5751C7.58131 23.6595 7.68877 23.7169 7.80577 23.7402C7.92276 23.7635 8.04403 23.7515 8.15424 23.7059C8.26444 23.6602 8.35864 23.5829 8.42491 23.4837C8.49118 23.3845 8.52655 23.2679 8.52655 23.1487C8.52572 22.989 8.46192 22.836 8.34899 22.7231C8.23606 22.6102 8.08313 22.5464 7.92343 22.5455Z" fill="var(--fill-0, #363738)"/>
<path id="Vector_72" d="M6.28287 19.2625C6.28287 19.1426 6.24731 19.0254 6.18069 18.9257C6.11407 18.826 6.01939 18.7483 5.90861 18.7024C5.79782 18.6565 5.67591 18.6445 5.55831 18.6679C5.4407 18.6913 5.33267 18.749 5.24788 18.8338C5.1631 18.9186 5.10536 19.0266 5.08196 19.1442C5.05857 19.2619 5.07057 19.3838 5.11646 19.4945C5.16235 19.6053 5.24006 19.7 5.33976 19.7666C5.43946 19.8332 5.55668 19.8688 5.67659 19.8688C5.83738 19.8688 5.9916 19.8049 6.1053 19.6912C6.219 19.5775 6.28287 19.4233 6.28287 19.2625V19.2625Z" fill="var(--fill-0, #363738)"/>
<path id="Vector_73" d="M5.20468 16.4512C5.0854 16.4512 4.96878 16.4865 4.8696 16.5528C4.77042 16.6191 4.69312 16.7133 4.64747 16.8235C4.60182 16.9337 4.58988 17.055 4.61315 17.172C4.63642 17.289 4.69386 17.3964 4.77821 17.4808C4.86256 17.5651 4.97003 17.6226 5.08702 17.6458C5.20402 17.6691 5.32528 17.6572 5.43549 17.6115C5.54569 17.5659 5.63989 17.4886 5.70616 17.3894C5.77243 17.2902 5.80781 17.1736 5.80781 17.0543C5.80698 16.8946 5.74316 16.7417 5.63023 16.6287C5.51731 16.5158 5.36439 16.452 5.20468 16.4512Z" fill="var(--fill-0, #363738)"/>
<path id="Vector_74" d="M5.20318 14.1992C5.08301 14.1986 4.96536 14.2337 4.86517 14.3001C4.76499 14.3665 4.68679 14.4611 4.64051 14.572C4.59423 14.6829 4.58195 14.8051 4.60525 14.923C4.62854 15.0409 4.68635 15.1492 4.77133 15.2342C4.85631 15.3192 4.96463 15.377 5.08253 15.4003C5.20043 15.4236 5.32259 15.4113 5.4335 15.365C5.54441 15.3187 5.63906 15.2405 5.70544 15.1404C5.77182 15.0402 5.80693 14.9225 5.80631 14.8023C5.80548 14.6426 5.74166 14.4897 5.62873 14.3768C5.51581 14.2639 5.36289 14.2001 5.20318 14.1992V14.1992Z" fill="var(--fill-0, #363738)"/>
<path id="Vector_75" d="M5.07032 12.5973C5.0697 12.7174 5.1048 12.8351 5.17118 12.9353C5.23755 13.0355 5.33221 13.1137 5.44312 13.1599C5.55403 13.2062 5.67619 13.2185 5.79409 13.1952C5.91199 13.1719 6.02032 13.1141 6.1053 13.0291C6.19028 12.9441 6.24808 12.8358 6.27137 12.7179C6.29466 12.6 6.28239 12.4779 6.23611 12.3669C6.18983 12.256 6.11164 12.1614 6.01146 12.095C5.91127 12.0286 5.79361 11.9935 5.67343 11.9941C5.59423 11.9941 5.51581 12.0097 5.44264 12.0401C5.36946 12.0704 5.30297 12.1148 5.24697 12.1708C5.19096 12.2268 5.14654 12.2933 5.11623 12.3665C5.08592 12.4396 5.07032 12.5181 5.07032 12.5973V12.5973Z" fill="var(--fill-0, #363738)"/>
<path id="Vector_76" d="M7.32031 8.71465C7.32031 8.83393 7.35569 8.95054 7.42196 9.04972C7.48823 9.1489 7.58242 9.2262 7.69263 9.27185C7.80284 9.3175 7.9241 9.32945 8.0411 9.30618C8.15809 9.28291 8.26556 9.22546 8.34991 9.14111C8.43426 9.05676 8.4917 8.9493 8.51498 8.83231C8.53825 8.71531 8.5263 8.59405 8.48065 8.48384C8.435 8.37363 8.3577 8.27944 8.25852 8.21317C8.15933 8.1469 8.04272 8.11152 7.92344 8.11152C7.76373 8.11235 7.61081 8.17616 7.49789 8.28909C7.38496 8.40201 7.32114 8.55494 7.32031 8.71465V8.71465Z" fill="var(--fill-0, #363738)"/>
<path id="Vector_77" d="M9.59531 6.6001C9.47602 6.6001 9.35942 6.63547 9.26023 6.70174C9.16105 6.76802 9.08375 6.86221 9.0381 6.97242C8.99245 7.08262 8.9805 7.20389 9.00378 7.32088C9.02705 7.43788 9.08449 7.54534 9.16884 7.62969C9.25319 7.71404 9.36065 7.77148 9.47764 7.79475C9.59464 7.81802 9.71591 7.80608 9.82611 7.76043C9.93632 7.71478 10.0305 7.63748 10.0968 7.53829C10.1631 7.43911 10.1984 7.32251 10.1984 7.20322C10.1984 7.12402 10.1828 7.04559 10.1525 6.97242C10.1222 6.89924 10.0778 6.83275 10.0218 6.77675C9.96578 6.72074 9.89929 6.67632 9.82611 6.64601C9.75294 6.6157 9.67451 6.6001 9.59531 6.6001V6.6001Z" fill="var(--fill-0, #363738)"/>
<path id="Vector_78" d="M11.5641 5.47217C11.4448 5.47217 11.3282 5.50754 11.229 5.57381C11.1298 5.64009 11.0525 5.73428 11.0068 5.84449C10.9612 5.95469 10.9493 6.07596 10.9725 6.19295C10.9958 6.30995 11.0532 6.41741 11.1376 6.50176C11.2219 6.58611 11.3294 6.64355 11.4464 6.66682C11.5634 6.69009 11.6847 6.67815 11.7949 6.63251C11.9051 6.58686 11.9993 6.50955 12.0655 6.41036C12.1318 6.31118 12.1672 6.19458 12.1672 6.07529C12.1664 5.91559 12.1025 5.76266 11.9896 5.64973C11.8767 5.5368 11.7238 5.473 11.5641 5.47217V5.47217Z" fill="var(--fill-0, #363738)"/>
<path id="Vector_79" d="M13.6969 4.77638C13.5776 4.77638 13.461 4.81175 13.3618 4.87802C13.2626 4.94429 13.1853 5.03849 13.1397 5.14869C13.094 5.2589 13.0821 5.38017 13.1053 5.49716C13.1286 5.61416 13.1861 5.72163 13.2704 5.80597C13.3548 5.89032 13.4622 5.94777 13.5792 5.97104C13.6962 5.99431 13.8175 5.98236 13.9277 5.93671C14.0379 5.89106 14.1321 5.81376 14.1983 5.71458C14.2646 5.6154 14.3 5.49878 14.3 5.3795C14.3004 5.30018 14.2851 5.22157 14.2549 5.1482C14.2248 5.07484 14.1804 5.00819 14.1243 4.9521C14.0682 4.89601 14.0015 4.8516 13.9282 4.82144C13.8548 4.79127 13.7762 4.77596 13.6969 4.77638V4.77638Z" fill="var(--fill-0, #363738)"/>
<path id="Vector_80" d="M18.1801 5.98363C18.2996 5.98235 18.4161 5.94557 18.5147 5.87797C18.6133 5.81037 18.6896 5.71499 18.7338 5.60395C18.7781 5.4929 18.7884 5.3712 18.7634 5.2543C18.7384 5.1374 18.6792 5.03058 18.5933 4.94739C18.5075 4.8642 18.3988 4.8084 18.2812 4.78708C18.1635 4.76577 18.0422 4.77989 17.9326 4.82765C17.8231 4.87542 17.7301 4.95468 17.6657 5.05537C17.6012 5.15605 17.5681 5.27361 17.5706 5.39314C17.5748 5.55173 17.6409 5.70239 17.7548 5.81278C17.8688 5.92317 18.0214 5.98451 18.1801 5.98363V5.98363Z" fill="var(--fill-0, #363738)"/>
<path id="Vector_81" d="M20.3219 6.67841C20.4412 6.67841 20.5578 6.64304 20.657 6.57676C20.7561 6.51049 20.8334 6.4163 20.8791 6.30609C20.9247 6.19589 20.9367 6.07462 20.9134 5.95763C20.8901 5.84063 20.8327 5.73316 20.7484 5.64881C20.664 5.56447 20.5565 5.50703 20.4395 5.48376C20.3225 5.46049 20.2013 5.47243 20.0911 5.51807C19.9809 5.56372 19.8867 5.64102 19.8204 5.74021C19.7541 5.83939 19.7188 5.956 19.7188 6.07529C19.7183 6.15461 19.7337 6.23322 19.7638 6.30658C19.794 6.37995 19.8384 6.4466 19.8945 6.50269C19.9506 6.55878 20.0172 6.60319 20.0906 6.63335C20.1639 6.66351 20.2426 6.67883 20.3219 6.67841Z" fill="var(--fill-0, #363738)"/>
<path id="Vector_82" d="M22.2828 7.80635C22.4021 7.80635 22.5187 7.77097 22.6179 7.7047C22.7171 7.63843 22.7944 7.54424 22.84 7.43403C22.8857 7.32382 22.8976 7.20256 22.8743 7.08556C22.8511 6.96857 22.7936 6.8611 22.7093 6.77675C22.6249 6.6924 22.5175 6.63496 22.4005 6.61169C22.2835 6.58841 22.1622 6.60036 22.052 6.64601C21.9418 6.69166 21.8476 6.76896 21.7813 6.86814C21.7151 6.96733 21.6797 7.08394 21.6797 7.20323C21.6797 7.36318 21.7432 7.51658 21.8563 7.62969C21.9695 7.7428 22.1229 7.80635 22.2828 7.80635V7.80635Z" fill="var(--fill-0, #363738)"/>
<path id="Vector_83" d="M23.9547 9.31758C24.074 9.31758 24.1906 9.2822 24.2898 9.21593C24.389 9.14966 24.4663 9.05547 24.5119 8.94526C24.5575 8.83506 24.5695 8.71379 24.5462 8.59679C24.523 8.4798 24.4655 8.37233 24.3812 8.28798C24.2968 8.20363 24.1893 8.14619 24.0723 8.12292C23.9554 8.09964 23.8341 8.11159 23.7239 8.15724C23.6137 8.20289 23.5195 8.28019 23.4532 8.37937C23.3869 8.47856 23.3516 8.59517 23.3516 8.71446C23.3524 8.87416 23.4162 9.02708 23.5291 9.14001C23.6421 9.25293 23.795 9.31675 23.9547 9.31758V9.31758Z" fill="var(--fill-0, #363738)"/>
<path id="Vector_84" d="M25.5938 12.5973C25.5938 12.7165 25.6291 12.8332 25.6954 12.9323C25.7617 13.0315 25.8559 13.1088 25.9661 13.1545C26.0763 13.2001 26.1975 13.2121 26.3145 13.1888C26.4315 13.1655 26.539 13.1081 26.6234 13.0237C26.7077 12.9394 26.7651 12.8319 26.7884 12.7149C26.8117 12.5979 26.7997 12.4767 26.7541 12.3665C26.7084 12.2563 26.6311 12.1621 26.532 12.0958C26.4328 12.0295 26.3162 11.9941 26.1969 11.9941C26.1176 11.9937 26.0389 12.009 25.9656 12.0392C25.8922 12.0694 25.8256 12.1138 25.7695 12.1699C25.7134 12.226 25.669 12.2926 25.6388 12.366C25.6087 12.4393 25.5933 12.5179 25.5938 12.5973V12.5973Z" fill="var(--fill-0, #363738)"/>
<path id="Vector_85" d="M26.6641 14.1992C26.5439 14.1986 26.4263 14.2337 26.3261 14.3001C26.2259 14.3665 26.1477 14.4611 26.1014 14.572C26.0552 14.6829 26.0429 14.8051 26.0662 14.923C26.0895 15.0409 26.1473 15.1492 26.2323 15.2342C26.3172 15.3192 26.4256 15.377 26.5435 15.4003C26.6614 15.4236 26.7835 15.4113 26.8944 15.365C27.0053 15.3187 27.1 15.2405 27.1664 15.1404C27.2328 15.0402 27.2679 14.9225 27.2672 14.8023C27.2664 14.6426 27.2026 14.4897 27.0897 14.3768C26.9767 14.2639 26.8238 14.2001 26.6641 14.1992V14.1992Z" fill="var(--fill-0, #363738)"/>
<path id="Vector_86" d="M23.6641 13.6959C23.6641 13.8152 23.6994 13.9318 23.7657 14.031C23.832 14.1302 23.9262 14.2075 24.0364 14.2531C24.1466 14.2988 24.2679 14.3107 24.3848 14.2874C24.5018 14.2642 24.6093 14.2067 24.6937 14.1224C24.778 14.038 24.8354 13.9306 24.8587 13.8136C24.882 13.6966 24.87 13.5753 24.8244 13.4651C24.7788 13.3549 24.7014 13.2607 24.6023 13.1944C24.5031 13.1281 24.3865 13.0928 24.2672 13.0928C24.1075 13.0936 23.9546 13.1574 23.8416 13.2703C23.7287 13.3833 23.6649 13.5362 23.6641 13.6959V13.6959Z" fill="var(--fill-0, #363738)"/>
<path id="Vector_87" d="M24.8703 18.1627C24.8703 18.0434 24.8349 17.9268 24.7687 17.8276C24.7024 17.7284 24.6082 17.6511 24.498 17.6055C24.3878 17.5598 24.2665 17.5479 24.1495 17.5712C24.0325 17.5944 23.9251 17.6519 23.8407 17.7362C23.7564 17.8206 23.6989 17.928 23.6757 18.045C23.6524 18.162 23.6643 18.2833 23.71 18.3935C23.7556 18.5037 23.8329 18.5979 23.9321 18.6642C24.0313 18.7304 24.1479 18.7658 24.2672 18.7658C24.4269 18.765 24.5798 18.7012 24.6927 18.5882C24.8057 18.4753 24.8695 18.3224 24.8703 18.1627V18.1627Z" fill="var(--fill-0, #363738)"/>
<path id="Vector_88" d="M22.6437 22.0357C22.6437 21.9165 22.6084 21.7998 22.5421 21.7007C22.4758 21.6015 22.3816 21.5242 22.2714 21.4785C22.1612 21.4329 22.04 21.4209 21.923 21.4442C21.806 21.4675 21.6985 21.5249 21.6142 21.6093C21.5298 21.6936 21.4724 21.8011 21.4491 21.9181C21.4258 22.0351 21.4378 22.1563 21.4834 22.2666C21.5291 22.3768 21.6064 22.471 21.7055 22.5372C21.8047 22.6035 21.9213 22.6389 22.0406 22.6389C22.2006 22.6389 22.354 22.5753 22.4671 22.4622C22.5802 22.3491 22.6437 22.1957 22.6437 22.0357V22.0357Z" fill="var(--fill-0, #363738)"/>
<path id="Vector_89" d="M18.1688 24.8713C18.2879 24.8706 18.4042 24.8347 18.503 24.7681C18.6018 24.7014 18.6786 24.607 18.7237 24.4968C18.7689 24.3865 18.7804 24.2654 18.7568 24.1486C18.7331 24.0318 18.6755 23.9246 18.591 23.8406C18.5065 23.7565 18.399 23.6994 18.2821 23.6764C18.1652 23.6534 18.0441 23.6655 17.9341 23.7113C17.8241 23.757 17.7301 23.8343 17.6639 23.9334C17.5978 24.0325 17.5625 24.149 17.5625 24.2681C17.5633 24.4284 17.6276 24.5818 17.7412 24.6948C17.8548 24.8078 18.0085 24.8713 18.1688 24.8713V24.8713Z" fill="var(--fill-0, #363738)"/>
<path id="Vector_90" d="M13.7047 23.665C13.5854 23.665 13.4688 23.7004 13.3696 23.7667C13.2704 23.833 13.1931 23.9272 13.1475 24.0374C13.1018 24.1476 13.0899 24.2688 13.1132 24.3858C13.1364 24.5028 13.1939 24.6103 13.2782 24.6946C13.3626 24.779 13.47 24.8364 13.587 24.8597C13.704 24.883 13.8253 24.871 13.9355 24.8254C14.0457 24.7797 14.1399 24.7024 14.2062 24.6033C14.2724 24.5041 14.3078 24.3875 14.3078 24.2682C14.3082 24.1889 14.2929 24.1102 14.2628 24.0369C14.2326 23.9635 14.1882 23.8969 14.1321 23.8408C14.076 23.7847 14.0093 23.7403 13.936 23.7101C13.8626 23.6799 13.784 23.6646 13.7047 23.665Z" fill="var(--fill-0, #363738)"/>
<path id="Vector_91" d="M9.83749 21.4326C9.71821 21.4326 9.6016 21.468 9.50242 21.5343C9.40324 21.6005 9.32594 21.6947 9.28029 21.8049C9.23464 21.9151 9.22269 22.0364 9.24596 22.1534C9.26923 22.2704 9.32668 22.3779 9.41103 22.4622C9.49538 22.5466 9.60284 22.604 9.71983 22.6273C9.83683 22.6505 9.95809 22.6386 10.0683 22.5929C10.1785 22.5473 10.2727 22.47 10.339 22.3708C10.4052 22.2716 10.4406 22.155 10.4406 22.0357C10.4406 21.9565 10.425 21.8781 10.3947 21.8049C10.3644 21.7318 10.32 21.6653 10.264 21.6093C10.208 21.5533 10.1415 21.5088 10.0683 21.4785C9.99512 21.4482 9.9167 21.4326 9.83749 21.4326V21.4326Z" fill="var(--fill-0, #363738)"/>
<path id="Vector_92" d="M8.20624 18.1627C8.20624 18.0434 8.17088 17.9268 8.10461 17.8276C8.03833 17.7284 7.94414 17.6511 7.83393 17.6055C7.72373 17.5598 7.60246 17.5479 7.48547 17.5712C7.36847 17.5944 7.261 17.6519 7.17665 17.7362C7.0923 17.8206 7.03486 17.928 7.01159 18.045C6.98832 18.162 7.00026 18.2833 7.04591 18.3935C7.09156 18.5037 7.16886 18.5979 7.26805 18.6642C7.36723 18.7304 7.48384 18.7658 7.60313 18.7658C7.68233 18.7658 7.76076 18.7502 7.83393 18.7199C7.90711 18.6896 7.97359 18.6452 8.02959 18.5892C8.0856 18.5332 8.13002 18.4667 8.16033 18.3935C8.19064 18.3203 8.20624 18.2419 8.20624 18.1627V18.1627Z" fill="var(--fill-0, #363738)"/>
<path id="Vector_93" d="M7.0002 13.6955C7.0002 13.8148 7.03557 13.9314 7.10184 14.0306C7.16811 14.1298 7.26231 14.2071 7.37251 14.2527C7.48272 14.2984 7.60399 14.3103 7.72098 14.2871C7.83798 14.2638 7.94544 14.2064 8.02978 14.122C8.11413 14.0377 8.17158 13.9302 8.19485 13.8132C8.21812 13.6962 8.20617 13.5749 8.16052 13.4647C8.11488 13.3545 8.03757 13.2603 7.93839 13.1941C7.83921 13.1278 7.72261 13.0924 7.60332 13.0924C7.44362 13.0932 7.29069 13.1571 7.17776 13.27C7.06483 13.3829 7.00103 13.5358 7.0002 13.6955V13.6955Z" fill="var(--fill-0, #363738)"/>
<path id="Vector_94" d="M9.23438 9.81601C9.23438 9.9353 9.26975 10.0519 9.33602 10.1511C9.40229 10.2503 9.49649 10.3276 9.60669 10.3732C9.7169 10.4189 9.83817 10.4308 9.95516 10.4075C10.0722 10.3843 10.1796 10.3268 10.264 10.2425C10.3483 10.1581 10.4058 10.0507 10.429 9.93368C10.4523 9.81668 10.4404 9.69541 10.3947 9.58521C10.3491 9.475 10.2718 9.38081 10.1726 9.31454C10.0734 9.24827 9.95678 9.21289 9.8375 9.21289C9.6778 9.21372 9.52488 9.27754 9.41195 9.39046C9.29902 9.50339 9.2352 9.65631 9.23438 9.81601V9.81601Z" fill="var(--fill-0, #363738)"/>
<path id="Vector_95" d="M13.7047 6.99219C13.5854 6.99219 13.4688 7.02756 13.3696 7.09383C13.2704 7.16011 13.1931 7.2543 13.1475 7.36451C13.1018 7.47471 13.0899 7.59598 13.1132 7.71297C13.1364 7.82997 13.1939 7.93744 13.2782 8.02179C13.3626 8.10613 13.47 8.16357 13.587 8.18684C13.704 8.21011 13.8253 8.19817 13.9355 8.15253C14.0457 8.10688 14.1399 8.02957 14.2062 7.93038C14.2724 7.8312 14.3078 7.7146 14.3078 7.59531C14.3078 7.51611 14.2922 7.43768 14.2619 7.36451C14.2316 7.29133 14.1872 7.22484 14.1312 7.16884C14.0752 7.11283 14.0087 7.06841 13.9355 7.0381C13.8623 7.00779 13.7839 6.99219 13.7047 6.99219V6.99219Z" fill="var(--fill-0, #363738)"/>
<path id="Vector_96" d="M18.1737 8.19817C18.2934 8.19815 18.4104 8.16253 18.5097 8.09583C18.6091 8.02913 18.6864 7.93436 18.7318 7.8236C18.7771 7.71284 18.7885 7.5911 18.7644 7.47385C18.7404 7.35661 18.682 7.24916 18.5967 7.1652C18.5114 7.08125 18.4031 7.02457 18.2855 7.00238C18.1678 6.98019 18.0463 6.99349 17.9363 7.04059C17.8262 7.0877 17.7327 7.16648 17.6676 7.2669C17.6025 7.36732 17.5687 7.48484 17.5706 7.60452C17.5739 7.76257 17.6388 7.91308 17.7514 8.02398C17.8641 8.13487 18.0156 8.19738 18.1737 8.19817Z" fill="var(--fill-0, #363738)"/>
<path id="Vector_97" d="M22.0406 10.4479C22.1599 10.4479 22.2765 10.4126 22.3757 10.3463C22.4749 10.28 22.5522 10.1858 22.5978 10.0756C22.6435 9.96542 22.6554 9.84415 22.6322 9.72716C22.6089 9.61016 22.5514 9.5027 22.4671 9.41835C22.3828 9.33401 22.2753 9.27656 22.1583 9.25329C22.0413 9.23002 21.92 9.24196 21.8098 9.28761C21.6996 9.33325 21.6054 9.41056 21.5391 9.50975C21.4729 9.60893 21.4375 9.72553 21.4375 9.84482C21.4383 10.0045 21.5021 10.1575 21.6151 10.2704C21.728 10.3833 21.8809 10.4471 22.0406 10.4479V10.4479Z" fill="var(--fill-0, #363738)"/>
<path id="Vector_98" d="M23.4141 11.0098C23.2941 11.0091 23.1766 11.0442 23.0764 11.1104C22.9763 11.1766 22.8981 11.2711 22.8518 11.3818C22.8054 11.4926 22.7929 11.6146 22.816 11.7324C22.839 11.8502 22.8965 11.9585 22.9811 12.0436C23.0658 12.1287 23.1738 12.1868 23.2915 12.2104C23.4092 12.2341 23.5313 12.2223 23.6422 12.1765C23.7532 12.1307 23.8481 12.053 23.9148 11.9532C23.9816 11.8534 24.0172 11.7361 24.0172 11.6161C24.0172 11.4558 23.9538 11.3021 23.8408 11.1885C23.7278 11.0749 23.5744 11.0106 23.4141 11.0098Z" fill="var(--fill-0, #363738)"/>
<path id="Vector_99" d="M25.2796 9.93262C25.1605 9.93324 25.0442 9.96915 24.9454 10.0358C24.8467 10.1024 24.7699 10.1969 24.7247 10.3071C24.6795 10.4174 24.668 10.5385 24.6917 10.6553C24.7153 10.7721 24.773 10.8793 24.8575 10.9633C24.9419 11.0473 25.0494 11.1045 25.1663 11.1275C25.2832 11.1505 25.4043 11.1384 25.5143 11.0926C25.6244 11.0469 25.7184 10.9696 25.7845 10.8705C25.8506 10.7714 25.8859 10.6549 25.8859 10.5357C25.8851 10.3755 25.8209 10.2221 25.7072 10.1091C25.5936 9.99605 25.4399 9.93262 25.2796 9.93262V9.93262Z" fill="var(--fill-0, #363738)"/>
<path id="Vector_100" d="M27.1498 8.86913C27.0305 8.86913 26.9139 8.9045 26.8147 8.97077C26.7155 9.03704 26.6382 9.13124 26.5926 9.24144C26.5469 9.35165 26.535 9.47292 26.5583 9.58991C26.5815 9.7069 26.639 9.81437 26.7233 9.89871C26.8077 9.98306 26.9151 10.0405 27.0321 10.0638C27.1491 10.087 27.2704 10.0751 27.3806 10.0295C27.4908 9.98381 27.585 9.9065 27.6513 9.80732C27.7176 9.70814 27.7529 9.59153 27.7529 9.47225C27.7533 9.39293 27.738 9.31431 27.7079 9.24095C27.6777 9.16759 27.6333 9.10093 27.5772 9.04484C27.5211 8.98875 27.4545 8.94435 27.3811 8.91419C27.3077 8.88402 27.2291 8.86871 27.1498 8.86913V8.86913Z" fill="var(--fill-0, #363738)"/>
<path id="Vector_101" d="M29.0172 8.98452C29.1372 8.98515 29.2548 8.95013 29.3549 8.88389C29.455 8.81765 29.5332 8.72318 29.5796 8.61246C29.6259 8.50173 29.6384 8.37973 29.6154 8.26192C29.5923 8.1441 29.5348 8.03577 29.4502 7.95067C29.3655 7.86556 29.2575 7.80751 29.1398 7.78386C29.0221 7.76021 28.9 7.77202 28.7891 7.81782C28.6781 7.86361 28.5832 7.94132 28.5165 8.04109C28.4497 8.14085 28.4141 8.2582 28.4141 8.37825C28.4137 8.45772 28.429 8.53648 28.4591 8.61002C28.4892 8.68356 28.5336 8.75042 28.5896 8.80676C28.6456 8.8631 28.7123 8.90781 28.7857 8.93832C28.859 8.96882 28.9377 8.98452 29.0172 8.98452V8.98452Z" fill="var(--fill-0, #363738)"/>
<path id="Vector_102" d="M15.9312 25.1652C16.2643 25.1652 16.5344 24.8952 16.5344 24.5621C16.5344 24.229 16.2643 23.959 15.9312 23.959C15.5982 23.959 15.3281 24.229 15.3281 24.5621C15.3281 24.8952 15.5982 25.1652 15.9312 25.1652Z" fill="var(--fill-0, #363738)"/>
<path id="Vector_103" d="M15.9312 27.3229C16.2643 27.3229 16.5344 27.0529 16.5344 26.7198C16.5344 26.3867 16.2643 26.1167 15.9312 26.1167C15.5982 26.1167 15.3281 26.3867 15.3281 26.7198C15.3281 27.0529 15.5982 27.3229 15.9312 27.3229Z" fill="var(--fill-0, #363738)"/>
<path id="Vector_104" d="M15.9312 29.4811C16.2643 29.4811 16.5344 29.2111 16.5344 28.878C16.5344 28.5449 16.2643 28.2749 15.9312 28.2749C15.5982 28.2749 15.3281 28.5449 15.3281 28.878C15.3281 29.2111 15.5982 29.4811 15.9312 29.4811Z" fill="var(--fill-0, #363738)"/>
<path id="Vector_105" d="M15.9312 31.6389C16.2643 31.6389 16.5344 31.3688 16.5344 31.0357C16.5344 30.7026 16.2643 30.4326 15.9312 30.4326C15.5982 30.4326 15.3281 30.7026 15.3281 31.0357C15.3281 31.3688 15.5982 31.6389 15.9312 31.6389Z" fill="var(--fill-0, #363738)"/>
<path id="Vector_106" d="M6.70312 15.9293C6.70312 16.0486 6.7385 16.1652 6.80477 16.2644C6.87104 16.3636 6.96524 16.4409 7.07544 16.4865C7.18565 16.5322 7.30692 16.5441 7.42391 16.5208C7.5409 16.4976 7.64838 16.4401 7.73272 16.3558C7.81707 16.2714 7.87452 16.164 7.89779 16.047C7.92106 15.93 7.90911 15.8087 7.86346 15.6985C7.81781 15.5883 7.74051 15.4941 7.64133 15.4278C7.54215 15.3615 7.42553 15.3262 7.30625 15.3262C7.14655 15.327 6.99363 15.3908 6.8807 15.5037C6.76777 15.6167 6.70395 15.7696 6.70312 15.9293Z" fill="var(--fill-0, #363738)"/>
<path id="Vector_107" d="M2.39845 15.9293C2.39782 16.0495 2.43293 16.1671 2.49931 16.2673C2.56568 16.3675 2.66034 16.4457 2.77125 16.492C2.88216 16.5383 3.00432 16.5505 3.12222 16.5272C3.24012 16.5039 3.34844 16.4461 3.43342 16.3612C3.5184 16.2762 3.5762 16.1679 3.5995 16.05C3.62279 15.9321 3.61052 15.8099 3.56424 15.699C3.51796 15.5881 3.43976 15.4934 3.33958 15.427C3.2394 15.3607 3.12175 15.3256 3.00157 15.3262C2.84187 15.327 2.68894 15.3908 2.57601 15.5037C2.46309 15.6167 2.39928 15.7696 2.39845 15.9293Z" fill="var(--fill-0, #363738)"/>
<path id="Vector_108" d="M15.9391 6.69873C15.8198 6.69873 15.7032 6.7341 15.604 6.80038C15.5048 6.86665 15.4275 6.96084 15.3818 7.07105C15.3362 7.18125 15.3243 7.30252 15.3475 7.41952C15.3708 7.53651 15.4282 7.64397 15.5126 7.72832C15.5969 7.81267 15.7044 7.87011 15.8214 7.89338C15.9384 7.91666 16.0597 7.90471 16.1699 7.85906C16.2801 7.81341 16.3743 7.73611 16.4405 7.63693C16.5068 7.53774 16.5422 7.42114 16.5422 7.30185C16.5414 7.14215 16.4775 6.98922 16.3646 6.87629C16.2517 6.76337 16.0988 6.69956 15.9391 6.69873V6.69873Z" fill="var(--fill-0, #363738)"/>
<path id="Vector_109" d="M15.9391 4.53906C15.8198 4.53906 15.7032 4.57444 15.604 4.64071C15.5048 4.70698 15.4275 4.80117 15.3818 4.91138C15.3362 5.02159 15.3243 5.14285 15.3475 5.25985C15.3708 5.37684 15.4282 5.48431 15.5126 5.56866C15.5969 5.65301 15.7044 5.71045 15.8214 5.73373C15.9384 5.757 16.0597 5.74505 16.1699 5.6994C16.2801 5.65375 16.3743 5.57645 16.4405 5.47727C16.5068 5.37809 16.5422 5.26147 16.5422 5.14219C16.5414 4.98248 16.4775 4.82956 16.3646 4.71664C16.2517 4.60371 16.0988 4.53989 15.9391 4.53906V4.53906Z" fill="var(--fill-0, #363738)"/>
<path id="Vector_110" d="M15.9391 2.38184C15.8198 2.38184 15.7032 2.41721 15.604 2.48348C15.5048 2.54975 15.4275 2.64395 15.3818 2.75415C15.3362 2.86436 15.3243 2.98563 15.3475 3.10262C15.3708 3.21962 15.4282 3.32708 15.5126 3.41142C15.5969 3.49577 15.7044 3.55322 15.8214 3.57649C15.9384 3.59976 16.0597 3.58782 16.1699 3.54217C16.2801 3.49652 16.3743 3.41921 16.4405 3.32003C16.5068 3.22085 16.5422 3.10425 16.5422 2.98496C16.5414 2.82526 16.4775 2.67233 16.3646 2.5594C16.2517 2.44647 16.0988 2.38267 15.9391 2.38184V2.38184Z" fill="var(--fill-0, #363738)"/>
<path id="Vector_111" d="M15.9375 0.224618C15.8174 0.223993 15.6997 0.259101 15.5995 0.325479C15.4994 0.391857 15.4212 0.486511 15.3749 0.597422C15.3286 0.708334 15.3163 0.830495 15.3396 0.948396C15.3629 1.0663 15.4207 1.17461 15.5057 1.25959C15.5907 1.34457 15.699 1.40238 15.8169 1.42568C15.9348 1.44897 16.057 1.43669 16.1679 1.39042C16.2788 1.34414 16.3734 1.26594 16.4398 1.16575C16.5062 1.06557 16.5413 0.947919 16.5407 0.827741C16.5398 0.668039 16.476 0.515114 16.3631 0.402186C16.2502 0.289258 16.0973 0.225447 15.9375 0.224618Z" fill="var(--fill-0, #363738)"/>
<path id="Vector_112" d="M23.9609 15.9293C23.9609 16.0486 23.9963 16.1652 24.0626 16.2644C24.1289 16.3636 24.223 16.4409 24.3333 16.4865C24.4435 16.5322 24.5647 16.5441 24.6817 16.5208C24.7987 16.4976 24.9062 16.4401 24.9905 16.3558C25.0749 16.2714 25.1323 16.164 25.1556 16.047C25.1789 15.93 25.1669 15.8087 25.1213 15.6985C25.0756 15.5883 24.9983 15.4941 24.8991 15.4278C24.8 15.3615 24.6833 15.3262 24.5641 15.3262C24.4044 15.327 24.2514 15.3908 24.1385 15.5037C24.0256 15.6167 23.9618 15.7696 23.9609 15.9293Z" fill="var(--fill-0, #363738)"/>
<path id="Vector_113" d="M29.4875 15.93C29.4869 15.8109 29.451 15.6946 29.3843 15.5958C29.3177 15.4971 29.2232 15.4203 29.113 15.3751C29.0027 15.3299 28.8816 15.3184 28.7648 15.3421C28.648 15.3657 28.5408 15.4234 28.4568 15.5079C28.3728 15.5923 28.3156 15.6998 28.2926 15.8167C28.2696 15.9336 28.2817 16.0547 28.3275 16.1647C28.3732 16.2748 28.4505 16.3688 28.5496 16.4349C28.6487 16.501 28.7652 16.5363 28.8844 16.5363C29.0446 16.5355 29.198 16.4713 29.311 16.3576C29.424 16.244 29.4875 16.0903 29.4875 15.93V15.93Z" fill="var(--fill-0, #363738)"/>
<path id="Vector_114" d="M22.3141 17.6574C22.4333 17.6574 22.55 17.622 22.6491 17.5558C22.7483 17.4895 22.8256 17.3953 22.8713 17.2851C22.9169 17.1749 22.9289 17.0536 22.9056 16.9366C22.8823 16.8196 22.8249 16.7122 22.7405 16.6278C22.6562 16.5435 22.5487 16.486 22.4317 16.4628C22.3147 16.4395 22.1935 16.4514 22.0833 16.4971C21.973 16.5427 21.8789 16.62 21.8126 16.7192C21.7463 16.8184 21.7109 16.935 21.7109 17.0543C21.7118 17.214 21.7756 17.3669 21.8885 17.4798C22.0014 17.5928 22.1544 17.6566 22.3141 17.6574V17.6574Z" fill="var(--fill-0, #363738)"/>
<path id="Vector_115" d="M20.0953 21.5056C20.2146 21.5056 20.3312 21.4702 20.4304 21.4039C20.5296 21.3376 20.6069 21.2434 20.6525 21.1332C20.6982 21.023 20.7101 20.9018 20.6868 20.7848C20.6636 20.6678 20.6061 20.5603 20.5218 20.476C20.4374 20.3916 20.33 20.3342 20.213 20.3109C20.096 20.2876 19.9747 20.2996 19.8645 20.3452C19.7543 20.3909 19.6601 20.4682 19.5938 20.5674C19.5276 20.6665 19.4922 20.7832 19.4922 20.9024C19.493 21.0621 19.5568 21.2151 19.6698 21.328C19.7827 21.4409 19.9356 21.5047 20.0953 21.5056V21.5056Z" fill="var(--fill-0, #363738)"/>
<path id="Vector_116" d="M18.15 22.6186C18.27 22.6192 18.3876 22.5842 18.4877 22.518C18.5878 22.4517 18.666 22.3573 18.7124 22.2465C18.7588 22.1358 18.7712 22.0138 18.7482 21.896C18.7251 21.7782 18.6676 21.6699 18.583 21.5848C18.4983 21.4996 18.3903 21.4416 18.2726 21.4179C18.1549 21.3943 18.0329 21.4061 17.9219 21.4519C17.8109 21.4977 17.716 21.5754 17.6493 21.6752C17.5825 21.7749 17.5469 21.8923 17.5469 22.0123C17.5465 22.0918 17.5618 22.1706 17.5919 22.2441C17.622 22.3176 17.6664 22.3845 17.7224 22.4408C17.7785 22.4972 17.8451 22.5419 17.9185 22.5724C17.9918 22.6029 18.0705 22.6186 18.15 22.6186Z" fill="var(--fill-0, #363738)"/>
<path id="Vector_117" d="M13.7266 21.4087C13.6064 21.4081 13.4888 21.4432 13.3886 21.5096C13.2884 21.5759 13.2102 21.6706 13.1639 21.7815C13.1177 21.8924 13.1054 22.0146 13.1287 22.1325C13.152 22.2504 13.2098 22.3587 13.2948 22.4437C13.3797 22.5287 13.4881 22.5865 13.606 22.6098C13.7239 22.633 13.846 22.6208 13.9569 22.5745C14.0678 22.5282 14.1625 22.45 14.2289 22.3498C14.2953 22.2496 14.3304 22.132 14.3297 22.0118C14.3289 21.8521 14.2651 21.6992 14.1522 21.5863C14.0392 21.4733 13.8863 21.4095 13.7266 21.4087V21.4087Z" fill="var(--fill-0, #363738)"/>
<path id="Vector_118" d="M11.775 20.2871C11.6557 20.2871 11.5391 20.3225 11.4399 20.3888C11.3407 20.455 11.2634 20.5492 11.2178 20.6594C11.1721 20.7696 11.1602 20.8909 11.1835 21.0079C11.2067 21.1249 11.2642 21.2324 11.3485 21.3167C11.4329 21.4011 11.5403 21.4585 11.6573 21.4818C11.7743 21.505 11.8956 21.4931 12.0058 21.4474C12.116 21.4018 12.2102 21.3245 12.2765 21.2253C12.3428 21.1261 12.3781 21.0095 12.3781 20.8902C12.3785 20.8109 12.3632 20.7323 12.3331 20.6589C12.3029 20.5856 12.2585 20.5189 12.2024 20.4628C12.1463 20.4067 12.0797 20.3623 12.0063 20.3322C11.9329 20.302 11.8543 20.2867 11.775 20.2871V20.2871Z" fill="var(--fill-0, #363738)"/>
<path id="Vector_119" d="M9.56406 17.6574C9.68335 17.6574 9.79995 17.622 9.89913 17.5558C9.99832 17.4895 10.0756 17.3953 10.1213 17.2851C10.1669 17.1749 10.1789 17.0536 10.1556 16.9366C10.1323 16.8196 10.0749 16.7122 9.99053 16.6278C9.90618 16.5435 9.79872 16.486 9.68172 16.4628C9.56473 16.4395 9.44346 16.4514 9.33326 16.4971C9.22305 16.5427 9.12886 16.62 9.06258 16.7192C8.99631 16.8184 8.96094 16.935 8.96094 17.0543C8.96094 17.2143 9.02448 17.3677 9.13759 17.4808C9.25069 17.5939 9.4041 17.6574 9.56406 17.6574V17.6574Z" fill="var(--fill-0, #363738)"/>
<path id="Vector_120" d="M9.56406 14.2051C9.44477 14.2051 9.32816 14.2404 9.22898 14.3067C9.12979 14.373 9.05249 14.4672 9.00684 14.5774C8.96119 14.6876 8.94926 14.8089 8.97253 14.9259C8.9958 15.0428 9.05323 15.1503 9.13758 15.2347C9.22193 15.319 9.3294 15.3765 9.4464 15.3997C9.56339 15.423 9.68466 15.4111 9.79486 15.3654C9.90507 15.3198 9.99926 15.2425 10.0655 15.1433C10.1318 15.0441 10.1672 14.9275 10.1672 14.8082C10.1672 14.6482 10.1036 14.4948 9.99052 14.3817C9.87742 14.2686 9.72402 14.2051 9.56406 14.2051Z" fill="var(--fill-0, #363738)"/>
<path id="Vector_121" d="M12.3781 10.9727C12.3781 10.8535 12.3428 10.7369 12.2765 10.6377C12.2102 10.5385 12.116 10.4612 12.0058 10.4155C11.8956 10.3699 11.7743 10.3579 11.6573 10.3812C11.5403 10.4045 11.4329 10.4619 11.3485 10.5463C11.2642 10.6306 11.2067 10.7381 11.1835 10.8551C11.1602 10.9721 11.1721 11.0933 11.2178 11.2036C11.2634 11.3138 11.3407 11.408 11.4399 11.4742C11.5391 11.5405 11.6557 11.5759 11.775 11.5759C11.9347 11.575 12.0876 11.5112 12.2006 11.3983C12.3135 11.2854 12.3773 11.1325 12.3781 10.9727V10.9727Z" fill="var(--fill-0, #363738)"/>
<path id="Vector_122" d="M13.7266 9.24513C13.6064 9.2445 13.4888 9.2796 13.3886 9.34598C13.2884 9.41236 13.2102 9.50701 13.1639 9.61792C13.1177 9.72884 13.1054 9.85101 13.1287 9.96891C13.152 10.0868 13.2098 10.1951 13.2948 10.2801C13.3797 10.3651 13.4881 10.4229 13.606 10.4462C13.7239 10.4695 13.846 10.4572 13.9569 10.4109C14.0678 10.3646 14.1625 10.2864 14.2289 10.1863C14.2953 10.0861 14.3304 9.96843 14.3297 9.84825C14.3289 9.68855 14.2651 9.53562 14.1522 9.42269C14.0392 9.30976 13.8863 9.24596 13.7266 9.24513V9.24513Z" fill="var(--fill-0, #363738)"/>
<path id="Vector_123" d="M18.15 10.4491C18.27 10.4497 18.3876 10.4147 18.4877 10.3484C18.5878 10.2822 18.666 10.1877 18.7124 10.077C18.7588 9.96626 18.7712 9.84426 18.7482 9.72644C18.7251 9.60863 18.6676 9.5003 18.583 9.41519C18.4983 9.33009 18.3903 9.27203 18.2726 9.24838C18.1549 9.22473 18.0329 9.23655 17.9219 9.28234C17.8109 9.32814 17.716 9.40584 17.6493 9.50561C17.5825 9.60538 17.5469 9.72272 17.5469 9.84277C17.5465 9.92223 17.5618 10.001 17.5919 10.0745C17.622 10.1481 17.6664 10.2149 17.7224 10.2713C17.7785 10.3276 17.8451 10.3723 17.9185 10.4028C17.9918 10.4333 18.0705 10.4491 18.15 10.4491Z" fill="var(--fill-0, #363738)"/>
<path id="Vector_124" d="M20.0953 11.5759C20.2146 11.5759 20.3312 11.5405 20.4304 11.4742C20.5296 11.408 20.6069 11.3138 20.6525 11.2036C20.6982 11.0933 20.7101 10.9721 20.6868 10.8551C20.6636 10.7381 20.6061 10.6306 20.5218 10.5463C20.4374 10.4619 20.33 10.4045 20.213 10.3812C20.096 10.3579 19.9747 10.3699 19.8645 10.4155C19.7543 10.4612 19.6601 10.5385 19.5938 10.6377C19.5276 10.7369 19.4922 10.8535 19.4922 10.9727C19.493 11.1325 19.5568 11.2854 19.6698 11.3983C19.7827 11.5112 19.9356 11.575 20.0953 11.5759V11.5759Z" fill="var(--fill-0, #363738)"/>
<path id="Vector_125" d="M22.3141 14.2051C22.1948 14.2051 22.0782 14.2404 21.979 14.3067C21.8798 14.373 21.8025 14.4672 21.7568 14.5774C21.7112 14.6876 21.6993 14.8089 21.7225 14.9259C21.7458 15.0428 21.8032 15.1503 21.8876 15.2347C21.9719 15.319 22.0794 15.3765 22.1964 15.3997C22.3134 15.423 22.4347 15.4111 22.5449 15.3654C22.6551 15.3198 22.7493 15.2425 22.8155 15.1433C22.8818 15.0441 22.9172 14.9275 22.9172 14.8082C22.9172 14.729 22.9016 14.6506 22.8713 14.5774C22.841 14.5042 22.7965 14.4377 22.7405 14.3817C22.6845 14.3257 22.618 14.2813 22.5449 14.251C22.4717 14.2207 22.3933 14.2051 22.3141 14.2051Z" fill="var(--fill-0, #363738)"/>
<path id="Vector_126" d="M18.0953 20.2717C18.2146 20.2717 18.3312 20.2363 18.4304 20.17C18.5296 20.1038 18.6069 20.0096 18.6525 19.8994C18.6982 19.7891 18.7101 19.6679 18.6868 19.5509C18.6636 19.4339 18.6061 19.3264 18.5218 19.2421C18.4374 19.1577 18.33 19.1003 18.213 19.077C18.096 19.0537 17.9747 19.0657 17.8645 19.1113C17.7543 19.157 17.6601 19.2343 17.5938 19.3335C17.5276 19.4327 17.4922 19.5493 17.4922 19.6685C17.493 19.8283 17.5568 19.9812 17.6698 20.0941C17.7827 20.207 17.9356 20.2708 18.0953 20.2717V20.2717Z" fill="var(--fill-0, #363738)"/>
<path id="Vector_127" d="M20.2516 24.008C20.3708 24.008 20.4875 23.9726 20.5866 23.9064C20.6858 23.8401 20.7631 23.7459 20.8088 23.6357C20.8544 23.5255 20.8664 23.4042 20.8431 23.2872C20.8198 23.1702 20.7624 23.0628 20.678 22.9784C20.5937 22.8941 20.4862 22.8366 20.3692 22.8133C20.2522 22.7901 20.131 22.802 20.0208 22.8477C19.9105 22.8933 19.8164 22.9706 19.7501 23.0698C19.6838 23.169 19.6484 23.2856 19.6484 23.4049C19.6484 23.5648 19.712 23.7182 19.8251 23.8314C19.9382 23.9445 20.0916 24.008 20.2516 24.008Z" fill="var(--fill-0, #363738)"/>
<path id="Vector_128" d="M22.4078 27.7467C22.528 27.7474 22.6456 27.7122 22.7458 27.6459C22.846 27.5795 22.9242 27.4848 22.9705 27.3739C23.0168 27.263 23.029 27.1408 23.0057 27.0229C22.9825 26.905 22.9247 26.7967 22.8397 26.7118C22.7547 26.6268 22.6464 26.569 22.5285 26.5457C22.4106 26.5224 22.2884 26.5347 22.1775 26.5809C22.0666 26.6272 21.9719 26.7054 21.9056 26.8056C21.8392 26.9058 21.8041 27.0234 21.8047 27.1436C21.8047 27.3036 21.8682 27.457 21.9813 27.5701C22.0945 27.6832 22.2479 27.7467 22.4078 27.7467V27.7467Z" fill="var(--fill-0, #363738)"/>
<path id="Vector_129" d="M13.7735 11.5893C13.6535 11.5887 13.5359 11.6237 13.4358 11.69C13.3357 11.7562 13.2575 11.8507 13.2111 11.9614C13.1647 12.0721 13.1523 12.1941 13.1753 12.3119C13.1984 12.4297 13.2559 12.5381 13.3405 12.6232C13.4252 12.7083 13.5332 12.7663 13.6509 12.79C13.7686 12.8136 13.8907 12.8018 14.0016 12.756C14.1126 12.7102 14.2075 12.6325 14.2742 12.5328C14.341 12.433 14.3766 12.3156 14.3766 12.1956C14.377 12.1161 14.3617 12.0374 14.3316 11.9638C14.3015 11.8903 14.2571 11.8234 14.2011 11.7671C14.145 11.7107 14.0784 11.666 14.005 11.6355C13.9317 11.605 13.853 11.5893 13.7735 11.5893Z" fill="var(--fill-0, #363738)"/>
<path id="Vector_130" d="M11.6266 7.85449C11.5073 7.85449 11.3907 7.88987 11.2915 7.95614C11.1923 8.02241 11.115 8.1166 11.0694 8.22681C11.0237 8.33702 11.0118 8.45828 11.035 8.57528C11.0583 8.69227 11.1157 8.79973 11.2001 8.88408C11.2844 8.96843 11.3919 9.02587 11.5089 9.04915C11.6259 9.07242 11.7472 9.06047 11.8574 9.01482C11.9676 8.96917 12.0618 8.89187 12.128 8.79269C12.1943 8.69351 12.2297 8.5769 12.2297 8.45762C12.2288 8.29791 12.165 8.14498 12.0521 8.03206C11.9392 7.91913 11.7863 7.85532 11.6266 7.85449V7.85449Z" fill="var(--fill-0, #363738)"/>
<path id="Vector_131" d="M9.47031 4.12988C9.35102 4.12988 9.23441 4.16526 9.13523 4.23153C9.03604 4.2978 8.95874 4.39199 8.91309 4.5022C8.86744 4.61241 8.85551 4.73367 8.87878 4.85067C8.90205 4.96766 8.95948 5.07512 9.04383 5.15947C9.12818 5.24382 9.23565 5.30126 9.35265 5.32454C9.46964 5.34781 9.59091 5.33587 9.70111 5.29022C9.81132 5.24457 9.90551 5.16726 9.97179 5.06808C10.0381 4.9689 10.0734 4.85229 10.0734 4.73301C10.0726 4.5733 10.0088 4.42037 9.89586 4.30745C9.78293 4.19452 9.63001 4.13071 9.47031 4.12988V4.12988Z" fill="var(--fill-0, #363738)"/>
<path id="Vector_132" d="M13.7828 19.0654C13.6635 19.0654 13.5469 19.1008 13.4477 19.1671C13.3486 19.2333 13.2712 19.3275 13.2256 19.4377C13.1799 19.548 13.168 19.6692 13.1913 19.7862C13.2145 19.9032 13.272 20.0107 13.3563 20.095C13.4407 20.1794 13.5482 20.2368 13.6651 20.2601C13.7821 20.2834 13.9034 20.2714 14.0136 20.2258C14.1238 20.1801 14.218 20.1028 14.2843 20.0036C14.3506 19.9045 14.3859 19.7878 14.3859 19.6686C14.3859 19.5893 14.3703 19.5109 14.34 19.4377C14.3097 19.3646 14.2653 19.2981 14.2093 19.2421C14.1533 19.1861 14.0868 19.1417 14.0136 19.1113C13.9404 19.081 13.862 19.0654 13.7828 19.0654Z" fill="var(--fill-0, #363738)"/>
<path id="Vector_133" d="M11.6266 22.8018C11.5073 22.8018 11.3907 22.8371 11.2915 22.9034C11.1923 22.9697 11.115 23.0639 11.0694 23.1741C11.0237 23.2843 11.0118 23.4055 11.035 23.5225C11.0583 23.6395 11.1157 23.747 11.2001 23.8313C11.2844 23.9157 11.3919 23.9731 11.5089 23.9964C11.6259 24.0197 11.7472 24.0077 11.8574 23.9621C11.9676 23.9164 12.0618 23.8391 12.128 23.74C12.1943 23.6408 12.2297 23.5242 12.2297 23.4049C12.2297 23.2449 12.1661 23.0915 12.053 22.9784C11.9399 22.8653 11.7865 22.8018 11.6266 22.8018Z" fill="var(--fill-0, #363738)"/>
<path id="Vector_134" d="M9.461 26.5371C9.34096 26.5365 9.22343 26.5715 9.12332 26.6378C9.0232 26.704 8.94499 26.7985 8.89862 26.9092C8.85225 27.0199 8.8398 27.1419 8.86283 27.2597C8.88587 27.3775 8.94336 27.4859 9.02802 27.571C9.11268 27.6561 9.2207 27.7141 9.3384 27.7378C9.45609 27.7614 9.57815 27.7496 9.68912 27.7038C9.80009 27.658 9.89496 27.5803 9.96172 27.4805C10.0285 27.3808 10.0641 27.2634 10.0641 27.1434C10.0641 26.9831 10.0007 26.8294 9.88766 26.7158C9.77464 26.6022 9.62125 26.538 9.461 26.5371Z" fill="var(--fill-0, #363738)"/>
<path id="Vector_135" d="M18.0953 12.7995C18.2155 12.8001 18.3331 12.765 18.4333 12.6986C18.5335 12.6322 18.6117 12.5376 18.658 12.4267C18.7043 12.3157 18.7165 12.1936 18.6932 12.0757C18.67 11.9578 18.6122 11.8495 18.5272 11.7645C18.4422 11.6795 18.3339 11.6217 18.216 11.5984C18.0981 11.5751 17.9759 11.5874 17.865 11.6337C17.7541 11.6799 17.6594 11.7581 17.5931 11.8583C17.5267 11.9585 17.4916 12.0762 17.4922 12.1963C17.493 12.356 17.5568 12.509 17.6698 12.6219C17.7827 12.7348 17.9356 12.7986 18.0953 12.7995V12.7995Z" fill="var(--fill-0, #363738)"/>
<path id="Vector_136" d="M20.2516 9.06073C20.3708 9.06073 20.4875 9.02537 20.5866 8.9591C20.6858 8.89283 20.7631 8.79863 20.8088 8.68843C20.8544 8.57822 20.8664 8.45695 20.8431 8.33996C20.8198 8.22296 20.7624 8.11549 20.678 8.03114C20.5937 7.9468 20.4862 7.88935 20.3692 7.86608C20.2522 7.84281 20.131 7.85476 20.0208 7.90041C19.9105 7.94605 19.8164 8.02336 19.7501 8.12254C19.6838 8.22172 19.6484 8.33833 19.6484 8.45762C19.6484 8.61758 19.712 8.77098 19.8251 8.88409C19.9382 8.99719 20.0916 9.06073 20.2516 9.06073V9.06073Z" fill="var(--fill-0, #363738)"/>
<path id="Vector_137" d="M22.4078 5.32245C22.5271 5.32245 22.6437 5.28708 22.7429 5.22081C22.8421 5.15454 22.9194 5.06034 22.965 4.95014C23.0107 4.83993 23.0226 4.71866 22.9993 4.60167C22.9761 4.48467 22.9186 4.37721 22.8343 4.29287C22.7499 4.20852 22.6425 4.15107 22.5255 4.1278C22.4085 4.10453 22.2872 4.11647 22.177 4.16212C22.0668 4.20777 21.9726 4.28508 21.9063 4.38426C21.8401 4.48344 21.8047 4.60005 21.8047 4.71933C21.8043 4.79865 21.8196 4.87726 21.8498 4.95063C21.8799 5.02399 21.9243 5.09065 21.9804 5.14674C22.0365 5.20283 22.1032 5.24723 22.1765 5.27739C22.2499 5.30756 22.3285 5.32287 22.4078 5.32245V5.32245Z" fill="var(--fill-0, #363738)"/>
<path id="Vector_138" d="M11.6266 16.5348C11.7466 16.5354 11.8641 16.5004 11.9643 16.4342C12.0644 16.3679 12.1426 16.2735 12.1889 16.1627C12.2353 16.052 12.2478 15.93 12.2247 15.8122C12.2017 15.6944 12.1442 15.5861 12.0595 15.501C11.9749 15.4159 11.8669 15.3578 11.7492 15.3341C11.6315 15.3105 11.5094 15.3223 11.3984 15.3681C11.2875 15.4139 11.1926 15.4916 11.1258 15.5914C11.0591 15.6912 11.0234 15.8085 11.0234 15.9285C11.0234 16.0888 11.0869 16.2425 11.1999 16.3561C11.3129 16.4697 11.4663 16.534 11.6266 16.5348Z" fill="var(--fill-0, #363738)"/>
<path id="Vector_139" d="M20.25 15.3262C20.1299 15.3256 20.0122 15.3607 19.912 15.427C19.8119 15.4934 19.7337 15.5881 19.6874 15.699C19.6411 15.8099 19.6288 15.9321 19.6521 16.05C19.6754 16.1679 19.7332 16.2762 19.8182 16.3612C19.9032 16.4461 20.0115 16.5039 20.1294 16.5272C20.2473 16.5505 20.3695 16.5383 20.4804 16.492C20.5913 16.4457 20.6859 16.3675 20.7523 16.2673C20.8187 16.1671 20.8538 16.0495 20.8532 15.9293C20.8523 15.7696 20.7885 15.6167 20.6756 15.5037C20.5627 15.3908 20.4098 15.327 20.25 15.3262V15.3262Z" fill="var(--fill-0, #363738)"/>
<path id="Vector_140" d="M14.0641 16.4077C13.9448 16.4077 13.8282 16.4431 13.729 16.5094C13.6298 16.5756 13.5525 16.6698 13.5069 16.78C13.4612 16.8902 13.4493 17.0115 13.4725 17.1285C13.4958 17.2455 13.5532 17.353 13.6376 17.4373C13.7219 17.5217 13.8294 17.5791 13.9464 17.6024C14.0634 17.6256 14.1847 17.6137 14.2949 17.5681C14.4051 17.5224 14.4993 17.4451 14.5655 17.3459C14.6318 17.2467 14.6672 17.1301 14.6672 17.0108C14.6672 16.8509 14.6036 16.6975 14.4905 16.5844C14.3774 16.4713 14.224 16.4077 14.0641 16.4077V16.4077Z" fill="var(--fill-0, #363738)"/>
<path id="Vector_141" d="M12.1969 18.6945C12.53 18.6945 12.8 18.4245 12.8 18.0914C12.8 17.7583 12.53 17.4883 12.1969 17.4883C11.8638 17.4883 11.5938 17.7583 11.5938 18.0914C11.5938 18.4245 11.8638 18.6945 12.1969 18.6945Z" fill="var(--fill-0, #363738)"/>
<path id="Vector_142" d="M10.3297 18.565C10.2104 18.565 10.0938 18.6004 9.99461 18.6667C9.89543 18.7329 9.81812 18.8271 9.77247 18.9373C9.72682 19.0475 9.71488 19.1688 9.73815 19.2858C9.76142 19.4028 9.81887 19.5103 9.90322 19.5946C9.98757 19.679 10.095 19.7364 10.212 19.7597C10.329 19.7829 10.4503 19.771 10.5605 19.7254C10.6707 19.6797 10.7649 19.6024 10.8312 19.5032C10.8974 19.404 10.9328 19.2874 10.9328 19.1681C10.9328 19.0082 10.8693 18.8548 10.7562 18.7417C10.6431 18.6286 10.4896 18.565 10.3297 18.565Z" fill="var(--fill-0, #363738)"/>
<path id="Vector_143" d="M8.46251 20.8498C8.58179 20.8498 8.69841 20.8144 8.79759 20.7482C8.89677 20.6819 8.97407 20.5877 9.01972 20.4775C9.06537 20.3673 9.07732 20.246 9.05405 20.129C9.03077 20.012 8.97333 19.9046 8.88898 19.8202C8.80463 19.7359 8.69716 19.6784 8.58017 19.6551C8.46317 19.6319 8.34191 19.6438 8.2317 19.6895C8.1215 19.7351 8.0273 19.8124 7.96103 19.9116C7.89476 20.0108 7.85938 20.1274 7.85938 20.2467C7.85896 20.326 7.87428 20.4046 7.90444 20.478C7.93461 20.5513 7.97902 20.618 8.03511 20.6741C8.09119 20.7302 8.15785 20.7746 8.23121 20.8047C8.30457 20.8349 8.38319 20.8502 8.46251 20.8498Z" fill="var(--fill-0, #363738)"/>
<path id="Vector_144" d="M6.59531 21.9293C6.71535 21.93 6.83289 21.895 6.93301 21.8287C7.03312 21.7625 7.11132 21.668 7.15769 21.5573C7.20406 21.4466 7.21652 21.3246 7.19348 21.2067C7.17045 21.0889 7.11295 20.9806 7.02829 20.8955C6.94363 20.8104 6.83561 20.7523 6.71792 20.7287C6.60022 20.705 6.47816 20.7168 6.36719 20.7626C6.25623 20.8084 6.16135 20.8861 6.0946 20.9859C6.02784 21.0857 5.99219 21.203 5.99219 21.3231C5.99219 21.4833 6.05563 21.637 6.16865 21.7507C6.28167 21.8643 6.43506 21.9285 6.59531 21.9293Z" fill="var(--fill-0, #363738)"/>
<path id="Vector_145" d="M4.72812 23.006C4.84741 23.006 4.96401 22.9707 5.0632 22.9044C5.16238 22.8381 5.23969 22.7439 5.28534 22.6337C5.33099 22.5235 5.34293 22.4023 5.31965 22.2853C5.29638 22.1683 5.23894 22.0608 5.15459 21.9765C5.07024 21.8921 4.96278 21.8347 4.84579 21.8114C4.72879 21.7881 4.60752 21.8001 4.49732 21.8457C4.38711 21.8914 4.29292 21.9687 4.22665 22.0679C4.16037 22.167 4.125 22.2836 4.125 22.4029C4.125 22.5629 4.18854 22.7163 4.30165 22.8294C4.41476 22.9425 4.56817 23.006 4.72812 23.006Z" fill="var(--fill-0, #363738)"/>
<path id="Vector_146" d="M2.85162 22.8774C2.73144 22.8768 2.61379 22.9119 2.5136 22.9783C2.41342 23.0447 2.33522 23.1393 2.28894 23.2503C2.24267 23.3612 2.23039 23.4833 2.25368 23.6012C2.27698 23.7191 2.33479 23.8274 2.41977 23.9124C2.50474 23.9974 2.61306 24.0552 2.73096 24.0785C2.84886 24.1018 2.97103 24.0895 3.08194 24.0433C3.19285 23.997 3.2875 23.9188 3.35388 23.8186C3.42025 23.7184 3.45537 23.6007 3.45474 23.4806C3.45391 23.3209 3.3901 23.168 3.27717 23.055C3.16425 22.9421 3.01132 22.8783 2.85162 22.8774Z" fill="var(--fill-0, #363738)"/>
<path id="Vector_147" d="M14.0641 14.2402C13.9448 14.2402 13.8282 14.2756 13.729 14.3419C13.6298 14.4082 13.5525 14.5023 13.5069 14.6126C13.4612 14.7228 13.4493 14.844 13.4725 14.961C13.4958 15.078 13.5532 15.1855 13.6376 15.2698C13.7219 15.3542 13.8294 15.4116 13.9464 15.4349C14.0634 15.4582 14.1847 15.4462 14.2949 15.4006C14.4051 15.3549 14.4993 15.2776 14.5655 15.1784C14.6318 15.0792 14.6672 14.9626 14.6672 14.8434C14.6663 14.6837 14.6025 14.5307 14.4896 14.4178C14.3767 14.3049 14.2238 14.2411 14.0641 14.2402Z" fill="var(--fill-0, #363738)"/>
<path id="Vector_148" d="M12.1954 13.168C12.0753 13.1674 11.9578 13.2024 11.8577 13.2686C11.7576 13.3349 11.6794 13.4293 11.633 13.5401C11.5866 13.6508 11.5742 13.7728 11.5972 13.8906C11.6202 14.0084 11.6777 14.1167 11.7624 14.2018C11.8471 14.2869 11.9551 14.345 12.0728 14.3687C12.1905 14.3923 12.3125 14.3805 12.4235 14.3347C12.5345 14.2889 12.6293 14.2112 12.6961 14.1114C12.7629 14.0116 12.7985 13.8943 12.7985 13.7743C12.7989 13.6948 12.7836 13.616 12.7535 13.5425C12.7234 13.4689 12.679 13.4021 12.623 13.3457C12.5669 13.2894 12.5003 13.2447 12.4269 13.2142C12.3535 13.1837 12.2748 13.168 12.1954 13.168V13.168Z" fill="var(--fill-0, #363738)"/>
<path id="Vector_149" d="M9.72657 12.6954C9.72595 12.8156 9.76106 12.9333 9.82744 13.0335C9.89381 13.1336 9.98847 13.2118 10.0994 13.2581C10.2103 13.3044 10.3325 13.3167 10.4504 13.2934C10.5683 13.2701 10.6766 13.2123 10.7615 13.1273C10.8465 13.0423 10.9043 12.934 10.9276 12.8161C10.9509 12.6982 10.9387 12.576 10.8924 12.4651C10.8461 12.3542 10.7679 12.2596 10.6677 12.1932C10.5675 12.1268 10.4499 12.0917 10.3297 12.0923C10.17 12.0931 10.0171 12.157 9.90414 12.2699C9.79122 12.3828 9.7274 12.5357 9.72657 12.6954V12.6954Z" fill="var(--fill-0, #363738)"/>
<path id="Vector_150" d="M8.4627 12.2204C8.58288 12.2211 8.70053 12.186 8.80071 12.1196C8.9009 12.0532 8.9791 11.9585 9.02538 11.8476C9.07166 11.7367 9.08393 11.6146 9.06064 11.4967C9.03735 11.3788 8.97953 11.2704 8.89455 11.1855C8.80957 11.1005 8.70126 11.0427 8.58336 11.0194C8.46546 10.9961 8.3433 11.0084 8.23239 11.0546C8.12148 11.1009 8.02682 11.1791 7.96044 11.2793C7.89407 11.3795 7.85895 11.4971 7.85958 11.6173C7.85958 11.6965 7.87519 11.775 7.9055 11.8481C7.93581 11.9213 7.98023 11.9878 8.03624 12.0438C8.09224 12.0998 8.15872 12.1442 8.2319 12.1745C8.30507 12.2048 8.3835 12.2204 8.4627 12.2204V12.2204Z" fill="var(--fill-0, #363738)"/>
<path id="Vector_151" d="M6.59531 9.93262C6.47602 9.93262 6.35942 9.96799 6.26023 10.0343C6.16105 10.1005 6.08375 10.1947 6.0381 10.3049C5.99245 10.4151 5.9805 10.5364 6.00378 10.6534C6.02705 10.7704 6.08449 10.8779 6.16884 10.9622C6.25319 11.0466 6.36065 11.104 6.47764 11.1273C6.59464 11.1505 6.71591 11.1386 6.82611 11.093C6.93632 11.0473 7.03051 10.97 7.09678 10.8708C7.16306 10.7716 7.19843 10.655 7.19843 10.5357C7.19843 10.4565 7.18283 10.3781 7.15252 10.3049C7.12221 10.2318 7.07779 10.1653 7.02178 10.1093C6.96578 10.0533 6.89929 10.0088 6.82611 9.97853C6.75294 9.94822 6.67451 9.93262 6.59531 9.93262V9.93262Z" fill="var(--fill-0, #363738)"/>
<path id="Vector_152" d="M4.72812 8.86914C4.60883 8.86914 4.49222 8.90452 4.39304 8.97079C4.29386 9.03706 4.21656 9.13125 4.17091 9.24146C4.12526 9.35166 4.11332 9.47293 4.13659 9.58993C4.15986 9.70692 4.2173 9.81438 4.30165 9.89873C4.38599 9.98308 4.49346 10.0405 4.61046 10.0638C4.72745 10.0871 4.84872 10.0751 4.95893 10.0295C5.06913 9.98383 5.16333 9.90652 5.2296 9.80734C5.29587 9.70815 5.33124 9.59155 5.33124 9.47226C5.33124 9.31231 5.26769 9.1589 5.15459 9.04579C5.04148 8.93268 4.88808 8.86914 4.72812 8.86914Z" fill="var(--fill-0, #363738)"/>
<path id="Vector_153" d="M2.85312 8.98452C2.97317 8.98515 3.09069 8.95013 3.19081 8.88389C3.29092 8.81765 3.36912 8.72318 3.41549 8.61246C3.46187 8.50173 3.47433 8.37973 3.45129 8.26192C3.42826 8.1441 3.37077 8.03577 3.2861 7.95067C3.20144 7.86556 3.09342 7.80751 2.97572 7.78386C2.85803 7.76021 2.73597 7.77202 2.625 7.81782C2.51403 7.86361 2.41916 7.94132 2.3524 8.04109C2.28564 8.14085 2.25 8.2582 2.25 8.37825C2.25 8.5385 2.31344 8.69222 2.42646 8.80583C2.53948 8.91944 2.69288 8.98369 2.85312 8.98452Z" fill="var(--fill-0, #363738)"/>
<path id="Vector_154" d="M18.4016 17.0108C18.4016 16.8915 18.3662 16.7749 18.2999 16.6758C18.2336 16.5766 18.1394 16.4993 18.0292 16.4536C17.919 16.408 17.7978 16.396 17.6808 16.4193C17.5638 16.4426 17.4563 16.5 17.372 16.5844C17.2876 16.6687 17.2302 16.7762 17.2069 16.8932C17.1836 17.0102 17.1956 17.1314 17.2412 17.2416C17.2869 17.3518 17.3642 17.446 17.4634 17.5123C17.5625 17.5786 17.6791 17.614 17.7984 17.614C17.8776 17.614 17.9561 17.5984 18.0292 17.568C18.1024 17.5377 18.1689 17.4933 18.2249 17.4373C18.2809 17.3813 18.3253 17.3148 18.3556 17.2416C18.386 17.1685 18.4016 17.09 18.4016 17.0108Z" fill="var(--fill-0, #363738)"/>
<path id="Vector_155" d="M19.6656 18.6945C19.9987 18.6945 20.2687 18.4245 20.2687 18.0914C20.2687 17.7583 19.9987 17.4883 19.6656 17.4883C19.3325 17.4883 19.0625 17.7583 19.0625 18.0914C19.0625 18.4245 19.3325 18.6945 19.6656 18.6945Z" fill="var(--fill-0, #363738)"/>
<path id="Vector_156" d="M22.1437 19.1681C22.1437 19.0488 22.1084 18.9322 22.0421 18.833C21.9758 18.7338 21.8816 18.6565 21.7714 18.6108C21.6612 18.5652 21.54 18.5533 21.423 18.5765C21.306 18.5998 21.1985 18.6572 21.1142 18.7416C21.0298 18.8259 20.9724 18.9334 20.9491 19.0504C20.9258 19.1674 20.9378 19.2887 20.9834 19.3989C21.0291 19.5091 21.1064 19.6033 21.2055 19.6695C21.3047 19.7358 21.4213 19.7712 21.5406 19.7712C21.6198 19.7712 21.6982 19.7556 21.7714 19.7253C21.8446 19.695 21.9111 19.6505 21.9671 19.5945C22.0231 19.5385 22.0675 19.472 22.0978 19.3989C22.1281 19.3257 22.1437 19.2473 22.1437 19.1681Z" fill="var(--fill-0, #363738)"/>
<path id="Vector_157" d="M23.4078 20.8527C23.7409 20.8527 24.0109 20.5827 24.0109 20.2496C24.0109 19.9165 23.7409 19.6465 23.4078 19.6465C23.0747 19.6465 22.8047 19.9165 22.8047 20.2496C22.8047 20.5827 23.0747 20.8527 23.4078 20.8527Z" fill="var(--fill-0, #363738)"/>
<path id="Vector_158" d="M25.2828 21.9293C25.4029 21.93 25.5204 21.895 25.6205 21.8287C25.7206 21.7625 25.7988 21.668 25.8452 21.5573C25.8916 21.4466 25.904 21.3246 25.881 21.2067C25.8579 21.0889 25.8005 20.9806 25.7158 20.8955C25.6311 20.8104 25.5231 20.7523 25.4054 20.7287C25.2877 20.705 25.1657 20.7168 25.0547 20.7626C24.9437 20.8084 24.8489 20.8861 24.7821 20.9859C24.7153 21.0857 24.6797 21.203 24.6797 21.3231C24.6797 21.4833 24.7431 21.637 24.8562 21.7507C24.9692 21.8643 25.1226 21.9285 25.2828 21.9293Z" fill="var(--fill-0, #363738)"/>
<path id="Vector_159" d="M27.1498 23.0055C27.4829 23.0055 27.7529 22.7354 27.7529 22.4023C27.7529 22.0692 27.4829 21.7992 27.1498 21.7992C26.8167 21.7992 26.5467 22.0692 26.5467 22.4023C26.5467 22.7354 26.8167 23.0055 27.1498 23.0055Z" fill="var(--fill-0, #363738)"/>
<path id="Vector_160" d="M29.0157 22.8774C28.8955 22.8768 28.7778 22.9119 28.6777 22.9783C28.5775 23.0447 28.4993 23.1393 28.453 23.2503C28.4067 23.3612 28.3945 23.4833 28.4177 23.6012C28.441 23.7191 28.4988 23.8274 28.5838 23.9124C28.6688 23.9974 28.7771 24.0552 28.895 24.0785C29.0129 24.1018 29.1351 24.0895 29.246 24.0433C29.3569 23.997 29.4516 23.9188 29.5179 23.8186C29.5843 23.7184 29.6194 23.6007 29.6188 23.4806C29.618 23.3209 29.5542 23.168 29.4412 23.055C29.3283 22.9421 29.1754 22.8783 29.0157 22.8774Z" fill="var(--fill-0, #363738)"/>
<path id="Vector_161" d="M17.7984 15.4553C17.9177 15.4553 18.0343 15.4199 18.1335 15.3536C18.2327 15.2873 18.31 15.1932 18.3557 15.0829C18.4013 14.9727 18.4132 14.8515 18.39 14.7345C18.3667 14.6175 18.3093 14.51 18.2249 14.4257C18.1406 14.3413 18.0331 14.2839 17.9161 14.2606C17.7991 14.2373 17.6778 14.2493 17.5676 14.2949C17.4574 14.3406 17.3632 14.4179 17.297 14.5171C17.2307 14.6163 17.1953 14.7329 17.1953 14.8521C17.1961 15.0118 17.26 15.1648 17.3729 15.2777C17.4858 15.3906 17.6387 15.4544 17.7984 15.4553V15.4553Z" fill="var(--fill-0, #363738)"/>
<path id="Vector_162" d="M19.6656 14.3776C19.7858 14.3782 19.9035 14.3431 20.0036 14.2767C20.1038 14.2104 20.182 14.1157 20.2283 14.0048C20.2746 13.8939 20.2869 13.7717 20.2636 13.6538C20.2403 13.5359 20.1825 13.4276 20.0975 13.3426C20.0125 13.2576 19.9042 13.1998 19.7863 13.1765C19.6684 13.1532 19.5462 13.1655 19.4353 13.2118C19.3244 13.2581 19.2297 13.3363 19.1634 13.4365C19.097 13.5366 19.0619 13.6543 19.0625 13.7745C19.0625 13.9344 19.126 14.0878 19.2392 14.2009C19.3523 14.314 19.5057 14.3776 19.6656 14.3776Z" fill="var(--fill-0, #363738)"/>
<path id="Vector_163" d="M21.5406 13.2907C21.6599 13.2907 21.7765 13.2553 21.8757 13.1891C21.9749 13.1228 22.0522 13.0286 22.0978 12.9184C22.1435 12.8082 22.1554 12.6869 22.1322 12.5699C22.1089 12.4529 22.0514 12.3455 21.9671 12.2611C21.8827 12.1768 21.7753 12.1193 21.6583 12.0961C21.5413 12.0728 21.42 12.0847 21.3098 12.1304C21.1996 12.176 21.1054 12.2533 21.0391 12.3525C20.9729 12.4517 20.9375 12.5683 20.9375 12.6876C20.9383 12.8473 21.0021 13.0002 21.1151 13.1132C21.228 13.2261 21.3809 13.2899 21.5406 13.2907Z" fill="var(--fill-0, #363738)"/>
<path id="Vector_164" d="M15.9312 18.6945C16.2643 18.6945 16.5344 18.4245 16.5344 18.0914C16.5344 17.7583 16.2643 17.4883 15.9312 17.4883C15.5982 17.4883 15.3281 17.7583 15.3281 18.0914C15.3281 18.4245 15.5982 18.6945 15.9312 18.6945Z" fill="var(--fill-0, #363738)"/>
<path id="Vector_165" d="M15.9312 20.8527C16.2643 20.8527 16.5344 20.5827 16.5344 20.2496C16.5344 19.9165 16.2643 19.6465 15.9312 19.6465C15.5982 19.6465 15.3281 19.9165 15.3281 20.2496C15.3281 20.5827 15.5982 20.8527 15.9312 20.8527Z" fill="var(--fill-0, #363738)"/>
<path id="Vector_166" d="M15.9312 23.0056C16.2643 23.0056 16.5344 22.7355 16.5344 22.4024C16.5344 22.0693 16.2643 21.7993 15.9312 21.7993C15.5982 21.7993 15.3281 22.0693 15.3281 22.4024C15.3281 22.7355 15.5982 23.0056 15.9312 23.0056Z" fill="var(--fill-0, #363738)"/>
<path id="Vector_167" d="M15.9376 13.168C15.8175 13.1674 15.7 13.2024 15.5999 13.2686C15.4998 13.3349 15.4216 13.4293 15.3752 13.5401C15.3288 13.6508 15.3164 13.7728 15.3394 13.8906C15.3624 14.0084 15.4199 14.1167 15.5046 14.2018C15.5892 14.2869 15.6973 14.345 15.815 14.3687C15.9326 14.3923 16.0547 14.3805 16.1657 14.3347C16.2767 14.2889 16.3715 14.2112 16.4383 14.1114C16.505 14.0116 16.5407 13.8943 16.5407 13.7743C16.5407 13.614 16.4772 13.4603 16.3642 13.3467C16.2512 13.2331 16.0978 13.1688 15.9376 13.168V13.168Z" fill="var(--fill-0, #363738)"/>
<path id="Vector_168" d="M15.9376 11.0098C15.8175 11.0091 15.7 11.0442 15.5999 11.1104C15.4998 11.1766 15.4216 11.2711 15.3752 11.3818C15.3288 11.4926 15.3164 11.6146 15.3394 11.7324C15.3624 11.8502 15.4199 11.9585 15.5046 12.0436C15.5892 12.1287 15.6973 12.1868 15.815 12.2104C15.9326 12.2341 16.0547 12.2223 16.1657 12.1765C16.2767 12.1307 16.3715 12.053 16.4383 11.9532C16.505 11.8534 16.5407 11.7361 16.5407 11.6161C16.5407 11.4558 16.4772 11.3021 16.3642 11.1885C16.2512 11.0749 16.0978 11.0106 15.9376 11.0098V11.0098Z" fill="var(--fill-0, #363738)"/>
<path id="Vector_169" d="M15.9391 8.86914C15.8198 8.86914 15.7032 8.90452 15.604 8.97079C15.5048 9.03706 15.4275 9.13125 15.3818 9.24146C15.3362 9.35166 15.3243 9.47293 15.3475 9.58993C15.3708 9.70692 15.4282 9.81438 15.5126 9.89873C15.5969 9.98308 15.7044 10.0405 15.8214 10.0638C15.9384 10.0871 16.0597 10.0751 16.1699 10.0295C16.2801 9.98383 16.3743 9.90652 16.4405 9.80734C16.5068 9.70815 16.5422 9.59155 16.5422 9.47226C16.5422 9.31231 16.4786 9.1589 16.3655 9.04579C16.2524 8.93268 16.099 8.86914 15.9391 8.86914Z" fill="var(--fill-0, #363738)"/>
</g>
<path id="Vector_170" d="M31.8601 15.93C31.8601 11.7051 30.1817 7.65325 27.1943 4.66579C24.2068 1.67833 20.1549 0 15.93 0C11.7051 0 7.65326 1.67833 4.6658 4.66579C1.67834 7.65325 0 11.7051 0 15.93H31.8601Z" fill="var(--fill-0, #363738)"/>
<path id="Vector_171" d="M115.131 20.1643C114.63 20.6584 114.035 21.0473 113.381 21.3083C112.727 21.5692 112.028 21.697 111.324 21.684C109.296 21.5987 108.042 20.2686 108.042 18.7173C108.042 16.888 109.305 15.9464 110.794 14.9259L115.131 20.1643ZM117.899 17.0049H124.047V13.5295H115.027L112.076 9.95926C111.564 9.32737 110.604 8.30686 110.604 7.3527C110.594 7.12016 110.631 6.88796 110.713 6.67017C110.795 6.45239 110.921 6.25357 111.082 6.08576C111.243 5.91795 111.437 5.78465 111.651 5.69395C111.866 5.60325 112.096 5.55705 112.329 5.55813C112.794 5.57294 113.236 5.76872 113.559 6.10385C113.882 6.43899 114.062 6.88703 114.06 7.3527H118.01C118.01 7.29583 118.01 7.23896 118.01 7.18209C118.01 5.38436 116.136 2.28809 112.345 2.28809C109.35 2.28809 106.475 4.31962 106.475 7.25476C106.475 8.87873 107.182 10.3352 108.073 11.618C108.964 12.9007 110.042 14.0002 110.784 14.9165C110.673 14.7901 109.233 11.6685 109.233 11.6685C107.711 12.1651 106.382 13.1248 105.433 14.4136C104.484 15.7024 103.961 17.2557 103.938 18.8563C103.938 22.0884 106.781 25.0362 111.305 25.0362C113.372 25.0362 115.482 24.199 117.264 22.7393L118.664 24.4264H124.035L117.899 17.0049Z" fill="var(--fill-0, #363738)"/>
<path id="Vector_172" d="M130.033 21.9969C130.033 24.5403 129.746 26.4202 126.688 26.4202V29.8956C131.828 29.8956 133.973 26.9446 133.973 23.7915V7.73828H130.033V21.9969Z" fill="var(--fill-0, #363738)"/>
<path id="Vector_173" d="M131.993 6.36994C132.45 6.36994 132.897 6.23429 133.278 5.98015C133.658 5.726 133.954 5.36478 134.129 4.94216C134.304 4.51953 134.35 4.05448 134.261 3.60582C134.172 3.15716 133.952 2.74504 133.628 2.42158C133.305 2.09811 132.892 1.87783 132.444 1.78858C131.995 1.69934 131.53 1.74514 131.107 1.9202C130.685 2.09526 130.324 2.39171 130.069 2.77207C129.815 3.15242 129.68 3.5996 129.68 4.05705C129.68 4.67047 129.923 5.25877 130.357 5.69252C130.791 6.12627 131.379 6.36994 131.993 6.36994" fill="var(--fill-0, #363738)"/>
<path id="Vector_174" d="M147.633 13.9751H139.759C140.565 11.8741 142.006 10.8157 143.693 10.7872C145.38 10.8125 146.818 11.8804 147.623 13.9751M151.784 15.8708C151.784 10.4523 147.895 7.32129 143.693 7.32129C139.491 7.32129 135.602 10.4334 135.602 15.8708C135.602 21.3082 139.393 24.3856 143.693 24.4235C147.01 24.395 150.037 22.5278 151.238 19.1882H146.947C146.593 19.7262 146.112 20.1685 145.546 20.476C144.98 20.7835 144.347 20.9467 143.702 20.9512C141.848 20.9259 140.034 19.6495 139.646 16.9735H151.74C151.775 16.6196 151.794 16.2499 151.794 15.8708" fill="var(--fill-0, #363738)"/>
<path id="Vector_175" d="M158.339 7.73088V1.91113H154.403V7.72455H152.023V10.7987H152.415C152.415 10.7987 154.403 10.7987 154.403 12.9882V20.037C154.403 21.1009 154.826 22.121 155.579 22.8734C156.331 23.6257 157.351 24.0487 158.415 24.0495H161.107V20.5741H159.552C159.229 20.5612 158.924 20.425 158.698 20.1934C158.472 19.9618 158.344 19.6526 158.339 19.3293V15.5126C158.339 10.7039 153.379 10.8114 152.538 10.805H161.107V7.73088H158.339Z" fill="var(--fill-0, #363738)"/>
<path id="Vector_176" d="M64.6589 24.416V13.3579C64.6589 10.1037 62.2799 7.71826 58.656 7.71826C56.7887 7.71826 54.4918 8.8999 53.8125 10.5397C53.3743 9.6449 52.6797 8.90086 51.8171 8.40233C50.9545 7.9038 49.9631 7.67336 48.969 7.74038C47.1176 7.98998 45.2756 9.52232 45.2756 13.5538V8.09108H41.3516V24.416H45.2851V13.5412C45.2851 12.151 46.7701 11.1779 48.1602 11.1779C49.5504 11.1779 51.0322 11.9456 51.0322 13.5412V24.416H54.972V13.5412C54.972 11.9456 56.4538 11.1779 57.844 11.1779C59.2341 11.1779 60.7191 12.151 60.7191 13.5412V24.416H64.6589Z" fill="var(--fill-0, #363738)"/>
<path id="Vector_177" d="M78.3155 14.3313H70.4516C71.2572 12.2334 72.698 11.1718 74.3851 11.1466C76.0723 11.1718 77.5098 12.2397 78.3155 14.3313ZM82.4765 16.227C82.4765 10.8053 78.5872 7.67432 74.3851 7.67432C70.183 7.67432 66.2969 10.7896 66.2969 16.227C66.2969 21.6644 70.0882 24.7417 74.3851 24.7765C77.7057 24.7481 80.7325 22.8808 81.9299 19.5413H77.633C77.2783 20.0795 76.7963 20.5219 76.2298 20.8294C75.6633 21.1369 75.0297 21.3 74.3851 21.3042C72.5305 21.2821 70.7201 20.0025 70.3315 17.3296H82.4228C82.4575 16.9726 82.4765 16.6061 82.4765 16.227Z" fill="var(--fill-0, #363738)"/>
<path id="Vector_178" d="M88.1664 2.27832H84.2266V24.4167H88.1664V2.27832Z" fill="var(--fill-0, #363738)"/>
<path id="Vector_179" d="M95.9486 8.09174V2.27832H92.0087V8.09174H89.6328V11.1627H90.0246C90.0246 11.1627 92.0087 11.1627 92.0087 13.3554V20.4042C92.0104 21.4679 92.4337 22.4875 93.1858 23.2396C93.938 23.9918 94.9576 24.415 96.0213 24.4167H98.7163V20.9413H97.1618C96.8387 20.9284 96.5329 20.7921 96.3072 20.5606C96.0815 20.329 95.9532 20.0198 95.9486 19.6965V15.8735C95.9486 11.0648 90.9882 11.1691 90.1446 11.1627H98.7163V8.09174H95.9486Z" fill="var(--fill-0, #363738)"/>
</g>
</svg>

