<svg preserveAspectRatio="xMidYMid meet" width="100%" height="100%" overflow="visible" style="display: block;" viewBox="0 0 125 45" fill="none" xmlns="http://www.w3.org/2000/svg">
<g id="Group 427321014">
<path id="Vector" d="M7.51444 32.2301H14.7927V16.1134C14.7927 14.3973 13.7232 13.3316 12.0009 13.3316H0V19.9886H7.51444V32.2267V32.2301ZM16.7825 24.0023H24.0608V13.3316H16.7825V24.0023ZM33.5823 32.2301H40.8571V16.1134C40.8571 14.3973 39.7876 13.3316 38.0653 13.3316H26.0679V19.9886H33.5823V32.2267V32.2301ZM49.4446 32.2301H56.8791L53.3407 13.3351H44.1109V20.4211H47.1145L47.4826 23.1511L42.7531 25.9537V32.2301H44.5414L48.9168 29.5452L49.4446 32.2301ZM67.8036 23.6216H75.0819V13.3316H67.8036V23.6216ZM84.4193 29.4483V13.3316H77.141V25.5696H65.7374V13.3316H58.4626V29.4448C58.4626 31.161 59.5321 32.2267 61.2545 32.2267H81.6275C83.3498 32.2267 84.4193 31.161 84.4193 29.4448" fill="var(--fill-0, #363738)"/>
<g id="Group">
<path id="Vector (Stroke)" fill-rule="evenodd" clip-rule="evenodd" d="M108.362 0.905745C99.7328 0.905745 92.7487 7.87371 92.7487 16.4593V27.9223C92.7487 36.5077 99.7361 43.4758 108.362 43.4758C116.988 43.4758 123.976 36.5077 123.976 27.9223V16.4593C123.976 7.87383 116.988 0.905745 108.362 0.905745ZM91.8438 16.4593C91.8438 7.36982 99.2367 0 108.362 0C117.485 0 124.881 7.36982 124.881 16.4593V27.9223C124.881 37.0117 117.485 44.3815 108.362 44.3815C99.2401 44.3815 91.8438 37.0117 91.8438 27.9223V16.4593Z" fill="var(--fill-0, #363738)"/>
<path id="Vector_2" d="M108.774 36.2599C110.392 36.2115 111.996 35.5783 113.233 34.3465C113.233 34.3465 116.691 30.9696 116.816 30.852C117.799 29.8728 119.459 27.8211 119.344 25.3645H116.198C116.035 26.06 115.688 26.707 115.163 27.226L110.983 31.3918C110.361 32.0111 109.583 32.3709 108.774 32.4851V36.2634V36.2599ZM115.549 23.5896H115.556C115.403 23.0291 115.097 22.5343 114.698 22.1399C112.611 24.1778 109.458 27.2502 109.458 27.2502C108.816 27.8903 107.771 27.8903 107.128 27.2502L105.743 25.8697C105.1 25.2296 105.1 24.1881 105.743 23.5481L111.389 17.9222L112.236 17.1506C112.236 17.1506 112.246 10.2584 112.246 8.15476L108.774 11.6009L108.781 15.7113L102.277 22.3786C101.656 22.9945 101.319 23.8145 101.319 24.6829C101.319 25.5514 101.659 26.3679 102.274 26.9838L105.93 30.9627C107.194 32.2221 109.264 32.2221 110.538 30.9523L114.719 26.7866C115.556 25.9527 115.875 24.7314 115.552 23.5965M108.43 11.0611L111.965 7.55273H104.892L108.427 11.0611H108.43ZM96.9332 25.368C97.0929 26.7935 97.7179 28.1775 98.8187 29.2743L103.916 34.3535C105.093 35.5264 106.607 36.1561 108.146 36.2564V32.5266C107.177 32.5059 106.215 32.1322 105.479 31.3952L101.822 27.4163C101.26 26.8558 100.892 26.143 100.753 25.368H96.9332ZM104.253 14.5695L98.8187 19.9843C97.5026 21.2956 96.8637 23.0221 96.8915 24.7383H100.694C100.694 24.721 100.694 24.7002 100.694 24.6829C100.694 23.6484 101.1 22.6727 101.836 21.9392L108.159 15.4587L108.153 11.6701L104.677 8.2205V14.2166C104.538 14.3377 104.392 14.4415 104.26 14.5764M119.282 24.7452C119.233 24.4684 119.17 24.1916 119.073 23.9079C118.32 21.7385 116.448 20.4445 116.448 20.4445C116.281 20.6106 115.799 21.0811 115.163 21.7039C115.872 22.4063 116.313 23.382 116.313 24.4546V24.7452H119.278H119.282Z" fill="var(--fill-0, #363738)"/>
</g>
</g>
</svg>

