<svg preserveAspectRatio="xMidYMid meet" width="100%" height="100%" overflow="visible" style="display: block;" viewBox="0 0 27 29" fill="none" xmlns="http://www.w3.org/2000/svg">
<g id="Group">
<path id="Vector" d="M7.09224 28.2917C8.83023 28.2917 10.2392 26.8814 10.2392 25.1417C10.2392 23.402 8.83023 21.9917 7.09224 21.9917C5.35424 21.9917 3.94531 23.402 3.94531 25.1417C3.94531 26.8814 5.35424 28.2917 7.09224 28.2917Z" fill="var(--fill-0, #363738)"/>
<path id="Vector_2" d="M4.29537 24.2332C5.95571 24.2332 7.30168 22.8859 7.30168 21.224C7.30168 19.562 5.95571 18.2147 4.29537 18.2147C2.63503 18.2147 1.28906 19.562 1.28906 21.224C1.28906 22.8859 2.63503 24.2332 4.29537 24.2332Z" fill="var(--fill-0, #363738)"/>
<path id="Vector_3" d="M2.86851 19.476C4.45274 19.476 5.73702 18.1904 5.73702 16.6047C5.73702 15.0189 4.45274 13.7333 2.86851 13.7333C1.28428 13.7333 0 15.0189 0 16.6047C0 18.1904 1.28428 19.476 2.86851 19.476Z" fill="var(--fill-0, #363738)"/>
<path id="Vector_4" d="M3.14977 14.696C4.65635 14.696 5.87767 13.4735 5.87767 11.9654C5.87767 10.4574 4.65635 9.23486 3.14977 9.23486C1.6432 9.23486 0.421875 10.4574 0.421875 11.9654C0.421875 13.4735 1.6432 14.696 3.14977 14.696Z" fill="var(--fill-0, #363738)"/>
<path id="Vector_5" d="M4.99634 10.3312C6.42681 10.3312 7.58644 9.17048 7.58644 7.73861C7.58644 6.30675 6.42681 5.146 4.99634 5.146C3.56587 5.146 2.40625 6.30675 2.40625 7.73861C2.40625 9.17048 3.56587 10.3312 4.99634 10.3312Z" fill="var(--fill-0, #363738)"/>
<path id="Vector_6" d="M8.24636 6.79973C9.59917 6.79973 10.6958 5.70199 10.6958 4.34786C10.6958 2.99373 9.59917 1.896 8.24636 1.896C6.89355 1.896 5.79688 2.99373 5.79688 4.34786C5.79688 5.70199 6.89355 6.79973 8.24636 6.79973Z" fill="var(--fill-0, #363738)"/>
<path id="Vector_7" d="M12.6476 4.62786C13.9243 4.62786 14.9593 3.59188 14.9593 2.31393C14.9593 1.03598 13.9243 0 12.6476 0C11.3709 0 10.3359 1.03598 10.3359 2.31393C10.3359 3.59188 11.3709 4.62786 12.6476 4.62786Z" fill="var(--fill-0, #363738)"/>
<path id="Vector_8" d="M17.2961 4.52898C18.4951 4.52898 19.4671 3.55601 19.4671 2.3558C19.4671 1.15558 18.4951 0.182617 17.2961 0.182617C16.097 0.182617 15.125 1.15558 15.125 2.3558C15.125 3.55601 16.097 4.52898 17.2961 4.52898Z" fill="var(--fill-0, #363738)"/>
<path id="Vector_9" d="M21.4395 6.38739C22.5625 6.38739 23.4728 5.47618 23.4728 4.35214C23.4728 3.22811 22.5625 2.31689 21.4395 2.31689C20.3166 2.31689 19.4062 3.22811 19.4062 4.35214C19.4062 5.47618 20.3166 6.38739 21.4395 6.38739Z" fill="var(--fill-0, #363738)"/>
<path id="Vector_10" d="M24.4083 9.95794C25.4536 9.95794 26.3009 9.10974 26.3009 8.06344C26.3009 7.01714 25.4536 6.16895 24.4083 6.16895C23.363 6.16895 22.5156 7.01714 22.5156 8.06344C22.5156 9.10974 23.363 9.95794 24.4083 9.95794Z" fill="var(--fill-0, #363738)"/>
<path id="Vector_11" d="M25.208 14.4736C26.1772 14.4736 26.9628 13.6871 26.9628 12.717C26.9628 11.7469 26.1772 10.9604 25.208 10.9604C24.2388 10.9604 23.4531 11.7469 23.4531 12.717C23.4531 13.6871 24.2388 14.4736 25.208 14.4736Z" fill="var(--fill-0, #363738)"/>
<path id="Vector_12" d="M23.4842 18.5834C24.3773 18.5834 25.1013 17.8588 25.1013 16.9648C25.1013 16.0709 24.3773 15.3462 23.4842 15.3462C22.5912 15.3462 21.8672 16.0709 21.8672 16.9648C21.8672 17.8588 22.5912 18.5834 23.4842 18.5834Z" fill="var(--fill-0, #363738)"/>
<path id="Vector_13" d="M19.6354 21.2234C20.4523 21.2234 21.1145 20.5605 21.1145 19.7428C21.1145 18.9251 20.4523 18.2622 19.6354 18.2622C18.8185 18.2622 18.1562 18.9251 18.1562 19.7428C18.1562 20.5605 18.8185 21.2234 19.6354 21.2234Z" fill="var(--fill-0, #363738)"/>
<path id="Vector_14" d="M15.0288 20.9504C15.7697 20.9504 16.3702 20.3493 16.3702 19.6078C16.3702 18.8663 15.7697 18.2651 15.0288 18.2651C14.288 18.2651 13.6875 18.8663 13.6875 19.6078C13.6875 20.3493 14.288 20.9504 15.0288 20.9504Z" fill="var(--fill-0, #363738)"/>
<path id="Vector_15" d="M11.5708 17.747C12.2356 17.747 12.7745 17.2076 12.7745 16.5422C12.7745 15.8768 12.2356 15.3374 11.5708 15.3374C10.9061 15.3374 10.3672 15.8768 10.3672 16.5422C10.3672 17.2076 10.9061 17.747 11.5708 17.747Z" fill="var(--fill-0, #363738)"/>
<path id="Vector_16" d="M11.2301 13.0218C11.8188 13.0218 12.296 12.5441 12.296 11.9549C12.296 11.3657 11.8188 10.888 11.2301 10.888C10.6415 10.888 10.1643 11.3657 10.1643 11.9549C10.1643 12.5441 10.6415 13.0218 11.2301 13.0218Z" fill="var(--fill-0, #363738)"/>
<path id="Vector_17" d="M14.5374 9.68261C15.05 9.68261 15.4655 9.2667 15.4655 8.75366C15.4655 8.24061 15.05 7.82471 14.5374 7.82471C14.0249 7.82471 13.6094 8.24061 13.6094 8.75366C13.6094 9.2667 14.0249 9.68261 14.5374 9.68261Z" fill="var(--fill-0, #363738)"/>
<path id="Vector_18" d="M18.8714 10.5955C19.3096 10.5955 19.6647 10.24 19.6647 9.8014C19.6647 9.36284 19.3096 9.00732 18.8714 9.00732C18.4333 9.00732 18.0781 9.36284 18.0781 9.8014C18.0781 10.24 18.4333 10.5955 18.8714 10.5955Z" fill="var(--fill-0, #363738)"/>
<path id="Vector_19" d="M19.6763 14.8134C20.0412 14.8134 20.337 14.5173 20.337 14.152C20.337 13.7868 20.0412 13.4907 19.6763 13.4907C19.3114 13.4907 19.0156 13.7868 19.0156 14.152C19.0156 14.5173 19.3114 14.8134 19.6763 14.8134Z" fill="var(--fill-0, #363738)"/>
<path id="Vector_20" d="M15.6797 16.1734C15.9731 16.1734 16.211 15.9354 16.211 15.6417C16.211 15.348 15.9731 15.1099 15.6797 15.1099C15.3863 15.1099 15.1484 15.348 15.1484 15.6417C15.1484 15.9354 15.3863 16.1734 15.6797 16.1734Z" fill="var(--fill-0, #363738)"/>
<path id="Vector_21" d="M14.947 12.1268C15.1723 12.1268 15.355 11.944 15.355 11.7184C15.355 11.4929 15.1723 11.3101 14.947 11.3101C14.7217 11.3101 14.5391 11.4929 14.5391 11.7184C14.5391 11.944 14.7217 12.1268 14.947 12.1268Z" fill="var(--fill-0, #363738)"/>
<path id="Vector_22" d="M18.3607 12.4725C18.5254 12.4725 18.659 12.3389 18.659 12.174C18.659 12.0091 18.5254 11.8755 18.3607 11.8755C18.196 11.8755 18.0625 12.0091 18.0625 12.174C18.0625 12.3389 18.196 12.4725 18.3607 12.4725Z" fill="var(--fill-0, #363738)"/>
</g>
</svg>

