<svg preserveAspectRatio="xMidYMid meet" width="100%" height="100%" overflow="visible" style="display: block;" viewBox="0 0 138 42" fill="none" xmlns="http://www.w3.org/2000/svg">
<g id="HMC logo">
<path id="Vector" d="M74.7068 11.0417C76.6651 10.0343 78.8782 9.52943 81.3417 9.52943C83.3313 9.52943 85.2158 9.76961 86.9885 10.25C88.7635 10.7303 90.2546 11.2641 91.4685 11.8512C92.2531 12.2315 93.8157 13.1233 94.549 13.5458C94.6473 13.6125 94.7502 13.6637 94.853 13.7215C94.9134 13.7549 94.9469 13.7771 94.9514 13.7726C95.5236 14.0729 96.1496 14.2397 96.7822 14.2397C97.7927 14.2397 98.8031 13.8572 99.5744 13.0921L99.713 12.9387C100.375 12.1181 100.71 11.2285 100.71 10.2945C100.71 7.30553 97.2114 5.15946 94.9491 3.81622C91.7904 1.94147 88.2829 0.796158 84.639 0.340257C82.835 0.113419 80.9661 0 79.0347 0C75.4668 0 72.2701 0.491483 69.4422 1.47223C66.6143 2.45297 64.162 3.90073 62.0852 5.80884C60.0084 7.71917 58.4525 9.9542 57.422 12.5139C56.4182 14.9958 55.9063 17.7156 55.8772 20.6667H55.875C55.875 20.6823 55.875 20.7001 55.875 20.7157C55.875 20.7312 55.875 20.749 55.875 20.7646H55.8772C55.9063 23.7157 56.4182 26.4356 57.422 28.9174C58.4548 31.4772 60.0084 33.7122 62.0852 35.6225C64.162 37.5328 66.6143 38.9806 69.4422 39.9591C72.2701 40.9399 75.4646 41.4314 79.0347 41.4314C80.9661 41.4314 82.835 41.3179 84.6346 41.0955C88.2784 40.6396 91.7859 39.4943 94.9446 37.6196C97.207 36.2763 100.706 34.1303 100.706 31.1413C100.706 30.2073 100.37 29.3177 99.7085 28.4971L99.5699 28.3437C98.8009 27.5786 97.7882 27.1961 96.7778 27.1961C96.1451 27.1961 95.5214 27.3629 94.9469 27.6632C94.9447 27.6587 94.9089 27.6787 94.8485 27.7143C94.7457 27.7721 94.6429 27.8233 94.5445 27.89C93.8113 28.3125 92.2487 29.2043 91.464 29.5846C90.2501 30.1739 88.7591 30.7077 86.9841 31.1858C85.2113 31.6662 83.3268 31.9064 81.3372 31.9064C78.8737 31.9064 76.6606 31.4015 74.7023 30.3941C72.7418 29.3845 71.2105 28.0257 70.1061 26.3132C69.013 24.6186 68.463 22.7528 68.4541 20.7201C68.463 18.6875 69.013 16.8216 70.1061 15.127C71.2105 13.4146 72.7418 12.0558 74.7023 11.0461L74.7068 11.0417Z" fill="var(--fill-0, #363738)"/>
<path id="Vector_2" d="M119.074 11.0417C117.115 10.0343 114.902 9.52943 112.439 9.52943C110.449 9.52943 108.564 9.76961 106.792 10.25C105.017 10.7303 103.526 11.2641 102.312 11.8512C101.527 12.2315 99.9646 13.1233 99.2313 13.5458C99.133 13.6125 99.0301 13.6637 98.9273 13.7215C98.8669 13.7549 98.8334 13.7771 98.8289 13.7726C98.2566 14.0729 97.6307 14.2397 96.9981 14.2397C95.9876 14.2397 94.9772 13.8572 94.2059 13.0921L94.0673 12.9387C93.4056 12.1181 93.0703 11.2285 93.0703 10.2945C93.0703 7.30553 96.5689 5.15946 98.8312 3.81622C101.99 1.94147 105.497 0.796158 109.141 0.340257C110.945 0.113419 112.814 0 114.746 0C118.313 0 121.51 0.491483 124.338 1.47223C127.166 2.45297 129.618 3.90073 131.695 5.80884C133.772 7.71917 135.328 9.9542 136.358 12.5139C137.362 14.9958 137.874 17.7156 137.903 20.6667H137.905C137.905 20.6823 137.905 20.7001 137.905 20.7157C137.905 20.7312 137.905 20.749 137.905 20.7646H137.903C137.874 23.7157 137.362 26.4356 136.358 28.9174C135.326 31.4772 133.772 33.7122 131.695 35.6225C129.618 37.5328 127.166 38.9806 124.338 39.9591C121.51 40.9399 118.316 41.4314 114.746 41.4314C112.814 41.4314 110.945 41.3179 109.146 41.0955C105.502 40.6396 101.994 39.4943 98.8356 37.6196C96.5733 36.2763 93.0748 34.1303 93.0748 31.1413C93.0748 30.2073 93.4101 29.3177 94.0718 28.4971L94.2104 28.3437C94.9794 27.5786 95.9921 27.1961 97.0025 27.1961C97.6352 27.1961 98.2589 27.3629 98.8334 27.6632C98.8356 27.6587 98.8714 27.6787 98.9318 27.7143C99.0346 27.7721 99.1374 27.8233 99.2358 27.89C99.969 28.3125 101.532 29.2043 102.316 29.5846C103.53 30.1739 105.021 30.7077 106.796 31.1858C108.569 31.6662 110.453 31.9064 112.443 31.9064C114.907 31.9064 117.12 31.4015 119.078 30.3941C121.039 29.3845 122.57 28.0257 123.674 26.3132C124.767 24.6186 125.317 22.7528 125.326 20.7201C125.317 18.6875 124.767 16.8216 123.674 15.127C122.57 13.4146 121.039 12.0558 119.078 11.0461L119.074 11.0417Z" fill="var(--fill-0, #363738)"/>
<g id="Group">
<path id="Vector_3" d="M7.74208 4.21703C7.81362 4.21703 7.85387 4.25928 7.85387 4.32823V12.395C7.85387 12.4661 7.81139 12.5062 7.74208 12.5062H6.38727C6.31573 12.5062 6.2889 12.4639 6.2889 12.395V5.76053H0.114019C0.0581271 5.76053 0 5.71828 0 5.64933V4.33045C0 4.25928 0.0558914 4.21925 0.114019 4.21925H7.74208V4.21703ZM0.310756 12.5084C0.254865 12.5084 0.212387 12.4661 0.212387 12.3972V8.39829C0.212387 8.36938 0.225801 8.34269 0.241451 8.32712L0.804837 7.75108C0.8339 7.70882 0.889792 7.69548 0.932269 7.69548H1.69463C1.75052 7.69548 1.793 7.73774 1.793 7.80668V12.395C1.793 12.4661 1.75052 12.5062 1.69463 12.5062H0.310756V12.5084Z" fill="var(--fill-0, #363738)"/>
<path id="Vector_4" d="M11.5689 9.16589C11.5399 9.1948 11.513 9.20814 11.484 9.20814H10.4265C10.355 9.20814 10.3125 9.16589 10.3125 9.09694V4.31518C10.3125 4.25958 10.355 4.21732 10.4265 4.21732H11.9222C11.9781 4.21732 12.0205 4.25958 12.0205 4.31518V8.70328C12.0205 8.73219 12.0071 8.75888 11.9781 8.78779L11.5689 9.16589Z" fill="var(--fill-0, #363738)"/>
<path id="Vector_5" d="M21.6203 4.2172C21.6919 4.2172 21.7187 4.25946 21.7187 4.31505V5.47813C21.7187 5.50704 21.7053 5.56264 21.6762 5.63158L18.8573 12.3788C18.8282 12.4633 18.7589 12.5055 18.674 12.5055H17.2634C17.1517 12.5055 17.1092 12.421 17.1651 12.3098L19.8856 5.75834H14.3305C14.2746 5.75834 14.2188 5.71609 14.2188 5.64715V1.99779C14.2188 1.92662 14.2612 1.89994 14.3305 1.89994H15.683C15.7389 1.89994 15.7813 1.92885 15.7813 1.99779V4.11935C15.7813 4.17495 15.8238 4.2172 15.8797 4.2172H21.6181H21.6203Z" fill="var(--fill-0, #363738)"/>
<path id="Vector_6" d="M31.1081 11.3557C31.1506 11.4113 31.1796 11.4824 31.1796 11.538V12.3787C31.1796 12.4499 31.1237 12.5055 31.0522 12.5055H23.8891C23.8176 12.5055 23.7774 12.4632 23.7774 12.3943V11.0754C23.7774 11.0043 23.8198 10.9642 23.8891 10.9642H28.8814L23.2967 4.42767C23.2252 4.34315 23.2833 4.21638 23.4085 4.21638H24.96C25.0159 4.20304 25.1009 4.24529 25.1433 4.3009L28.6824 8.46659L29.3173 7.83495V4.31424C29.3173 4.25864 29.3598 4.21638 29.4157 4.21638H30.7839C30.8398 4.21638 30.8823 4.25864 30.8823 4.31424V8.18635C30.8823 8.25752 30.8532 8.31313 30.8264 8.35538L29.5856 9.5764L31.1081 11.3579V11.3557Z" fill="var(--fill-0, #363738)"/>
<path id="Vector_7" d="M38.5035 12.5075C38.432 12.5075 38.4051 12.4652 38.4051 12.3963V6.23557L37.9111 5.75962H32.8383C32.7825 5.75962 32.7266 5.71736 32.7266 5.64842V4.32954C32.7266 4.25837 32.7825 4.21834 32.8383 4.21834H38.5169C38.5594 4.20499 38.6019 4.23168 38.6444 4.27394L39.8986 5.53721C39.9276 5.57947 39.9545 5.63507 39.9545 5.69068V12.3963C39.9545 12.4674 39.912 12.5075 39.8561 12.5075H38.5035V12.5075Z" fill="var(--fill-0, #363738)"/>
<path id="Vector_8" d="M50.0959 4.21732C50.1674 4.21732 50.2077 4.25958 50.2077 4.32852V12.3952C50.2077 12.4664 50.1652 12.5064 50.0959 12.5064H48.7411C48.6695 12.5064 48.6427 12.4642 48.6427 12.3952V5.76083H42.4656C42.4097 5.76083 42.3516 5.71857 42.3516 5.64962V4.33075C42.3516 4.25958 42.4075 4.21954 42.4656 4.21954H50.0937L50.0959 4.21732ZM42.6646 12.5087C42.6087 12.5087 42.5662 12.4664 42.5662 12.3975V8.39858C42.5662 8.36967 42.5796 8.34298 42.5952 8.32741L43.1586 7.75137C43.1877 7.70912 43.2436 7.69577 43.2861 7.69577H44.0484C44.1043 7.69577 44.1468 7.73803 44.1468 7.80698V12.3952C44.1468 12.4664 44.1043 12.5064 44.0484 12.5064H42.6668L42.6646 12.5087Z" fill="var(--fill-0, #363738)"/>
<path id="Vector_9" d="M15.6516 17.5976C15.7231 17.5976 15.7499 17.6398 15.7499 17.6954V18.8585C15.7499 18.8874 15.7365 18.943 15.7075 19.0119L12.8886 25.7592C12.8595 25.8437 12.7902 25.8859 12.7052 25.8859H11.2947C11.1829 25.8859 11.1404 25.8014 11.1963 25.6902L13.9169 19.1387H8.36177C8.30589 19.1387 8.25 19.0965 8.25 19.0275V15.3782C8.25 15.307 8.29247 15.2803 8.36177 15.2803H9.71422C9.7701 15.2803 9.81258 15.3092 9.81258 15.3782V17.4997C9.81258 17.5553 9.85505 17.5976 9.91094 17.5976H15.6493H15.6516Z" fill="var(--fill-0, #363738)"/>
<path id="Vector_10" d="M29.6002 22.547C29.5711 22.5759 29.5443 22.5892 29.5152 22.5892H28.4578C28.3862 22.5892 28.3438 22.547 28.3438 22.478V17.6985C28.3438 17.6429 28.3862 17.6006 28.4578 17.6006H29.9534C30.0093 17.6006 30.0518 17.6429 30.0518 17.6985V22.0866C30.0518 22.1155 30.0384 22.1422 30.0093 22.1711L29.6002 22.5492V22.547Z" fill="var(--fill-0, #363738)"/>
<path id="Vector_11" d="M39.7579 17.5967C39.8294 17.5967 39.8697 17.639 39.8697 17.7079V19.0268C39.8697 19.098 39.8272 19.138 39.7579 19.138H38.4321C38.3762 19.138 38.3338 19.1803 38.3338 19.2359V25.7724C38.3338 25.8436 38.2913 25.8836 38.2354 25.8836H36.8537C36.7844 25.8836 36.7554 25.8414 36.7554 25.7724V19.6851C36.7554 19.6562 36.7688 19.614 36.7844 19.6006L37.236 19.138H32.0337C31.9778 19.138 31.9219 19.0957 31.9219 19.0268V17.7079C31.9219 17.6367 31.9778 17.5967 32.0337 17.5967H39.7601H39.7579Z" fill="var(--fill-0, #363738)"/>
<path id="Vector_12" d="M45.3449 25.8599C45.289 25.8465 45.2466 25.8043 45.2466 25.7331L45.289 24.4988C45.289 24.4009 45.3874 24.3586 45.5014 24.372C45.7138 24.4565 46.1788 24.5254 46.4605 24.5254C48.0814 24.5254 49.2395 23.3623 49.2395 21.7209C49.2395 20.0795 48.211 18.9986 46.7579 19.0142C45.5305 19.0142 44.5714 20.0662 44.2629 21.6364L43.4603 25.7887C43.4469 25.8443 43.4044 25.8866 43.3485 25.8866H42.0093C41.9378 25.8866 41.8953 25.831 41.911 25.7598L42.7136 21.4117C42.8119 20.9358 42.9394 20.4865 43.1652 20.0239L41.4728 17.8643C41.3878 17.7509 41.4303 17.5975 41.5845 17.5975H43.1361C43.192 17.5975 43.2345 17.6108 43.2479 17.6531L44.1086 18.6339C44.8553 17.8621 45.8144 17.4551 46.7601 17.4551C49.1858 17.4551 50.8066 19.1521 50.8066 21.692C50.8066 24.2319 49.0718 26.0134 46.4628 26.0134C46.0827 26.0134 45.7719 25.9711 45.3494 25.8599H45.3449Z" fill="var(--fill-0, #363738)"/>
<path id="Vector_13" d="M21.4098 39.2684C21.3382 39.2684 21.3114 39.2262 21.3114 39.1572V32.9988L20.8173 32.5228H15.7446C15.6887 32.5228 15.6328 32.4806 15.6328 32.4116V31.0927C15.6328 31.0216 15.6887 30.9815 15.7446 30.9815H21.4232C21.4657 30.9682 21.5081 30.9949 21.5506 31.0371L22.8048 32.3004C22.8339 32.3427 22.8607 32.3983 22.8607 32.4539V39.1595C22.8607 39.2306 22.8182 39.2707 22.7623 39.2707H21.4098V39.2684Z" fill="var(--fill-0, #363738)"/>
<path id="Vector_14" d="M33.7969 30.9774C33.8595 30.9774 33.9087 31.0286 33.9087 31.0886V35.1298C33.9087 37.6541 32.0888 39.5068 29.5939 39.5068C27.0989 39.5068 25.2656 37.6541 25.2656 35.1298V31.0753C25.2656 31.0219 25.3103 30.9774 25.364 30.9774H26.759C26.8149 30.9774 26.8574 31.0063 26.8574 31.0753V35.0453C26.8574 36.7578 28.0132 38.0344 29.5939 38.0344C31.1745 38.0344 32.3437 36.7578 32.3437 35.0453V32.492H30.1639C30.0969 32.492 30.0432 32.4386 30.0432 32.3719V31.0998C30.0432 31.033 30.0969 30.9797 30.1639 30.9797H33.7969V30.9774Z" fill="var(--fill-0, #363738)"/>
<path id="Vector_15" d="M39.3794 30.9776C39.4509 30.9776 39.4934 31.0198 39.4934 31.0888V39.1555C39.4934 39.2267 39.4509 39.2667 39.3794 39.2667H35.9946C35.9387 39.2667 35.8828 39.2244 35.8828 39.1555V37.8366C35.8828 37.7655 35.9387 37.7254 35.9946 37.7254H37.7988C37.8703 37.7254 37.8971 37.6832 37.8971 37.6276V32.5211H36.2472C36.1757 32.5211 36.1354 32.4788 36.1354 32.4099V31.091C36.1354 31.0198 36.1779 30.9798 36.2472 30.9798H39.3772L39.3794 30.9776Z" fill="var(--fill-0, #363738)"/>
<path id="Vector_16" d="M42.1879 35.2844C42.1879 34.3725 42.568 33.5029 43.1895 32.8846C43.3303 32.7311 43.5561 32.591 43.7394 32.5065L43.726 32.4776C43.4019 32.5065 43.0486 32.5198 42.8385 32.5198H42.0359C41.98 32.5198 41.9375 32.4776 41.9375 32.422V31.0764C41.9375 31.0052 41.98 30.9785 42.0359 30.9785H46.5474C49.0424 30.9785 50.8913 32.7467 50.8913 35.2021C50.8913 37.6574 49.0581 39.5368 46.5474 39.5368C44.0368 39.5368 42.1901 37.742 42.1901 35.2866L42.1879 35.2844ZM49.3375 35.2421C49.3375 33.6986 48.0833 32.4509 46.5318 32.4509C44.9802 32.4509 43.7126 33.6986 43.7126 35.2421C43.7126 36.7856 44.9668 38.0467 46.5318 38.0467C48.0968 38.0467 49.3375 36.799 49.3375 35.2421V35.2421Z" fill="var(--fill-0, #363738)"/>
<g id="Group_2">
<path id="Vector_17" d="M26.2012 17.597H17.6274C17.5715 17.597 17.5156 17.6259 17.5156 17.6948V19.0271C17.5156 19.0827 17.5715 19.1383 17.6274 19.1383H24.4663L21.7298 25.7037C21.6874 25.8016 21.7433 25.8861 21.8439 25.8861H23.2389C23.3239 25.8861 23.3932 25.8439 23.4222 25.7593L26.2414 19.0271C26.2705 18.9292 26.2973 18.858 26.2973 18.8158V17.6926C26.2973 17.6214 26.2548 17.5948 26.1989 17.5948L26.2012 17.597Z" fill="var(--fill-0, #363738)"/>
<path id="Vector_18" d="M18.1797 21.0117V28.4846C18.1797 28.538 18.2244 28.5825 18.2781 28.5825H19.6597C19.7312 28.5825 19.7715 28.5402 19.7715 28.4846V21.0117C19.7715 20.945 19.7178 20.8916 19.6508 20.8916H18.3004C18.2333 20.8916 18.1797 20.945 18.1797 21.0117V21.0117Z" fill="var(--fill-0, #363738)"/>
</g>
</g>
</g>
</svg>

