<svg preserveAspectRatio="xMidYMid meet" width="100%" height="100%" overflow="visible" style="display: block;" viewBox="0 0 107 40" fill="none" xmlns="http://www.w3.org/2000/svg">
<g id="Group 427321006">
<g id="Group">
<path id="Vector" d="M47.6783 6.43514C49.4192 6.43514 50.8332 4.99523 50.8332 3.21757C50.8332 1.43991 49.4214 0 47.6783 0C45.9353 0 44.5234 1.43991 44.5234 3.21757C44.5234 4.99523 45.9353 6.43514 47.6783 6.43514Z" fill="var(--fill-0, #363738)"/>
<path id="Vector_2" d="M37.2252 6.43514C38.9661 6.43514 40.3801 4.99523 40.3801 3.21757C40.3801 1.43991 38.9683 0 37.2252 0C35.4822 0 34.0703 1.43991 34.0703 3.21757C34.0703 4.99523 35.4822 6.43514 37.2252 6.43514Z" fill="var(--fill-0, #363738)"/>
<path id="Vector_3" d="M58.1237 6.43514C59.8645 6.43514 61.2786 4.99523 61.2786 3.21757C61.2786 1.43991 59.8667 0 58.1237 0C56.3806 0 54.9688 1.43991 54.9688 3.21757C54.9688 4.99523 56.3806 6.43514 58.1237 6.43514Z" fill="var(--fill-0, #363738)"/>
<path id="Vector_4" d="M68.569 6.43514C70.3098 6.43514 71.7239 4.99523 71.7239 3.21757C71.7239 1.43991 70.312 0 68.569 0C66.8259 0 65.4141 1.43991 65.4141 3.21757C65.4141 4.99523 66.8259 6.43514 68.569 6.43514Z" fill="var(--fill-0, #363738)"/>
<path id="Vector_5" d="M44.9844 31.8562C44.8646 33.3538 44.0563 34.1092 42.5552 34.1226H42.516C40.8973 34.1226 40.0869 33.2338 40.0869 31.4563V11.0836H34.4529V31.4563C34.4529 36.9622 37.1479 39.7173 42.5356 39.7173C44.7382 39.7173 46.4986 39.2552 47.8123 38.3331C49.1129 39.2552 50.8646 39.7173 53.0672 39.7173C58.4702 39.7173 61.1695 36.9644 61.1695 31.4563V11.0836H55.5356V31.4563C55.5356 33.2205 54.7186 34.1092 53.0868 34.1226H53.0476C51.5617 34.1226 50.7578 33.3671 50.638 31.8562V11.0836H44.9844V31.8584V31.8562Z" fill="var(--fill-0, #363738)"/>
</g>
<path id="Vector_6" d="M71.4259 11.0835H65.8203V39.0151H71.4259V11.0835Z" fill="var(--fill-0, #363738)"/>
<g id="Group_2">
<path id="Vector_7" d="M17.6799 22.3418V18.8579C17.6799 16.8959 19.2289 15.4939 21.3226 15.4939C23.4163 15.4939 24.9631 16.8959 24.9631 18.8579V22.3418H17.6799ZM24.9631 30.8629V31.7916C24.9631 33.7558 23.4141 35.1578 21.3226 35.1578C19.2311 35.1578 17.6799 33.7558 17.6799 31.7916V27.39H30.3596V18.5735C30.3596 14.0163 26.3574 10.7212 21.3204 10.7212C16.2834 10.7212 12.2812 14.0163 12.2812 18.5735V31.7916C12.2812 36.3488 16.2834 39.7127 21.3204 39.7127C26.3574 39.7127 30.3596 36.3488 30.3596 31.7916V30.8629H24.9631Z" fill="var(--fill-0, #363738)"/>
<path id="Vector_8" d="M93.6309 22.3418V18.8579C93.6309 16.8959 95.1799 15.4939 97.2713 15.4939C99.3628 15.4939 100.912 16.8959 100.912 18.8579V22.3418H93.6287H93.6309ZM100.914 30.8629V31.7916C100.914 33.7558 99.365 35.1578 97.2735 35.1578C95.182 35.1578 93.633 33.7558 93.633 31.7916V27.39H106.313V18.5735C106.313 14.0163 102.311 10.7212 97.2735 10.7212C92.2365 10.7212 88.2344 14.0163 88.2344 18.5735V31.7916C88.2344 36.3488 92.2365 39.7127 97.2735 39.7127C102.311 39.7127 106.313 36.3488 106.313 31.7916V30.8629H100.916H100.914Z" fill="var(--fill-0, #363738)"/>
<path id="Vector_9" d="M0 39.0153H5.67534V19.1248C5.67534 17.3117 6.49015 16.4051 8.12195 16.4051H9.81693V10.6993H8.14156C2.71458 10.6971 0 13.5078 0 19.1248V39.0153Z" fill="var(--fill-0, #363738)"/>
<path id="Vector_10" d="M76.3594 39.0153H82.0347V19.1248C82.0347 17.3117 82.8495 16.4051 84.4813 16.4051H86.1763V10.6993H84.5009C79.0718 10.6993 76.3594 13.5078 76.3594 19.127V39.0175V39.0153Z" fill="var(--fill-0, #363738)"/>
</g>
</g>
</svg>

