<svg preserveAspectRatio="xMidYMid meet" width="100%" height="100%" overflow="visible" style="display: block;" viewBox="0 0 159 38" fill="none" xmlns="http://www.w3.org/2000/svg">
<g id="Group">
<path id="Vector" d="M61.242 10.9755C61.3246 10.9755 61.3875 11.0427 61.3875 11.1196V24.9459C61.3875 29.8063 57.5122 31.7845 53.6634 31.7845C50.5222 31.7845 47.8588 30.6366 46.513 28.3603C46.4717 28.2899 46.4982 28.1982 46.5692 28.1573L50.3734 25.9711C50.4412 25.9334 50.5272 25.953 50.5668 26.0185C51.2083 26.9716 52.0796 27.5628 53.6039 27.5628C55.2472 27.5628 56.5698 26.7473 56.5698 24.9443V23.6735C56.5698 23.6293 56.5136 23.6113 56.4872 23.644C55.358 24.9443 53.6584 25.5944 51.2959 25.2652C48.9334 24.9361 46.8503 23.2968 46.027 21.0402C44.1042 15.7671 47.3678 10.5596 52.4582 10.5596C54.2239 10.5596 55.5514 11.1917 56.4855 12.266C56.5153 12.2987 56.5682 12.2807 56.5682 12.2365V11.1131C56.5682 11.0312 56.636 10.969 56.7137 10.969H61.237L61.2403 10.9722L61.242 10.9755ZM56.5715 17.9632C56.5715 16.2159 55.3084 14.9352 53.4567 14.9352C51.6051 14.9352 50.3453 16.2175 50.3453 17.9632C50.3453 19.7089 51.6084 20.9911 53.4567 20.9911C55.3051 20.9911 56.5715 19.7105 56.5715 17.9632Z" fill="var(--fill-0, #363738)"/>
<path id="Vector_2" d="M71.2531 21.8029C72.2699 21.8029 73.1494 21.4819 73.8422 20.8613C73.8901 20.817 73.9645 20.8089 74.0207 20.8498L77.319 23.1392C77.3901 23.1867 77.4049 23.2915 77.3487 23.357C75.8806 25.1043 73.6901 25.9378 71.1374 25.9378C66.0553 25.9378 62.9141 22.5922 62.9141 18.282C62.9141 13.6509 66.5513 10.1644 71.5772 10.605C75.1069 10.9145 78.1175 14.1864 78.2878 17.6958C78.3258 18.4933 78.2878 19.2204 78.1059 19.9884C78.1026 20.0113 78.0795 20.0294 78.058 20.0294H67.9631C68.5517 21.4246 69.8413 21.8062 71.2531 21.8062V21.8029ZM73.4404 16.6805C73.4884 16.6805 73.5264 16.6281 73.5115 16.5806C73.0502 15.1444 71.9277 14.6416 70.7803 14.6416C69.4048 14.6416 68.3665 15.3065 67.9334 16.5806C67.9185 16.6281 67.9565 16.6805 68.0045 16.6805H73.4404Z" fill="var(--fill-0, #363738)"/>
<path id="Vector_3" d="M86.2058 15.6035C86.1232 15.6035 86.0604 15.6707 86.0604 15.7477V19.8204C86.0604 21.1501 87.0887 21.2713 88.9552 21.1681C89.0412 21.1648 89.1123 21.2304 89.1123 21.3122V25.3931C89.1123 25.4668 89.0528 25.5307 88.9784 25.5405C83.0911 26.2234 81.1832 24.3844 81.1832 19.935V15.7427C81.1832 15.6609 81.1171 15.5986 81.0377 15.5986H79.1299C79.0472 15.5986 78.9844 15.5315 78.9844 15.4545V11.1149C78.9844 11.033 79.0522 10.9708 79.1299 10.9708H81.0377C81.1204 10.9708 81.1832 10.9036 81.1832 10.8267V8.45868C81.1832 8.39645 81.2246 8.3375 81.2874 8.31784L85.8702 6.95208C85.9628 6.92261 86.0604 6.99302 86.0604 7.09292V10.8267C86.0604 10.9085 86.1281 10.9708 86.2058 10.9708H88.9668C89.0495 10.9708 89.1123 11.0379 89.1123 11.1149V15.4545C89.1123 15.5364 89.0445 15.5986 88.9668 15.5986H86.2058V15.6019V15.6035Z" fill="var(--fill-0, #363738)"/>
<path id="Vector_4" d="M138.221 15.6035C138.14 15.6035 138.076 15.6707 138.076 15.7477V19.8204C138.076 21.1501 139.104 21.2713 140.971 21.1681C141.057 21.1648 141.128 21.2304 141.128 21.3122V25.3931C141.128 25.4668 141.068 25.5307 140.994 25.5405C135.107 26.2234 133.199 24.3844 133.199 19.935V15.7427C133.199 15.6609 133.131 15.5986 133.053 15.5986H131.145C131.063 15.5986 131 15.5315 131 15.4545V11.1149C131 11.033 131.068 10.9708 131.145 10.9708H133.053C133.136 10.9708 133.199 10.9036 133.199 10.8267V8.45868C133.199 8.39645 133.24 8.3375 133.303 8.31784L137.886 6.95208C137.978 6.92261 138.076 6.99302 138.076 7.09292V10.8267C138.076 10.9085 138.144 10.9708 138.221 10.9708H140.982C141.065 10.9708 141.128 11.0379 141.128 11.1149V15.4545C141.128 15.5364 141.06 15.5986 140.982 15.5986H138.221V15.6019V15.6035Z" fill="var(--fill-0, #363738)"/>
<path id="Vector_5" d="M113.961 16.6219V25.3848C113.961 25.4666 113.893 25.5289 113.816 25.5289H109.206C109.124 25.5289 109.061 25.4617 109.061 25.3848V17.1755C109.061 15.9227 108.472 15.1366 107.239 15.1366C105.86 15.1366 105.212 16.1258 105.212 17.5816V25.3815C105.212 25.4634 105.144 25.5256 105.067 25.5256H100.484C100.403 25.5256 100.338 25.4585 100.338 25.3815V17.1722C100.338 15.9211 99.72 15.1334 98.4867 15.1334C97.1343 15.1334 96.4598 16.1225 96.4598 17.5783V25.3782C96.4598 25.4601 96.3936 25.5223 96.3143 25.5223H91.7314C91.6504 25.5223 91.5859 25.4552 91.5859 25.3782V11.1196C91.5859 11.0377 91.6537 10.9755 91.7314 10.9755H96.3143C96.397 10.9755 96.4598 11.0426 96.4598 11.1196V11.696C96.4598 11.9138 96.7243 12.017 96.8814 11.8614C97.6832 11.0787 98.8487 10.5645 100.424 10.5645C102.083 10.5645 103.283 11.1769 104.08 12.2741C104.136 12.3511 104.243 12.356 104.308 12.2856C105.214 11.2555 106.507 10.5645 108.448 10.5645C111.824 10.5645 113.97 12.8358 113.97 16.6203H113.963L113.961 16.6219Z" fill="var(--fill-0, #363738)"/>
<path id="Vector_6" d="M115.312 18.2549C115.312 13.894 118.849 10.5336 123.227 10.5696C127.605 10.6073 131.179 14.2853 130.989 18.6086C130.807 22.7747 127.411 25.9385 123.156 25.9385C118.9 25.9385 115.312 22.5929 115.312 18.2533V18.2549ZM126.123 18.2549C126.123 16.4486 124.86 15.227 123.157 15.227C121.454 15.227 120.221 16.4486 120.221 18.2549C120.221 20.0612 121.484 21.2828 123.157 21.2828C124.83 21.2828 126.123 20.0612 126.123 18.2549Z" fill="var(--fill-0, #363738)"/>
<path id="Vector_7" d="M142.836 18.2549C142.836 13.894 146.372 10.5336 150.75 10.5696C155.118 10.6073 158.702 14.2853 158.512 18.6086C158.33 22.7747 154.935 25.9385 150.679 25.9385C146.424 25.9385 142.839 22.5929 142.839 18.2533H142.836V18.2549ZM153.647 18.2549C153.647 16.4486 152.384 15.227 150.681 15.227C148.978 15.227 147.744 16.4486 147.744 18.2549C147.744 20.0612 149.008 21.2828 150.681 21.2828C152.354 21.2828 153.647 20.0612 153.647 18.2549Z" fill="var(--fill-0, #363738)"/>
<path id="Vector_8" d="M19.0043 0C8.50771 0 0 8.43201 0 18.8341C0 29.2361 8.50771 37.6681 19.0043 37.6681C29.5009 37.6681 38.0086 29.2361 38.0086 18.8341C38.0086 8.43201 29.4992 0 19.0043 0ZM21.4792 30.4119C21.4792 31.7416 20.3914 32.8192 19.0489 32.8192H18.9563C17.6139 32.8192 16.526 31.7416 16.526 30.4119V22.7709C16.526 21.4411 17.6139 20.3636 18.9563 20.3636H19.0489C20.3914 20.3636 21.4792 21.4411 21.4792 22.7709V30.4119ZM29.729 10.027C27.4078 12.2804 24.5378 13.6494 21.5503 14.144C21.3866 14.1734 21.3751 14.3945 21.5354 14.4436C22.8911 14.835 24.1393 15.5408 25.1908 16.5267C25.2503 16.5856 25.2503 16.6855 25.1908 16.7478L22.21 19.7642C22.1538 19.8199 22.0612 19.8199 22.0017 19.7642C21.1783 19.0191 20.1384 18.6081 19.0026 18.6081C17.8668 18.6081 16.7972 19.0289 15.9739 19.7937C15.911 19.8526 15.8168 19.8526 15.7573 19.7937L12.7467 16.8133C12.6839 16.7543 12.6839 16.6511 12.7467 16.5922C13.813 15.5736 15.0861 14.8449 16.4731 14.4469C16.6335 14.4027 16.6219 14.1767 16.4583 14.1522C13.4692 13.6576 10.6007 12.2869 8.27956 10.0352C8.22004 9.97627 8.21673 9.87638 8.27956 9.81415L11.2902 6.83044C11.3497 6.77148 11.4472 6.77148 11.5067 6.83044C15.6763 10.8442 22.3389 10.8442 26.5052 6.83044C26.5647 6.77148 26.6622 6.77148 26.7217 6.83044L29.7323 9.81415V9.80596C29.7952 9.86491 29.7952 9.96808 29.7323 10.027H29.729Z" fill="var(--fill-0, #363738)"/>
</g>
</svg>

