<svg preserveAspectRatio="xMidYMid meet" width="100%" height="100%" overflow="visible" style="display: block;" viewBox="0 0 90 42" fill="none" xmlns="http://www.w3.org/2000/svg">
<g id="Devidas Group">
<path id="Vector" d="M1.24219 0H5.76575C8.1778 0.0228923 10.4203 0.404431 12.3546 1.93822C14.2657 3.48726 15.4217 5.8757 15.4217 8.27939C15.4217 10.6831 14.3967 12.8884 12.6705 14.4679C10.6746 16.2688 8.47064 16.6275 5.87364 16.6275H1.24219V0ZM5.0799 15.1166C7.307 15.0937 9.27979 15.0479 11.1447 13.5828C12.8247 12.2779 13.7109 10.3855 13.734 8.27176C13.7109 6.11225 12.8478 4.35717 11.1216 3.00652C9.27979 1.5872 7.307 1.47274 5.0799 1.49563H2.92215V15.1166H5.0799Z" fill="var(--fill-0, #363738)"/>
<path id="Vector_2" d="M19.1175 11.0638C19.2099 13.4064 21.5064 15.3141 23.7951 15.3141C25.6369 15.3141 27.5018 14.2992 28.2493 12.6128H29.9987C29.1356 15.0852 26.5925 16.9089 23.957 16.9089C20.3196 16.9089 17.4375 14.0779 17.4375 10.4762C17.4375 6.87447 20.2965 4.04346 23.9107 4.04346C25.8681 4.04346 27.656 4.921 28.9121 6.43189C30.068 7.85121 30.3223 9.2858 30.3686 11.0638H19.1252H19.1175ZM28.6809 9.55288C28.2493 7.37047 26.2303 5.63829 23.9339 5.63829C21.6374 5.63829 19.5259 7.27891 19.1175 9.55288H28.6809Z" fill="var(--fill-0, #363738)"/>
<path id="Vector_3" d="M31.4922 4.31836H33.3108L37.6031 14.5129L41.8954 4.31836H43.714L38.4662 16.6266H36.7169L31.4922 4.31836Z" fill="var(--fill-0, #363738)"/>
<path id="Vector_4" d="M45.875 0H47.555V2.83102H45.875V0V0ZM45.875 4.31902H47.555V16.6275H45.875V4.31902Z" fill="var(--fill-0, #363738)"/>
<path id="Vector_5" d="M63.6699 16.6275H62.0824V14.3764C60.834 16.1086 59.2234 16.9174 57.0579 16.9174C55.2624 16.9174 53.6055 16.2001 51.8562 14.3764C51.2397 13.8575 50.4922 12.2398 50.4922 10.4389C50.4922 6.7685 53.5593 4.05194 57.1735 4.05194C59.0384 4.05194 60.965 4.8608 61.9899 6.46326V0H63.6699V16.6275V16.6275ZM57.0579 5.64677C54.4224 5.64677 52.1722 7.76049 52.1722 10.416C52.1722 13.0715 54.3761 15.3226 57.1041 15.3226C59.8321 15.3226 62.0361 13.1173 62.0361 10.416C62.0361 7.71471 59.7628 5.64677 57.0579 5.64677Z" fill="var(--fill-0, #363738)"/>
<path id="Vector_6" d="M79.733 16.6273H78.1224V14.3075C77.1668 16.0397 75.2634 16.9172 73.306 16.9172C71.3486 16.9172 69.422 16.1084 67.8269 14.3075C67.3722 13.8115 66.6016 12.2625 66.6016 10.3929C66.6016 8.75231 67.4415 7.06591 67.8962 6.66148C69.7842 4.66222 71.5336 4.05176 73.2597 4.05176C75.2171 4.05176 77.1899 4.9064 78.1224 6.66148V4.31884H79.733V16.6273ZM68.2815 10.5303C68.2815 13.2316 70.6473 15.3224 73.306 15.3224C75.9646 15.3224 78.1224 13.1171 78.1224 10.5532C78.1224 7.82899 76.034 5.64659 73.2597 5.64659C70.4855 5.64659 68.2815 7.8061 68.2815 10.5303Z" fill="var(--fill-0, #363738)"/>
<path id="Vector_7" d="M83.8024 13.002C83.7562 14.2611 84.7811 15.3217 86.0526 15.3217C87.2548 15.3217 88.2335 14.49 88.2335 13.2767C88.2335 11.7887 87.0544 11.2545 85.8214 10.9112C85.0277 10.667 84.1877 10.4152 83.5712 9.82758C82.9162 9.24001 82.5694 8.36247 82.5694 7.48494C82.5694 5.48567 84.2031 4.04346 86.1605 4.04346C88.1179 4.04346 89.5898 5.57724 89.5898 7.37047H87.9098C87.9098 6.2869 87.0698 5.63829 85.9756 5.63829C85.02 5.63829 84.2494 6.40137 84.2494 7.34758C84.2494 8.69823 85.3436 9.05687 86.4302 9.39263C88.2951 9.9802 89.9057 10.7662 89.9057 12.9944C89.9057 15.2225 88.2027 16.9089 85.8831 16.9089C83.7716 16.9089 81.9991 15.0852 82.1147 12.9944H83.7947L83.8024 13.002Z" fill="var(--fill-0, #363738)"/>
<path id="Vector_8" d="M17.8862 29.058C17.5702 33.6288 13.5244 37.0245 9.00088 37.0245C4.16137 37.0245 0 33.2015 0 28.3407C0 26.1354 1.02493 23.9072 2.5893 22.3811C4.33861 20.6718 6.58884 19.84 8.99318 19.84C10.7425 19.84 12.4687 20.3131 13.9252 21.2593C15.0195 21.9766 16.422 23.2586 16.8535 24.5406H14.9424C13.7633 22.5795 11.3282 21.4348 8.99318 21.4348C7.19763 21.4348 5.37895 22.0453 3.99183 23.3044C2.60471 24.5635 1.67226 26.4788 1.67226 28.3636C1.67226 32.4155 5.05529 35.4297 9.05483 35.4297C12.0526 35.4297 15.004 33.4686 15.8517 30.5689H6.46553V29.058H17.8708H17.8862Z" fill="var(--fill-0, #363738)"/>
<path id="Vector_9" d="M20.5859 24.4272H22.1734V26.2052C22.8285 24.7401 24.2618 24.2059 25.7876 24.1602V25.8008C24.8783 25.8695 24.2387 26.0679 23.5374 26.6554C22.3815 27.6245 22.2659 28.4563 22.2659 29.8527V36.7357H20.5859V24.4272V24.4272Z" fill="var(--fill-0, #363738)"/>
<path id="Vector_10" d="M40.1805 30.5013C40.1805 34.0115 37.3215 37.0256 33.7304 37.0256C30.1393 37.0256 27.2109 34.1946 27.2109 30.6616C27.2109 27.1285 30.0931 24.1602 33.7304 24.1602C37.3678 24.1602 40.1805 27.0827 40.1805 30.5013V30.5013ZM28.8909 30.6616C28.8909 33.2942 31.0718 35.4308 33.7304 35.4308C36.3891 35.4308 38.5006 33.1797 38.5006 30.5013C38.5006 29.1507 38.0459 28.0519 37.0441 27.1056C36.1579 26.2739 34.9557 25.755 33.7304 25.755C30.9793 25.755 28.8909 27.9832 28.8909 30.6616V30.6616Z" fill="var(--fill-0, #363738)"/>
<path id="Vector_11" d="M53.8568 36.7279H52.2693V34.8125C51.4525 36.3845 49.8804 37.0178 48.1542 37.0178C46.5667 37.0178 45.2027 36.4532 43.7925 34.8125C43.045 34.0266 42.9062 32.5386 42.9062 30.9209V24.4194H44.5862V30.9209C44.5862 31.8671 44.6324 32.8133 45.1334 33.645C45.8115 34.8125 47.0214 35.423 48.3854 35.423C49.5876 35.423 50.705 34.8812 51.4293 33.9121C52.069 33.0346 52.1768 31.9739 52.1768 30.9209V24.4194H53.8568V36.7279Z" fill="var(--fill-0, #363738)"/>
<path id="Vector_12" d="M58.65 24.4261V26.5398C59.6287 24.945 61.8095 24.1514 63.6051 24.1514C65.4007 24.1514 67.1037 24.8458 68.6912 26.5398C69.4387 27.2113 70.1708 28.8367 70.1708 30.6375C70.1708 34.3079 67.0575 37.0245 63.4433 37.0245C61.6015 37.0245 59.5593 36.1469 58.7425 34.4376V41.0535H57.0625V24.4261H58.65ZM68.4908 30.6146C68.4908 27.9362 66.31 25.7538 63.6051 25.7538C60.9002 25.7538 58.6269 27.7531 58.6269 30.4773C58.6269 31.8279 58.9659 32.9496 59.9446 33.9188C60.8771 34.8879 62.1486 35.4296 63.4895 35.4296C66.2638 35.4296 68.4908 33.3846 68.4908 30.6146V30.6146Z" fill="var(--fill-0, #363738)"/>
</g>
</svg>

