<svg preserveAspectRatio="none" width="100%" height="100%" overflow="visible" style="display: block;" viewBox="0 0 116 53" fill="none" xmlns="http://www.w3.org/2000/svg">
<path id="Vector" d="M115.276 52.5366H89.7903C89.6366 52.5366 89.5054 52.4246 89.4861 52.271C89.4093 51.6979 89.3196 51.1248 89.1852 50.523V50.4334C88.8682 48.6471 87.7638 43.5954 84.0119 40.3813L83.7526 40.314C77.971 41.5113 71.5684 41.6778 64.5767 40.8327C64.3174 40.8007 64.2022 40.4869 64.3814 40.2948C66.1966 38.3868 67.7557 36.1939 68.8313 33.8922C69.1482 33.2423 68.2871 32.6341 67.7877 33.1815C65.3035 35.9218 60.0789 38.6942 56.3974 39.6034C48.8551 41.4505 42.0235 41.7226 35.6946 40.9351C35.4961 40.9063 35.3776 40.6758 35.4673 40.4805C36.7542 37.9195 38.2684 35.8162 40.0547 34.0907C40.5701 33.5753 39.9331 32.7429 39.296 33.0759C36.7222 34.3948 34.2988 36.3028 32.314 38.5117C30.9662 40.026 29.8137 41.6618 28.9526 43.3745C27.1951 46.1757 26.606 49.3257 26.3948 50.523H26.3787C26.2443 51.1248 26.1515 51.6979 26.0778 52.271C26.0586 52.4246 25.9274 52.5366 25.7737 52.5366H0.0128052C-0.0160065 51.8707 0.0128052 50.4622 0.0128052 50.4622C0.0288118 49.2201 0.3297 41.6489 4.29932 33.3928C4.9812 32.061 5.66309 30.7742 6.38978 29.6057C6.40579 29.5897 6.41856 29.5609 6.43457 29.5449C6.79952 28.9398 7.19329 28.3635 7.57105 27.8033C7.81435 27.4704 8.07047 27.1375 8.31377 26.7885C8.49625 26.5612 8.67869 26.3659 8.84516 26.1386H8.86118C10.9356 23.472 13.1926 21.2918 15.6928 19.5503C16.3299 19.0957 15.8432 18.097 15.1166 18.3403C12.1617 19.2655 9.23894 20.7349 6.54344 22.566C6.39298 22.6556 6.17852 22.6108 6.08888 22.4603C1.27411 14.4475 0.243252 6.40581 0.0447714 3.27173C0.0319662 3.08605 0.0192016 1.20047 0.00639636 0.300904C0.00639636 0.131235 0.140836 0 0.310505 0H25.7929C25.9402 0 26.0778 0.118395 26.0971 0.265655C26.1739 0.838689 26.2635 1.41179 26.398 2.01363V2.11922C26.7149 3.89275 27.8225 8.96686 31.5937 12.1618L31.8338 12.2226C37.6153 11.0253 44.0179 10.8588 51.0096 11.7199C51.2721 11.752 51.3842 12.0689 51.2017 12.2578C49.3769 14.1594 47.8403 16.3491 46.7551 18.6412C46.451 19.3071 47.2993 19.8993 47.7987 19.3519C50.2829 16.6116 55.5074 13.8392 59.1889 12.93C66.7472 11.0829 73.5628 10.8108 79.8918 11.5983C80.1031 11.6271 80.2248 11.8704 80.1191 12.0529C78.8482 14.6267 77.318 16.7172 75.5444 18.4587C75.013 18.9581 75.65 19.7905 76.3031 19.4576C78.8641 18.1386 81.2844 16.2306 83.2852 14.0217C84.6329 12.5235 85.7694 10.8716 86.6305 9.17492C87.5077 7.76634 88.0999 6.28091 88.4937 4.98117C88.8875 3.69425 89.0859 2.61868 89.2044 2.01363C89.342 1.40219 89.4317 0.822739 89.5245 0.243302C89.5469 0.102445 89.6686 0 89.8095 0H115.266C115.433 0 115.57 0.124826 115.57 0.294495C115.567 4.2161 115.167 11.0957 111.284 19.1438C110.618 20.4916 109.92 21.7624 109.193 22.9309C109.177 22.9597 109.165 22.9757 109.149 23.0078C108.784 23.5968 108.406 24.1731 108.012 24.7333C107.769 25.0662 107.529 25.4152 107.269 25.7481C107.103 25.9754 106.92 26.1867 106.738 26.414H106.722C104.66 29.0647 102.403 31.2479 99.8872 33.0054C99.2501 33.4504 99.7239 34.4492 100.463 34.2155C103.421 33.2776 106.347 31.821 109.046 29.9834C109.197 29.881 109.401 29.9258 109.494 30.0827C115.02 39.2544 115.554 48.8167 115.58 52.2453C115.58 52.415 115.445 52.5366 115.276 52.5366Z" fill="var(--fill-0, #EDEFF0)"/>
</svg>
