<svg width="100" height="13" viewBox="0 0 100 13" fill="none" xmlns="http://www.w3.org/2000/svg">
<path d="M0 11.9335V0.102041C0 0.102041 0.0350758 0.0199223 0.0821192 0.0199223H2.58733C2.58733 0.0199223 2.66973 0.054998 2.66973 0.102041V4.64157C2.66973 4.64157 2.70481 4.72426 2.75185 4.72426H8.37357C8.37357 4.72426 8.45598 4.68861 8.45598 4.64157V0.102041C8.45598 0.102041 8.49134 0.0199223 8.53838 0.0199223H11.0433C11.0433 0.0199223 11.1257 0.054998 11.1257 0.102041V11.9335C11.1257 11.9335 11.0903 12.0156 11.0433 12.0156H8.53838C8.53838 12.0156 8.45598 11.9806 8.45598 11.9335V7.20564C8.45598 7.20564 8.42061 7.12352 8.37357 7.12352H2.75185C2.75185 7.12352 2.66973 7.15859 2.66973 7.20564V11.9335C2.66973 11.9335 2.63437 12.0156 2.58733 12.0156H0.0821192C0.0821192 12.0156 0 11.9806 0 11.9335Z" fill="#2B2D2C"/>
<path d="M23.557 11.9335V7.08791C23.557 7.08791 23.557 7.05258 23.5452 7.04082L19.0996 0.149131C19.0996 0.149131 19.0994 0.0199223 19.17 0.0199223H22.0516C22.0516 0.0199223 22.1102 0.0314304 22.1219 0.0549521L24.8152 4.40669C24.8152 4.40669 24.933 4.4655 24.9565 4.40669L27.6848 0.0549521C27.6848 0.0549521 27.7319 0.0199223 27.7554 0.0199223H30.6368C30.7073 0.0199223 30.7427 0.0903265 30.7074 0.149131L26.2265 7.04082C26.2265 7.04082 26.2147 7.07615 26.2147 7.08791V11.9335C26.2147 11.9335 26.1796 12.0156 26.1326 12.0156H23.6274C23.6274 12.0156 23.5452 11.9806 23.5452 11.9335H23.557Z" fill="#2B2D2C"/>
<path d="M38.7891 11.9335V0.102041C38.7891 0.102041 38.8241 0.0199223 38.8712 0.0199223H44.6695C46.9511 0.0199223 48.5271 1.26641 48.5271 3.08934C48.5271 4.39479 47.6566 5.40627 46.3394 5.78262C46.2571 5.80614 46.2571 5.92391 46.3394 5.94743C47.8448 6.26498 48.774 7.33482 48.774 8.7814C48.774 10.6984 47.1273 12.0156 44.7516 12.0156H38.8712C38.8712 12.0156 38.7891 11.9806 38.7891 11.9335ZM41.4588 4.70071C41.4588 4.70071 41.4939 4.78283 41.5409 4.78283H44.6224C45.3751 4.78283 45.9044 4.28886 45.9044 3.5832C45.9044 2.87755 45.4104 2.38358 44.693 2.38358H41.5409C41.5409 2.38358 41.4588 2.41865 41.4588 2.46569V4.70071ZM41.4588 9.56929C41.4588 9.56929 41.4939 9.65198 41.5409 9.65198H44.7987C45.6337 9.65198 46.069 9.01651 46.069 8.36966C46.069 7.72281 45.6222 7.06437 44.7166 7.06437H41.5409C41.5409 7.06437 41.4588 7.09944 41.4588 7.14649V9.56929Z" fill="#2B2D2C"/>
<path d="M57.9336 11.9335V0.102041C57.9336 0.102041 57.9687 0.0199223 58.0157 0.0199223H64.2019C66.4953 0.0199223 68.0948 1.44294 68.0948 3.50109C68.0948 4.93591 67.0953 6.08856 65.5664 6.53547C65.484 6.559 65.484 6.67619 65.5664 6.69971C66.3308 6.91141 66.907 7.42918 67.201 8.18188L68.6005 11.91C68.6005 11.91 68.5772 12.0277 68.5184 12.0277H65.8604C65.8604 12.0277 65.7897 12.0038 65.778 11.9685L64.5666 8.61659C64.4137 8.16968 64.0139 7.93495 63.4847 7.93495H60.6854C60.6854 7.93495 60.6033 7.97002 60.6033 8.01706V11.945C60.6033 11.945 60.568 12.0277 60.5209 12.0277H58.0157C58.0157 12.0277 57.9336 11.992 57.9336 11.945V11.9335ZM60.6033 5.51214C60.6033 5.51214 60.6384 5.59426 60.6854 5.59426H63.9197C64.9429 5.59426 65.4604 4.78292 65.4604 3.99495C65.4604 3.20697 64.9429 2.39563 63.9197 2.39563H60.6854C60.6854 2.39563 60.6033 2.43071 60.6033 2.47775V5.50008V5.51214Z" fill="#2B2D2C"/>
<path d="M77.1387 11.9338V0.11376C77.1387 0.11376 77.174 0.031641 77.2211 0.031641H79.726C79.726 0.031641 79.8084 0.0667168 79.8084 0.11376V11.9338C79.8084 11.9338 79.773 12.0159 79.726 12.0159H77.2211C77.2211 12.0159 77.1387 11.9808 77.1387 11.9338Z" fill="#2B2D2C"/>
<path d="M89.3321 11.9338V0.196454C89.3321 0.102367 89.4025 0.031641 89.4966 0.031641H93.7424C97.4235 0.031641 99.9993 2.46618 99.9993 5.95915C99.9993 9.45212 97.4235 12.0279 93.7424 12.0279H89.4027C89.4027 12.0279 89.3203 11.9923 89.3203 11.9452L89.3321 11.9338ZM92.0018 9.54598C92.0018 9.54598 92.0369 9.62867 92.0839 9.62867H93.9305C95.8828 9.62867 97.2589 8.12342 97.2589 5.94767C97.2589 3.77191 95.8828 2.39587 93.9305 2.39587H92.0839C92.0839 2.39587 92.0018 2.43094 92.0018 2.47799V9.54598Z" fill="#2B2D2C"/>
</svg>
