<svg preserveAspectRatio="none" width="100%" height="100%" overflow="visible" style="display: block;" viewBox="0 0 193 17" fill="none" xmlns="http://www.w3.org/2000/svg">
<g id="logo">
<path id="Vector" d="M0 16.1953V0.814517C0 0.814517 0.0455981 0.707764 0.106754 0.707764H3.36349C3.36349 0.707764 3.47062 0.753362 3.47062 0.814517V6.71584C3.47062 6.71584 3.51622 6.82334 3.57737 6.82334H10.8855C10.8855 6.82334 10.9927 6.77699 10.9927 6.71584V0.814517C10.9927 0.814517 11.0386 0.707764 11.0998 0.707764H14.3561C14.3561 0.707764 14.4633 0.753362 14.4633 0.814517V16.1953C14.4633 16.1953 14.4173 16.302 14.3561 16.302H11.0998C11.0998 16.302 10.9927 16.2564 10.9927 16.1953V10.0491C10.9927 10.0491 10.9467 9.94234 10.8855 9.94234H3.57737C3.57737 9.94234 3.47062 9.98794 3.47062 10.0491V16.1953C3.47062 16.1953 3.42465 16.302 3.36349 16.302H0.106754C0.106754 16.302 0 16.2564 0 16.1953Z" fill="var(--fill-0, #EDEFF0)"/>
<path id="Vector_2" d="M30.6246 16.1953V9.89606C30.6246 9.89606 30.6246 9.85013 30.6093 9.83484L24.8301 0.875733C24.8301 0.875733 24.8298 0.707764 24.9215 0.707764H28.6676C28.6676 0.707764 28.7438 0.722724 28.7591 0.753302L32.2603 6.41051C32.2603 6.41051 32.4134 6.48695 32.4439 6.41051L35.9907 0.753302C35.9907 0.753302 36.0519 0.707764 36.0825 0.707764H39.8282C39.92 0.707764 39.9659 0.799288 39.9201 0.875733L34.0949 9.83484C34.0949 9.83484 34.0796 9.88077 34.0796 9.89606V16.1953C34.0796 16.1953 34.034 16.302 33.9728 16.302H30.7161C30.7161 16.302 30.6093 16.2564 30.6093 16.1953H30.6246Z" fill="var(--fill-0, #EDEFF0)"/>
<path id="Vector_3" d="M50.4258 16.1952V0.814395C50.4258 0.814395 50.4714 0.707642 50.5325 0.707642H58.0703C61.0363 0.707642 63.0851 2.32806 63.0851 4.69785C63.0851 6.39492 61.9535 7.70983 60.2412 8.19907C60.1341 8.22965 60.1341 8.38275 60.2412 8.41333C62.1981 8.82613 63.4061 10.2169 63.4061 12.0975C63.4061 14.5895 61.2654 16.3019 58.177 16.3019H50.5325C50.5325 16.3019 50.4258 16.2563 50.4258 16.1952ZM53.8964 6.79261C53.8964 6.79261 53.942 6.89936 54.0032 6.89936H58.009C58.9875 6.89936 59.6757 6.2572 59.6757 5.33986C59.6757 4.42252 59.0335 3.78036 58.1009 3.78036H54.0032C54.0032 3.78036 53.8964 3.82596 53.8964 3.88711V6.79261ZM53.8964 13.1217C53.8964 13.1217 53.942 13.2292 54.0032 13.2292H58.2382C59.3237 13.2292 59.8895 12.4031 59.8895 11.5622C59.8895 10.7213 59.3087 9.86533 58.1315 9.86533H54.0032C54.0032 9.86533 53.8964 9.91092 53.8964 9.97208V13.1217Z" fill="var(--fill-0, #EDEFF0)"/>
<path id="Vector_4" d="M75.3125 16.1953V0.814517C75.3125 0.814517 75.3581 0.707764 75.4193 0.707764H83.4612C86.4426 0.707764 88.522 2.55767 88.522 5.23323C88.522 7.09848 87.2226 8.59691 85.235 9.17789C85.128 9.20847 85.128 9.36082 85.235 9.3914C86.2288 9.6666 86.9778 10.3397 87.36 11.3182L89.1793 16.1647C89.1793 16.1647 89.149 16.3177 89.0725 16.3177H85.6172C85.6172 16.3177 85.5254 16.2867 85.5101 16.2408L83.9353 11.8833C83.7365 11.3023 83.2168 10.9972 82.5288 10.9972H78.8899C78.8899 10.9972 78.7831 11.0428 78.7831 11.1039V16.2102C78.7831 16.2102 78.7371 16.3177 78.676 16.3177H75.4193C75.4193 16.3177 75.3125 16.2714 75.3125 16.2102V16.1953ZM78.7831 7.84758C78.7831 7.84758 78.8287 7.95433 78.8899 7.95433H83.0943C84.4245 7.95433 85.0973 6.8996 85.0973 5.87524C85.0973 4.85089 84.4245 3.79616 83.0943 3.79616H78.8899C78.8899 3.79616 78.7831 3.84176 78.7831 3.90291V7.8319V7.84758Z" fill="var(--fill-0, #EDEFF0)"/>
<path id="Vector_5" d="M100.279 16.196V0.830142C100.279 0.830142 100.325 0.723389 100.386 0.723389H103.643C103.643 0.723389 103.75 0.768987 103.75 0.830142V16.196C103.75 16.196 103.704 16.3027 103.643 16.3027H100.386C100.386 16.3027 100.279 16.2571 100.279 16.196Z" fill="var(--fill-0, #EDEFF0)"/>
<path id="Vector_6" d="M116.132 16.196V0.937643C116.132 0.815331 116.224 0.723389 116.346 0.723389H121.866C126.651 0.723389 130 3.88826 130 8.42907C130 12.9699 126.651 16.3184 121.866 16.3184H116.224C116.224 16.3184 116.117 16.2721 116.117 16.2109L116.132 16.196ZM119.603 13.0919C119.603 13.0919 119.649 13.1994 119.71 13.1994H122.11C124.648 13.1994 126.437 11.2426 126.437 8.41414C126.437 5.58569 124.648 3.79685 122.11 3.79685H119.71C119.71 3.79685 119.603 3.84245 119.603 3.90361V13.0919Z" fill="var(--fill-0, #EDEFF0)"/>
</g>
</svg>
