<svg width="191" height="191" viewBox="0 0 191 191" fill="none" xmlns="http://www.w3.org/2000/svg">
<defs>
<style>
.spin-animation {
  animation: spin 20s linear infinite;
  transform-origin: center;
}
@keyframes spin {
  from { transform: rotate(0deg); }
  to { transform: rotate(360deg); }
}
</style>
</defs>
<path d="M122.048 107.86H110.253C110.181 107.86 110.122 107.807 110.113 107.736C110.078 107.471 110.036 107.206 109.973 106.928V106.886C109.826 106.06 109.315 103.721 107.579 102.235C107.537 102.224 107.5 102.215 107.458 102.203C104.783 102.757 101.82 102.834 98.5842 102.443C98.4636 102.429 98.4106 102.283 98.494 102.195C99.3348 101.313 100.055 100.298 100.553 99.2327C100.701 98.9318 100.301 98.6512 100.07 98.9037C98.9201 100.173 96.5025 101.455 94.7996 101.875C91.3092 102.731 88.149 102.857 85.2187 102.492C85.1274 102.478 85.0711 102.372 85.1139 102.281C85.7101 101.097 86.41 100.123 87.2372 99.324C87.475 99.0862 87.1809 98.6997 86.8867 98.8541C85.6954 99.4638 84.5741 100.347 83.6555 101.371C83.0323 102.072 82.4992 102.829 82.1002 103.62C81.2876 104.916 81.0138 106.374 80.9157 106.928H80.9089C80.8458 107.206 80.8041 107.471 80.7692 107.737C80.7602 107.808 80.7004 107.861 80.6283 107.861H68.7066C68.693 107.552 68.7066 106.9 68.7066 106.9C68.7133 106.326 68.8542 102.822 70.6902 99.0028C71.0057 98.3864 71.3213 97.7902 71.6572 97.2504C71.6639 97.2437 71.6707 97.229 71.6786 97.2223C71.8465 96.9417 72.0291 96.6757 72.2038 96.4165C72.3153 96.2621 72.4348 96.1077 72.5475 95.9465C72.632 95.8417 72.7154 95.7505 72.7932 95.6457H72.8C73.7602 94.4128 74.805 93.403 75.9613 92.5973C76.2554 92.3865 76.0311 91.9245 75.6953 92.036C74.3282 92.4632 72.9758 93.1438 71.7281 93.9913C71.6583 94.033 71.5602 94.0127 71.5174 93.9417C69.2881 90.234 68.8125 86.5128 68.7212 85.0625C68.7156 84.9757 68.7088 84.1046 68.7032 83.6887C68.7021 83.611 68.7652 83.549 68.8429 83.549H80.6362C80.705 83.549 80.7681 83.6042 80.7771 83.673C80.812 83.9378 80.8537 84.2026 80.9168 84.481V84.5305C81.0645 85.351 81.5762 87.6984 83.3208 89.177L83.4313 89.2051C86.1068 88.6518 89.0698 88.574 92.3043 88.973C92.4249 88.9876 92.4779 89.1341 92.3934 89.2221C91.5492 90.1022 90.8381 91.1153 90.3354 92.1758C90.1957 92.4846 90.5879 92.7573 90.8189 92.5048C91.9685 91.2359 94.386 89.9534 96.0889 89.5331C99.5861 88.6789 102.74 88.5515 105.67 88.9166C105.768 88.9301 105.824 89.0429 105.775 89.1274C105.186 90.3186 104.479 91.2855 103.658 92.0913C103.412 92.3223 103.708 92.7077 104.009 92.5533C105.193 91.9436 106.314 91.0612 107.24 90.038C107.863 89.3438 108.389 88.5797 108.788 87.7953C109.195 87.1439 109.468 86.4565 109.65 85.8536C109.833 85.2586 109.924 84.7605 109.98 84.4798C110.043 84.197 110.086 83.9288 110.127 83.6605C110.137 83.5952 110.194 83.5479 110.259 83.5479H122.04C122.118 83.5479 122.181 83.6064 122.181 83.6831C122.179 85.4986 121.995 88.6811 120.197 92.4057C119.888 93.03 119.566 93.6183 119.23 94.1581C119.223 94.1716 119.217 94.1795 119.209 94.193C119.041 94.4657 118.865 94.7328 118.684 94.992C118.571 95.1464 118.459 95.3076 118.34 95.462C118.263 95.5668 118.179 95.6648 118.094 95.7707H118.087C117.134 96.998 116.089 98.0077 114.925 98.8203C114.631 99.0254 114.849 99.4885 115.192 99.3804C116.56 98.9454 117.915 98.2714 119.164 97.4228C119.233 97.3755 119.328 97.3969 119.372 97.4679C121.93 101.713 122.176 106.136 122.189 107.724C122.189 107.802 122.126 107.86 122.048 107.86Z" fill="#363738"/>
<g class="spin-animation">
<path d="M50.6867 43.2226L40.7161 28.3853L55.3231 18.5693L56.9263 20.955L45.1235 28.8865L48.358 33.6998L58.9052 26.612L60.5084 28.9977L49.9611 36.0854L53.491 41.3381L50.6867 43.2226ZM77.4029 30.3377C69.9555 32.538 66.328 29.6924 64.7777 24.4453L62.1845 15.668L65.4246 14.7107L67.9893 23.3913C68.9109 26.5106 71.0755 29.2099 76.5885 27.5811C82.0774 25.9595 82.4203 22.4929 81.5059 19.3979L78.9413 10.7173L82.1814 9.75998L84.7746 18.5373C86.3249 23.7844 84.8262 28.1445 77.4029 30.3377ZM89.1622 12.0606L89.2568 9.18787L109.87 9.86646L109.775 12.7392L101.157 12.4555L100.664 27.4493L97.3121 27.3389L97.8057 12.3452L89.1622 12.0606ZM120.393 32.541C113.118 29.825 111.928 25.3708 113.842 20.245L117.043 11.6706L120.208 12.8522L117.042 21.3322C115.904 24.3793 116.013 27.8377 121.398 29.8482C126.76 31.8499 129.117 29.285 130.246 26.2615L133.412 17.7816L136.577 18.9632L133.376 27.5376C131.463 32.6634 127.645 35.2482 120.393 32.541ZM131.897 36.9856L143.234 23.164L153.819 31.8464C157.484 34.8525 158.064 37.6437 155.938 40.2365C154.435 42.069 152.417 42.5011 150.126 41.4375C151.755 42.8711 152.083 44.7377 150.74 46.3753L147.765 50.0013L145.173 47.8746L147.843 44.619C148.866 43.3714 148.674 42.3334 147.427 41.31L138.635 34.0986L134.509 39.1282L131.897 36.9856ZM140.393 31.9542L147.821 38.0463C149.926 39.7732 151.585 40.0573 152.96 38.3808C154.319 36.7238 153.636 35.2505 151.53 33.5236L144.103 27.4315L140.393 31.9542ZM149.077 51.8544L164.055 42.0963L173.662 56.8418L171.486 58.2595L163.724 46.3447L159.435 49.1387L166.922 60.6309L164.894 61.9522L157.407 50.4599L153.119 53.2539L160.881 65.1686L158.684 66.6L149.077 51.8544ZM164.069 84.8296L181.935 84.2155L182.378 97.1171C182.528 101.476 180.204 104.306 176.222 104.443C172.266 104.579 169.727 101.916 169.578 97.5571L169.25 88.0321L164.185 88.2061L164.069 84.8296ZM172.098 87.9342L172.401 96.7536C172.492 99.3995 173.608 101.051 176.103 100.966C178.597 100.88 179.572 99.1561 179.482 96.5103L179.178 87.6908L172.098 87.9342ZM164.196 106.43L181.377 111.366L177.597 124.525C176.288 129.08 173.955 130.719 170.732 129.793C168.454 129.138 167.258 127.457 167.328 124.932C166.656 126.995 165.072 128.036 163.037 127.451L158.529 126.156L159.455 122.933L163.502 124.096C165.053 124.541 165.93 123.954 166.376 122.403L169.515 111.474L163.263 109.677L164.196 106.43ZM172.181 112.239L169.529 121.472C168.777 124.089 169.173 125.725 171.257 126.323C173.317 126.915 174.399 125.704 175.151 123.087L177.803 113.854L172.181 112.239ZM150.338 136.468C154.549 130.584 160.269 129.004 164.923 132.335C169.557 135.651 169.865 141.546 165.653 147.43C161.456 153.294 155.757 154.889 151.144 151.587C146.49 148.256 146.141 142.332 150.338 136.468ZM162.883 135.185C159.705 132.91 155.698 133.917 152.675 138.141C149.667 142.344 150.011 146.498 153.169 148.758C156.306 151.003 160.313 149.995 163.336 145.772C166.359 141.548 166.02 137.43 162.883 135.185ZM132.51 153.211C138.524 149.186 144.434 149.721 147.617 154.477C150.786 159.213 148.999 164.838 142.986 168.863C136.993 172.874 131.097 172.36 127.942 167.645C124.758 162.889 126.517 157.222 132.51 153.211ZM144.704 156.427C142.531 153.179 138.425 152.711 134.109 155.6C129.813 158.474 128.674 162.483 130.833 165.71C132.979 168.916 137.085 169.384 141.401 166.495C145.717 163.607 146.85 159.633 144.704 156.427ZM121.353 160.517L126.018 177.774L109.029 182.367L108.279 179.592L122.006 175.881L120.493 170.283L108.226 173.599L107.476 170.824L119.743 167.508L118.092 161.399L121.353 160.517ZM85.3603 164.651L80.4915 181.852L67.5609 178.191C63.4609 177.031 62.4476 174.779 63.148 172.304C63.6837 170.412 65.1494 169.307 67.1855 169.15C65.1705 168.029 63.7672 166.321 64.4814 163.798C65.2848 160.96 67.6262 159.631 71.338 160.682L85.3603 164.651ZM81.4228 166.157L71.6702 163.396C69.6566 162.826 68.2724 163.273 67.7505 165.117C67.1874 167.106 68.5752 168.128 70.2006 168.588L79.9532 171.349L81.4228 166.157ZM79.3626 173.435L70.5805 170.949C68.8337 170.455 67.1094 170.622 66.5532 172.587C66.0587 174.333 67.0103 175.415 69.1452 176.019L77.9274 178.505L79.3626 173.435ZM64.8045 158.188L54.8253 173.02L43.4663 165.377C39.5335 162.731 38.692 160.007 40.564 157.225C41.887 155.259 43.8547 154.638 46.2357 155.48C44.4789 154.207 43.9762 152.379 45.1585 150.622L47.7764 146.731L50.5587 148.603L48.2081 152.097C47.3073 153.436 47.5967 154.451 48.9355 155.352L58.37 161.699L62.0013 156.302L64.8045 158.188ZM56.8217 164L48.8516 158.638C46.5924 157.118 44.9146 156.992 43.7041 158.791C42.5078 160.569 43.327 161.971 45.5862 163.491L53.5563 168.854L56.8217 164ZM47.1002 145.581L26.8461 148.323L24.284 144.887L32.7221 126.298L34.8773 129.189L32.914 133.389L40.3442 143.354L44.9299 142.671L47.1002 145.581ZM37.509 143.769L31.7066 135.987L27.3438 145.279L37.509 143.769ZM32.6882 125.088L15.5258 130.089L14.1362 125.32L24.5886 108.198L10.3552 112.346L9.41701 109.126L26.5793 104.125L27.9619 108.869L17.5096 125.992L31.7429 121.844L32.6882 125.088ZM26.5108 101.532L8.66065 100.566L9.28988 88.9344C9.5827 83.5214 13.5757 79.7227 18.7117 80.0005C23.8477 80.2784 27.4328 84.4871 27.14 89.9L26.5108 101.532ZM23.8231 98.0026L24.199 91.0539C24.4374 86.648 22.1995 83.6737 18.5238 83.4749C14.8732 83.2774 12.3275 85.9929 12.0892 90.3988L11.7133 97.3475L23.8231 98.0026ZM32.8732 69.4149C30.1577 76.1495 27.2374 79.077 22.6772 77.3742L23.9878 74.1238C26.6302 75.1893 28.5076 73.4996 30.5348 68.472C32.298 64.0993 32.3085 61.983 30.3209 61.1816C28.3567 60.3896 27.5292 61.6327 25.1841 66.5048L24.7368 67.4119C21.718 73.7524 19.4845 75.516 16.1172 74.1582C12.8201 72.8288 12.7088 69.0595 15.0566 63.2369C17.6023 56.9232 20.7553 54.4973 24.6514 55.9595L23.3502 59.1865C20.7546 58.1399 19.0261 60.1343 17.2912 64.437C15.6695 68.459 15.7114 70.243 17.4184 70.9313C19.3593 71.7138 20.3459 70.4805 22.5213 66.0293L22.9875 65.0754C25.775 59.3758 27.5533 56.314 31.5285 57.9169C35.457 59.5009 35.2398 63.5456 32.8732 69.4149Z" fill="#363738"/>
</g>
</svg>